<svg clip-rule="evenodd" fill-rule="evenodd" stroke-linejoin="round" stroke-miterlimit="2" viewBox="0 0 1500 844" xmlns="http://www.w3.org/2000/svg"><g fill-rule="nonzero"><g fill="#2e3192"><path d="m0-163.266c1.105-2.489 1.776-5.372 2.006-8.646.229-3.273-.935-5.879-3.488-7.826-1.759-1.563-3.674-2.897-5.747-4.001-2.075-1.099-4.303-.891-6.688.625-15.428 9.114-29.894 20.075-43.395 32.885-13.505 12.814-26.089 26.153-37.757 40.017-11.669 13.867-22.422 27.68-32.258 41.438-9.839 13.761-18.802 26.061-26.895 36.9 4.251-17.408 8.348-32.346 12.295-44.812 3.944-12.462 7.657-23.317 11.136-32.556 3.475-9.239 6.558-17.38 9.248-24.426 2.687-7.042 4.817-13.924 6.391-20.637.313-1.705.109-3.667-.614-5.887-.723-2.217-1.805-4.379-3.245-6.492-1.44-2.109-3.118-3.977-5.034-5.602-1.917-1.622-3.794-2.712-5.625-3.272-1.835-.555-3.549-.467-5.137.268-1.592.736-2.782 2.494-3.569 5.267-4.103 14.066-8.127 27.334-12.071 39.796-3.947 12.466-7.495 24.955-10.643 37.465-3.152 12.515-5.781 25.365-7.893 38.55-2.112 13.189-3.466 27.468-4.057 42.836.008 2.49.452 5.083 1.337 7.773.882 2.695 1.964 4.982 3.247 6.865 1.278 1.889 2.596 3.062 3.953 3.522 1.353.459 2.508-.293 3.458-2.261 1.106-2.158 2.096-4.423 2.967-6.796.867-2.371 2.095-4.836 3.682-7.401 7.927-12.807 16.651-26.068 26.169-39.782 9.519-13.71 19.755-27.197 30.708-40.459 10.953-13.259 22.542-26.037 34.775-38.326 12.23-12.289 25.023-23.416 38.375-33.382-3.959 8.233-7.995 17.349-12.107 27.344-4.115 10-7.945 20.413-11.498 31.24-3.553 10.831-6.747 21.772-9.582 32.822-2.835 11.055-4.917 21.748-6.239 32.075-1.325 10.33-1.853 20.169-1.586 29.511.266 9.342 1.761 17.552 4.493 24.618.639 1.563 1.442 2.899 2.401 4.002.959 1.102 1.916 1.583 2.872 1.44 1.433-.214 2.146-1.403 2.14-3.558-.009-3.156.061-5.783.216-7.881.151-2.101.382-4.503.696-7.204 1.714-12.383 4.226-25.709 7.529-39.991 3.304-14.277 7.205-28.73 11.702-43.353 4.498-14.624 9.552-28.995 15.167-43.124 5.612-14.124 11.667-27.317 18.165-39.584" transform="matrix(2.435785 0 0 2.435785 526.924988 664.45353)"/><path d="m0 28.32c.481 1.092 1.276.973 2.389-.356 3.013-3.603 5.671-7.656 7.969-12.152 2.295-4.492 2.879-8.901 1.754-13.217-.324-.949-1.043-1.714-2.158-2.295-1.118-.58-2.153-.963-3.11-1.155-1.755-.237-3.702.514-5.847 2.243-2.146 1.733-3.536 3.728-4.165 5.978-1.265 3.844-1.572 7.546-.923 11.1.645 3.559 2.01 6.844 4.091 9.854" transform="matrix(2.435785 0 0 2.435785 935.7778 289.710962)"/><path d="m0-79.903-.239.036-2.857 3.416c-5.713 7.497-11.508 14.964-17.379 22.4-5.874 7.44-12.064 15.129-18.571 23.077-2.701 3.229-4.845 5.542-6.432 6.939-1.59 1.401-2.23.831-1.916-1.707.153-1.35.547-3.321 1.178-5.906.627-2.585 1.335-5.307 2.126-8.166.787-2.857 1.537-5.586 2.246-8.183.71-2.597 1.219-4.581 1.536-5.959.787-2.94 1.495-5.744 2.126-8.415.627-2.667 1.336-5.47 2.126-8.414.947-3.131 1.058-6.138.332-9.019-.725-2.882-1.848-5.245-3.365-7.097-1.522-1.848-3.235-2.963-5.148-3.343-1.912-.376-3.584.286-5.012 1.994-1.426 2.704-2.535 5.279-3.323 7.721-2.687 8.21-5.005 17.234-6.97 27.076-.424 2.125-.786 4.23-1.095 6.318-4.849 5.846-9.756 11.918-14.723 18.217-5.714 7.248-11.829 14.015-18.341 20.301-.637.593-1.709 1.583-3.217 2.972-1.512 1.385-2.98 2.438-4.412 3.149-1.431.712-2.589.718-3.464.019-.88-.702-.845-2.863.1-6.493.943-4.625 2.52-9.22 4.739-13.787 2.216-4.566 4.633-9.119 7.248-13.664 2.616-4.54 5.189-9.12 7.726-13.734 2.533-4.614 4.513-9.269 5.934-13.966.627-2.418.78-4.889.456-7.418-.329-2.524-1.172-4.808-2.529-6.848-1.362-2.039-3.08-3.69-5.152-4.961-2.076-1.267-4.467-1.701-7.173-1.297-2.232.333-4.298 1.183-6.205 2.546-1.908 1.366-3.778 2.93-5.602 4.697-1.828 1.768-3.615 3.615-5.361 5.534-1.748 1.923-3.495 3.679-5.241 5.267.156-.187.475-.776.95-1.762.475-.981.951-2.01 1.425-3.077.475-1.068.95-2.049 1.425-2.954.476-.9.791-1.445.952-1.637.47-2.394.225-4.432-.735-6.118-.961-1.683-2.241-2.905-3.834-3.664-1.597-.758-3.229-.927-4.901-.514-1.671.417-2.983 1.441-3.933 3.078-1.903 2.943-3.924 6.69-6.061 11.244-2.137 4.555-4.195 9.389-6.17 14.5-.513 1.323-1.005 2.646-1.479 3.969-1.588 1.816-3.432 4.16-5.537 7.043-2.855 3.914-5.913 8.026-9.163 12.33-3.254 4.309-6.547 8.413-9.881 12.313-3.334 3.903-6.514 6.745-9.534 8.523-3.817 2.064-6.443 2.542-7.881 1.425-1.437-1.113-1.923-3.863-1.458-8.253.47-2.893 1.614-6.302 3.435-10.23 1.819-3.923 3.284-7.298 4.392-10.123.949-2.298 1.14-4.445.578-6.439-.566-1.991-1.605-3.58-3.12-4.767-1.519-1.182-3.313-1.705-5.381-1.564-2.072.146-4.141 1.202-6.204 3.168-.16.192-1.23 1.803-3.211 4.84-1.985 3.037-4.324 6.543-7.019 10.515-2.699 3.976-5.555 8.015-8.567 12.116-3.016 4.106-5.714 7.374-8.096 9.804-2.383 2.434-4.134 3.607-5.247 3.523-1.117-.082-1.202-2.351-.259-6.813.627-2.748 2.209-6.932 4.743-12.542 2.53-5.609 5.541-11.291 9.031-17.044 3.485-5.752 7.136-10.863 10.946-15.336 3.81-4.469 7.227-6.934 10.254-7.385 1.433-.214 2.588-.012 3.467.604.875.616 1.557 1.348 2.037 2.187.48.843.842 1.704 1.083 2.579.242.879.441 1.554.603 2.028.481.924.96 1.313 1.438 1.156.477-.153.991-.604 1.549-1.353.554-.744 1.029-1.648 1.426-2.704.392-1.055.748-2.105 1.066-3.149.627-2.749.381-5.164-.738-7.24-1.122-2.075-2.722-3.704-4.794-4.89-2.075-1.185-4.508-1.776-7.293-1.777-2.789.004-5.457.526-8 1.568-7.639 2.802-14.159 7.594-19.553 14.378-5.398 6.785-9.838 14.26-13.316 22.417-2.054 4.959-3.795 9.953-5.213 14.979-1.42 5.032-2.518 9.762-3.305 14.196-.151 1.685-.066 3.915.259 6.689.329 2.777 1.209 4.802 2.646 6.083 1.438 1.28 2.957 2.342 4.55 3.183 1.593.844 3.349 1.287 5.261 1.332 2.546.119 4.976-.283 7.284-1.211 2.305-.924 4.494-2.08 6.562-3.47 2.064-1.387 3.972-2.917 5.722-4.592 1.745-1.669 3.336-3.195 4.765-4.573.486 2.587 1.366 4.947 2.649 7.08 1.28 2.137 2.957 3.794 5.033 4.979 2.072 1.185 4.385 1.794 6.935 1.83 2.547.033 5.412-.769 8.595-2.404 5.089-2.752 9.817-6.155 14.189-10.214 4.368-4.054 8.338-8.551 11.908-13.487 1.358-1.877 2.664-3.801 3.918-5.771-.139 3.619-.128 7.216.037 10.786.004 1.332.09 2.564.25 3.7.164 1.14.407 2.35.727 3.629.964 2.683 2.72 2.919 5.26.71.316-.378.791-1.278 1.425-2.704 1.583-2.891 3.326-6.725 5.224-11.493 1.897-4.768 3.993-9.604 6.29-14.517 2.293-4.908 4.789-9.516 7.487-13.824 2.694-4.302 5.631-7.442 8.814-9.412 3.816-2.395 6.122-2.989 6.924-1.781.799 1.212.328 3.688-1.412 7.436-3.645 7.189-7.087 15.01-10.326 23.466-3.242 8.456-4.849 16.836-4.825 25.136.006 2.323.372 4.593 1.095 6.813.723 2.216 1.804 4.13 3.243 5.745 1.438 1.611 3.193 2.887 5.268 3.823 2.071.936 4.461 1.203 7.171.798 3.661-.546 7.639-2.678 11.929-6.389 4.291-3.716 8.46-8.075 12.507-13.078 4.048-5.003 7.737-10.124 11.067-15.355 1.741-2.733 3.281-5.239 4.631-7.529-.03 2.339.018 4.653.145 6.941.009 2.989.775 5.658 2.294 8.004 1.523 2.346 3.634 4.231 6.349 5.655.796.543 1.873.799 3.228.765 1.352-.038 2.747-.286 4.18-.749 1.432-.463 2.823-1.044 4.176-1.744 1.35-.7 2.423-1.444 3.219-2.225 2.223-2.324 4.288-4.789 6.192-7.401 1.586-1.732 3.728-4.5 6.427-8.309 2.696-3.805 5.511-7.962 8.447-12.472 2.933-4.506 5.747-8.912 8.444-13.219 2.695-4.303 4.835-7.823 6.421-10.551 0-.163.474-1.273 1.425-3.326.949-2.05 1.258-4.961.93-8.735z" transform="matrix(2.435785 0 0 2.435785 1030.801175 604.680833)"/><path d="m0 36.907c-1.026 4.14-2.806 8.431-5.339 12.88-2.538 4.447-5.471 8.622-8.805 12.526-3.334 3.9-6.593 6.839-9.771 8.808-.804-2.706-.377-6.133 1.283-10.282 1.661-4.152 3.799-8.415 6.415-12.792 2.616-4.376 5.43-8.491 8.447-12.347 3.013-3.852 5.394-6.824 7.143-8.914 1.441 2.611 1.649 5.982.627 10.121m48.001-51.013c-.48-.757-1.28-1.054-2.392-.888-1.755.262-4.261 1.095-7.52 2.492-3.263 1.402-6.682 3.033-10.261 4.895-3.579 1.865-7.001 3.703-10.259 5.517-3.262 1.818-5.688 3.258-7.276 4.325-1.275.688-2.069 1.017-2.386.979-.322-.034-.958-.48-1.916-1.334-.801-.71-1.797-1.682-2.996-2.916-1.198-1.231-2.397-2.508-3.595-3.824-1.199-1.316-2.398-2.589-3.596-3.823-1.198-1.231-2.119-2.3-2.757-3.202-1.441-2.607-1.969-5.35-1.577-8.235.387-2.88 1.257-5.502 2.605-7.863 1.345-2.358 2.892-4.294 4.643-5.801 1.747-1.506 3.257-2.187 4.534-2.047.159.642.562 1.746 1.204 3.309.64 1.567 1.043 2.67 1.205 3.308.805 3.204 2.051 6.67 3.735 10.405 1.683 3.735 4.277 6.007 7.785 6.811 1.914.548 3.108.202 3.582-1.033.474-1.231.548-2.655.226-4.269-.483-1.754-.965-3.383-1.448-4.891-.482-1.505-.965-3.259-1.449-5.265-.484-2.003-.849-4.44-1.097-7.311-.247-2.868-.377-6.628-.391-11.278-.003-1.16-.484-2.003-1.441-2.525-.957-.52-1.836-.887-2.632-1.103-.799-.211-1.715-.367-2.749-.461-1.038-.095-2.032-.32-2.989-.676-2.235-.663-4.344-.43-6.331.696-1.99 1.13-3.935 2.499-5.842 4.11-4.61 4.177-8.695 9.395-12.261 15.658s-5.339 12.631-5.32 19.106c.017 5.814 1.585 10.894 4.704 15.244 3.119 4.353 6.275 8.616 9.476 12.787-4.608 4.674-9.015 9.528-13.22 14.554-4.204 5.031-8.051 10.961-11.537 17.792-1.426 2.705-2.612 5.622-3.559 8.753-1.259 5.003-1.644 9.919-1.152 14.747.493 4.824 2.577 9.04 6.25 12.646 1.439 1.611 3.196 2.552 5.266 2.827 2.073.27 4.223.241 6.451-.091 3.979-.594 7.641-1.973 10.98-4.13 3.34-2.16 6.438-4.865 9.296-8.114 2.857-3.252 5.435-6.79 7.735-10.622 2.296-3.83 4.554-7.823 6.775-11.974 1.579-4.221 2.844-7.941 3.791-11.153.946-3.213 1.534-6.334 1.765-9.358.23-3.024-.059-6.095-.864-9.214-.807-3.118-2.17-6.777-4.094-10.974.477-.402 1.151-.834 2.028-1.3.872-.461 1.468-.881 1.788-1.263 3.017-2.443 6.594-5.009 10.731-7.705 4.132-2.692 7.549-5.07 10.254-7.137.316-.21 1.032-.733 2.146-1.565 1.11-.828 2.183-1.735 3.218-2.723 1.031-.983 1.865-1.937 2.501-2.865.632-.923.712-1.601.233-2.028" transform="matrix(2.435785 0 0 2.435785 1129.754202 422.515551)"/><path d="m0 27.698c3.497-3.181 6.593-6.465 9.291-9.858 1.748-2.09 3.415-4.289 4.998-6.6 1.588-2.316 2.536-4.988 2.844-8.024.158-.856-.005-1.58-.484-2.17-.479-.594-1.079-1.085-1.796-1.476-.718-.391-1.473-.528-2.272-.409-.795.119-1.51.557-2.147 1.317-2.222 2.325-3.769 4.549-4.64 6.673-.867 2.122-1.934 4.936-3.201 8.45-.155.521-.551 1.616-1.185 3.291-.63 1.671-1.185 3.33-1.658 4.982-.473 1.647-.746 2.933-.825 3.86-.076.922.282.911 1.075-.036" transform="matrix(2.435785 0 0 2.435785 1046.978196 281.5618)"/></g><path d="m0-39.409c-1.139.022-2.226.321-3.3.662-.465.148-.971.212-1.362.551-.448.178-.897.356-1.346.534-.416-.088-.738.173-1.083.314-1.386.567-2.704 1.278-4.043 1.946-1.083.541-2.107.486-3.107-.283-2.081-1.598-4.282-3.018-6.629-4.197-1.254-.63-2.521-1.243-3.942-1.415-.969-.118-1.503.198-1.869 1.089-.169.412-.293.839-.358 1.278-.509 3.436-.201 6.851.325 10.253.257 1.658.236 2.371-1.361 3.548-1.249.921-2.542 1.781-3.711 2.806-.146.128-.357.219-.318.474-.515.2-.804.677-1.221.996-.597.409-1.099.922-1.591 1.445-.722.767-1.421 1.55-1.83 2.54-.319.774-.198 1.339.421 1.876.248.216.517.416.8.585 1.811 1.076 3.819 1.64 5.827 2.192 1.559.428 3.135.796 4.755.931.041.062.092.072.155.033 1.396.23 2.08 1.194 2.51 2.427.547 1.569 1.182 3.102 1.932 4.586.915 1.812 1.823 3.627 3.25 5.115.817.852 1.682 1.129 2.791.192.62-.524 1.269-1.043 1.568-1.849.027-.026.055-.052.082-.078.102-.095.231-.173.302-.287.337-.539.902-.944.977-1.639.221-.055.274-.219.271-.42.033-.021.066-.041.099-.061.051.022.083.023.05-.047.009-.029.008-.059-.004-.088.241-.077.307-.304.422-.488.946-1.524 1.7-3.146 2.459-4.767.68-1.451 1.031-1.651 2.615-1.558.074.004.147.013.221.017 2.954.164 5.9.109 8.827-.353 1.059-.168 2.105-.393 3.023-.998.446-.295.673-.671.665-1.241-.011-.845-.316-1.59-.694-2.303-.657-1.238-1.422-2.407-2.238-3.552-1.038-1.457-2.149-2.847-3.38-4.135-1.079-1.129-1.439-2.316-.856-3.826.686-1.775 1.146-3.625 1.5-5.497.343-1.814.7-3.63.483-5.493-.157-1.346-.728-1.841-2.087-1.815" fill="#fffb6e" transform="matrix(2.435785 0 0 2.435785 652.499438 346.220682)"/><path d="m0-61.576c-1.779.034-3.479.502-5.156 1.035-.726.231-1.518.331-2.128.86-.701.278-1.402.557-2.103.835-.65-.138-1.154.27-1.693.49-2.166.886-4.225 1.998-6.316 3.041-1.693.845-3.292.76-4.856-.442-3.25-2.498-6.689-4.716-10.356-6.558-1.96-.985-3.94-1.942-6.16-2.211-1.514-.184-2.349.309-2.92 1.702-.264.644-.458 1.311-.559 1.996-.795 5.37-.315 10.705.507 16.02.401 2.59.369 3.705-2.127 5.545-1.951 1.438-3.971 2.781-5.798 4.383-.228.201-.558.343-.496.742-.805.311-1.257 1.056-1.909 1.556-.933.638-1.716 1.44-2.486 2.257-1.128 1.198-2.22 2.421-2.859 3.969-.499 1.208-.309 2.092.657 2.931.389.337.808.651 1.25.913 2.83 1.682 5.969 2.563 9.105 3.425 2.437.67 4.9 1.245 7.43 1.456.064.096.144.113.242.051 2.181.36 3.25 1.866 3.922 3.792.855 2.452 1.848 4.847 3.019 7.166 1.43 2.831 2.849 5.667 5.078 7.992 1.276 1.332 2.628 1.764 4.36.3.97-.819 1.983-1.63 2.45-2.889.043-.041.086-.081.129-.122.16-.148.361-.27.472-.448.527-.843 1.41-1.475 1.526-2.561.345-.086.429-.343.423-.657.052-.032.103-.064.155-.095.081.035.13.036.078-.073.014-.046.012-.092-.005-.138.375-.119.48-.475.658-.763 1.479-2.38 2.657-4.915 3.843-7.447 1.063-2.268 1.611-2.581 4.086-2.435.115.007.23.021.345.027 4.615.255 9.218.17 13.792-.553 1.654-.261 3.288-.614 4.723-1.558.698-.461 1.052-1.049 1.04-1.939-.018-1.321-.495-2.485-1.085-3.599-1.026-1.934-2.222-3.761-3.497-5.55-1.622-2.275-3.358-4.448-5.281-6.46-1.686-1.764-2.248-3.62-1.337-5.978 1.071-2.774 1.79-5.665 2.343-8.589.535-2.835 1.094-5.672.755-8.583-.245-2.103-1.137-2.876-3.261-2.836" fill="#fffb6e" transform="matrix(2.435785 0 0 2.435785 1366.884672 355.148077)"/><path d="m0-47.636c-1.377.026-2.691.388-3.989.801-.562.178-1.174.256-1.646.665-.542.215-1.085.431-1.627.646-.503-.107-.893.209-1.31.379-1.675.685-3.268 1.546-4.886 2.353-1.309.653-2.547.587-3.756-.342-2.515-1.933-5.175-3.649-8.012-5.074-1.516-.762-3.048-1.502-4.766-1.71-1.17-.142-1.817.239-2.259 1.316-.204.499-.354 1.014-.432 1.545-.615 4.154-.244 8.281.393 12.393.309 2.004.285 2.866-1.646 4.289-1.509 1.113-3.072 2.152-4.485 3.392-.177.155-.432.265-.384.573-.623.241-.973.818-1.477 1.204-.722.494-1.328 1.114-1.923 1.747-.873.926-1.718 1.872-2.212 3.07-.386.935-.239 1.618.509 2.267.3.261.625.503.967.707 2.189 1.301 4.617 1.983 7.043 2.649 1.885.518 3.79.963 5.748 1.127.049.074.112.087.187.039 1.687.278 2.514 1.443 3.034 2.934.662 1.896 1.43 3.749 2.336 5.543 1.106 2.19 2.204 4.384 3.928 6.183.988 1.03 2.033 1.364 3.373.232.751-.634 1.535-1.261 1.896-2.235.033-.031.066-.063.099-.095.124-.114.28-.208.366-.346.407-.652 1.09-1.141 1.18-1.981.267-.067.332-.265.327-.508.04-.025.08-.05.12-.074.063.027.101.028.06-.056.011-.036.01-.072-.003-.107.29-.093.371-.368.509-.59 1.144-1.842 2.055-3.803 2.973-5.762.822-1.754 1.246-1.996 3.161-1.883.089.005.177.016.266.021 3.571.197 7.132.131 10.671-.428 1.279-.202 2.543-.475 3.653-1.206.54-.356.814-.811.804-1.499-.014-1.022-.382-1.923-.839-2.785-.794-1.496-1.719-2.909-2.705-4.293-1.255-1.761-2.598-3.442-4.086-4.998-1.304-1.364-1.739-2.8-1.034-4.625.829-2.146 1.385-4.382 1.812-6.644.415-2.193.847-4.388.585-6.64-.19-1.627-.88-2.225-2.523-2.194" fill="#fffb6e" transform="matrix(2.435785 0 0 2.435785 1185.893439 248.949077)"/></g></svg>