<?xml version="1.0" encoding="UTF-8" standalone="no"?>
<!DOCTYPE svg PUBLIC "-//W3C//DTD SVG 1.1//EN" "http://www.w3.org/Graphics/SVG/1.1/DTD/svg11.dtd">
<svg width="100%" height="100%" viewBox="0 0 1500 844" version="1.1" xmlns="http://www.w3.org/2000/svg" xmlns:xlink="http://www.w3.org/1999/xlink" xml:space="preserve" xmlns:serif="http://www.serif.com/" style="fill-rule:evenodd;clip-rule:evenodd;stroke-linejoin:round;stroke-miterlimit:2;">
    <g id="Capa-1" serif:id="Capa 1" transform="matrix(0.979092,0,0,0.979092,35.387973,303.176509)">
        <g transform="matrix(1,0,0,1,406.1134,39.5361)">
            <path d="M0,51.617C-4.35,55.444 -12.08,57.355 -23.187,57.355L-54.155,57.355L-54.155,13.653L-22.716,13.653C-11.923,13.653 -4.35,15.54 0,19.313C4.347,23.085 6.523,28.327 6.523,35.033C6.523,42.264 4.347,47.793 0,51.617M61.249,83.477C54.957,79.798 47.466,76.901 38.75,74.804C49.648,71.031 57.928,65.898 63.587,59.399C72.076,49.652 76.321,37.968 76.321,24.343C76.321,8.1 70.371,-5.525 58.478,-16.529C46.582,-27.533 29.527,-33.035 7.31,-33.035L-125.996,-33.035L-125.996,66.388C-61.132,77.079 5.807,84.652 61.249,83.477" style="fill:rgb(57,98,181);fill-rule:nonzero;"/>
        </g>
        <g transform="matrix(1,0,0,1,414.2089,161.9665)">
            <path d="M0,18.948C-5.03,23.298 -13.677,25.472 -25.938,25.472L-62.251,25.472L-62.251,-21.217L-26.095,-21.217C-13.625,-21.217 -4.9,-19.146 0.079,-15.007C5.055,-10.866 7.546,-5.391 7.546,1.42C7.546,8.757 5.031,14.6 0,18.948M53.154,-38.953C-2.289,-37.778 -69.228,-45.351 -134.092,-56.042L-134.092,74.99L-11.161,74.99C-5.922,74.99 4.716,73.943 20.751,71.846C32.801,70.273 41.816,67.759 47.789,64.3C57.43,58.746 65.027,51.201 70.583,41.663C76.136,32.128 78.915,21.384 78.915,9.437C78.915,-5.234 75.009,-17.417 67.203,-27.112C63.505,-31.702 58.814,-35.644 53.154,-38.953" style="fill:rgb(40,63,136);fill-rule:nonzero;"/>
        </g>
        <g transform="matrix(1,0,0,1,712.4173,32.7063)">
            <path d="M0,59.626L-110.826,59.626L-110.826,22.998L8.646,22.998L8.646,-26.205L-182.195,-26.205L-182.195,85.831C-139.066,81.934 -75.54,75.866 0,68.894L0,59.626Z" style="fill:rgb(57,98,181);fill-rule:nonzero;"/>
        </g>
        <g transform="matrix(1,0,0,1,724.5215,153.7908)">
            <path d="M0,30.975L-122.93,30.975L-122.93,-14.456L-12.104,-14.456L-12.104,-52.19C-87.644,-45.218 -151.17,-39.15 -194.299,-35.253L-194.299,83.165L0,83.165L0,30.975Z" style="fill:rgb(40,63,136);fill-rule:nonzero;"/>
        </g>
        <g transform="matrix(1,0,0,1,990.3467,93.7932)">
            <path d="M0,-87.292L-78.676,-87.292L-125.202,-9.547L-171.633,-87.292L-250.734,-87.292L-192.232,0C-147.075,-4.054 -99.263,-8.24 -50.134,-12.355L0,-87.292Z" style="fill:rgb(57,98,181);fill-rule:nonzero;"/>
        </g>
        <g transform="matrix(1,0,0,1,900.743,162.6715)">
            <path d="M0,-22.236L39.47,-81.233C-9.659,-77.118 -57.472,-72.932 -102.628,-68.879L-71.369,-22.236L-71.369,58.997C-48.132,55.481 -24.264,51.918 0,48.356L0,-22.236Z" style="fill:rgb(40,63,136);fill-rule:nonzero;"/>
        </g>
        <g transform="matrix(0,-1,-1,0,878.023,188.3071)">
            <path d="M-48.649,-22.72L-22.72,-22.72C-26.282,1.544 -29.846,25.412 -33.362,48.649L-48.649,48.649L-48.649,-22.72Z" style="fill:rgb(57,98,181);fill-rule:nonzero;"/>
        </g>
        <g transform="matrix(1,0,0,1,1061.558,15.8506)">
            <path d="M0,47.714C0,42.684 2.095,38.415 6.288,34.902C10.478,31.392 16.715,29.636 24.994,29.636C35.055,29.636 42.94,31.994 48.653,36.71C52.805,40.139 55.914,45.072 57.989,51.493C80.635,49.848 103.22,48.267 125.624,46.767C121.687,27.272 112.956,12.732 99.428,3.148C83.969,-7.802 61.517,-13.279 32.069,-13.279C8.068,-13.279 -10.822,-10.266 -24.602,-4.24C-38.384,1.787 -48.708,10.065 -55.57,20.597C-62.435,31.129 -65.867,42.318 -65.867,54.159C-65.867,56.491 -65.75,58.768 -65.525,60.993C-42.764,59.154 -19.834,57.346 3.136,55.587C1.054,53.184 0,50.561 0,47.714" style="fill:rgb(57,98,181);fill-rule:nonzero;"/>
        </g>
        <g transform="matrix(1,0,0,1,1196.1211,89.5528)">
            <path d="M0,72.419C0,59.843 -3.066,48.473 -9.196,38.306C-15.327,28.143 -25.127,19.627 -38.593,12.762C-52.061,5.899 -74.355,-0.888 -105.481,-7.596C-118.057,-10.214 -126.023,-13.044 -129.376,-16.084C-130.151,-16.742 -130.826,-17.421 -131.427,-18.115C-154.397,-16.356 -177.327,-14.548 -200.089,-12.709C-198.578,2.265 -191.989,14.817 -180.308,24.944C-167,36.577 -144.73,45.906 -113.499,52.926C-94.426,57.119 -82.27,61.572 -77.028,66.288C-71.789,71.004 -69.168,76.349 -69.168,82.322C-69.168,85.222 -69.76,87.957 -70.93,90.534C-47.107,87.508 -23.59,84.623 -0.596,81.923C-0.207,78.809 0,75.643 0,72.419" style="fill:rgb(40,63,136);fill-rule:nonzero;"/>
        </g>
        <g transform="matrix(1,0,0,1,1063.7584,172.0479)">
            <path d="M0,9.574C-4.507,3.812 -7.494,-4.574 -8.96,-15.578L-76.713,-11.334C-75.555,2.218 -72.156,14.373 -66.55,25.152C-42.502,21.793 -18.374,18.495 5.62,15.302C3.58,13.64 1.701,11.738 0,9.574" style="fill:rgb(40,63,136);fill-rule:nonzero;"/>
        </g>
        <g transform="matrix(1,0,0,1,1094.0981,171.4762)">
            <path d="M0,69.41C22.323,69.41 40.818,66.187 55.491,59.742C70.162,53.297 81.587,43.84 89.761,31.367C96.152,21.618 100.033,11.159 101.427,0C78.433,2.7 54.916,5.585 31.093,8.61C29.726,11.622 27.567,14.414 24.602,16.984C19.1,21.754 11.264,24.136 1.1,24.136C-9.364,24.136 -17.966,21.375 -24.72,15.873C-48.714,19.067 -72.842,22.365 -96.89,25.723C-92.873,33.449 -87.73,40.473 -81.43,46.773C-66.339,61.864 -39.197,69.41 0,69.41" style="fill:rgb(57,98,181);fill-rule:nonzero;"/>
        </g>
        <g transform="matrix(0.99829,-0.058447,-0.058447,-0.99829,1121.874153,77.092647)">
            <path d="M-0.312,1.917L66.928,1.917C66.736,4.917 66.441,7.822 66.043,10.632C43.589,10.445 20.95,10.187 -1.754,9.869C-1.117,7.417 -0.632,4.771 -0.312,1.917" style="fill:rgb(40,63,136);fill-rule:nonzero;"/>
        </g>
        <g transform="matrix(-1,0,0,1,1293.3641,57.0472)">
            <path d="M-79.784,-50.546L-2.108,-50.546L16.89,0C-22.341,-2.252 -60.436,-4.153 -96.674,-5.597L-79.784,-50.546Z" style="fill:rgb(57,98,181);fill-rule:nonzero;"/>
        </g>
        <g transform="matrix(1,0,0,1,1333.4354,152.166)">
            <path d="M0,-85.929L26.891,2.803C51.257,0.943 73.789,-0.41 94.013,-1.159L56.603,-100.715C20.364,-99.272 -17.73,-97.37 -56.961,-95.119L-98.269,14.786C-74.129,12.115 -50.749,9.69 -28.409,7.571L0,-85.929Z" style="fill:rgb(40,63,136);fill-rule:nonzero;"/>
        </g>
        <g transform="matrix(0.290714,-0.95681,-0.95681,-0.290714,1301.040802,186.01045)">
            <path d="M-54.407,3.825L26.297,3.825C17.775,24.584 8.658,46.249 -0.915,68.57L-75.545,73.394L-54.407,3.825Z" style="fill:rgb(57,98,181);fill-rule:nonzero;"/>
        </g>
        <g transform="matrix(1,0,0,1,1385.1741,151.0071)">
            <path d="M0,85.949L74.571,85.949L42.274,0C22.05,0.749 -0.482,2.102 -24.847,3.962L0,85.949Z" style="fill:rgb(57,98,181);fill-rule:nonzero;"/>
        </g>
        <g transform="matrix(1,0,0,1,96.4408,228.6014)">
            <path d="M0,-215.508C-2.311,-215.508 -4.4,-217.099 -4.938,-219.448C-5.563,-222.178 -3.856,-224.897 -1.126,-225.522C16.682,-229.599 35.684,-229.629 53.514,-225.608C56.246,-224.992 57.961,-222.278 57.345,-219.546C56.728,-216.815 54.011,-215.099 51.284,-215.716C34.925,-219.404 17.476,-219.377 1.136,-215.637C0.756,-215.55 0.375,-215.508 0,-215.508M132.403,-152.033C130.521,-152.033 128.714,-153.085 127.837,-154.892C120.51,-170.002 109.667,-183.534 96.48,-194.024C94.29,-195.767 93.926,-198.957 95.669,-201.149C97.413,-203.34 100.602,-203.704 102.794,-201.96C117.162,-190.53 128.977,-175.784 136.962,-159.317C138.184,-156.797 137.131,-153.764 134.612,-152.542C133.899,-152.196 133.145,-152.033 132.403,-152.033M-79.799,-151.696C-80.536,-151.696 -81.284,-151.857 -81.992,-152.198C-84.516,-153.412 -85.578,-156.441 -84.364,-158.965C-76.432,-175.459 -64.662,-190.243 -50.327,-201.721C-48.143,-203.47 -44.95,-203.117 -43.2,-200.931C-41.45,-198.745 -41.804,-195.554 -43.989,-193.804C-57.146,-183.271 -67.947,-169.704 -75.226,-154.57C-76.098,-152.755 -77.911,-151.696 -79.799,-151.696M132.502,-49.631C131.763,-49.631 131.013,-49.793 130.303,-50.135C127.781,-51.351 126.722,-54.382 127.938,-56.905C135.322,-72.214 139.065,-88.662 139.065,-105.792L139.064,-106.047C139.064,-108.847 141.334,-111.117 144.135,-111.117C146.935,-111.117 149.205,-108.847 149.205,-106.047L149.206,-105.851C149.206,-87.124 145.124,-69.194 137.073,-52.5C136.198,-50.687 134.388,-49.631 132.502,-49.631M-79.684,-49.523C-81.568,-49.523 -83.378,-50.577 -84.252,-52.387C-92.321,-69.072 -96.422,-86.995 -96.441,-105.659C-96.444,-108.46 -94.176,-110.732 -91.375,-110.735L-91.37,-110.735C-88.573,-110.735 -86.303,-108.468 -86.3,-105.67C-86.282,-88.544 -82.522,-72.102 -75.124,-56.802C-73.904,-54.281 -74.959,-51.249 -77.48,-50.03C-78.191,-49.686 -78.944,-49.523 -79.684,-49.523M52.632,14.095C50.318,14.095 48.229,12.501 47.693,10.15C47.071,7.42 48.78,4.702 51.511,4.08C67.872,0.354 83.484,-7.178 96.659,-17.704C98.846,-19.451 102.038,-19.096 103.786,-16.907C105.534,-14.719 105.177,-11.528 102.99,-9.78C88.627,1.692 71.605,9.904 53.762,13.968C53.383,14.054 53.005,14.095 52.632,14.095M0.247,14.121C-0.124,14.121 -0.501,14.079 -0.878,13.994C-18.727,9.948 -35.758,1.753 -50.131,-9.707C-52.321,-11.453 -52.68,-14.643 -50.934,-16.833C-49.187,-19.023 -45.999,-19.381 -43.809,-17.637C-30.624,-7.123 -15.003,0.394 1.364,4.104C4.095,4.724 5.806,7.439 5.187,10.17C4.654,12.524 2.563,14.121 0.247,14.121" style="fill:rgb(242,221,0);fill-rule:nonzero;"/>
        </g>
        <g transform="matrix(0,-1,-1,0,122.824,31.7824)">
            <path d="M-91.027,-91.027C-141.3,-91.027 -182.054,-50.273 -182.054,0C-182.054,50.273 -141.3,91.027 -91.027,91.027C-40.754,91.027 0,50.273 0,0C0,-50.273 -40.754,-91.027 -91.027,-91.027" style="fill:rgb(242,221,0);fill-rule:nonzero;"/>
        </g>
    </g>
</svg>
