<?xml version="1.0" encoding="UTF-8" standalone="no"?>
<!DOCTYPE svg PUBLIC "-//W3C//DTD SVG 1.1//EN" "http://www.w3.org/Graphics/SVG/1.1/DTD/svg11.dtd">
<svg width="100%" height="100%" viewBox="0 0 512 512" version="1.1" xmlns="http://www.w3.org/2000/svg" xmlns:xlink="http://www.w3.org/1999/xlink" xml:space="preserve" xmlns:serif="http://www.serif.com/" style="fill-rule:evenodd;clip-rule:evenodd;stroke-linejoin:round;stroke-miterlimit:2;">
    <g id="Capa-1" serif:id="Capa 1" transform="matrix(12.357559,0,0,12.042597,135.853628,95.351634)">
        <g transform="matrix(0,-2.012136,-1.976508,0,9.7225,-6.095536)">
            <path d="M-9.722,-9.722C-15.092,-9.722 -19.445,-5.369 -19.445,0.001C-19.445,5.37 -15.092,9.722 -9.722,9.722C-4.352,9.722 0.001,5.37 0.001,0.001C0.001,-5.369 -4.352,-9.722 -9.722,-9.722" style="fill:rgb(44,44,44);fill-rule:nonzero;"/>
        </g>
        <g transform="matrix(0,-2.012136,-1.976508,0,9.7225,-6.095536)">
            <path d="M-9.722,-10.481C-15.517,-10.481 -20.224,-5.794 -20.224,0.001C-20.224,5.794 -15.517,10.481 -9.722,10.481C-3.928,10.481 0.779,5.794 0.779,0.001C0.779,-5.794 -3.928,-10.481 -9.722,-10.481ZM-9.722,-8.964C-4.777,-8.964 -0.778,-4.945 -0.778,0.001C-0.778,4.945 -4.777,8.964 -9.722,8.964C-14.668,8.964 -18.667,4.945 -18.667,0.001C-18.667,-4.945 -14.668,-8.964 -9.722,-8.964Z" style="fill:white;"/>
        </g>
        <g transform="matrix(1.976508,0,0,2.012136,20.390701,13.258802)">
            <path d="M0,0.209C-0.2,-0.207 -0.451,-0.595 -0.716,-0.973C-1.3,-1.789 -1.983,-2.528 -2.695,-3.233C-3.067,-3.615 -4.438,-4.851 -4.725,-5.116C-4.937,-5.293 -5.15,-5.475 -5.396,-5.604C-5.716,-5.437 -5.986,-5.189 -6.255,-4.95C-6.499,-4.718 -7.447,-3.881 -7.658,-3.676C-8.319,-3.021 -8.98,-2.364 -9.567,-1.641C-10.031,-1.071 -10.461,-0.467 -10.788,0.192C-11.059,0.762 -11.224,1.428 -11.032,2.048C-10.93,2.424 -10.732,2.773 -10.463,3.056C-10.085,3.464 -9.572,3.723 -9.044,3.883C-8.581,4.018 -8.096,4.069 -7.615,4.055C-7.449,4.064 -7.287,4.027 -7.123,4.017C-7.026,4.014 -6.95,4.134 -7.017,4.213C-7.131,4.316 -8.83,5.378 -8.97,5.484C-9.028,5.526 -9.01,5.61 -8.974,5.66C-8.912,5.762 -8.786,5.794 -8.676,5.81C-8.387,5.813 -2.5,5.805 -2.147,5.811C-2.004,5.804 -1.821,5.743 -1.79,5.583C-1.77,5.511 -1.843,5.469 -1.892,5.434C-2.034,5.318 -3.654,4.319 -3.769,4.225C-3.819,4.178 -3.805,4.108 -3.775,4.055C-3.67,3.984 -3.545,4.036 -3.43,4.044C-2.644,4.099 -1.827,3.995 -1.119,3.632C-0.726,3.442 -0.377,3.156 -0.122,2.801C0.117,2.468 0.264,2.073 0.312,1.667C0.356,1.163 0.211,0.663 0,0.209" style="fill:white;fill-rule:nonzero;"/>
        </g>
        <g transform="matrix(1.976508,0,0,2.012136,-9.494097,-6.096542)">
            <g opacity="0.1">
                <g transform="matrix(1,0,0,1,9.7225,0.0005)">
                    <path d="M0,12.891C4.113,12.891 7.667,10.493 9.339,7.019C8.167,2.965 4.431,0 0,0C-4.431,0 -8.167,2.965 -9.339,7.019C-7.667,10.493 -4.114,12.891 0,12.891" style="fill:white;fill-rule:nonzero;"/>
                </g>
            </g>
        </g>
    </g>
</svg>
