<svg clip-rule="evenodd" fill-rule="evenodd" stroke-linejoin="round" stroke-miterlimit="2" viewBox="0 0 512 512" xmlns="http://www.w3.org/2000/svg"><path d="m-9.722-9.722c-5.37 0-9.723 4.353-9.723 9.723 0 5.369 4.353 9.721 9.723 9.721s9.723-4.352 9.723-9.721c0-5.37-4.353-9.723-9.723-9.723" fill="#2c2c2c" fill-rule="nonzero" transform="matrix(0 -24.23134295719 -24.42481422397 0 255.9999953775 21.94555045301)"/><g fill="#fff"><path d="m-9.722-10.481c-5.795 0-10.502 4.687-10.502 10.482 0 5.793 4.707 10.48 10.502 10.48 5.794 0 10.501-4.687 10.501-10.48 0-5.795-4.707-10.482-10.501-10.482zm0 1.517c4.945 0 8.944 4.019 8.944 8.965 0 4.944-3.999 8.963-8.944 8.963-4.946 0-8.945-4.019-8.945-8.963 0-4.946 3.999-8.965 8.945-8.965z" transform="matrix(0 -24.23134295719 -24.42481422397 0 255.9999953775 21.94555045301)"/><path d="m0 .209c-.2-.416-.451-.804-.716-1.182-.584-.816-1.267-1.555-1.979-2.26-.372-.382-1.743-1.618-2.03-1.883-.212-.177-.425-.359-.671-.488-.32.167-.59.415-.859.654-.244.232-1.192 1.069-1.403 1.274-.661.655-1.322 1.312-1.909 2.035-.464.57-.894 1.174-1.221 1.833-.271.57-.436 1.236-.244 1.856.102.376.3.725.569 1.008.378.408.891.667 1.419.827.463.135.948.186 1.429.172.166.009.328-.028.492-.038.097-.003.173.117.106.196-.114.103-1.813 1.165-1.953 1.271-.058.042-.04.126-.004.176.062.102.188.134.298.15.289.003 6.176-.005 6.529.001.143-.007.326-.068.357-.228.02-.072-.053-.114-.102-.149-.142-.116-1.762-1.115-1.877-1.209-.05-.047-.036-.117-.006-.17.105-.071.23-.019.345-.011.786.055 1.603-.049 2.311-.412.393-.19.742-.476.997-.831.239-.333.386-.728.434-1.134.044-.504-.101-1.004-.312-1.458" fill-rule="nonzero" transform="matrix(24.42481422397 0 0 24.23134295719 387.83291865886 255.02204318879)"/><path d="m0 12.891c4.113 0 7.667-2.398 9.339-5.872-1.172-4.054-4.908-7.019-9.339-7.019s-8.167 2.965-9.339 7.019c1.672 3.474 5.225 5.872 9.339 5.872" fill-rule="nonzero" opacity=".1" transform="matrix(24.42481422397 0 0 24.23134295719 256.00002046334 21.9455512719)"/></g></svg>