<svg clip-rule="evenodd" fill-rule="evenodd" stroke-linejoin="round" stroke-miterlimit="2" viewBox="0 0 750 422" xmlns="http://www.w3.org/2000/svg" xmlns:xlink="http://www.w3.org/1999/xlink"><clipPath id="a"><path clip-rule="evenodd" d="m35.071 77.153h679.859v267.34h-679.859z"/></clipPath><path d="m35.071 77.153h679.859v267.34h-679.859z" fill="none"/><g clip-path="url(#a)"><path d="m164.812 315.292c-.118-.176-.191-.385-.198-.618.906-12.214-3.886-31.446 8.503-38.551.47.204 2.736.171 2.745.683.159 9.218.487 19.107.953 28.504.075 1.517.154 3.02.236 4.506-2.46 2.438-7.689 3.263-10.306 5.774-.596.529-1.529.309-1.933-.297zm-46.142 7.374c-2.248 2.144-6.588 2.792-9.581 2.294-1.995-2.115-1.433-6.751-.627-11.17.515-2.821 1.129-5.552 1.241-7.484 6.762-24.275 12.666-64.073 44.75-60.403-5.616 9.116-8.755 19.737-8.51 30.866-.747 6.811.987 9.294 6.796 11.875-.609 4.389-11.9 1.445-13.096.917-1.485-1.065-3.137 3.639-3.498 1.649-3.066-11.16.405-25.994 5.498-36.316-5.975 10.387-11.517 26.914-6.315 38.166 3.445 2.665 5.553 5.076-1.492 5.501-3.658 3.095-4.54 7.609-6.935 8.252-7.239-2.247-4.741-15.4-5.191-18.693-1.909 6.47-3.967 16.953 4.423 20.13 3.174 5.158-7.41 2.631-9.835 2.631-4.765 1.602 3.725 4.685 3.725 7.321.388 1.904-.214 3.377-1.354 4.465zm17.047 6.335c-.006.484-.005.965.003 1.44-2.049 2.909-6.487 4.079-9.274 6.459-7.992 6.911-6.77-.37-4.775-7.707.552-2.029 1.163-4.063 1.654-5.802.44-1.558.784-2.879.904-3.749 2.455-7.855 7.32-11.79 11.384-18.406.338-.482.957-.676 1.51-.474 1.677 4.108-.307 13.537-1.106 22.694-.164 1.876-.277 3.741-.3 5.546zm-77.769-163.127c-1.31-1.689-2.221-3.69-2.568-5.99.756-2.472 1.626-4.938 2.568-7.401 4.173-10.915 9.76-21.759 13.126-32.617-3.181.051-9.272.688-9.194-3.99-.224-1.351.892-2.726 2.273-3.494 1.314-.732 2.867-.914 3.73 0 .19.2.346.454.458.766-.001.691-.586 1.263-1.322 1.263-2.358-.688-3.647 2.664-.912 2.93h4.966c-.702-3.391 4.445-3.374 3.74 0h1.678c.278-1.667.358-3.317.33-4.959-.18-10.899-5.07-21.387 12.143-33.52 4.99-3.168 17.252-2.245 15.522 5.454-1.195 13.764-1.422 15.485-7.374 14.955v18.069h14.457c-.705-3.376 4.442-3.389 3.74 0h4.966c2.734-.268 1.445-3.618-.912-2.93-1.454-.187-1.549-1.316-.945-2.029.389-.459 1.067-.745 1.858-.496.642.112 1.213.282 1.712.496 2.841 1.223 3.362 3.907 1.636 5.763-1.348 1.449-4.064 2.394-8.115 1.747-.053-.008-.106-.018-.16-.026l.031.08c5.005 12.746 10.182 25.585 15.559 38.331 1.061 8.882-9.213 14.4-17.287 14.187-2.324-.023-4.717-.418-6.957-1.156-5.98-1.972-10.871-6.398-10.441-12.772 3.242-9.019 7.722-18.127 11.354-27.232.967-2.425 1.875-4.85 2.682-7.273.462-1.389.892-2.777 1.283-4.164h-14.459c.193 1.472-.16 3.297-2.073 2.916-1.567.027-1.469-1.823-1.418-2.916h-18.81c4.353 12.879 10.097 25.651 15.215 38.451 1.761 5.51-5.645 11.281-9.477 12.812 2.786 8.879 7.233 13.647 17.644 16.585 2.314 1.088 5.243 1.975 8.502 2.847 8.029 2.148 18.059 4.203 25.807 8.93-6.909.013-16.567-2.15-25.807-5.067-8.767-2.768-17.158-6.216-22.47-9.129-3.237-3.212-4.313-7.886-5.862-13.441-7.184 1.827-16.032-.332-20.413-5.98zm21.268-53.492c-.018 1.542-.056 3.194-.12 4.959h14.523v-18.293c-1.68.207-3.884 3.037-5.161 3.904 1.39-7.061 6.01-5.718 11.308-5.758 1.7-1.409 2.482-9.396 2.32-15.523-10.231-8.544-24.877 11.953-23.194 13.802-.157 2.46.43 7.772.324 16.909zm27.585 26.762c-2.225 5.538-4.478 11.082-6.988 16.999 2.228-.486 4.535-.846 6.881-1.084 6.898-.699 14.133-.335 20.693 1.04-5.127-11.162-8.565-21.518-13.023-32.742-.4.233-.86.309-1.3.209-2.184 5.378-4.212 10.475-6.262 15.579zm-.108 17.978c-2.552.262-5.077.707-7.285 1.547 2.304.831 4.76 1.438 7.285 1.826 7.159 1.103 14.869.454 21.248-1.823-4.27-1.631-9.725-1.771-14.269-1.979-2.191.099-4.596.184-6.978.428zm-33.805-.428c-4.496.205-9.902.351-14.129 1.975 8.748 3.185 19.725 3.082 28.264.004-4.227-1.63-9.632-1.771-14.135-1.979zm-.545-33.187c-4.535 11.235-8.393 21.25-13.197 32.638 8.699-1.917 18.626-1.889 27.338-.045-5.061-11.131-8.446-21.443-12.846-32.628-.416.155-.867.193-1.295.035zm105.814 180.199c.528-12.956-1.096-27.064.21-39.119 8.127-1.853 9.727 9.024 10.226 20.03.345 7.606.164 15.273 1.249 18.842-1.603 3.115-6.314 2.411-9.935 5.479-.811.552-2.011-.079-2.003-1.066.114-1.372.197-2.763.254-4.166zm-27.473 17.421c-.479-2.588 1.663-8.512.943-15.068.644-7.791.146-19.671 10.05-21.158.55.106.971.553 1.043 1.108.37 8.914-.413 22.195-1.279 31.111-.051.528-.103 1.04-.154 1.536-7.827 4.457-10.189 4.704-10.603 2.472zm38.733-38.771c-.137-2.888-.029-5.663.591-8.205.532.187 1.071.6 1.605 1.194 4.447 4.937 8.65 22.354 6.539 25.959-2.055.229-6.124 3.857-7.139.894.264-6.264-1.289-13.338-1.597-19.842zm2.699-8.866c-1.324-1.557-1.122-3.927-.087-7.949-7.299.779-7.049 3.243-8.595-5.091-1.317 1.63-4.523-2.455-5.036 1.04.1.67-.332 1.305-.993 1.458-2.788-.45-4.87-10.376-5.624-14.131-.045-.841.867-1.569 1.668-1.279 10.446 3.722 17.213 8.504 21.435 12.953 3.586 3.778 5.335 7.316 5.945 9.76.768 3.06 3.311 11.891-2.166 5.862-3.418-.639-5.479-1.366-6.546-2.622zm-21.311-143.126c-9.385-2.115-17.903 3.777-28.837 3.761 3.195 15.425 6.896 27.051 2.368 25.578-8.044-4.171-5.165-8.837-8.474-16.677-.065.174-.13.348-.195.522-.4-1.023-.536-2.132-.427-3.219-1.926-4.164 2.198-8.425 5.971-9.937 2.311-.894 3.469-3.405-1.434-1.518-1.194.461-2.695.969-2.695.969-3.781-4.851 8.871-4.437 11.504-5.83-3.668-2.168-8.18.583-11.685 2.049.071-.923-.439-1.503-.439-1.503-.433-1.837-.181-4.061.587-6.345.637-1.894 1.627-3.829 2.875-5.618 2.498-3.581 6.025-6.576 9.798-7.487 3.697-2.263 12.383-5.442 14.051-1.512-.283.874 9.551.564 9.554 3.477.573 1.202 1.995 1.919 2.213 2.031 2.296 1.178 3.692 6.682 6.399 8.527.296.237.466.894.514 1.721.12 2.093-.548 5.265-1.974 5.401-.885.516-.613 2.086-.409 3.216 0 0-.567 1.446.14 3.037.384.866.118 1.387-.517 2.069-.157 1.744-.327 3.689-.586 5.697-1.012 7.836-3.369 16.633-11.446 18.228-3.275 3.486-.21 12.965 2.332 16.557 2.816-.161 4.595 2.595 5.721 4.797 1.168 2.152 3.125 1.005 1.334-1.085 7.232 1.063 5.804 9.829 6.81 15.125 2.008 5.225 7.748 9.27 8.029 15.14-.747 7.26-6.117 14.534-1.895 21.928 2.603 3.181 3.721 11.558-2.584 9.648 2.968-1.904 2.571-6.515-1.537-2.053-2.719 2.174-6.23-.381-8.006-2.654 2.198-.654 7.111 2.186 7.296-1.64-1.2-3.336-9.391 2.007-7.51-3.78 2.086-5.854-2.498.008-2.66 2.54-1.654-5.289-5.919-2.049-10.008-.158 4.077-5.029 5.794-8.998 5.947-15.112 5.659-5.255 8.464-11.9 8.175-19.545-2.791 19.494-10.92 6.717-15.844-3.7 10.267 7.373 13.126 7.592 11.458-10.905-.935-6.26-6.441-7.286-9.539-12.83-7.261-16.59 9.815-8.448 12.444-32.315.118-1.07.207-2.204.263-3.408-2.445-1.676-4.789-2.67-7.083-3.186zm-25.209-11.03c-.458.536-.853 1.152-1.166 1.869 2.229.051 4.552-.189 6.917-.541 10.156-1.513 21.087-5.098 28.669 3.423-.41-.716-.918-1.598-1.266-2.249-.034.039-.069.078-.104.116-.889-1.697-1.724-3.144-2.509-4.374-8.774-13.744-11.516-.453-18.158-4.849-.445.468-.975.86-1.565 1.202-3.184 1.843-8.107 2.234-10.817 5.404zm-7.18 209.528c-.622-.054-1.045-.418-1.166-1.232.274-1.362.479-2.811.639-4.318 1.525-14.319-1.01-33.712 13.141-30.639-.744.705-2.242 22.227-2.171 28.912.013 1.171.073 1.887.195 1.955-1.724.255-7.097 4.769-9.975 5.282-.24.042-.462.057-.664.04zm73.13-22.654-5.276-7.895s-2.753 1.52-4.175 1.928c1.091-2.931 2.176-5.855 3.901-13.158.747-.273 3.392-1.571 4.202-1.274l-.038-.255.058.255h.06c-.01.202 1.953 8.884 3.462 15.521.902 3.972 1.642 7.212 1.699 7.464-.001 0-8.816 17.417-8.816 17.417l-2.103.094.492-1.02 6.532-19.076zm9.01-11.305c-2.797-2.983-6.417-7.089-10.005-15.753-5.14-13.604-9.18-27.291-11.587-41.022 11.709 14.468 8.184 32.593 20.654 49.664.696 1.325 2.028 2.814 3.448 4.393 3.499 3.889 7.542 8.32 3.989 12.167-1.743.322-3.324.701-4.355 2.612-.997 1.365-3.232 3.808-5.305 2.768-.71-.305-.733-1.385-.035-1.718 3.16-.945 4.027-6.624 8.126-5.24-.55-3.396-2.404-5.175-4.931-7.871zm-13.12 11.387c.16.87.307 1.701.423 2.434-27.778 13.452-57.898 25.26-87.277 35.772 9.296-6.107 18.957-11.539 28.81-16.621 18.705-9.649 38.1-18.036 56.994-27.378.263 1.659.688 3.823 1.05 5.793zm-160.457-186.209c-3.025-.752-6.994-1.275-11.907-1.568v-6.131h11.808l-.135 5.602.174 1.919zm47.026 209.113h-58.933v-6.13c6.679-.399 11.613-1.221 14.803-2.467s5.333-3.588 6.43-7.027c1.096-3.44 1.644-9.046 1.644-16.822v-112.449c2.999 1.38 6.204 2.369 9.48 2.929 1.559 3.46 3.45 6.454 5.981 8.966 1.019 1.011 2.174 1.874 3.433 2.564 6.908 3.788 18.362 8.281 29.851 11.554v53.376c-5.316 12.573-8.59 27.052-11.779 38.499-.294 1.054-.474 2.136-.538 3.227-.217 3.726-2.052 10.243-2.003 15.084l1.37 8.14.259.556zm103.2-204.157c8.296 3.918 15.582 8.746 21.857 14.485 19.787 18.093 29.681 44.384 29.681 78.874 0 22.229-4.835 41.668-14.504 58.315-.55.946-1.113 1.881-1.691 2.803-.169-.264-.346-.523-.532-.777-6.224-8.52-7.243-17.512-9.498-25.817-2.358-8.685-5.508-16.898-11.619-24.45-1.804-2.229-4.132-3.843-6.69-4.772l-.388-.658c.103-.405.295-1.159.511-1.977l2.557-1.869 3.521-5.939.705-6.83c-1.939-17.819-4.53-25.597-9.07-30.609l-4.569-3.981c-1.38-.95-2.937-1.837-4.732-2.671-.993-3.996-2.129-7.745-3.409-11.248.143-.263.283-.53.419-.798 3.115-6.144 4.375-14.135 5.039-20.658l.798-2.482.029-4.188 1.413-3.597.172-1.155zm-2.11 2.804-.104-.374c.01-.042.02-.086.029-.129.029.169.054.337.075.503zm-.394 4.782c-.178.601-.336.947-.336.947.123-.312.234-.628.336-.947zm-102.549-8.918c6.443 38.282-.737 43.05-1.541.081.032-.892 1.415-.98 1.541-.081zm76.692 88.355c-1.781.94-4.565-3.2-5.951-.484-1.479 3.239 6.219 5.537 2.599 8.5-1.92.426-5.651-1.514-5.081 2.201-3.98-4.449-2.642-1.312 2.01 4.162.766 2.831-3.02 4.438-5.384 3.611-.22-1.563-2.758-4.007-3.367-4.969-3.58-5.593-5.789-.176-3.9 2.556-1.471-.136-3.262.55-3.292 2.135-1.518-5.768-2.935-3.861-1.767 1.784 1.581 5.704 9.029 2.35 12.737 5.285-3.45 3.017-9.221-1.472-12.737 1.82-7.131-21.826-4.62-49.876-19.98-67.435 2.979-1.563 5.546-3.867 7.313-6.642 2.289 4.043 10.983 13.235 2.56 1.152-1.853-2.436 7.311.529 3.35-2.671 4.059-1.189 7.793 2.202 11.358 14.746 1.712 6.071 13.437 26.22 19.531 30.536 1.104.801 1.225 3.091 0 3.714zm-40.237 22.843c-1.365-10.403 1.013-24.083-5.792-33.248 1.693.372 9.161 1.493 9.161 1.493 2.369 13.096 6.587 27.032 11.589 39.462-3.447-.589-10.16-11.535-9.445-4.505.241 2.369.909 5.253 3.348 5.925-5.318 1.124-8.595-4.524-8.862-9.126zm65.71-26.602c-1.508-15.98-6.681-19.129-9.48-25.832 8.664 3.453 9.056 7.613 11.02 25.657.109.976-1.428 1.164-1.54.175zm-35.728 43.839c-1.554 7.25-8.042 18.403-1.424 24.27 2.272.548 9.14 2.777 5.68 5.624-4.414.848-10.369 2.1-14.402 1.452-2.882-9.245 1.768-33.931 11.072-38.308.744.693 10.964.004 11.247 2.712-2.193 9.966 9.174 26.989 4.683 25.851-2.942-1.494-6.612 3.251-8.265.712.486 1.827-.443 6.289-2.528 3.239-.848-3.372-4.027-6.178-7.843-7.018-2.556-4.607 1.472-12.965 1.781-18.535zm-29.672 90.486c16.635-2.807 63.667-24.75 79.493-31.968l-3.912 5.949c-15.544 6.586-58.917 25.434-75.581 26.019z" fill="#023148"/><g fill-rule="nonzero"><g fill="#023148"><path d="m351.724 114.909c-1.705.098-2.929.299-3.672.603-.743.305-1.254.877-1.535 1.717-.28.84-.42 2.21-.42 4.11v37.12c0 1.9.14 3.27.42 4.11.28.841.804 1.413 1.571 1.717.768.305 1.979.506 3.636.603v1.498h-23.566v-1.498c1.802-.097 3.111-.298 3.928-.603.816-.305 1.376-.877 1.681-1.717.305-.841.457-2.21.457-4.11v-39.13l-18.049 47.132h-1.206l-20.205-48.191v35.842c0 2.947.152 5.109.457 6.485s.956 2.375 1.955 2.996 2.619 1.053 4.86 1.297v1.498h-14.578v-1.498c1.632-.244 2.838-.664 3.617-1.261.779-.596 1.303-1.547 1.571-2.85s.402-3.222.402-5.754v-33.686c0-1.9-.134-3.27-.402-4.11-.268-.841-.792-1.413-1.571-1.717-.78-.305-1.986-.506-3.617-.603v-1.498h18.304l15.126 36.427 13.774-36.427h17.062z"/><path d="m399.879 160.137c.658 1.658 1.413 2.858 2.265 3.602s1.668 1.115 2.447 1.115v1.534h-22.726v-1.498c1.9-.097 3.246-.335 4.037-.712.792-.377 1.188-1.041 1.188-1.991 0-.901-.292-2.095-.877-3.581l-4.494-12.276h-16.331l-1.936 5.151c-1.389 3.605-2.083 6.381-2.083 8.33 0 1.851.56 3.136 1.681 3.855 1.12.718 2.777 1.127 4.969 1.224v1.498h-14.98v-1.498c2.46-.438 4.604-3.057 6.43-7.855l17.062-43.77h5.188l18.159 46.872zm-18.707-15.305-7.38-20.205-7.782 20.205z"/><path d="m433.784 112.352c2.996 0 5.542.426 7.636 1.279 2.095.853 4.141 2.046 6.138 3.581.536.462 1.011.694 1.425.694.999 0 1.644-1.498 1.937-4.494h1.717c-.195 3.386-.292 9.427-.292 18.122h-1.717c-.463-3.702-1.066-6.527-1.809-8.476-.743-1.948-2.015-3.641-3.818-5.078-1.242-1.193-2.685-2.1-4.33-2.722-1.644-.621-3.367-.932-5.17-.932-5.042 0-8.781 2.454-11.216 7.362-2.436 4.908-3.654 11.028-3.654 18.359 0 7.283 1.273 13.373 3.818 18.268 2.545 4.896 6.327 7.344 11.344 7.344 1.705 0 3.392-.317 5.06-.95s3.076-1.547 4.22-2.74c1.851-1.389 3.136-3.13 3.855-5.225s1.285-5.163 1.699-9.207h1.717c0 9.037.097 15.321.292 18.853h-1.717c-.147-1.608-.36-2.746-.639-3.416-.28-.67-.664-1.005-1.151-1.005-.39 0-.914.207-1.571.621-2.241 1.583-4.384 2.789-6.43 3.617-2.046.829-4.518 1.242-7.417 1.242-5.285 0-9.913-1.071-13.883-3.215-3.971-2.143-7.051-5.248-9.244-9.316-2.192-4.068-3.288-8.927-3.288-14.578 0-5.481 1.12-10.34 3.361-14.578s5.371-7.532 9.39-9.883c4.019-2.35 8.598-3.526 13.737-3.526z"/><path d="m504.628 160.137c.657 1.658 1.412 2.858 2.265 3.602s1.668 1.115 2.448 1.115v1.534h-22.726v-1.498c1.9-.097 3.246-.335 4.037-.712.792-.377 1.188-1.041 1.188-1.991 0-.901-.292-2.095-.877-3.581l-4.494-12.276h-16.331l-1.937 5.151c-1.388 3.605-2.082 6.381-2.082 8.33 0 1.851.56 3.136 1.681 3.855 1.12.718 2.777 1.127 4.969 1.224v1.498h-14.98v-1.498c2.46-.438 4.603-3.057 6.43-7.855l17.062-43.77h5.188zm-18.707-15.305-7.38-20.205-7.782 20.205z"/><path d="m531.189 121.34v18.414h3.215c4.093 0 6.899-1.084 8.422-3.251 1.523-2.168 2.284-5.225 2.284-9.171 0-4.092-.725-7.185-2.174-9.28-1.45-2.095-3.818-3.142-7.107-3.142-1.339 0-2.326.177-2.959.53-.634.353-1.072.974-1.316 1.863s-.365 2.234-.365 4.037zm16.624 45.048c-2.655-9.012-4.743-15.455-6.266-19.327-1.522-3.873-3.355-5.809-5.498-5.809h-4.86v17.208c0 1.9.134 3.27.402 4.11.268.841.779 1.413 1.535 1.717.755.305 1.973.506 3.654.603v1.498h-23.091v-1.498c1.632-.097 2.838-.298 3.617-.603s1.303-.877 1.571-1.717c.268-.841.402-2.21.402-4.11v-37.12c0-1.9-.135-3.27-.402-4.11-.268-.841-.792-1.413-1.571-1.717-.78-.305-1.985-.506-3.617-.603v-1.461h23.091c6.893 0 12.075 1.122 15.546 3.366s5.207 5.463 5.207 9.658c0 3.561-1.297 6.69-3.891 9.385s-6.887 4.396-12.879 5.103c4.482.39 7.916 1.608 10.303 3.654s4.378 5.462 5.974 10.248c1.596 4.787 2.795 7.533 3.599 8.239.804.707 1.826 1.303 3.069 1.79v1.498h-15.893z"/><path d="m609.048 155.026c0 4.579.171 8.367.511 11.362h-41.505v-1.498c1.632-.097 2.838-.298 3.617-.603.78-.305 1.303-.877 1.571-1.717.268-.841.402-2.21.402-4.11v-37.12c0-1.9-.134-3.27-.402-4.11-.268-.841-.792-1.413-1.571-1.717-.779-.305-1.985-.506-3.617-.603v-1.498h40.007c-.341 4.141-.511 7.831-.511 11.07 0 2.193.073 3.885.219 5.079h-1.717c-.755-5.335-2.1-9.073-4.037-11.217s-4.683-3.215-8.239-3.215h-3.069c-1.535 0-2.655.128-3.361.384-.707.256-1.181.743-1.425 1.461-.244.719-.365 1.882-.365 3.489v18.524h2.375c2.655 0 4.67-.968 6.047-2.904 1.376-1.937 2.332-4.257 2.868-6.961h1.717c-.146 2.095-.219 4.445-.219 7.052v3.58c0 2.533.146 6.078.438 10.632h-1.717c-1.047-6.6-4.092-9.901-9.134-9.901h-2.375v18.853c0 1.608.122 2.771.365 3.489.244.719.718 1.206 1.425 1.462.706.256 1.826.384 3.361.384h3.69c3.532 0 6.381-1.212 8.549-3.636 2.168-2.423 3.702-6.522 4.604-12.294h1.717c-.147 1.632-.22 3.726-.22 6.284z"/><path d="m664.765 114.909c-1.632.244-2.838.664-3.617 1.261-.78.597-1.303 1.547-1.571 2.85-.268 1.304-.402 3.222-.402 5.755v41.761h-3.836l-32.481-41.14v28.718c0 2.947.152 5.109.457 6.485s.956 2.375 1.955 2.996 2.619 1.053 4.86 1.297v1.498h-14.578v-1.498c1.632-.244 2.838-.664 3.617-1.261.779-.596 1.303-1.547 1.571-2.85s.402-3.222.402-5.754v-33.686c0-1.9-.135-3.27-.402-4.11-.268-.841-.792-1.413-1.571-1.717-.78-.305-1.985-.506-3.617-.603v-1.498h12.934l28.973 35.696v-23.42c0-2.947-.152-5.109-.457-6.486-.305-1.376-.956-2.375-1.955-2.996s-2.618-1.054-4.859-1.297v-1.498h14.577v1.498z"/><path d="m710.216 160.137c.657 1.658 1.413 2.858 2.265 3.602.853.744 1.668 1.115 2.448 1.115v1.534h-22.726v-1.498c1.9-.097 3.246-.335 4.037-.712.792-.377 1.188-1.041 1.188-1.991 0-.901-.292-2.095-.877-3.581l-4.494-12.276h-16.331l-1.937 5.151c-1.388 3.605-2.082 6.381-2.082 8.33 0 1.851.56 3.136 1.681 3.855 1.12.718 2.777 1.127 4.969 1.224v1.498h-14.98v-1.498c2.46-.438 4.603-3.057 6.43-7.855l17.062-43.77h5.188zm-18.707-15.305-7.38-20.205-7.782 20.205z"/><path d="m325.131 176.786c15.897 0 27.789 3.606 35.678 10.82 7.888 7.213 11.833 17.694 11.833 31.445 0 8.862-1.928 16.611-5.782 23.248-3.855 6.636-9.429 11.783-16.721 15.439-7.293 3.656-15.986 5.484-26.08 5.484h-36.601v-2.444c2.663-.159 4.63-.487 5.901-.984 1.272-.496 2.127-1.431 2.564-2.802s.656-3.607.656-6.707v-60.565c0-3.1-.219-5.335-.656-6.707-.437-1.371-1.292-2.305-2.564-2.802-1.271-.497-3.239-.825-5.901-.984v-2.444h37.674zm-.119 2.205c-2.503 0-4.391.288-5.663.865-1.271.576-2.146 1.589-2.622 3.04-.477 1.45-.715 3.646-.715 6.587v61.042c0 2.94.238 5.136.715 6.587.477 1.45 1.351 2.464 2.622 3.04 1.272.576 3.2.865 5.782.865 9.856 0 16.86-3.438 21.013-10.313s6.229-17.267 6.229-31.176-2.136-24.143-6.408-30.7-11.257-9.836-20.953-9.836z"/><path d="m459.912 179.23c-2.663.397-4.629 1.083-5.901 2.057s-2.126 2.523-2.564 4.65c-.437 2.126-.656 5.255-.656 9.388v32.369c0 11.644-1.668 20.268-5.007 25.871-2.226 3.576-5.415 6.368-9.568 8.375s-9.23 3.01-15.231 3.01c-9.459 0-16.79-2.047-21.996-6.14-3.736-3.02-6.25-6.825-7.541-11.415-1.292-4.59-1.938-11.038-1.938-19.344v-38.33c0-3.1-.229-5.335-.686-6.707-.457-1.371-1.321-2.305-2.593-2.802-1.271-.497-3.239-.825-5.901-.984v-2.444h38.45v2.444c-2.941.159-5.077.487-6.408.984-1.331.496-2.246 1.431-2.742 2.802-.497 1.371-.745 3.607-.745 6.707v46.02c0 8.544 1.241 14.833 3.726 18.867 2.484 4.034 6.865 6.05 13.144 6.05 8.147 0 13.89-2.742 17.228-8.226s5.007-13.273 5.007-23.367v-32.249c0-4.729-.288-8.237-.864-10.522s-1.679-3.935-3.309-4.948-4.192-1.719-7.69-2.116v-2.444h23.785z"/><path d="m557.615 262.388c-1.391 9.18-4.212 15.518-8.465 19.016-1.788 1.471-4.043 2.633-6.765 3.487-2.722.855-5.713 1.282-8.972 1.282-4.411 0-8.752-.695-13.025-2.086-4.272-1.391-9.528-3.457-15.767-6.199-1.55-.676-3.239-1.401-5.067-2.176s-3.894-1.6-6.199-2.474l-2.921-.834c-1.55.795-3.239 1.421-5.066 1.877-1.829.457-3.557.686-5.187.686-1.709 0-3.09-.268-4.143-.804-1.053-.537-1.579-1.341-1.579-2.414 0-2.185 2.225-3.279 6.676-3.279 3.02 0 6.12.576 9.299 1.729 2.782-.834 5.723-1.947 8.823-3.338.557-.239 1.401-.576 2.534-1.013 1.132-.438 2.156-.815 3.07-1.133-7.59-.755-14.208-2.98-19.85-6.676-5.644-3.696-9.995-8.723-13.055-15.082s-4.59-13.771-4.59-22.235c0-8.942 1.828-16.87 5.484-23.785s8.763-12.29 15.32-16.125c6.557-3.836 14.028-5.753 22.414-5.753 8.624 0 16.174 1.749 22.652 5.246s11.505 8.564 15.082 15.201c3.576 6.636 5.365 14.565 5.365 23.784 0 8.624-1.709 16.334-5.127 23.129-3.418 6.796-8.216 12.141-14.396 16.035s-13.224 6.021-21.132 6.379c-1.948.238-3.696.596-5.246 1.073s-3.378 1.172-5.484 2.086c-2.622 1.152-5.146 2.086-7.571 2.802l9.895.835c10.332.914 17.764 1.371 22.294 1.371 3.02 0 6.08-.199 9.18-.596 5.047-.596 9.041-1.689 11.982-3.279 2.941-1.589 5.385-4.054 7.333-7.391l2.205.656zm-69.984-42.146c0 8.465 1.033 15.916 3.1 22.355 2.066 6.437 4.879 11.405 8.435 14.902 3.557 3.497 7.481 5.246 11.774 5.246 4.491 0 8.444-1.809 11.862-5.425 3.418-3.617 6.041-8.684 7.869-15.201 1.829-6.517 2.742-13.969 2.742-22.354 0-8.465-1.033-15.916-3.1-22.355-2.066-6.438-4.878-11.405-8.434-14.902-3.557-3.498-7.481-5.246-11.774-5.246-4.491 0-8.445 1.809-11.863 5.425-3.418 3.617-6.04 8.684-7.869 15.201-1.828 6.517-2.742 13.969-2.742 22.354z"/><path d="m640.833 179.23c-2.663.397-4.63 1.083-5.901 2.057-1.272.974-2.127 2.523-2.564 4.65-.437 2.126-.656 5.255-.656 9.388v32.369c0 11.644-1.669 20.268-5.007 25.871-2.226 3.576-5.415 6.368-9.568 8.375-4.154 2.007-9.23 3.01-15.231 3.01-9.459 0-16.79-2.047-21.996-6.14-3.736-3.02-6.25-6.825-7.541-11.415s-1.937-11.038-1.937-19.344v-38.33c0-3.1-.229-5.335-.686-6.707-.457-1.371-1.321-2.305-2.593-2.802s-3.239-.825-5.901-.984v-2.444h38.45v2.444c-2.941.159-5.077.487-6.408.984-1.331.496-2.246 1.431-2.742 2.802-.497 1.371-.745 3.607-.745 6.707v46.02c0 8.544 1.241 14.833 3.725 18.867s6.866 6.05 13.145 6.05c8.147 0 13.89-2.742 17.227-8.226 3.338-5.484 5.008-13.273 5.008-23.367v-32.249c0-4.729-.288-8.237-.864-10.522s-1.679-3.935-3.309-4.948-4.192-1.719-7.69-2.116v-2.444h23.785v2.444z"/><path d="m714.095 244.683c0 7.471.278 13.651.834 18.539h-67.718v-2.444c2.662-.159 4.629-.487 5.901-.984 1.272-.496 2.126-1.431 2.563-2.802.438-1.371.656-3.607.656-6.707v-60.565c0-3.1-.218-5.335-.656-6.707-.437-1.371-1.291-2.305-2.563-2.802s-3.239-.825-5.901-.984v-2.444h65.274c-.557 6.756-.835 12.776-.835 18.062 0 3.576.12 6.338.358 8.286h-2.802c-1.232-8.703-3.428-14.803-6.587-18.301-3.159-3.497-7.64-5.246-13.442-5.246h-5.008c-2.503 0-4.332.209-5.484.626-1.153.417-1.928 1.212-2.325 2.384s-.596 3.07-.596 5.693v30.223h3.875c4.331 0 7.62-1.58 9.866-4.739 2.245-3.159 3.805-6.944 4.679-11.356h2.802c-.238 3.418-.358 7.253-.358 11.505v5.842c0 4.133.239 9.915.715 17.347h-2.802c-1.709-10.77-6.676-16.155-14.902-16.155h-3.875v30.759c0 2.623.199 4.521.596 5.693s1.172 1.967 2.325 2.384c1.152.417 2.981.626 5.484.626h6.021c5.762 0 10.412-1.977 13.948-5.932 3.537-3.954 6.041-10.64 7.511-20.059h2.802c-.239 2.662-.358 6.08-.358 10.253z"/></g><path d="m305.578 296.969h-3.262l-13.85 32.426h4.727l4.065-9.501h13.708l4.302 9.501h4.726l-14.417-32.426zm-1.702 7.09 5.2 11.675h-10.022z" fill="#69a8c7"/><path d="m356.628 329.395h11.061c8.083 0 11.061-4.632 11.061-8.603 0-4.349-2.931-7.516-7.753-8.414v-.094c3.356-1.371 4.916-3.545 4.916-6.901 0-4.066-2.978-8.225-9.927-8.225h-9.359v32.237zm4.632-28.078h4.255c4.254 0 5.625 2.08 5.625 4.491 0 3.451-2.222 5.153-6.807 5.153h-3.073v-9.643zm0 13.803h5.578c4.868 0 7.137 2.079 7.137 5.01 0 2.411-1.465 5.105-6.901 5.105h-5.814z" fill="#69a8c7"/><path d="m414.911 313.276c0 8.745 6.665 16.545 17.206 16.545 10.92 0 17.443-7.847 17.443-16.545 0-8.981-6.712-16.544-17.348-16.544-10.447 0-17.301 7.61-17.301 16.544zm4.775 0c0-7.09 5.341-12.29 12.526-12.29 7.232 0 12.573 5.2 12.573 12.29 0 7.044-5.341 12.291-12.573 12.291-7.185 0-12.526-5.247-12.526-12.291z" fill="#69a8c7"/><path d="m516.588 313.513h-10.825v4.16h6.192v6.617c-2.222.71-4.491 1.277-6.996 1.277-7.658 0-13.046-5.058-13.046-12.243 0-6.995 5.436-12.337 12.432-12.337 3.877 0 7.8 1.087 11.581 3.167v-4.68c-5.058-2.127-7.704-2.741-11.486-2.741-9.832 0-17.3 7.232-17.3 16.733 0 9.454 7.279 16.356 17.159 16.356 4.491 0 7.988-.756 12.29-2.647v-13.661z" fill="#69a8c7"/><path d="m569.954 296.969h-3.261l-13.85 32.426h4.726l4.066-9.501h13.708l4.302 9.501h4.727l-14.417-32.426zm-1.702 7.09 5.2 11.675h-10.021z" fill="#69a8c7"/><path d="m621.053 329.395h12.573c10.636 0 17.112-7.847 17.112-16.119 0-7.61-5.247-16.118-17.159-16.118h-12.526zm4.632-28.078h7.138c9.028 0 13.14 5.483 13.14 11.959 0 3.971-2.411 11.959-12.905 11.959h-7.374v-23.918z" fill="#69a8c7"/><path d="m700.512 296.969h-3.261l-13.85 32.426h4.726l4.066-9.501h13.708l4.302 9.501h4.727l-14.417-32.426zm-1.702 7.09 5.2 11.675h-10.021z" fill="#69a8c7"/></g><g fill="#023148"><path d="m287.457 272.393h180.1v2.666h-180.1z"/><path d="m561.518 272.393h153.412v2.666h-153.412z"/></g></g></svg>