<svg clip-rule="evenodd" fill-rule="evenodd" stroke-miterlimit="10" viewBox="0 0 750 422" xmlns="http://www.w3.org/2000/svg" xmlns:xlink="http://www.w3.org/1999/xlink"><clipPath id="a"><path clip-rule="evenodd" d="m195.16 165.66-58.489 167.754c0-.029-.029-.055-.04-.084-.697-1.663-1.304-3.361-1.818-5.09-.767-2.93-1.454-5.893-1.978-8.874-.491-2.73-.84-5.5-1.069-8.267-.181-2.857.015-5.726.582-8.532.571-3.17.974-6.373 1.56-9.543.422-2.279 1.011-4.526 1.534-6.787.465-2.007.898-4.024 1.418-6.017.818-3.123 1.752-6.227 1.749-9.488.018-1.882-.087-3.763-.316-5.631-.207-1.585-.727-3.13-1.091-4.697-.64-2.767-1.225-5.548-1.923-8.3-.92-3.635-1.952-7.231-2.908-10.859-1.007-3.872-1.93-7.769-2.963-11.633-1.218-4.551-2.428-9.11-3.806-13.614-1.152-3.777-2.399-7.532-3.864-11.193-.894-2.236 3.788-3.944 1.305-4.268-2.457-.299-4.951-.004-7.271.862-3.399 1.207-6.867 2.247-10.361 3.17-.911.21-1.851.266-2.781.167-.364-.029-.727-.069-1.091-.116-1.91-.272-3.798-.674-5.653-1.203-4.032-1.149-8.056-.523-11.946.338-3.566.789-7.038 2.156-10.412 3.599-2.97 1.269-5.886 2.788-8.085 5.304s-4.362 4.973-6.496 7.511c-3.635 4.333-8.107 6.853-13.883 6.453-2.628-.182-5.115-.822-6.573-3.443-.871-1.539-2.171-2.792-3.741-3.606-.712-.449-1.331-1.032-1.821-1.716-1.454-1.818-3.043-3.672-3.235-6.089-.138-1.516-.538-2.607-1.643-3.697-1.454-1.454-2.388-3.319-1.927-5.471.468-2.225 1.322-4.351 2.523-6.282 2.613-4.191 5.666-8.09 9.107-11.633 6.845-7.038 13.76-14.007 20.583-21.067 1.938-2.003 3.737-4.155 5.453-6.344 3.359-4.246 7.009-8.205 11.299-11.506 3.959-3.043 8.085-5.871 12.138-8.79.927-.669 1.865-1.323 2.937-2.076-.502-.385-.814-.825-1.091-.807-1.171.08-1.705-.782-2.418-1.418-1.607-1.454-1.963-3.486-2.545-5.38-.309-1.022-.789-1.57-1.73-1.847-2.338-.691-3.635-2.403-4.428-4.57-.331-.905-.545-1.854-.789-2.788s-.607-1.752-1.767-2.036c-2.243-.553-3.417-2.236-4.09-4.315-.316-.978-.473-2.01-.807-2.985-.171-.494-.48-1.145-.898-1.323-2.643-1.131-4.304-3.199-5.213-5.762-.533-1.655-1.577-3.098-2.981-4.123-2.327-1.763-3.672-4.312-4.341-7.194-.124-.56-.464-1.048-.945-1.36-2.396-1.12-3.501-3.272-4.286-5.533-.322-1.095-1.04-2.033-2.014-2.628-1.776-1.132-3.056-2.9-3.577-4.94-.296-1.193-.96-2.262-1.898-3.057-1.607-1.428-2.864-3.207-3.672-5.199-.242-.521-.584-.989-1.007-1.378-1.181-1.12-2.338-2.218-2.861-3.853-.215-.614-.602-1.153-1.116-1.552-1.818-1.381-2.363-3.272-2.468-5.475.291.069.523.055.64.167 2.105 2.029 4.421 3.897 6.206 6.18 1.338 1.747 2.801 3.394 4.377 4.93.516.491.923 1.091 1.4 1.621.902 1.014 1.716 2.138 2.752 2.988 1.477 1.175 2.701 2.637 3.599 4.297.364.727.912 1.53 1.592 1.876 2.156 1.091 3.468 2.879 4.453 4.98.414.804 1.044 1.477 1.818 1.945 1.63 1.079 2.996 2.51 3.999 4.188.829 1.454 1.687 2.945 3.163 3.893 2.387 1.487 4.269 3.662 5.399 6.238.34.754.914 1.378 1.636 1.781 2.434 1.157 4.351 3.181 5.373 5.675.34.92 1.045 1.66 1.949 2.043 1.785.778 3.119 2.181 4.13 3.752 1.374 2.119 2.545 4.282 4.726 5.787 1.723 1.181 2.668 3.141 3.599 5.02.255.574.671 1.063 1.196 1.407 1.294.727 2.676 1.269 4.028 1.89.869-.654 1.716-1.258 2.512-1.912.24-.206.4-.489.454-.8.244-1.73.593-3.461.618-5.202.08-5.329.033-10.663.033-15.996 0-1.945.196-3.908-.505-5.795-.044-.127.105-.327.164-.487.171.04.364.025.396.098.244.364.458.771.673 1.163 2.501 4.479 4.988 8.958 7.503 13.425.294.383.63.73 1.003 1.036 1.127-2.476 1.487-4.89 1.705-7.314.218-2.425.236-4.806.411-7.202.118-.915.288-1.823.509-2.719l.491-.102c.454.571 1.029 1.091 1.345 1.727 1.2 2.443 2.283 4.944 3.468 7.398 1.352 2.803 2.687 5.624 4.184 8.361.945 1.727 1.687 1.912 3.552 1.269l1.276-.451c2.323-.814 4.642-1.643 6.936-2.545 3.686-1.395 7.538-2.305 11.459-2.705 3.915-.44 7.722.4 11.491 1.381l2.094.556c-.234.276-.583.43-.945.414-2.407 0-4.817-.124-7.216 0-1.417.068-2.819.328-4.166.774-2.42.855-3.902 3.335-3.508 5.871 1.181.327 2.407.727 3.661 1.007 2.334.513 4.682 1.309 7.031 1.341 4.468.065 8.95-.287 13.418-.542 1.61-.087 3.21-.364 4.813-.589 1.796-.229 3.595-.436 5.388-.702 2.181-.324 4.33-.785 6.511-1.032 3.664-.414 7.343-.771 11.026-1.036 4.664-.331 9.307-.429 13.989.24.574.084 1.142.178 1.712.276l-3.363 9.645c-1.344.065-2.681.234-3.999.505-2.145.444-4.362.698-6.416 1.385-3.243 1.091-6.398 2.45-9.568 3.744-.454.237-.873.537-1.243.891l-.327.265c.241.169.496.316.763.44 4.084 1.188 8.169 2.37 12.255 3.548 1.454.418 2.886.851 4.33 1.28l-10.012 28.708zm87.881 35.339c-.118 1-.449 1.963-.971 2.825-.356.625-1.7 1.174-4.032 1.647-1.693.387-3.417.623-5.151.705-.587 1.294-.587 2.432 0 3.414 1.333-.041 2.746-.12 4.239-.236s2.859-.205 4.097-.265c1.236-.058 2.659-.087 4.268-.087 1.098 0 5.571.196 13.418.589.188-.527.259-1.089.207-1.647.022-.619-.131-1.232-.444-1.767-1.699-.08-3.385-.336-5.031-.763-2.218-.509-3.483-1.039-3.795-1.589-.554-.871-.896-1.86-1-2.886-.121-1.057-.181-2.802-.178-5.235v-53.433l51.317 64.848c.596.844 1.369 1.548 2.265 2.061.561.353 1.195.574 1.854.647.94 0 1.451-.235 1.53-.705-.155-4.081-.234-9.496-.236-16.243v-47.903c-.03-1.728.039-3.457.207-5.177.117-1 .448-1.964.971-2.825.354-.63 1.698-1.18 4.032-1.65 1.69-.38 3.41-.61 5.14-.687.589-1.294.589-2.432 0-3.414-1.333.039-2.746.118-4.239.236-1.49.116-2.854.207-4.09.265s-2.657.087-4.264.087c-1.178 0-5.689-.196-13.534-.589-.189.527-.26 1.089-.207 1.647-.023.619.129 1.231.44 1.767 1.718.082 3.424.339 5.09.767 2.259.509 3.544 1.039 3.857 1.589.551.871.893 1.858 1 2.883.116 1.059.176 2.805.178 5.239v44.606c-4.467-6.25-12.782-16.781-24.946-31.591s-19.226-23.745-21.187-26.804c-2.196.158-5.177.235-8.943.233-1.495 0-3.555-.087-6.18-.262-2.625-.174-4.564-.284-5.817-.327-.587.982-.587 2.121 0 3.417 1.735.08 3.458.315 5.151.702 2.334.473 3.678 1.023 4.032 1.65.521.861.852 1.825.971 2.825.168 1.72.237 3.449.207 5.177v51.08c.03 1.729-.039 3.459-.207 5.18m89.833 3.294c-.16.549-1.258 1.003-3.297 1.352-1.592.308-3.207.486-4.828.531-.233.313-.364.883-.364 1.709 0 .825.105 1.389.364 1.705 8.044-.393 12.672-.589 13.883-.589 1.137 0 5.727.196 13.771.589.273-.316.4-.883.382-1.705s-.149-1.396-.382-1.709c-1.621-.045-3.236-.222-4.828-.531-2.039-.364-3.137-.803-3.294-1.352-.393-1.253-.589-4.161-.589-8.725v-50.241c0-4.547.196-7.455.589-8.725.158-.548 1.255-.999 3.294-1.352 1.592-.307 3.207-.484 4.828-.531.233-.313.364-.88.382-1.705s-.109-1.392-.382-1.705c-8.044.393-12.634.589-13.771.589-1.212 0-5.842-.196-13.891-.589-.273.313-.4.88-.364 1.705s.145 1.392.364 1.705c1.621.047 3.235.224 4.828.531 2.038.354 3.137.805 3.297 1.352.39 1.258.587 4.166.589 8.725v50.255c0 4.551-.196 7.46-.589 8.725m96.479-7.474c1.003-4.588 1.504-7.628 1.501-9.121-1.11-.736-2.44-1.068-3.766-.942-1.258 5.926-3.651 10.477-7.18 13.654-4.278 3.766-9.457 5.649-15.538 5.649-3.773.037-7.515-.684-11.004-2.119-3.222-1.313-6.152-3.254-8.619-5.708-2.428-2.467-4.471-5.286-6.06-8.361-1.672-3.187-2.919-6.58-3.708-10.092-.809-3.579-1.214-7.237-1.207-10.906-.003-5.56 1.181-11.057 3.472-16.123 2.252-5.101 5.753-9.554 10.179-12.946 4.285-3.391 9.601-5.221 15.065-5.184 13.138 0 20.827 5.728 23.066 17.184.424.258.915.385 1.411.364.623-.009 1.232-.182 1.767-.502.589-.331.865-.676.822-1.029 0-.785-.902-6.591-2.705-17.417-7.612-1.65-15.93-2.474-24.953-2.472-5.485-.032-10.916 1.083-15.945 3.272-4.771 2.03-9.078 5.014-12.655 8.768-7.188 7.765-11.183 17.967-11.179 28.549.004 10.103 3.905 19.826 10.884 27.131 3.545 3.608 7.791 6.454 12.477 8.361 5.053 2.1 10.477 3.159 15.948 3.116 10.593 0 19.027-1.766 25.302-5.297.744-.625 1.618-3.234 2.621-7.827m23.51 2.472c-3.565-3.623-6.367-7.925-8.238-12.651-2.06-5.079-3.1-10.515-3.061-15.996.016-10.496 4.051-20.598 11.27-28.218 3.48-3.595 7.615-6.493 12.182-8.536 4.608-2.101 9.615-3.185 14.68-3.177 5.056-.018 10.063.993 14.716 2.97 4.561 1.912 8.714 4.679 12.237 8.15 3.603 3.623 6.436 7.938 8.329 12.684 2.082 5.108 3.132 10.578 3.09 16.094.015 5.304-1.036 10.557-3.09 15.447-1.931 4.73-4.747 9.049-8.296 12.724-3.515 3.577-7.679 6.453-12.269 8.474-4.627 2.08-9.643 3.153-14.716 3.148-5.044.018-10.04-.994-14.68-2.974-4.54-1.906-8.667-4.674-12.153-8.15m1.207-40.782c-.574 3.145-.86 6.335-.854 9.532 0 4.637.644 9.252 1.912 13.713 1.198 4.337 3.011 8.48 5.384 12.302 2.261 3.634 5.334 6.695 8.976 8.943 3.625 2.264 7.821 3.448 12.095 3.414 3.225.041 6.419-.632 9.354-1.97 2.695-1.219 5.095-3.006 7.034-5.239 1.943-2.305 3.548-4.876 4.766-7.634 1.308-2.903 2.257-5.955 2.825-9.088.57-3.165.854-6.374.851-9.59.001-4.63-.651-9.236-1.938-13.684-1.219-4.311-3.056-8.423-5.453-12.208-2.285-3.601-5.366-6.631-9.005-8.856-3.63-2.248-7.822-3.423-12.091-3.388-3.217-.042-6.404.632-9.328 1.974-2.671 1.209-5.055 2.971-6.994 5.169-1.94 2.286-3.532 4.845-4.726 7.594-1.288 2.878-2.226 5.9-2.796 9.001m144.687 51.08c-7.649 0-12.828-.471-15.538-1.414-2.513-.902-4.435-1.961-5.766-3.177-.687-.608-1.317-1.278-1.883-1.999-1.02-1.374-3.541-5.042-7.562-11.004s-7.738-11.592-11.153-16.89c-.625-.94-1.802-1.411-3.53-1.411h-6.238v21.889c0 4.551.196 7.46.589 8.725.156.549 1.258 1.003 3.297 1.352 1.591.308 3.204.486 4.824.531.236.313.364.883.364 1.709 0 .825-.109 1.389-.364 1.705-8.041-.393-12.632-.589-13.771-.589-1.212 0-5.841.196-13.887.589-.276-.316-.404-.883-.364-1.705s.145-1.396.364-1.709c1.62-.045 3.233-.222 4.824-.531 2.039-.364 3.141-.803 3.297-1.352.313-.969.509-3.878.589-8.725l-.091-50.248c0-4.551-.195-7.46-.585-8.725-.16-.545-1.258-1-3.297-1.352-1.591-.305-3.205-.482-4.824-.527-.236-.316-.364-.887-.385-1.709-.022-.822.109-1.392.385-1.705 8.041.393 12.67.589 13.887.589 1.331 0 3.822-.04 7.474-.12s6.731-.119 9.237-.116c2.813.013 5.607.464 8.281 1.338 2.744.874 5.342 2.153 7.707 3.795 2.396 1.671 4.371 3.878 5.766 6.445 1.484 2.692 2.246 5.724 2.21 8.798 0 4.04-1.638 7.934-4.915 11.68-3.277 3.747-6.994 6.327-11.153 7.74 5.06 8.434 11.397 17.653 19.009 27.658 1.767 2.317 3.64 4.013 5.62 5.09 1.98 1.076 4.539 1.733 7.678 1.97.256.582.329 1.229.207 1.854-.038.532-.146 1.057-.324 1.56m-45.377-39.545c4.678.051 9.213-1.633 12.724-4.726 3.667-3.151 5.5-7.221 5.5-12.211 0-5.453-1.454-9.759-4.362-12.916-2.908-3.158-7.489-4.733-13.742-4.726-3.57 0-5.532.391-5.886 1.174-.393.945-.589 3.887-.589 8.827l.058 24.601h6.296m130.171-38.84c-1.331.039-2.742.118-4.235.236-1.49.116-2.854.207-4.093.265-1.24.058-2.654.087-4.264.087-1.178 0-5.689-.196-13.534-.589-.188.529-.258 1.092-.204 1.65-.027.618.126 1.23.44 1.763 1.718.082 3.423.338 5.09.763 2.259.514 3.543 1.045 3.853 1.592.552.87.894 1.857 1 2.883.121 1.059.181 2.805.178 5.239v44.606c-4.471-6.238-12.788-16.763-24.949-31.573-12.162-14.81-19.224-23.745-21.187-26.804-2.196.158-5.177.235-8.943.233-1.493 0-3.553-.087-6.18-.262-2.628-.178-4.57-.284-5.817-.327-.589.982-.589 2.119 0 3.414 1.733.082 3.456.318 5.148.705 2.334.473 3.679 1.023 4.035 1.65.52.862.85 1.825.967 2.825.168 1.721.238 3.451.207 5.18v51.055c.03 1.729-.039 3.459-.207 5.18-.117 1-.447 1.963-.967 2.825-.364.625-1.701 1.178-4.035 1.647-1.691.389-3.414.625-5.148.705-.589 1.294-.589 2.432 0 3.414 1.335-.041 2.747-.12 4.235-.236s2.853-.204 4.093-.262c1.236-.063 2.657-.093 4.264-.091 1.098 0 5.571.196 13.418.589.188-.527.259-1.089.207-1.647.024-.619-.13-1.232-.444-1.767-1.699-.08-3.385-.336-5.031-.763-2.218-.509-3.483-1.039-3.795-1.589-.552-.871-.894-1.858-1-2.883-.116-1.062-.174-2.808-.174-5.239v-53.433l51.313 64.851c.597.842 1.37 1.546 2.265 2.061.561.353 1.195.574 1.854.647.94 0 1.451-.235 1.53-.705-.155-4.081-.234-9.496-.236-16.243v-47.907c-.03-1.728.039-3.457.207-5.177.117-1 .448-1.964.971-2.825.354-.63 1.698-1.18 4.032-1.65 1.692-.387 3.414-.623 5.148-.705.589-1.294.589-2.432 0-3.414m-424.61 187.628c-2.399-.373-3.732-.979-3.999-1.818-.931-2.516-1.489-7.032-1.676-13.549-.095-4.144-.246-11.052-.454-20.722s-.395-18.098-.56-25.284c-.165-7.193-.292-12.21-.382-15.05 0-2.516.229-4.286.698-5.308.324-.607 1.734-1.174 4.224-1.712s4.373-.782 5.678-.782l-.418-4.05c-4.658.371-9.869.556-15.632.556-1.396 0-5.075-.185-11.037-.556l-6.169 16.752c-.65 1.629-7.772 19.974-21.369 55.036-.077.325-.368.557-.702.56-.225.029-.446-.082-.556-.28-2.608-6.568-6.284-15.496-11.03-26.785-4.745-11.289-8.832-21.034-12.258-29.236-3.422-8.197-5.528-13.551-6.318-16.065-5.123.465-8.896.698-11.317.698-1.91 0-3.551-.035-4.922-.105-1.372-.07-2.885-.164-4.541-.28-1.269-.087-2.519-.164-3.774-.24l10.517-29.53c.28.287.56.571.851.851 5.417 5.177 12.421 7.766 21.012 7.769 9.648 0 17.181-2.666 22.597-7.998 5.417-5.332 8.123-13.65 8.118-24.953v-31.777c-.03-1.729.039-3.459.207-5.18.118-.999.449-1.961.971-2.821.351-.63 1.695-1.179 4.032-1.647 1.691-.396 3.414-.639 5.148-.727.589-1.294.589-2.432 0-3.414-1.335.039-2.747.118-4.235.236-1.49.116-2.854.207-4.09.265s-2.657.087-4.268.087c-.863 0-5.218-.196-13.065-.589-.186.529-.257 1.092-.207 1.65-.029.63.125 1.255.444 1.8 1.642.077 3.271.333 4.857.763 2.096.514 3.308 1.045 3.635 1.592.552.871.895 1.858 1.003 2.883.116 1.059.174 2.805.174 5.239v31.875c-.313 17.266-7.924 25.897-22.834 25.895-7.06 0-12.434-2.276-16.123-6.827-1.7-2.193-2.989-4.676-3.803-7.329l35.627-100.045-2.701-.963-.345-.12-33.951 95.286-5.453 15.334-59.602 167.31 2.545.909.494.174 47.158-132.367c.033.225.076.364.135.364 1.212 0 3.086.303 5.624.909 2.537.606 3.923 1.272 4.155 1.999.371 1.025.557 2.888.56 5.588 0 9.731-.652 31.988-1.956 66.771-.138 3.26-.697 5.589-1.676 6.987-.56.79-2.202 1.407-4.926 1.85-2.11.382-4.247.603-6.391.662-.254.753-.36 1.548-.313 2.341.022.952.127 1.523.313 1.709 1.49-.048 3.284-.142 5.38-.28s3.97-.242 5.62-.313c1.653-.07 3.434-.105 5.344-.105 1.818 0 3.494.035 5.028.105s3.231.174 5.09.313c1.861.141 3.421.234 4.679.28.176-.66.247-1.343.211-2.025 0-.978-.164-1.65-.491-2.025-2.152-.049-4.299-.247-6.424-.593-2.702-.385-4.235-1.02-4.599-1.905-.373-.969-.56-2.414-.56-4.333 0-.184.105-4.013.316-11.488.211-7.474.467-17.047.767-28.719.301-11.667.543-21.967.727-30.901l34.082 81.578c.698.233 1.12.327 1.258.28.651-.142 1.585-1.091 2.796-2.908.946-1.341 1.786-2.753 2.512-4.224 17.51-43.947 27.338-68.573 29.483-73.878.28-.654.513-.978.698-.978.422 0 .727.334.942 1.011.194.575.3 1.175.316 1.781.417 11.175 1.023 31.104 1.818 59.787 0 .698.044 2.061.138 4.086.095 2.025.138 3.363.138 4.017 0 3.446-.419 5.402-1.258 5.867-.744.417-2.163.78-4.257 1.091-1.595.259-3.205.411-4.82.454-.254.753-.36 1.548-.313 2.341.022.952.127 1.523.313 1.709 1.454-.048 3.272-.142 5.453-.28s4.136-.242 5.864-.313c1.723-.07 3.541-.105 5.453-.105 1.767 0 7.308.233 16.625.698.169-.613.239-1.248.207-1.883.033-.757-.135-1.51-.487-2.181-1.932-.045-3.857-.231-5.762-.556m93.451-.727c2.31.86 4.021 1.291 5.133 1.291.28.418.422 1.091.422 2.061.024.666-.024 1.333-.142 1.989-9.314-.46-14.435-.693-15.363-.698-1.912 0-3.694.035-5.344.105s-3.501.174-5.551.313c-2.05.141-3.821.234-5.311.28-.327-.364-.476-1.047-.454-2.025s.222-1.65.596-2.025c1.444-.043 2.881-.219 4.293-.523 1.791-.349 2.968-.78 3.53-1.294.371-.371.556-1.022.556-1.952 0-1.258-.791-4.156-2.374-8.696-1.583-4.539-3.169-8.772-4.759-12.698l-2.374-5.864c-.175-.307-.485-.515-.836-.56-1.212-.095-5.817-.141-13.814-.138-5.865 0-10.893.139-15.083.418l-.702.418c-2.605 6.893-4.701 12.574-6.286 17.043-1.301 3.817-1.952 7.123-1.952 9.917 0 .793.425 1.454 1.291 2.025.962.599 2.027 1.014 3.141 1.221 1.236.258 2.294.433 3.181.527.887.095 1.56.138 2.025.138.185.189.313.803.382 1.85.092.734.057 1.477-.102 2.199-1.352-.048-2.82-.142-4.402-.28-1.583-.138-3.049-.242-4.399-.313-1.352-.07-2.936-.105-4.751-.105-1.907 0-3.594.035-5.06.105s-3.085.174-4.857.313c-1.77.142-3.443.233-5.028.28-.185-.185-.28-.789-.28-1.818-.037-.756.057-1.512.28-2.236 1.56-.058 3.107-.302 4.61-.727 1.91-.485 3.168-1.126 3.774-1.923 1.953-2.559 4.135-6.936 6.544-13.131 12.295-31.616 21.281-54.664 26.96-69.145.364-.702 1.2-1.549 2.479-2.545 1.28-.996 2.225-1.501 2.832-1.501.165.009.323.07.451.174.123.091.251.174.385.247l28.414 74.601c2.331 6.006 3.519 9.079 3.563 9.219.606 1.454 2.06 2.607 4.362 3.457m-29.774-36.986-12.291-33.809-12.851 34.082c0 .364.091.56.276.56 4.847.184 9.088.277 12.724.28 3.492 0 7.404-.139 11.735-.418.108-.008.209-.059.28-.142.074-.129.121-.271.138-.418zm64.19-44.279c.182-.654 1.486-1.19 3.912-1.607 1.891-.36 3.808-.567 5.733-.618.28-.364.429-1.047.454-2.025s-.127-1.654-.454-2.025c-9.546.465-15 .698-16.359.698-1.454 0-6.948-.233-16.483-.698-.327.371-.479 1.046-.454 2.025.024.979.176 1.654.454 2.025 1.922.055 3.837.266 5.726.629 2.424.419 3.727.955 3.912 1.607.465 1.49.699 4.936.702 10.335v59.638c0 5.402-.234 8.847-.702 10.335-.184.654-1.488 1.19-3.912 1.607-1.889.363-3.803.573-5.726.629-.28.364-.433 1.047-.454 2.025-.022.978.127 1.654.454 2.025 9.544-.465 15.038-.698 16.483-.698 1.35 0 6.803.233 16.359.698.327-.364.476-1.047.454-2.025s-.174-1.65-.454-2.025c-1.922-.055-3.837-.265-5.726-.629-2.424-.417-3.727-.952-3.912-1.607-.468-1.486-.702-4.931-.702-10.335v-59.649c0-5.397.234-8.842.702-10.335m77.386 52.804c-.802-1.399-1.763-2.701-2.865-3.879-1.058-1.175-2.177-2.294-3.352-3.352-1.261-1.092-2.577-2.117-3.944-3.072-1.607-1.142-2.94-2.038-3.999-2.69s-2.421-1.489-4.086-2.512c-1.677-1.025-2.889-1.77-3.635-2.236-.797-.514-1.951-1.224-3.461-2.13s-2.685-1.633-3.526-2.181c-.836-.536-1.906-1.263-3.21-2.181-1.081-.73-2.108-1.535-3.076-2.41-.727-.702-1.57-1.549-2.479-2.545-.831-.888-1.535-1.886-2.094-2.966-.525-1.072-.935-2.197-1.225-3.355-.327-1.277-.491-2.59-.487-3.908-.017-3.682 1.128-7.277 3.272-10.27 1.228-1.671 2.88-2.985 4.784-3.806 2.254-.991 4.696-1.48 7.158-1.432 2.241-.008 4.457.47 6.496 1.4 1.959.871 3.745 2.089 5.271 3.595 1.49 1.494 2.814 3.146 3.948 4.926 1.086 1.661 1.977 3.442 2.654 5.308.56 1.537.958 3.128 1.189 4.748.412.39.968.592 1.534.56.677-.015 1.345-.17 1.959-.454.698-.302 1.022-.665.974-1.091-.698-9.173-1.35-15.785-1.956-19.835-1.72-.364-3.679-.851-5.864-1.432l-5.017-1.294c-1.461-.357-2.942-.625-4.435-.803-1.911-.245-3.836-.366-5.762-.364-4.594-.024-9.133 1.004-13.269 3.003-4.103 1.96-7.615 4.97-10.179 8.725-2.615 3.771-3.994 8.263-3.944 12.851-.002 1.519.185 3.032.556 4.504.334 1.338.743 2.656 1.225 3.948.538 1.336 1.273 2.583 2.181 3.701 1.025 1.301 1.864 2.361 2.516 3.177.99 1.132 2.102 2.151 3.315 3.039 1.558 1.212 2.676 2.084 3.352 2.617s1.946 1.381 3.81 2.545c1.861 1.168 3.06 1.903 3.595 2.203.536.301 1.781 1.028 3.737 2.181.885.514 2.06 1.166 3.526 1.956 1.454.793 2.628 1.432 3.494 1.919.865.487 1.883 1.12 3.072 1.887.989.622 1.934 1.311 2.828 2.061.803.709 1.562 1.466 2.272 2.268.756.826 1.391 1.755 1.887 2.759.483 1.047.849 2.144 1.091 3.272.286 1.314.426 2.655.418 3.999 0 5.262-1.606 9.418-4.817 12.469s-7.182 4.59-11.913 4.617c-2.998.033-5.97-.561-8.725-1.745-2.376-.98-4.545-2.403-6.391-4.192-1.653-1.69-3.075-3.592-4.228-5.657-1.027-1.751-1.902-3.586-2.617-5.486-.505-1.401-.913-2.836-1.221-4.293-.143-.841-.656-1.26-1.538-1.258-1.301 0-2.516.56-3.635 1.676 0 1.115.303 4.084.909 8.907s1.281 9.071 2.025 12.746c.978.185 2.759.585 5.344 1.189 2.585.603 4.726 1.069 6.391 1.396s3.781.651 6.322.978c2.349.312 4.716.474 7.085.487 3.7.004 7.373-.622 10.862-1.85 3.389-1.164 6.555-2.9 9.357-5.133 2.744-2.207 4.977-4.983 6.544-8.136 1.63-3.239 2.467-6.819 2.443-10.444.001-1.665-.234-3.323-.698-4.922-.418-1.492-1.004-2.932-1.745-4.293m92.531-46.598c4.147 4.101 7.442 9.119 9.885 15.054 2.47 6.064 3.717 12.556 3.668 19.104.018 6.295-1.23 12.53-3.668 18.333-2.29 5.611-5.633 10.732-9.848 15.087-4.163 4.246-9.099 7.659-14.541 10.055-5.486 2.469-11.434 3.743-17.45 3.737-5.987.023-11.917-1.177-17.424-3.526-5.387-2.262-10.285-5.548-14.421-9.674-4.101-4.096-7.36-9.102-9.779-15.018-2.447-6.031-3.683-12.486-3.635-18.995.005-12.46 4.783-24.456 13.345-33.507 4.135-4.25 9.045-7.671 14.465-10.077 5.469-2.495 11.413-3.781 17.424-3.77 5.995-.019 11.932 1.181 17.45 3.526 5.42 2.266 10.356 5.548 14.541 9.67m-1.291 48.198c.679-3.757 1.018-7.568 1.014-11.386.001-5.495-.775-10.962-2.305-16.239-1.448-5.12-3.631-10.002-6.482-14.494-2.713-4.274-6.369-7.869-10.688-10.51-4.311-2.659-9.287-4.046-14.352-3.999-3.818-.049-7.599.751-11.07 2.341-3.178 1.446-6.011 3.553-8.31 6.18-2.306 2.711-4.201 5.746-5.624 9.008-1.528 3.418-2.643 7.006-3.319 10.688-.68 3.733-1.018 7.519-1.011 11.313.001 5.504.765 10.981 2.268 16.276 1.421 5.146 3.573 10.062 6.391 14.596 2.683 4.314 6.329 7.949 10.652 10.619 4.306 2.684 9.289 4.085 14.363 4.039 3.829.047 7.622-.752 11.106-2.341 3.204-1.443 6.056-3.564 8.361-6.216 2.31-2.744 4.215-5.804 5.657-9.088 1.554-3.446 2.679-7.07 3.352-10.79m119.193-60.558c-1.774.142-3.388.244-4.857.313s-3.155.105-5.064.105c-1.396 0-6.751-.233-16.065-.698-.224.626-.307 1.294-.244 1.956-.03.735.151 1.463.523 2.098 1.35 0 3.364.303 6.042.909s4.202 1.234 4.573 1.883c.655 1.033 1.062 2.204 1.189 3.421.138 1.261.211 3.33.211 6.216v52.945c-5.308-7.402-15.18-19.891-29.617-37.47-14.437-17.578-22.818-28.183-25.142-31.813-2.608.184-6.146.277-10.615.28-1.772 0-4.217-.105-7.336-.316s-5.422-.339-6.907-.385c-.698 1.166-.698 2.517 0 4.053 1.304 0 3.342.279 6.115.836s4.367 1.209 4.784 1.956c.62 1.023 1.013 2.167 1.152 3.355.197 2.042.278 4.093.244 6.144v60.627c.034 2.051-.047 4.102-.244 6.144-.14 1.188-.533 2.332-1.152 3.355-.422.746-2.016 1.397-4.784 1.952s-4.806.835-6.115.84c-.698 1.539-.698 2.889 0 4.05 1.583-.048 3.26-.141 5.031-.276 1.767-.142 3.388-.247 4.853-.316s3.155-.105 5.064-.105c1.301 0 6.609.233 15.923.698.189-.364.269-1.022.247-1.956.028-.734-.155-1.461-.527-2.094-1.35 0-3.34-.302-5.969-.905-2.63-.603-4.131-1.232-4.504-1.887-.656-1.034-1.063-2.206-1.189-3.425-.142-1.258-.211-3.326-.211-6.216v-63.419l60.907 76.968c.705 1 1.621 1.834 2.683 2.443.952.513 1.683.767 2.181.767 1.115 0 1.721-.28 1.818-.84-.184-4.847-.277-11.27-.28-19.267v-56.857c-.036-2.052.045-4.105.244-6.147.14-1.187.534-2.331 1.156-3.352.419-.744 2.013-1.396 4.781-1.956s4.806-.839 6.115-.836c.698-1.537.698-2.888 0-4.053-1.585.046-3.261.139-5.028.28"/></clipPath><path d="m195.16 165.66-58.489 167.754c0-.029-.029-.055-.04-.084-.697-1.663-1.304-3.361-1.818-5.09-.767-2.93-1.454-5.893-1.978-8.874-.491-2.73-.84-5.5-1.069-8.267-.181-2.857.015-5.726.582-8.532.571-3.17.974-6.373 1.56-9.543.422-2.279 1.011-4.526 1.534-6.787.465-2.007.898-4.024 1.418-6.017.818-3.123 1.752-6.227 1.749-9.488.018-1.882-.087-3.763-.316-5.631-.207-1.585-.727-3.13-1.091-4.697-.64-2.767-1.225-5.548-1.923-8.3-.92-3.635-1.952-7.231-2.908-10.859-1.007-3.872-1.93-7.769-2.963-11.633-1.218-4.551-2.428-9.11-3.806-13.614-1.152-3.777-2.399-7.532-3.864-11.193-.894-2.236 3.788-3.944 1.305-4.268-2.457-.299-4.951-.004-7.271.862-3.399 1.207-6.867 2.247-10.361 3.17-.911.21-1.851.266-2.781.167-.364-.029-.727-.069-1.091-.116-1.91-.272-3.798-.674-5.653-1.203-4.032-1.149-8.056-.523-11.946.338-3.566.789-7.038 2.156-10.412 3.599-2.97 1.269-5.886 2.788-8.085 5.304s-4.362 4.973-6.496 7.511c-3.635 4.333-8.107 6.853-13.883 6.453-2.628-.182-5.115-.822-6.573-3.443-.871-1.539-2.171-2.792-3.741-3.606-.712-.449-1.331-1.032-1.821-1.716-1.454-1.818-3.043-3.672-3.235-6.089-.138-1.516-.538-2.607-1.643-3.697-1.454-1.454-2.388-3.319-1.927-5.471.468-2.225 1.322-4.351 2.523-6.282 2.613-4.191 5.666-8.09 9.107-11.633 6.845-7.038 13.76-14.007 20.583-21.067 1.938-2.003 3.737-4.155 5.453-6.344 3.359-4.246 7.009-8.205 11.299-11.506 3.959-3.043 8.085-5.871 12.138-8.79.927-.669 1.865-1.323 2.937-2.076-.502-.385-.814-.825-1.091-.807-1.171.08-1.705-.782-2.418-1.418-1.607-1.454-1.963-3.486-2.545-5.38-.309-1.022-.789-1.57-1.73-1.847-2.338-.691-3.635-2.403-4.428-4.57-.331-.905-.545-1.854-.789-2.788s-.607-1.752-1.767-2.036c-2.243-.553-3.417-2.236-4.09-4.315-.316-.978-.473-2.01-.807-2.985-.171-.494-.48-1.145-.898-1.323-2.643-1.131-4.304-3.199-5.213-5.762-.533-1.655-1.577-3.098-2.981-4.123-2.327-1.763-3.672-4.312-4.341-7.194-.124-.56-.464-1.048-.945-1.36-2.396-1.12-3.501-3.272-4.286-5.533-.322-1.095-1.04-2.033-2.014-2.628-1.776-1.132-3.056-2.9-3.577-4.94-.296-1.193-.96-2.262-1.898-3.057-1.607-1.428-2.864-3.207-3.672-5.199-.242-.521-.584-.989-1.007-1.378-1.181-1.12-2.338-2.218-2.861-3.853-.215-.614-.602-1.153-1.116-1.552-1.818-1.381-2.363-3.272-2.468-5.475.291.069.523.055.64.167 2.105 2.029 4.421 3.897 6.206 6.18 1.338 1.747 2.801 3.394 4.377 4.93.516.491.923 1.091 1.4 1.621.902 1.014 1.716 2.138 2.752 2.988 1.477 1.175 2.701 2.637 3.599 4.297.364.727.912 1.53 1.592 1.876 2.156 1.091 3.468 2.879 4.453 4.98.414.804 1.044 1.477 1.818 1.945 1.63 1.079 2.996 2.51 3.999 4.188.829 1.454 1.687 2.945 3.163 3.893 2.387 1.487 4.269 3.662 5.399 6.238.34.754.914 1.378 1.636 1.781 2.434 1.157 4.351 3.181 5.373 5.675.34.92 1.045 1.66 1.949 2.043 1.785.778 3.119 2.181 4.13 3.752 1.374 2.119 2.545 4.282 4.726 5.787 1.723 1.181 2.668 3.141 3.599 5.02.255.574.671 1.063 1.196 1.407 1.294.727 2.676 1.269 4.028 1.89.869-.654 1.716-1.258 2.512-1.912.24-.206.4-.489.454-.8.244-1.73.593-3.461.618-5.202.08-5.329.033-10.663.033-15.996 0-1.945.196-3.908-.505-5.795-.044-.127.105-.327.164-.487.171.04.364.025.396.098.244.364.458.771.673 1.163 2.501 4.479 4.988 8.958 7.503 13.425.294.383.63.73 1.003 1.036 1.127-2.476 1.487-4.89 1.705-7.314.218-2.425.236-4.806.411-7.202.118-.915.288-1.823.509-2.719l.491-.102c.454.571 1.029 1.091 1.345 1.727 1.2 2.443 2.283 4.944 3.468 7.398 1.352 2.803 2.687 5.624 4.184 8.361.945 1.727 1.687 1.912 3.552 1.269l1.276-.451c2.323-.814 4.642-1.643 6.936-2.545 3.686-1.395 7.538-2.305 11.459-2.705 3.915-.44 7.722.4 11.491 1.381l2.094.556c-.234.276-.583.43-.945.414-2.407 0-4.817-.124-7.216 0-1.417.068-2.819.328-4.166.774-2.42.855-3.902 3.335-3.508 5.871 1.181.327 2.407.727 3.661 1.007 2.334.513 4.682 1.309 7.031 1.341 4.468.065 8.95-.287 13.418-.542 1.61-.087 3.21-.364 4.813-.589 1.796-.229 3.595-.436 5.388-.702 2.181-.324 4.33-.785 6.511-1.032 3.664-.414 7.343-.771 11.026-1.036 4.664-.331 9.307-.429 13.989.24.574.084 1.142.178 1.712.276l-3.363 9.645c-1.344.065-2.681.234-3.999.505-2.145.444-4.362.698-6.416 1.385-3.243 1.091-6.398 2.45-9.568 3.744-.454.237-.873.537-1.243.891l-.327.265c.241.169.496.316.763.44 4.084 1.188 8.169 2.37 12.255 3.548 1.454.418 2.886.851 4.33 1.28l-10.012 28.708zm87.881 35.339c-.118 1-.449 1.963-.971 2.825-.356.625-1.7 1.174-4.032 1.647-1.693.387-3.417.623-5.151.705-.587 1.294-.587 2.432 0 3.414 1.333-.041 2.746-.12 4.239-.236s2.859-.205 4.097-.265c1.236-.058 2.659-.087 4.268-.087 1.098 0 5.571.196 13.418.589.188-.527.259-1.089.207-1.647.022-.619-.131-1.232-.444-1.767-1.699-.08-3.385-.336-5.031-.763-2.218-.509-3.483-1.039-3.795-1.589-.554-.871-.896-1.86-1-2.886-.121-1.057-.181-2.802-.178-5.235v-53.433l51.317 64.848c.596.844 1.369 1.548 2.265 2.061.561.353 1.195.574 1.854.647.94 0 1.451-.235 1.53-.705-.155-4.081-.234-9.496-.236-16.243v-47.903c-.03-1.728.039-3.457.207-5.177.117-1 .448-1.964.971-2.825.354-.63 1.698-1.18 4.032-1.65 1.69-.38 3.41-.61 5.14-.687.589-1.294.589-2.432 0-3.414-1.333.039-2.746.118-4.239.236-1.49.116-2.854.207-4.09.265s-2.657.087-4.264.087c-1.178 0-5.689-.196-13.534-.589-.189.527-.26 1.089-.207 1.647-.023.619.129 1.231.44 1.767 1.718.082 3.424.339 5.09.767 2.259.509 3.544 1.039 3.857 1.589.551.871.893 1.858 1 2.883.116 1.059.176 2.805.178 5.239v44.606c-4.467-6.25-12.782-16.781-24.946-31.591s-19.226-23.745-21.187-26.804c-2.196.158-5.177.235-8.943.233-1.495 0-3.555-.087-6.18-.262-2.625-.174-4.564-.284-5.817-.327-.587.982-.587 2.121 0 3.417 1.735.08 3.458.315 5.151.702 2.334.473 3.678 1.023 4.032 1.65.521.861.852 1.825.971 2.825.168 1.72.237 3.449.207 5.177v51.08c.03 1.729-.039 3.459-.207 5.18m89.833 3.294c-.16.549-1.258 1.003-3.297 1.352-1.592.308-3.207.486-4.828.531-.233.313-.364.883-.364 1.709 0 .825.105 1.389.364 1.705 8.044-.393 12.672-.589 13.883-.589 1.137 0 5.727.196 13.771.589.273-.316.4-.883.382-1.705s-.149-1.396-.382-1.709c-1.621-.045-3.236-.222-4.828-.531-2.039-.364-3.137-.803-3.294-1.352-.393-1.253-.589-4.161-.589-8.725v-50.241c0-4.547.196-7.455.589-8.725.158-.548 1.255-.999 3.294-1.352 1.592-.307 3.207-.484 4.828-.531.233-.313.364-.88.382-1.705s-.109-1.392-.382-1.705c-8.044.393-12.634.589-13.771.589-1.212 0-5.842-.196-13.891-.589-.273.313-.4.88-.364 1.705s.145 1.392.364 1.705c1.621.047 3.235.224 4.828.531 2.038.354 3.137.805 3.297 1.352.39 1.258.587 4.166.589 8.725v50.255c0 4.551-.196 7.46-.589 8.725m96.479-7.474c1.003-4.588 1.504-7.628 1.501-9.121-1.11-.736-2.44-1.068-3.766-.942-1.258 5.926-3.651 10.477-7.18 13.654-4.278 3.766-9.457 5.649-15.538 5.649-3.773.037-7.515-.684-11.004-2.119-3.222-1.313-6.152-3.254-8.619-5.708-2.428-2.467-4.471-5.286-6.06-8.361-1.672-3.187-2.919-6.58-3.708-10.092-.809-3.579-1.214-7.237-1.207-10.906-.003-5.56 1.181-11.057 3.472-16.123 2.252-5.101 5.753-9.554 10.179-12.946 4.285-3.391 9.601-5.221 15.065-5.184 13.138 0 20.827 5.728 23.066 17.184.424.258.915.385 1.411.364.623-.009 1.232-.182 1.767-.502.589-.331.865-.676.822-1.029 0-.785-.902-6.591-2.705-17.417-7.612-1.65-15.93-2.474-24.953-2.472-5.485-.032-10.916 1.083-15.945 3.272-4.771 2.03-9.078 5.014-12.655 8.768-7.188 7.765-11.183 17.967-11.179 28.549.004 10.103 3.905 19.826 10.884 27.131 3.545 3.608 7.791 6.454 12.477 8.361 5.053 2.1 10.477 3.159 15.948 3.116 10.593 0 19.027-1.766 25.302-5.297.744-.625 1.618-3.234 2.621-7.827m23.51 2.472c-3.565-3.623-6.367-7.925-8.238-12.651-2.06-5.079-3.1-10.515-3.061-15.996.016-10.496 4.051-20.598 11.27-28.218 3.48-3.595 7.615-6.493 12.182-8.536 4.608-2.101 9.615-3.185 14.68-3.177 5.056-.018 10.063.993 14.716 2.97 4.561 1.912 8.714 4.679 12.237 8.15 3.603 3.623 6.436 7.938 8.329 12.684 2.082 5.108 3.132 10.578 3.09 16.094.015 5.304-1.036 10.557-3.09 15.447-1.931 4.73-4.747 9.049-8.296 12.724-3.515 3.577-7.679 6.453-12.269 8.474-4.627 2.08-9.643 3.153-14.716 3.148-5.044.018-10.04-.994-14.68-2.974-4.54-1.906-8.667-4.674-12.153-8.15m1.207-40.782c-.574 3.145-.86 6.335-.854 9.532 0 4.637.644 9.252 1.912 13.713 1.198 4.337 3.011 8.48 5.384 12.302 2.261 3.634 5.334 6.695 8.976 8.943 3.625 2.264 7.821 3.448 12.095 3.414 3.225.041 6.419-.632 9.354-1.97 2.695-1.219 5.095-3.006 7.034-5.239 1.943-2.305 3.548-4.876 4.766-7.634 1.308-2.903 2.257-5.955 2.825-9.088.57-3.165.854-6.374.851-9.59.001-4.63-.651-9.236-1.938-13.684-1.219-4.311-3.056-8.423-5.453-12.208-2.285-3.601-5.366-6.631-9.005-8.856-3.63-2.248-7.822-3.423-12.091-3.388-3.217-.042-6.404.632-9.328 1.974-2.671 1.209-5.055 2.971-6.994 5.169-1.94 2.286-3.532 4.845-4.726 7.594-1.288 2.878-2.226 5.9-2.796 9.001m144.687 51.08c-7.649 0-12.828-.471-15.538-1.414-2.513-.902-4.435-1.961-5.766-3.177-.687-.608-1.317-1.278-1.883-1.999-1.02-1.374-3.541-5.042-7.562-11.004s-7.738-11.592-11.153-16.89c-.625-.94-1.802-1.411-3.53-1.411h-6.238v21.889c0 4.551.196 7.46.589 8.725.156.549 1.258 1.003 3.297 1.352 1.591.308 3.204.486 4.824.531.236.313.364.883.364 1.709 0 .825-.109 1.389-.364 1.705-8.041-.393-12.632-.589-13.771-.589-1.212 0-5.841.196-13.887.589-.276-.316-.404-.883-.364-1.705s.145-1.396.364-1.709c1.62-.045 3.233-.222 4.824-.531 2.039-.364 3.141-.803 3.297-1.352.313-.969.509-3.878.589-8.725l-.091-50.248c0-4.551-.195-7.46-.585-8.725-.16-.545-1.258-1-3.297-1.352-1.591-.305-3.205-.482-4.824-.527-.236-.316-.364-.887-.385-1.709-.022-.822.109-1.392.385-1.705 8.041.393 12.67.589 13.887.589 1.331 0 3.822-.04 7.474-.12s6.731-.119 9.237-.116c2.813.013 5.607.464 8.281 1.338 2.744.874 5.342 2.153 7.707 3.795 2.396 1.671 4.371 3.878 5.766 6.445 1.484 2.692 2.246 5.724 2.21 8.798 0 4.04-1.638 7.934-4.915 11.68-3.277 3.747-6.994 6.327-11.153 7.74 5.06 8.434 11.397 17.653 19.009 27.658 1.767 2.317 3.64 4.013 5.62 5.09 1.98 1.076 4.539 1.733 7.678 1.97.256.582.329 1.229.207 1.854-.038.532-.146 1.057-.324 1.56m-45.377-39.545c4.678.051 9.213-1.633 12.724-4.726 3.667-3.151 5.5-7.221 5.5-12.211 0-5.453-1.454-9.759-4.362-12.916-2.908-3.158-7.489-4.733-13.742-4.726-3.57 0-5.532.391-5.886 1.174-.393.945-.589 3.887-.589 8.827l.058 24.601h6.296m130.171-38.84c-1.331.039-2.742.118-4.235.236-1.49.116-2.854.207-4.093.265-1.24.058-2.654.087-4.264.087-1.178 0-5.689-.196-13.534-.589-.188.529-.258 1.092-.204 1.65-.027.618.126 1.23.44 1.763 1.718.082 3.423.338 5.09.763 2.259.514 3.543 1.045 3.853 1.592.552.87.894 1.857 1 2.883.121 1.059.181 2.805.178 5.239v44.606c-4.471-6.238-12.788-16.763-24.949-31.573-12.162-14.81-19.224-23.745-21.187-26.804-2.196.158-5.177.235-8.943.233-1.493 0-3.553-.087-6.18-.262-2.628-.178-4.57-.284-5.817-.327-.589.982-.589 2.119 0 3.414 1.733.082 3.456.318 5.148.705 2.334.473 3.679 1.023 4.035 1.65.52.862.85 1.825.967 2.825.168 1.721.238 3.451.207 5.18v51.055c.03 1.729-.039 3.459-.207 5.18-.117 1-.447 1.963-.967 2.825-.364.625-1.701 1.178-4.035 1.647-1.691.389-3.414.625-5.148.705-.589 1.294-.589 2.432 0 3.414 1.335-.041 2.747-.12 4.235-.236s2.853-.204 4.093-.262c1.236-.063 2.657-.093 4.264-.091 1.098 0 5.571.196 13.418.589.188-.527.259-1.089.207-1.647.024-.619-.13-1.232-.444-1.767-1.699-.08-3.385-.336-5.031-.763-2.218-.509-3.483-1.039-3.795-1.589-.552-.871-.894-1.858-1-2.883-.116-1.062-.174-2.808-.174-5.239v-53.433l51.313 64.851c.597.842 1.37 1.546 2.265 2.061.561.353 1.195.574 1.854.647.94 0 1.451-.235 1.53-.705-.155-4.081-.234-9.496-.236-16.243v-47.907c-.03-1.728.039-3.457.207-5.177.117-1 .448-1.964.971-2.825.354-.63 1.698-1.18 4.032-1.65 1.692-.387 3.414-.623 5.148-.705.589-1.294.589-2.432 0-3.414m-424.61 187.628c-2.399-.373-3.732-.979-3.999-1.818-.931-2.516-1.489-7.032-1.676-13.549-.095-4.144-.246-11.052-.454-20.722s-.395-18.098-.56-25.284c-.165-7.193-.292-12.21-.382-15.05 0-2.516.229-4.286.698-5.308.324-.607 1.734-1.174 4.224-1.712s4.373-.782 5.678-.782l-.418-4.05c-4.658.371-9.869.556-15.632.556-1.396 0-5.075-.185-11.037-.556l-6.169 16.752c-.65 1.629-7.772 19.974-21.369 55.036-.077.325-.368.557-.702.56-.225.029-.446-.082-.556-.28-2.608-6.568-6.284-15.496-11.03-26.785-4.745-11.289-8.832-21.034-12.258-29.236-3.422-8.197-5.528-13.551-6.318-16.065-5.123.465-8.896.698-11.317.698-1.91 0-3.551-.035-4.922-.105-1.372-.07-2.885-.164-4.541-.28-1.269-.087-2.519-.164-3.774-.24l10.517-29.53c.28.287.56.571.851.851 5.417 5.177 12.421 7.766 21.012 7.769 9.648 0 17.181-2.666 22.597-7.998 5.417-5.332 8.123-13.65 8.118-24.953v-31.777c-.03-1.729.039-3.459.207-5.18.118-.999.449-1.961.971-2.821.351-.63 1.695-1.179 4.032-1.647 1.691-.396 3.414-.639 5.148-.727.589-1.294.589-2.432 0-3.414-1.335.039-2.747.118-4.235.236-1.49.116-2.854.207-4.09.265s-2.657.087-4.268.087c-.863 0-5.218-.196-13.065-.589-.186.529-.257 1.092-.207 1.65-.029.63.125 1.255.444 1.8 1.642.077 3.271.333 4.857.763 2.096.514 3.308 1.045 3.635 1.592.552.871.895 1.858 1.003 2.883.116 1.059.174 2.805.174 5.239v31.875c-.313 17.266-7.924 25.897-22.834 25.895-7.06 0-12.434-2.276-16.123-6.827-1.7-2.193-2.989-4.676-3.803-7.329l35.627-100.045-2.701-.963-.345-.12-33.951 95.286-5.453 15.334-59.602 167.31 2.545.909.494.174 47.158-132.367c.033.225.076.364.135.364 1.212 0 3.086.303 5.624.909 2.537.606 3.923 1.272 4.155 1.999.371 1.025.557 2.888.56 5.588 0 9.731-.652 31.988-1.956 66.771-.138 3.26-.697 5.589-1.676 6.987-.56.79-2.202 1.407-4.926 1.85-2.11.382-4.247.603-6.391.662-.254.753-.36 1.548-.313 2.341.022.952.127 1.523.313 1.709 1.49-.048 3.284-.142 5.38-.28s3.97-.242 5.62-.313c1.653-.07 3.434-.105 5.344-.105 1.818 0 3.494.035 5.028.105s3.231.174 5.09.313c1.861.141 3.421.234 4.679.28.176-.66.247-1.343.211-2.025 0-.978-.164-1.65-.491-2.025-2.152-.049-4.299-.247-6.424-.593-2.702-.385-4.235-1.02-4.599-1.905-.373-.969-.56-2.414-.56-4.333 0-.184.105-4.013.316-11.488.211-7.474.467-17.047.767-28.719.301-11.667.543-21.967.727-30.901l34.082 81.578c.698.233 1.12.327 1.258.28.651-.142 1.585-1.091 2.796-2.908.946-1.341 1.786-2.753 2.512-4.224 17.51-43.947 27.338-68.573 29.483-73.878.28-.654.513-.978.698-.978.422 0 .727.334.942 1.011.194.575.3 1.175.316 1.781.417 11.175 1.023 31.104 1.818 59.787 0 .698.044 2.061.138 4.086.095 2.025.138 3.363.138 4.017 0 3.446-.419 5.402-1.258 5.867-.744.417-2.163.78-4.257 1.091-1.595.259-3.205.411-4.82.454-.254.753-.36 1.548-.313 2.341.022.952.127 1.523.313 1.709 1.454-.048 3.272-.142 5.453-.28s4.136-.242 5.864-.313c1.723-.07 3.541-.105 5.453-.105 1.767 0 7.308.233 16.625.698.169-.613.239-1.248.207-1.883.033-.757-.135-1.51-.487-2.181-1.932-.045-3.857-.231-5.762-.556m93.451-.727c2.31.86 4.021 1.291 5.133 1.291.28.418.422 1.091.422 2.061.024.666-.024 1.333-.142 1.989-9.314-.46-14.435-.693-15.363-.698-1.912 0-3.694.035-5.344.105s-3.501.174-5.551.313c-2.05.141-3.821.234-5.311.28-.327-.364-.476-1.047-.454-2.025s.222-1.65.596-2.025c1.444-.043 2.881-.219 4.293-.523 1.791-.349 2.968-.78 3.53-1.294.371-.371.556-1.022.556-1.952 0-1.258-.791-4.156-2.374-8.696-1.583-4.539-3.169-8.772-4.759-12.698l-2.374-5.864c-.175-.307-.485-.515-.836-.56-1.212-.095-5.817-.141-13.814-.138-5.865 0-10.893.139-15.083.418l-.702.418c-2.605 6.893-4.701 12.574-6.286 17.043-1.301 3.817-1.952 7.123-1.952 9.917 0 .793.425 1.454 1.291 2.025.962.599 2.027 1.014 3.141 1.221 1.236.258 2.294.433 3.181.527.887.095 1.56.138 2.025.138.185.189.313.803.382 1.85.092.734.057 1.477-.102 2.199-1.352-.048-2.82-.142-4.402-.28-1.583-.138-3.049-.242-4.399-.313-1.352-.07-2.936-.105-4.751-.105-1.907 0-3.594.035-5.06.105s-3.085.174-4.857.313c-1.77.142-3.443.233-5.028.28-.185-.185-.28-.789-.28-1.818-.037-.756.057-1.512.28-2.236 1.56-.058 3.107-.302 4.61-.727 1.91-.485 3.168-1.126 3.774-1.923 1.953-2.559 4.135-6.936 6.544-13.131 12.295-31.616 21.281-54.664 26.96-69.145.364-.702 1.2-1.549 2.479-2.545 1.28-.996 2.225-1.501 2.832-1.501.165.009.323.07.451.174.123.091.251.174.385.247l28.414 74.601c2.331 6.006 3.519 9.079 3.563 9.219.606 1.454 2.06 2.607 4.362 3.457m-29.774-36.986-12.291-33.809-12.851 34.082c0 .364.091.56.276.56 4.847.184 9.088.277 12.724.28 3.492 0 7.404-.139 11.735-.418.108-.008.209-.059.28-.142.074-.129.121-.271.138-.418zm64.19-44.279c.182-.654 1.486-1.19 3.912-1.607 1.891-.36 3.808-.567 5.733-.618.28-.364.429-1.047.454-2.025s-.127-1.654-.454-2.025c-9.546.465-15 .698-16.359.698-1.454 0-6.948-.233-16.483-.698-.327.371-.479 1.046-.454 2.025.024.979.176 1.654.454 2.025 1.922.055 3.837.266 5.726.629 2.424.419 3.727.955 3.912 1.607.465 1.49.699 4.936.702 10.335v59.638c0 5.402-.234 8.847-.702 10.335-.184.654-1.488 1.19-3.912 1.607-1.889.363-3.803.573-5.726.629-.28.364-.433 1.047-.454 2.025-.022.978.127 1.654.454 2.025 9.544-.465 15.038-.698 16.483-.698 1.35 0 6.803.233 16.359.698.327-.364.476-1.047.454-2.025s-.174-1.65-.454-2.025c-1.922-.055-3.837-.265-5.726-.629-2.424-.417-3.727-.952-3.912-1.607-.468-1.486-.702-4.931-.702-10.335v-59.649c0-5.397.234-8.842.702-10.335m77.386 52.804c-.802-1.399-1.763-2.701-2.865-3.879-1.058-1.175-2.177-2.294-3.352-3.352-1.261-1.092-2.577-2.117-3.944-3.072-1.607-1.142-2.94-2.038-3.999-2.69s-2.421-1.489-4.086-2.512c-1.677-1.025-2.889-1.77-3.635-2.236-.797-.514-1.951-1.224-3.461-2.13s-2.685-1.633-3.526-2.181c-.836-.536-1.906-1.263-3.21-2.181-1.081-.73-2.108-1.535-3.076-2.41-.727-.702-1.57-1.549-2.479-2.545-.831-.888-1.535-1.886-2.094-2.966-.525-1.072-.935-2.197-1.225-3.355-.327-1.277-.491-2.59-.487-3.908-.017-3.682 1.128-7.277 3.272-10.27 1.228-1.671 2.88-2.985 4.784-3.806 2.254-.991 4.696-1.48 7.158-1.432 2.241-.008 4.457.47 6.496 1.4 1.959.871 3.745 2.089 5.271 3.595 1.49 1.494 2.814 3.146 3.948 4.926 1.086 1.661 1.977 3.442 2.654 5.308.56 1.537.958 3.128 1.189 4.748.412.39.968.592 1.534.56.677-.015 1.345-.17 1.959-.454.698-.302 1.022-.665.974-1.091-.698-9.173-1.35-15.785-1.956-19.835-1.72-.364-3.679-.851-5.864-1.432l-5.017-1.294c-1.461-.357-2.942-.625-4.435-.803-1.911-.245-3.836-.366-5.762-.364-4.594-.024-9.133 1.004-13.269 3.003-4.103 1.96-7.615 4.97-10.179 8.725-2.615 3.771-3.994 8.263-3.944 12.851-.002 1.519.185 3.032.556 4.504.334 1.338.743 2.656 1.225 3.948.538 1.336 1.273 2.583 2.181 3.701 1.025 1.301 1.864 2.361 2.516 3.177.99 1.132 2.102 2.151 3.315 3.039 1.558 1.212 2.676 2.084 3.352 2.617s1.946 1.381 3.81 2.545c1.861 1.168 3.06 1.903 3.595 2.203.536.301 1.781 1.028 3.737 2.181.885.514 2.06 1.166 3.526 1.956 1.454.793 2.628 1.432 3.494 1.919.865.487 1.883 1.12 3.072 1.887.989.622 1.934 1.311 2.828 2.061.803.709 1.562 1.466 2.272 2.268.756.826 1.391 1.755 1.887 2.759.483 1.047.849 2.144 1.091 3.272.286 1.314.426 2.655.418 3.999 0 5.262-1.606 9.418-4.817 12.469s-7.182 4.59-11.913 4.617c-2.998.033-5.97-.561-8.725-1.745-2.376-.98-4.545-2.403-6.391-4.192-1.653-1.69-3.075-3.592-4.228-5.657-1.027-1.751-1.902-3.586-2.617-5.486-.505-1.401-.913-2.836-1.221-4.293-.143-.841-.656-1.26-1.538-1.258-1.301 0-2.516.56-3.635 1.676 0 1.115.303 4.084.909 8.907s1.281 9.071 2.025 12.746c.978.185 2.759.585 5.344 1.189 2.585.603 4.726 1.069 6.391 1.396s3.781.651 6.322.978c2.349.312 4.716.474 7.085.487 3.7.004 7.373-.622 10.862-1.85 3.389-1.164 6.555-2.9 9.357-5.133 2.744-2.207 4.977-4.983 6.544-8.136 1.63-3.239 2.467-6.819 2.443-10.444.001-1.665-.234-3.323-.698-4.922-.418-1.492-1.004-2.932-1.745-4.293m92.531-46.598c4.147 4.101 7.442 9.119 9.885 15.054 2.47 6.064 3.717 12.556 3.668 19.104.018 6.295-1.23 12.53-3.668 18.333-2.29 5.611-5.633 10.732-9.848 15.087-4.163 4.246-9.099 7.659-14.541 10.055-5.486 2.469-11.434 3.743-17.45 3.737-5.987.023-11.917-1.177-17.424-3.526-5.387-2.262-10.285-5.548-14.421-9.674-4.101-4.096-7.36-9.102-9.779-15.018-2.447-6.031-3.683-12.486-3.635-18.995.005-12.46 4.783-24.456 13.345-33.507 4.135-4.25 9.045-7.671 14.465-10.077 5.469-2.495 11.413-3.781 17.424-3.77 5.995-.019 11.932 1.181 17.45 3.526 5.42 2.266 10.356 5.548 14.541 9.67m-1.291 48.198c.679-3.757 1.018-7.568 1.014-11.386.001-5.495-.775-10.962-2.305-16.239-1.448-5.12-3.631-10.002-6.482-14.494-2.713-4.274-6.369-7.869-10.688-10.51-4.311-2.659-9.287-4.046-14.352-3.999-3.818-.049-7.599.751-11.07 2.341-3.178 1.446-6.011 3.553-8.31 6.18-2.306 2.711-4.201 5.746-5.624 9.008-1.528 3.418-2.643 7.006-3.319 10.688-.68 3.733-1.018 7.519-1.011 11.313.001 5.504.765 10.981 2.268 16.276 1.421 5.146 3.573 10.062 6.391 14.596 2.683 4.314 6.329 7.949 10.652 10.619 4.306 2.684 9.289 4.085 14.363 4.039 3.829.047 7.622-.752 11.106-2.341 3.204-1.443 6.056-3.564 8.361-6.216 2.31-2.744 4.215-5.804 5.657-9.088 1.554-3.446 2.679-7.07 3.352-10.79m119.193-60.558c-1.774.142-3.388.244-4.857.313s-3.155.105-5.064.105c-1.396 0-6.751-.233-16.065-.698-.224.626-.307 1.294-.244 1.956-.03.735.151 1.463.523 2.098 1.35 0 3.364.303 6.042.909s4.202 1.234 4.573 1.883c.655 1.033 1.062 2.204 1.189 3.421.138 1.261.211 3.33.211 6.216v52.945c-5.308-7.402-15.18-19.891-29.617-37.47-14.437-17.578-22.818-28.183-25.142-31.813-2.608.184-6.146.277-10.615.28-1.772 0-4.217-.105-7.336-.316s-5.422-.339-6.907-.385c-.698 1.166-.698 2.517 0 4.053 1.304 0 3.342.279 6.115.836s4.367 1.209 4.784 1.956c.62 1.023 1.013 2.167 1.152 3.355.197 2.042.278 4.093.244 6.144v60.627c.034 2.051-.047 4.102-.244 6.144-.14 1.188-.533 2.332-1.152 3.355-.422.746-2.016 1.397-4.784 1.952s-4.806.835-6.115.84c-.698 1.539-.698 2.889 0 4.05 1.583-.048 3.26-.141 5.031-.276 1.767-.142 3.388-.247 4.853-.316s3.155-.105 5.064-.105c1.301 0 6.609.233 15.923.698.189-.364.269-1.022.247-1.956.028-.734-.155-1.461-.527-2.094-1.35 0-3.34-.302-5.969-.905-2.63-.603-4.131-1.232-4.504-1.887-.656-1.034-1.063-2.206-1.189-3.425-.142-1.258-.211-3.326-.211-6.216v-63.419l60.907 76.968c.705 1 1.621 1.834 2.683 2.443.952.513 1.683.767 2.181.767 1.115 0 1.721-.28 1.818-.84-.184-4.847-.277-11.27-.28-19.267v-56.857c-.036-2.052.045-4.105.244-6.147.14-1.187.534-2.331 1.156-3.352.419-.744 2.013-1.396 4.781-1.956s4.806-.839 6.115-.836c.698-1.537.698-2.888 0-4.053-1.585.046-3.261.139-5.028.28" fill="#333434" fill-rule="nonzero"/><g clip-path="url(#a)"><path d="m19.478 52.476h711.044v317.047h-711.044z" fill="#343434" stroke="#343434" stroke-width=".36"/><path d="m351.488 410.225-137.897-24.393 76.023-27.665z" fill="#cfcfcf"/><path d="m303.541 278.505-89.95 107.33 76.023-27.669 13.927-79.662z" fill="#d7d6d6"/><path d="m669.274 219.972 111.973 19.813v-17.224l-35.946-30.257-76.026 27.669z" fill="#c4c3c3" fill-rule="nonzero"/><path d="m759.223 112.653-89.95 107.32 76.023-27.669z" fill="#cccbcb"/><path d="m255.598 146.789-137.882-24.401 76.015-27.665z" fill="#bfbfbe"/><path d="m207.655 15.068-89.939 107.32 76.015-27.665 13.923-79.654z" fill="#bbbbba"/><path d="m75.702 361.431-137.886-24.401 76.015-27.665 61.87 52.066z" fill="#c9c8c8"/><path d="m27.766 229.711-89.95 107.334 76.015-27.68 13.934-79.654z" fill="#bababa"/><path d="m531.384 195.582-137.897-24.401 76.026-27.669 61.87 52.069z" fill="#cdcccc"/><path d="m483.437 63.859-89.95 107.323 76.026-27.669 13.923-79.654z" fill="#cacaca"/><path d="m579.324 327.295-89.95 107.33 76.026-27.669 13.923-79.662z" fill="#9d9d9d"/><path d="m75.702 361.431-137.886-24.401 76.015-27.665 61.87 52.066z" fill="#c9c8c8"/><path d="m27.766 229.711-89.95 107.334 76.015-27.68 13.934-79.654z" fill="#bababa"/><path d="m531.384 195.582-137.897-24.401 76.026-27.669 61.87 52.069z" fill="#cdcccc"/><path d="m483.437 63.859-89.95 107.323 76.026-27.669 13.923-79.654z" fill="#cacaca"/><path d="m579.324 327.295-89.95 107.33 76.026-27.669 13.923-79.662z" fill="#9d9d9d"/><path d="m303.541 278.505-89.943 107.33 14.014-79.763 75.928-27.567z" fill="#d6d6d6"/><path d="m165.652 254.112 47.947 131.724 14.014-79.763-61.961-51.96z" fill="#d6d6d6"/><path d="m759.223 112.653-89.95 107.32 14.014-79.753 75.935-27.567z" fill="#c9c8c8"/><path d="m621.334 88.259 47.94 131.713 14.011-79.753-61.95-51.96z" fill="#d0d0d1"/><path d="m207.662 15.068-89.946 107.32 14.011-79.76 75.935-27.56z" fill="#b6b5b6"/><path d="m69.769-9.332 47.947 131.72 14.011-79.749-61.957-51.971z" fill="#c6c5c5"/><path d="m717.22 351.696 47.936 131.72 14.014-79.756z" fill="#727272"/><path d="m27.766 229.711-89.95 107.334 14.014-79.767 75.935-27.567z" fill="#b8b7b7"/><path d="m483.437 63.859-89.95 107.323 14.025-79.753 75.925-27.571z" fill="#c9c8c8"/><path d="m345.552 39.462 47.936 131.72 14.025-79.753-61.961-51.968z" fill="#c7c7c6"/><path d="m579.324 327.295-89.95 107.33 14.014-79.76 75.935-27.571z" fill="#9e9d9d"/><path d="m441.434 302.906 47.94 131.72 14.025-79.76z" fill="#aeaeae"/><path d="m27.766 229.711-89.95 107.334 14.014-79.767 75.935-27.567z" fill="#b8b7b7"/><path d="m483.437 63.859-89.95 107.323 14.025-79.753 75.925-27.571z" fill="#c9c8c8"/><path d="m345.552 39.462 47.936 131.72 14.025-79.753-61.961-51.968z" fill="#c7c7c6"/><path d="m579.324 327.295-89.95 107.33 14.014-79.76 75.935-27.571z" fill="#9e9d9d"/><path d="m441.434 302.906 47.94 131.72 14.025-79.76z" fill="#aeaeae"/><path d="m165.652 254.112 47.947 131.724-62.008-52.095 14.062-79.629z" fill="#d7d7d7"/><path d="m75.702 361.431 137.897 24.404-62.008-52.095-75.888 27.691z" fill="#d8d8d8"/><path d="m621.334 88.252 47.94 131.72-62.005-52.084z" fill="#d0d0d1"/><path d="m531.384 195.582 137.889 24.39-62.005-52.084-75.885 27.694z" fill="#cfcfd0"/><path d="m69.769-9.332 47.947 131.72-62.005-52.084z" fill="#c2c1c1"/><path d="m-20.18 97.998 137.897 24.39-62.001-52.091-75.895 27.701z" fill="#b3b3b3"/><path d="m717.22 351.696 47.936 131.72-62.001-52.091z" fill="#6e6e6e"/><path d="m345.552 39.462 47.943 131.72-62.008-52.084z" fill="#c9c8c8"/><path d="m255.598 146.789 137.897 24.393-62.008-52.084-75.888 27.691z" fill="#cecdcd"/><path d="m441.434 302.906 47.94 131.72-62.001-52.091 14.062-79.629z" fill="#adacac"/><path d="m75.702 361.431 137.897 24.397-76.023 27.672z" fill="#dadada"/><path d="m531.384 195.582 137.889 24.39-76.015 27.669-61.874-52.058z" fill="#cbcacb"/><path d="m579.324 327.295 89.946-107.323-76.012 27.669z" fill="#bababa"/><path d="m-20.18 97.991 137.897 24.397-76.026 27.669-61.87-52.066z" fill="#a8a8a9"/><path d="m27.766 229.711 89.95-107.323-76.026 27.669-13.923 79.654z" fill="#a3a3a3"/><path d="m483.437 63.859 89.95-107.32-76.015 27.669-13.934 79.651z" fill="#b6b5b5"/><path d="m255.598 146.789 137.889 24.393-76.015 27.665z" fill="#cfcfd0"/><path d="m303.549 278.505 89.946-107.323-76.023 27.665z" fill="#d1d1d1"/><path d="m579.324 327.295 89.946-107.323-14.011 79.763z" fill="#b7b7b6"/><path d="m717.22 351.696-47.947-131.724-14.014 79.763 61.961 51.96z" fill="#aeaeae"/><path d="m27.766 229.711 89.95-107.323-14.018 79.763z" fill="#a5a4a4"/><path d="m165.652 254.112-47.936-131.724-14.025 79.76z" fill="#bdbdbd"/><path d="m483.437 63.859 89.95-107.32-14.014 79.753-75.935 27.567z" fill="#b9b9b9"/><path d="m621.334 88.252-47.947-131.709-14.014 79.749z" fill="#bcbcbc"/><path d="m579.324 327.295 89.946-107.323-14.011 79.763z" fill="#b7b7b6"/><path d="m717.22 351.696-47.947-131.724-14.014 79.763 61.961 51.96z" fill="#aeaeae"/><path d="m27.766 229.711 89.95-107.323-14.018 79.763z" fill="#a5a4a4"/><path d="m165.652 254.112-47.936-131.724-14.025 79.76z" fill="#bdbdbd"/><path d="m483.437 63.859 89.95-107.32-14.014 79.753-75.935 27.567z" fill="#b9b9b9"/><path d="m621.334 88.252-47.947-131.709-14.014 79.749z" fill="#bcbcbc"/><path d="m303.541 278.505 89.946-107.323-14.014 79.763z" fill="#d3d3d3"/><path d="m441.434 302.906-47.947-131.724-14.014 79.763 61.961 51.96z" fill="#cbcaca"/><path d="m717.22 351.696-47.947-131.724 62.001 52.095z" fill="#b2b2b1"/><path d="m731.275 272.067 49.972-18.235v-14.047l-111.973-19.813z" fill="#bbbbba" fill-rule="nonzero"/><path d="m717.22 351.696-47.947-131.724 62.001 52.095z" fill="#b2b2b1"/><path d="m731.275 272.067 49.972-18.235v-14.047l-111.973-19.813z" fill="#bbbbba" fill-rule="nonzero"/><path d="m165.652 254.112-47.936-131.724 61.997 52.095-14.062 79.629z" fill="#bdbdbd"/><path d="m255.598 146.789-137.893-24.401 62.012 52.095z" fill="#c5c5c5"/><path d="m621.334 88.259-47.947-131.716 62.001 52.08z" fill="#b8b8b9"/><path d="m75.702 361.431-137.886-24.401 62.001 52.095z" fill="#cdcccc"/><path d="m441.434 302.906-47.947-131.724 62.012 52.095z" fill="#cbcacb"/><path d="m531.384 195.582-137.897-24.401 62.012 52.095z" fill="#cbcaca"/><path d="m75.702 361.431-137.886-24.401 62.001 52.095z" fill="#cdcccc"/><path d="m441.434 302.906-47.947-131.724 62.012 52.095z" fill="#cbcacb"/><path d="m531.384 195.582-137.897-24.401 62.012 52.095z" fill="#cbcaca"/><path d="m317.494 198.792-75.866 27.6 61.943 52.146 13.923-79.745z" fill="#d1d1d1"/><path d="m317.494 198.832-75.852 27.64 13.934-79.763 61.918 52.124z" fill="#cfcfd0"/><path d="m773.179 32.944-75.87 27.592 61.943 52.142z" fill="#bcbbbb"/><path d="m773.179 32.984-75.859 27.625 13.938-79.76z" fill="#a3a3a3"/><path d="m137.605 413.486-75.859 27.625 13.931-79.76z" fill="#d4d3d3"/><path d="m593.28 247.586-75.866 27.6 61.943 52.142z" fill="#b8b7b7"/><path d="m593.28 247.626-75.859 27.636 13.938-79.763z" fill="#c7c7c6"/><path d="m41.723 149.999-75.877 27.592 61.943 52.149 13.934-79.742z" fill="#979898"/><path d="m41.723 150.042-75.863 27.632 13.934-79.767 61.928 52.135z" fill="#a5a4a4"/><path d="m497.394-15.85-75.866 27.592 61.943 52.142z" fill="#bdbcbc"/><path d="m165.561 254.097-75.877 27.592 61.947 52.142 13.931-79.734z" fill="#c9c8c8"/><path d="m165.561 254.137-75.859 27.636 13.942-79.763 61.918 52.127z" fill="#c2c2c2"/><path d="m621.236 88.245-75.87 27.592 61.947 52.142z" fill="#d3d3d4"/><path d="m621.243 88.285-75.859 27.625 13.931-79.76z" fill="#d6d6d6"/><path d="m69.679-9.339-75.877 27.592 61.954 52.142 13.923-79.734z" fill="#cfcece"/><path d="m717.119 351.681-75.866 27.6 61.943 52.142z" fill="#b3b3b2"/><path d="m717.119 351.721-75.852 27.636 13.934-79.763z" fill="#b3b3b2"/><path d="m441.336 302.891-75.866 27.6 61.943 52.131z" fill="#c4c4c4"/><path d="m441.344 302.927-75.859 27.636 13.934-79.76z" fill="#c6c5c5"/><path d="m345.461 39.451-75.877 27.596 61.943 52.142z" fill="#b6b5b5"/><path d="m345.461 39.494-75.859 27.625 13.931-79.76z" fill="#a3a3a3"/><path d="m179.841 174.581 61.838 51.909 14.178-79.716-76.015 27.807z" fill="#cbcaca"/><path d="m635.523 8.728 61.838 51.906 14.178-79.713-76.015 27.807z" fill="#b5b4b5"/><path d="m-.059 389.224 61.838 51.913 14.185-79.716-76.023 27.803z" fill="#cfcfcf"/><path d="m455.623 223.371 61.838 51.913 14.178-79.72-76.015 27.807z" fill="#c4c4c4"/><path d="m27.905 229.882 61.83 51.913 14.189-79.72z" fill="#aeaeae"/><path d="m483.579 64.033 61.838 51.902 14.189-79.709-76.026 27.807z" fill="#c4c3c3"/><path d="m579.462 327.47 61.841 51.909 14.178-79.716z" fill="#a2a1a1"/><path d="m303.68 278.676 61.838 51.913 14.189-79.72-76.026 27.807z" fill="#d3d2d2"/><path d="m207.801 15.232 61.83 51.913 14.189-79.72z" fill="#a1a1a1"/><path d="m179.881 174.563 61.856 51.88-76.117 27.676 14.262-79.556z" fill="#cccbcb"/><path d="m635.556 8.707 61.859 51.877-76.121 27.687z" fill="#cfcece"/><path d="m717.177 351.703 64.073-23.292v-14.491l-49.812-41.774-14.262 79.556z" fill="#969696" fill-rule="nonzero"/><path d="m455.656 223.357 61.863 51.88-76.125 27.676z" fill="#bcbcbc"/><path d="m27.937 229.86 61.856 51.888-76.117 27.676 14.262-79.564z" fill="#bababa"/><path d="m483.619 64.008 61.856 51.88-76.117 27.676 14.262-79.556z" fill="#c9c8c8"/><path d="m579.495 327.452 61.863 51.88-76.114 27.676z" fill="#989898"/><path d="m303.723 278.65 61.852 51.888-76.117 27.676z" fill="#cfcfd0"/><path d="m207.837 15.218 61.852 51.88-76.114 27.672 14.262-79.553z" fill="#ababab"/><path d="m227.621 306.123 14.116-79.731-76.157 27.727z" fill="#cfcece"/><path d="m683.295 140.263 14.12-79.72-76.154 27.716z" fill="#d7d7d7"/><path d="m717.144 351.703 62.037 52.004 2.069-11.659v-63.677z" fill="#919191" fill-rule="nonzero"/><path d="m503.403 354.913 14.116-79.716-76.157 27.716z" fill="#b6b5b5"/><path d="m407.52 91.473 14.112-79.72-76.157 27.716z" fill="#b8b8b9"/><path d="m75.677 361.424 14.123-79.727-76.157 27.727z" fill="#cbcaca"/><path d="m531.359 195.564 14.123-79.72-76.168 27.72z" fill="#cbcacb"/><path d="m351.463 410.222 14.12-79.731-76.157 27.723z" fill="#cecdcd"/><path d="m255.577 146.774 14.12-79.72-76.154 27.716z" fill="#bbb"/><path d="m227.581 306.13 14.091-79.756 62.099 51.949z" fill="#d6d6d6"/><path d="m683.262 140.267 14.08-79.749 62.11 51.953z" fill="#c2c1c1"/><path d="m503.363 354.924 14.091-79.763 62.099 51.957-76.19 27.807z" fill="#adacac"/><path d="m-48.202 257.34 14.087-79.763 62.11 51.953-76.197 27.811z" fill="#a1a0a0"/><path d="m407.477 91.48 14.091-79.753 62.099 51.953z" fill="#c2c1c1"/><path d="m75.637 361.431 14.091-79.756 62.107 51.953-76.197 27.803z" fill="#d1d0d1"/><path d="m531.319 195.572 14.087-79.753 62.103 51.957z" fill="#cfcfd0"/><path d="m-20.238 97.991 14.08-79.753 62.107 51.942-76.186 27.811z" fill="#c7c6c6"/><path d="m-20.238 97.991 14.08-79.753 62.107 51.942-76.186 27.811z" fill="#c7c6c6"/><path d="m351.423 410.225 14.087-79.76 62.107 51.953z" fill="#bdbcbc"/><path d="m255.533 146.781 14.091-79.753 62.11 51.953z" fill="#c4c4c4"/><path d="m351.488 410.225-137.897-24.393 76.023-27.665z" fill="#cfcfcf"/><g stroke-width=".36"><path d="m303.541 278.505-89.95 107.33 76.023-27.669 13.927-79.662z" fill="#383737" stroke="#383737"/><path d="m669.274 219.972 111.973 19.813v-17.224l-35.946-30.257-76.026 27.669z" fill="#1f1f1f" fill-rule="nonzero" stroke="#1f1f1f"/><path d="m759.223 112.653-89.95 107.32 76.023-27.669z" fill="#1f1f1f" stroke="#1f1f1f"/></g><path d="m255.598 146.789-137.882-24.401 76.015-27.665z" fill="#3e3f3f"/><path d="m207.655 15.068-89.939 107.32 76.015-27.665 13.923-79.654z" fill="#202020" stroke="#202020" stroke-width=".36"/><path d="m75.702 361.431-137.886-24.401 76.015-27.665 61.87 52.066z" fill="#c9c8c8"/><path d="m27.766 229.711-89.95 107.334 76.015-27.68 13.934-79.654z" fill="#bababa"/><path d="m531.384 195.582-137.897-24.401 76.026-27.669 61.87 52.069z" fill="#cdcccc"/><path d="m483.437 63.859-89.95 107.323 76.026-27.669 13.923-79.654z" fill="#cacaca"/><path d="m579.324 327.295-89.95 107.33 76.026-27.669 13.923-79.662z" fill="#9d9d9d"/><path d="m75.702 361.431-137.886-24.401 76.015-27.665 61.87 52.066z" fill="#c9c8c8"/><path d="m27.766 229.711-89.95 107.334 76.015-27.68 13.934-79.654z" fill="#bababa"/><path d="m531.384 195.582-137.897-24.401 76.026-27.669 61.87 52.069z" fill="#333434" stroke="#333434" stroke-width=".36"/><path d="m483.437 63.859-89.95 107.323 76.026-27.669 13.923-79.654z" fill="#2c2c2c" stroke="#2c2c2c" stroke-width=".36"/><path d="m579.324 327.295-89.95 107.33 76.026-27.669 13.923-79.662z" fill="#9d9d9d"/><path d="m303.541 278.505-89.943 107.33 14.014-79.763 75.928-27.567z" fill="#333434" stroke="#333434" stroke-width=".36"/><path d="m165.652 254.112 47.947 131.724 14.014-79.763-61.961-51.96z" fill="#434343"/><path d="m759.223 112.653-89.95 107.32 14.014-79.753 75.935-27.567z" fill="#202020" stroke="#202020" stroke-width=".36"/><path d="m621.334 88.259 47.94 131.713 14.011-79.753-61.95-51.96z" fill="#131313"/><path d="m207.662 15.068-89.946 107.32 14.011-79.76 75.935-27.56z" fill="#202020" stroke="#202020" stroke-width=".36"/><path d="m69.769-9.332 47.947 131.72 14.011-79.749-61.957-51.971z" fill="#202020" stroke="#202020" stroke-width=".36"/><path d="m717.22 351.696 47.936 131.72 14.014-79.756z" fill="#727272"/><path d="m27.766 229.711-89.95 107.334 14.014-79.767 75.935-27.567z" fill="#b8b7b7"/><path d="m483.437 63.859-89.95 107.323 14.025-79.753 75.925-27.571z" fill="#c9c8c8"/><path d="m345.552 39.462 47.936 131.72 14.025-79.753-61.961-51.968z" fill="#c7c7c6"/><path d="m579.324 327.295-89.95 107.33 14.014-79.76 75.935-27.571z" fill="#9e9d9d"/><path d="m441.434 302.906 47.94 131.72 14.025-79.76z" fill="#aeaeae"/><path d="m27.766 229.711-89.95 107.334 14.014-79.767 75.935-27.567z" fill="#b8b7b7"/><path d="m483.437 63.859-89.95 107.323 14.025-79.753 75.925-27.571z" fill="#343434" stroke="#343434" stroke-width=".36"/><path d="m345.552 39.462 47.936 131.72 14.025-79.753-61.961-51.968z" fill="#373838"/><path d="m579.324 327.295-89.95 107.33 14.014-79.76 75.935-27.571z" fill="#9e9d9d"/><path d="m441.434 302.906 47.94 131.72 14.025-79.76z" fill="#484848"/><path d="m165.652 254.112 47.947 131.724-62.008-52.095 14.062-79.629z" fill="#575757"/><path d="m75.702 361.431 137.897 24.404-62.008-52.095-75.888 27.691z" fill="#4e4d4d"/><path d="m621.334 88.252 47.94 131.72-62.005-52.084z" fill="#1a1b1b"/><path d="m531.384 195.582 137.889 24.39-62.005-52.084-75.885 27.694z" fill="#2c2c2c" stroke="#2c2c2c" stroke-width=".36"/><path d="m69.769-9.332 47.947 131.72-62.005-52.084z" fill="#202020" stroke="#202020" stroke-width=".36"/><path d="m-20.18 97.998 137.897 24.39-62.001-52.091-75.895 27.701z" fill="#202020" stroke="#202020" stroke-width=".36"/><path d="m717.22 351.696 47.936 131.72-62.001-52.091z" fill="#6e6e6e"/><path d="m345.552 39.462 47.943 131.72-62.008-52.084z" fill="#404141"/><path d="m255.598 146.789 137.897 24.393-62.008-52.084-75.888 27.691z" fill="#5b5a5a"/><path d="m441.434 302.906 47.94 131.72-62.001-52.091 14.062-79.629z" fill="#adacac"/><path d="m75.702 361.431 137.897 24.397-76.023 27.672z" fill="#dadada"/><path d="m531.384 195.582 137.889 24.39-76.015 27.669-61.874-52.058z" fill="#484747"/><path d="m579.324 327.295 89.946-107.323-76.012 27.669z" fill="#434343"/><path d="m-20.18 97.991 137.897 24.397-76.026 27.669-61.87-52.066z" fill="#202020" stroke="#202020" stroke-width=".36"/><path d="m27.766 229.711 89.95-107.323-76.026 27.669-13.923 79.654z" fill="#202020" stroke="#202020" stroke-width=".36"/><path d="m483.437 63.859 89.95-107.32-76.015 27.669-13.934 79.651z" fill="#b6b5b5"/><path d="m255.598 146.789 137.889 24.393-76.015 27.665z" fill="#5a5959"/><path d="m303.549 278.505 89.946-107.323-76.023 27.665z" fill="#2d2d2e"/><path d="m579.324 327.295 89.946-107.323-14.011 79.763z" fill="#b7b7b6"/><path d="m717.22 351.696-47.947-131.724-14.014 79.763 61.961 51.96z" fill="#aeaeae"/><path d="m27.766 229.711 89.95-107.323-14.018 79.763z" fill="#a5a4a4"/><path d="m165.652 254.112-47.936-131.724-14.025 79.76z" fill="#bdbdbd"/><path d="m483.437 63.859 89.95-107.32-14.014 79.753-75.935 27.567z" fill="#b9b9b9"/><path d="m621.334 88.252-47.947-131.709-14.014 79.749z" fill="#bcbcbc"/><path d="m579.324 327.295 89.946-107.323-14.011 79.763z" fill="#6d6d6c"/><path d="m717.22 351.696-47.947-131.724-14.014 79.763 61.961 51.96z" fill="#3f3f40"/><path d="m27.766 229.711 89.95-107.323-14.018 79.763z" fill="#202020" stroke="#202020" stroke-width=".36"/><path d="m165.652 254.112-47.936-131.724-14.025 79.76z" fill="#1f1f1f" stroke="#1f1f1f" stroke-width=".36"/><path d="m483.437 63.859 89.95-107.32-14.014 79.753-75.935 27.567z" fill="#b9b9b9"/><path d="m621.334 88.252-47.947-131.709-14.014 79.749z" fill="#bcbcbc"/><path d="m303.541 278.505 89.946-107.323-14.014 79.763z" fill="#333434" stroke="#333434" stroke-width=".36"/><path d="m441.434 302.906-47.947-131.724-14.014 79.763 61.961 51.96z" fill="#555353"/><path d="m717.22 351.696-47.947-131.724 62.001 52.095z" fill="#b2b2b1"/><path d="m731.275 272.067 49.972-18.235v-14.047l-111.973-19.813z" fill="#bbbbba" fill-rule="nonzero"/><path d="m717.22 351.696-47.947-131.724 62.001 52.095z" fill="#323334"/><path d="m731.275 272.067 49.972-18.235v-14.047l-111.973-19.813z" fill="#1f1f1f" fill-rule="nonzero" stroke="#1f1f1f" stroke-width=".36"/><path d="m165.652 254.112-47.936-131.724 61.997 52.095-14.062 79.629z" fill="#202020" stroke="#202020" stroke-width=".36"/><path d="m255.598 146.789-137.893-24.401 62.012 52.095z" fill="#6a6a6a"/><path d="m621.334 88.259-47.947-131.716 62.001 52.08z" fill="#b8b8b9"/><path d="m75.702 361.431-137.886-24.401 62.001 52.095z" fill="#cdcccc"/><path d="m441.434 302.906-47.947-131.724 62.012 52.095z" fill="#cbcacb"/><path d="m531.384 195.582-137.897-24.401 62.012 52.095z" fill="#cbcaca"/><path d="m75.702 361.431-137.886-24.401 62.001 52.095z" fill="#cdcccc"/><path d="m441.434 302.906-47.947-131.724 62.012 52.095z" fill="#3c3d3d" stroke="#3c3d3d" stroke-width=".36"/><path d="m531.384 195.582-137.897-24.401 62.012 52.095z" fill="#333434" stroke="#333434" stroke-width=".36"/><path d="m317.494 198.792-75.866 27.6 61.943 52.146 13.923-79.745z" fill="#313233"/><path d="m317.494 198.832-75.852 27.64 13.934-79.763 61.918 52.124z" fill="#4a494a"/><path d="m773.179 32.944-75.87 27.592 61.943 52.142z" fill="#bcbbbb"/><path d="m773.179 32.984-75.859 27.625 13.938-79.76z" fill="#a3a3a3"/><path d="m137.605 413.486-75.859 27.625 13.931-79.76z" fill="#d4d3d3"/><path d="m593.28 247.586-75.866 27.6 61.943 52.142z" fill="#3b3c3c"/><path d="m593.28 247.626-75.859 27.636 13.938-79.763z" fill="#383737" stroke="#383737" stroke-width=".36"/><path d="m41.723 149.999-75.877 27.592 61.943 52.149 13.934-79.742z" fill="#202020" stroke="#202020" stroke-width=".36"/><path d="m41.723 150.042-75.863 27.632 13.934-79.767 61.928 52.135z" fill="#a5a4a4"/><path d="m497.394-15.85-75.866 27.592 61.943 52.142z" fill="#bdbcbc"/><path d="m165.561 254.097-75.877 27.592 61.947 52.142 13.931-79.734z" fill="#7c7d7e"/><path d="m165.561 254.137-75.859 27.636 13.942-79.763 61.918 52.127z" fill="#202020" stroke="#202020" stroke-width=".36"/><path d="m621.236 88.245-75.87 27.592 61.947 52.142z" fill="#0a0b0c"/><path d="m621.243 88.285-75.859 27.625 13.931-79.76z" fill="#d6d6d6"/><path d="m69.679-9.339-75.877 27.592 61.954 52.142 13.923-79.734z" fill="#cfcece"/><path d="m717.119 351.681-75.866 27.6 61.943 52.142z" fill="#b3b3b2"/><path d="m717.119 351.721-75.852 27.636 13.934-79.763z" fill="#b3b3b2"/><path d="m441.336 302.891-75.866 27.6 61.943 52.131z" fill="#636463"/><path d="m441.344 302.927-75.859 27.636 13.934-79.76z" fill="#4a494a"/><path d="m345.461 39.451-75.877 27.596 61.943 52.142z" fill="#b6b5b5"/><path d="m345.461 39.494-75.859 27.625 13.931-79.76z" fill="#a3a3a3"/><path d="m179.841 174.581 61.838 51.909 14.178-79.716-76.015 27.807z" fill="#767676"/><path d="m635.523 8.728 61.838 51.906 14.178-79.713-76.015 27.807z" fill="#b5b4b5"/><path d="m-.059 389.224 61.838 51.913 14.185-79.716-76.023 27.803z" fill="#cfcfcf"/><path d="m455.623 223.371 61.838 51.913 14.178-79.72-76.015 27.807z" fill="#333"/><path d="m27.905 229.882 61.83 51.913 14.189-79.72z" fill="#202020" stroke="#202020" stroke-width=".36"/><path d="m483.579 64.033 61.838 51.902 14.189-79.709-76.026 27.807z" fill="#c4c3c3"/><path d="m579.462 327.47 61.841 51.909 14.178-79.716z" fill="#676867"/><path d="m303.68 278.676 61.838 51.913 14.189-79.72-76.026 27.807z" fill="#313233"/><path d="m207.801 15.232 61.83 51.913 14.189-79.72z" fill="#a1a1a1"/><path d="m179.881 174.563 61.856 51.88-76.117 27.676 14.262-79.556z" fill="#555453"/><path d="m635.556 8.707 61.859 51.877-76.121 27.687z" fill="#cfcece"/><path d="m717.177 351.703 64.073-23.292v-14.491l-49.812-41.774-14.262 79.556z" fill="#969696" fill-rule="nonzero"/><path d="m455.656 223.357 61.863 51.88-76.125 27.676z" fill="#3b3c3c"/><path d="m27.937 229.86 61.856 51.888-76.117 27.676 14.262-79.564z" fill="#bababa"/><path d="m483.619 64.008 61.856 51.88-76.117 27.676 14.262-79.556z" fill="#c9c8c8"/><path d="m579.495 327.452 61.863 51.88-76.114 27.676z" fill="#989898"/><path d="m303.723 278.65 61.852 51.888-76.117 27.676z" fill="#383737" stroke="#383737" stroke-width=".36"/><path d="m207.837 15.218 61.852 51.88-76.114 27.672 14.262-79.553z" fill="#ababab"/><path d="m227.621 306.123 14.116-79.731-76.157 27.727z" fill="#535252"/><path d="m683.295 140.263 14.12-79.72-76.154 27.716z" fill="#d7d7d7"/><path d="m717.144 351.703 62.037 52.004 2.069-11.659v-63.677z" fill="#919191" fill-rule="nonzero"/><path d="m503.403 354.913 14.116-79.716-76.157 27.716z" fill="#5d5f5e"/><path d="m407.52 91.473 14.112-79.72-76.157 27.716z" fill="#b8b8b9"/><path d="m75.677 361.424 14.123-79.727-76.157 27.727z" fill="#cbcaca"/><path d="m531.359 195.564 14.123-79.72-76.168 27.72z" fill="#2c2c2c" stroke="#2c2c2c" stroke-width=".36"/><path d="m351.463 410.222 14.12-79.731-76.157 27.723z" fill="#cecdcd"/><path d="m255.577 146.774 14.12-79.72-76.154 27.716z" fill="#636463"/><path d="m227.581 306.13 14.091-79.756 62.099 51.949z" fill="#2b2b2b"/><path d="m683.262 140.267 14.08-79.749 62.11 51.953z" fill="#0b0c0d"/><path d="m503.363 354.924 14.091-79.763 62.099 51.957-76.19 27.807z" fill="#4e4e4e"/><path d="m-48.202 257.34 14.087-79.763 62.11 51.953-76.197 27.811z" fill="#a1a0a0"/><path d="m407.477 91.48 14.091-79.753 62.099 51.953z" fill="#c2c1c1"/><path d="m75.637 361.431 14.091-79.756 62.107 51.953-76.197 27.803z" fill="#4f4f4f"/><path d="m531.319 195.572 14.087-79.753 62.103 51.957z" fill="#202020" stroke="#202020" stroke-width=".36"/><path d="m-20.238 97.991 14.08-79.753 62.107 51.942-76.186 27.811z" fill="#c7c6c6"/><path d="m-20.238 97.991 14.08-79.753 62.107 51.942-76.186 27.811z" fill="#1f1f1e"/><path d="m351.423 410.225 14.087-79.76 62.107 51.953z" fill="#bdbcbc"/><path d="m255.533 146.781 14.091-79.753 62.11 51.953z" fill="#787979"/><path d="m130.095 330.16v-34.318l30.799 26.782" fill="#6f6e6e" fill-rule="nonzero"/><path d="m24.676 233.397v-36.172l32.769 29.879" fill="#2d2d2e"/></g></svg>