<svg clip-rule="evenodd" fill-rule="evenodd" stroke-linejoin="round" stroke-miterlimit="2" viewBox="0 0 1500 844" xmlns="http://www.w3.org/2000/svg"><g fill-rule="nonzero"><g fill="#c01111"><path d="m283.4 63.07-9.48 18.37h-60.36v-18.37zm-48.4 51.39v34.66l-21.44-.12v-52.9h60.36v18.36z" transform="matrix(1.722867 0 0 1.722867 35.191355 287.899637)"/><path d="m285 149.12v-86.05h49.32c8.053.347 14.62 3.033 19.7 8.06s7.627 11.74 7.64 20.14c-.293 14.2-6.847 22.993-19.66 26.38l21.72 31.47h-26.26l-31-44.06v44.06zm21.56-48.71h25.95c4.433-1.093 6.703-4.113 6.81-9.06-.11-5.51-2.61-8.68-7.5-9.48h-25.31z" transform="matrix(1.722867 0 0 1.722867 35.191355 287.899637)"/><path d="m662.64228773 396.2679713h37.14501252v148.54559274h-37.14501252z" stroke-width="1.722867"/><path d="m411.61 96.53 32.17-33.63h27.59l-35.37 37.59h-.35l36.35 48.63h-26.24l-34.23-44.06v44.06h-21.47v-86.05h21.55z" transform="matrix(1.722867 0 0 1.722867 35.191355 287.899637)"/><path d="m851.830313 396.2679713h37.05886917v148.54559274h-37.05886917z" stroke-width="1.722867"/></g><g transform="matrix(1.722867 0 0 1.722867 35.191355 287.899637)"><g fill="#c01111"><path d="m525.69 81.52h-25.87v-18.52h77.69l-8.71 18.52h-21.56v67.6h-21.55z"/><path d="m649.5 63.07-9.5 18.8h-60.34v-18.8zm-9.5 33.11v18.45h-60.34v-18.45zm5.17 34.23v18.71h-65.51v-18.71z"/><path d="m651.23 149.12v-86.05h49.32c8.04.347 14.607 3.033 19.7 8.06s7.637 11.74 7.63 20.14c-.287 14.2-6.84 22.993-19.66 26.38l21.78 31.47h-26.26l-31-44.06v44.06zm21.55-48.71h26c4.42-1.093 6.69-4.113 6.81-9.06-.12-5.51-2.62-8.68-7.5-9.48h-25.31z"/><path d="m829.79 149.21h-22.79l-7-15.52h-23.23l-10.52-14.4-13.54 29.92h-23.71l38.28-86.14h24.15zm-38.36-34.58-11.73-25.69-11.47 25.69z"/><path d="m213.56 48.47v-32.55h8.11v25.48h21.22l-3.26 7.07z"/><path d="m282.05 48.5h-8.63l-2.64-5.86h-8.78l-4-5.44-5.12 11.3h-9l14.55-32.5h9.12zm-14.5-13.06-4.43-9.71-4.33 9.71z"/></g><path d="m55.43 40.85c-2.49 2.055-4.72 4.405-6.64 7l2.1 1.91c1.4-2.87 3-6 4.54-8.95" fill="#dae51a"/><path d="m130 30.72c-6.962-5.212-14.34-9.844-22.06-13.85l-21.09 7.86c5.26 6.4 13.55 16.68 17.87 23.07 8.29-5.59 17-11.46 25.28-17.08" fill="#dae51a"/><path d="m159.57 75.18c-.299-.249-.481-.612-.5-1-.48-8.87-4.72-18.42-12.28-27.62-.947-1.14-1.947-2.277-3-3.41-3.09 2.77-6.22 5.55-9.33 8.28-2.78 2.44-6.32 5.53-10.28 8.93l26.14 14.37-26.75-13.82c-3.72 3.19-7.78 6.63-11.91 10l-.24.2-.23.19c17.22 1.34 36 3.69 38.35 7.64 4.34 7.3 2.49 43 2.37 45.16-9.29 5.414-19.171 9.743-29.45 12.9l-.12.27-.11.21c-.277.514-.612.994-1 1.43-1.507 1.687-3.142 3.255-4.89 4.69 5.46-1.4 11.65-3.16 18.08-5.16 16.89-5.28 29.82-10.53 32.17-13.07 1.77-1.91 11.41-25.37 17.41-40.72-4.65-.91-17.62-3.83-24.45-9.47m17.45 21.44c-.867 1.959-1.947 3.817-3.22 5.54l-8.15-15.69s12.18 7.82 11.37 10.15m.86-2.94-11-11.13s14.68 3.67 13.82 6c-.755 1.803-1.697 3.523-2.81 5.13" fill="#dae51a"/><path d="m72.38 69.61c7.65-5.15 18.4-12.39 30.06-20.26-3.63-5.29-10.92-14.58-18.35-23.6l-.94-1.14-.94-1.13-1-1.24c-2.35.54-9.28 2.31-13.71 5.23-1.39 1.159-2.574 2.545-3.5 4.1-.52.79-1.08 1.67-1.66 2.62s-1 1.69-1.53 2.61c-2.48 4.35-5.23 9.69-7.81 15 9.25 8.46 16.91 15.58 19.35 17.85m5.65-43.13c.29-.77.52-1.36.67-1.73l.19-.48c.055-.132.206-.198.34-.15.137.055.204.213.15.35-.06.14-.29.75-.63 1.72-.18.48-.38 1-.61 1.7-1.38 3.92-3.58 10.51-5.11 16.75-1.36 5.63-2.18 11-1.21 13.62.023.064.035.132.035.2 0 .326-.269.595-.595.595-.251 0-.476-.159-.56-.395-.78-2.26-.39-6.27.6-10.79 1.58-6.677 3.584-13.247 6-19.67z" fill="#dae51a"/><path d="m38.49 120.45c-.832-1.847-1.436-3.788-1.8-5.78-3.19-17.77 9.05-39 9.93-40.5l4.52-.57-.14-.17-.19-.18-3.2-3.08c.005.023.005.047 0 .07-6.82 12.05-12.7 15.25-18.92 18.64l-1.59.87c-.652 11.797 2.466 23.501 8.9 33.41.627-.91 1.373-1.731 2.22-2.44l.15-.13.17-.14m-11-30.08c1.68-1.33 8.34-4.15 8.34-4.15l-7.88 6.83s-1.42-1.92-.48-2.68m.85 7.43c-.337-.927-.543-1.896-.61-2.88 0-1.21 7.86-6.32 7.86-6.32z" fill="#dae51a"/><path d="m61.13 107.29c1.75-.74 3.41-1.36 4.92-1.83.48-.15 1-.29 1.4-.4s1.15-.28 1.68-.37c2.15-3.679 3.649-7.701 4.43-11.89-.6-.39-1.25-.84-1.93-1.33-.38-.27-.76-.56-1.16-.86-.25-.19-.51-.38-.77-.59-2.68-2.07-5.76-4.68-9-7.58.43 6.22 3 11 6 11 1.018-.046 1.974-.509 2.64-1.28-1.54 7.57-4.91 13-8.19 15.13" fill="#fff"/><path d="m54.54 76.81-1.64-1.54-1.61-1.53c-2.046 4.014-3.399 8.345-4 12.81-1.59 11 1.06 20.7 6.21 24.38.75-.39 1.49-.77 2.24-1.14 1.16-.58 2.33-1.14 3.47-1.65-.465.112-.946.136-1.42.07-4.31-.62-7.94-9.42-6.26-21 .483-3.579 1.494-7.067 3-10.35" fill="#fff"/><path d="m95.23 84.08c-1 .77-2 1.52-3 2.23s-1.82 1.33-2.69 1.94c-.24 1.06-.44 2.15-.6 3.27-1.14 7.88-.11 15.06 2.44 19.86 1.22.53 2.46 1.07 3.7 1.64 1.65.75 3.31 1.53 5 2.33 1 .51 2.07 1 3.09 1.55 2.708-1.187 5.01-3.141 6.62-5.62 3.164-4.778 5.18-10.224 5.89-15.91.93-5.657.533-11.453-1.16-16.93-.76-2.472-2.109-4.723-3.93-6.56l-1.17 1-.5.42-1.69 1.38-3.58 2.89c-.903 2.569-1.35 5.277-1.32 8 0 7.11 2.72 12.88 6.06 12.88 1.014-.064 1.958-.541 2.61-1.32-.769 4.17-2.379 8.141-4.73 11.67-2.2 3.09-4.68 4.69-6.81 4.38-4.31-.62-7.94-9.42-6.26-21.05.373-2.732 1.044-5.414 2-8" fill="#fff"/><path d="m117.77 138.53.29-.3c.37-.38.73-.77 1.09-1.17 8.32-9.4-39.87-28.44-46.89-29.74-1.957-.123-3.917.188-5.74.91-3.342 1.14-6.594 2.527-9.73 4.15-6.87 3.44-13.89 7.84-17 10.64l-.16.15-.13.12c-.493.428-.914.931-1.25 1.49-.036.789.14 1.573.51 2.27.904 1.993 1.974 3.907 3.2 5.72 1.06 1.62 2.28 3.35 3.59 5.09 3.85 5.14 8.45 10.33 11.9 12.76 5.08 3.59 33.18 1.75 33.18 1.75 3.227-.59 6.391-1.484 9.45-2.67 1.53-.58 3.16-1.27 4.85-2.1 1.36-.67 2.76-1.42 4.16-2.27 3.069-1.837 5.903-4.039 8.44-6.56zm-5.56-10.32s3.53 2.54 3.7 4.7-5 2.2-5 2.2c-.1-2.52-.2-4.31 1.33-6.9m-7.57-4.93s4 1.76 4.58 3.84-4.47 3.19-4.47 3.19c-.61-2.45-1.08-4.19-.11-7m-59.94-1.1c.33-1.09 2.42-2 2.42-2 .397 1.205.376 2.509-.06 3.7s-2.68-.59-2.36-1.68m-3.52 3c.09-1.13 2-2.47 2-2.47.639 1.099.886 2.383.7 3.64-.768-.004-1.528-.168-2.23-.48-.232-.119-.387-.35-.41-.61-.005-.026-.005-.054 0-.08m18.38 20.42c-.072.029-.155-.001-.19-.07-.174-.452-.249-.936-.22-1.42 0-.42 0-.91.1-1.46 0-.19 0-.38.07-.58-.005-.067-.005-.133 0-.2v-.23c0-.14 0-.27.07-.41.15-.95.35-2 .6-3.15.48-2.17 1.12-4.65 1.86-7.2.33-1.13.67-2.28 1-3.42.55-1.71 1.15-3.42 1.74-5.05s1.29-3.47 1.89-5c.932-2.524 2.003-4.995 3.21-7.4.026-.027.062-.042.1-.042s.074.015.1.042c.057.058.057.152 0 .21-.565 1.306-1.059 2.641-1.48 4-.57 1.68-1.26 3.77-2 6.08l-.85 2.65c-.43 1.32-.86 2.69-1.3 4.06-.25.75-.49 1.5-.74 2.25l-1.1 3.37c-.64 2-1.24 3.93-1.72 5.66-.33 1.16-.6 2.22-.82 3.17 0 .17-.07.33-.11.5s0 .15 0 .22v.19l-.09.48c-.084.473-.14.951-.17 1.43-.042.384-.005.772.11 1.14.036.074.004.164-.07.2" fill="#dae51a"/><path d="m41.89 60.69 1.59 1.58 1.87 1.85c2.58 2.533 5.047 4.92 7.4 7.16l1.57 1.49.19.18.18.17 1.19 1.12c1.67 1.56 3.27 3 4.78 4.41 3.59 3.26 6.74 6 9.37 8.11.54.43 1.06.85 1.56 1.23l.44.34c.72.55 1.38 1 2 1.46 1.162.914 2.448 1.658 3.82 2.21 2.24-.63 6.65-3.39 12.86-8 1-.76 2.1-1.56 3.22-2.42 1.36-1 2.78-2.13 4.28-3.31 1.8-1.41 3.7-2.93 5.69-4.54l2.4-2 .89-.73c.081-.058.158-.121.23-.19.09-.06.16-.13.25-.2l.52-.43c4-3.25 8.19-6.83 12.71-10.7l.71-.6c3.22-2.773 6.577-5.687 10.07-8.74 3.5-3.08 6.93-6.11 10.22-9.06l1-.93 1.06-1c17.94-16.13 31.69-29.4 34-32.56-.22-.34-.39-.63-.54-.88-.562-1.009-1.317-1.899-2.22-2.62-2.59 1.9-11.16 7.83-40.49 27.69l-1.23.83-1.2.82-8.04 5.57-18 12.17-1.14.76-1.14.77c-11.79 7.94-21.89 14.74-27.12 18.3l-.37.24-.36.25c-1.94 1.3-3 2.05-3.1 2.08-.137.099-.294.167-.46.2-.4.091-.82.003-1.15-.24l-.12-.09c-.41-.39-.83-.79-1.26-1.18l-.38-.36-.87-.81-2.52-2.34-.46-.43-3.1-2.87c-3.51-3.25-7.19-6.64-10.92-10.05l-1.07-1-1.08-1-2.35-2.15-1.06-.95-1-1c-18.13-16.37-35.79-31.88-39.75-33.9-.447.675-.842 1.384-1.18 2.12-.34.66-.75 1.48-1.28 2.48 2.43 3.63 17.42 20.07 34.6 37.39 1.46 1.47 2.89 2.91 4.29 4.3m-20.64-23.82c-8.64-8-14.74-13.76-14.74-13.76-.018-.027-.028-.058-.028-.09 0-.088.072-.16.16-.16.027 0 .054.007.078.02s6.28 5.55 15.05 13.43l6.42 5.77c4.5 4.07 9.35 8.47 14.2 12.88l1.19 1.04 1.23 1.12 1.8 1.63 2.16 2 4.3 3.91 3 2.72 1.57 1.44 1.61 1.46 1.83 1.72.19.18.2.17.42.39 4.5 4.09 2.3 2 1.22 1.17 2.32 2.11 2.2 2 3.12 2.89 20.2-16.49.24-.19.24-.2 5.89-4.8 3.47-2.82.41-.34 1.22-1 1.58-1.29 4.2-3.41.87-.71c7.4-6 15.11-12.28 22.4-18.19l1.09-.88 1.12-.91 4.07-3.3c4.14-3.35 8.05-6.51 11.58-9.35 10.29-8.29 17.41-13.92 17.41-13.92.028-.031.068-.048.11-.048s.082.017.11.048c.054.063.054.157 0 .22s-7 5.84-17.15 14.3c-3.49 2.9-7.37 6.09-11.48 9.47l-4 3.24-1.11.92-1.08.89-22.04 18.1-.84.69-4.53 3.7-2.11 1.73-1.81 1.47-7.61 6.24-.24.2-.24.19c-12.52 10.24-21.62 17.62-21.62 17.62-.219.184-.541.184-.76 0l-2.74-2.5-1.87-1.72-.24-.22-2.22-2-2.57-2.4-1.15-1-1.15-1.11-3.69-3.37-1.51-1.37-.38-.36-1.19-1.13-1.59-1.46-1.56-1.43-2.93-2.69-4-3.7-2.16-2-1.47-1.34-1.29-1.19-1.24-1.13c-5-4.57-10-9.14-14.56-13.38-2.22-2-4.35-4-6.34-5.87" fill="#dae51a"/><path d="m28 93.05 7.86-6.83s-6.67 2.78-8.35 4.15c-.94.76.48 2.68.48 2.68"/><path d="m180.62 88.55c.86-2.33-13.82-6-13.82-6l11 11.13c1.113-1.607 2.055-3.327 2.81-5.13"/><path d="m177 96.62c.86-2.33-11.37-10.15-11.37-10.15l8.15 15.69c1.273-1.723 2.353-3.581 3.22-5.54"/><path d="m27.75 94.92c.069.984.274 1.953.61 2.88l7.25-9.2s-7.86 5.11-7.86 6.32"/><path d="m187.15 82.89c-.211-.37-.579-.624-1-.69-.17 0-16.51-2.74-24.36-8.8-.47-6.37-3.27-18.34-15.9-32.13 7.45-6.7 14.56-13.25 20.46-18.86 14.45-13.7 14.58-14.92 14.65-15.66.033-.329-.052-.658-.24-.93-.41-.6-.68-1.05-.92-1.45-.93-1.575-2.18-2.938-3.67-4-.557-.467-1.391-.418-1.89.11-1.37 1.16-20 13.86-41.84 28.63-7.473-5.666-15.426-10.669-23.77-14.95-.349-.183-.761-.208-1.13-.07l-22.54 8.36c-1-1.14-1.7-2.05-2.21-2.65-.324-.393-.841-.575-1.34-.47-.4.07-9.67 2-15.49 5.81-1.84 1.21-4.45 5-7.2 9.74-4.603 3.008-8.67 6.767-12.03 11.12-2.09-1.91-4.22-3.84-6.35-5.76-9.62-8.64-17.38-15.45-23.07-20.24-3.39-2.84-6.09-5-8-6.38-2.83-2.04-4.31-2.78-5.31-1.74-.906.991-1.64 2.127-2.17 3.36-.44.76-.94 1.76-1.66 3.08-.204.369-.226.812-.06 1.2 1.28 3.08 19.74 22.93 35.5 38.82 2.19 2.21 4.66 4.68 7.28 7.27.476 1.389 1.085 2.729 1.82 4-6.18 10.77-11.37 13.6-17.36 16.86-.75.4-1.51.82-2.29 1.26-.411.234-.678.659-.71 1.13-.963 13.763 2.986 27.431 11.14 38.56.28.38.56.74.84 1.1.593 1.285 1.261 2.534 2 3.74 4.12 6.85 12.25 16.91 17.53 20.66 1.76 1.25 5.87 2.13 10.83 2.47 8.048.368 16.11.298 24.15-.21h.23c6.698-1.269 13.127-3.688 19-7.15 7.49-1.67 16.82-4.27 25.17-6.87 6.79-2.12 29.28-9.39 33.39-13.84 2.72-3 16-36.48 18.59-43.17.151-.393.118-.834-.09-1.2m-79.21-66c7.726 3.975 15.111 8.581 22.08 13.77l-25.28 17.08c-4.32-6.39-12.61-16.67-17.87-23.07l21.09-7.86m-47.1 19.93c.527-.92 1.037-1.79 1.53-2.61.58-.95 1.14-1.83 1.66-2.62.908-1.55 2.071-2.936 3.44-4.1 4.43-2.92 11.36-4.69 13.71-5.23l1 1.24.94 1.13.94 1.14c7.43 9 14.72 18.31 18.35 23.6-11.63 7.87-22.41 15.11-30.03 20.26-2.44-2.27-10.1-9.39-19.38-17.85 2.58-5.27 5.33-10.61 7.81-15m-5.41 4.06c-1.58 3-3.14 6.07-4.54 8.94l-2.1-1.91c1.917-2.597 4.148-4.948 6.64-7m-12 21.41-1.59-1.58c-1.4-1.39-2.83-2.83-4.29-4.3-17.1-17.31-32.09-33.75-34.52-37.38.54-1 .95-1.8 1.28-2.46.34-.741.735-1.457 1.18-2.14 4 2 21.62 17.53 39.71 34l1 1 1.06.95 2.35 2.15 1.08 1 1.07 1c3.73 3.41 7.41 6.8 10.92 10.05l3.1 2.87.46.43 2.52 2.34.87.81.38.36c.43.39.85.79 1.26 1.18l.12.09c.33.243.75.331 1.15.24.166-.033.323-.101.46-.2.06 0 1.16-.78 3.1-2.08l.36-.25.37-.24c5.27-3.66 15.37-10.46 27.2-18.42l1.14-.77 1.14-.76 18-12.17 8.08-5.46 1.2-.82 1.23-.83c29.29-19.87 37.86-25.79 40.45-27.69.903.721 1.658 1.611 2.22 2.62.15.25.32.54.54.88-2.31 3.16-16.06 16.43-34 32.56l-1.06 1-1 .93c-3.3 2.95-6.72 6-10.22 9.06s-6.85 6-10.07 8.74l-.71.6c-4.52 3.87-8.76 7.45-12.71 10.7l-.52.43c-.09.07-.16.14-.25.2-.072.069-.149.132-.23.19l-.89.73-2.4 2c-2 1.61-3.89 3.13-5.69 4.54-1.5 1.18-2.92 2.28-4.28 3.31-1.12.86-2.19 1.66-3.22 2.42-6.21 4.57-10.62 7.33-12.86 8-1.361-.535-2.64-1.259-3.8-2.15-.61-.43-1.27-.91-2-1.46l-.47-.48c-.5-.38-1-.8-1.56-1.24-2.63-2.12-5.78-4.84-9.37-8.1-1.51-1.37-3.11-2.85-4.78-4.41l-1.19-1.12-.18-.13-.19-.18-1.57-1.49c-2.353-2.24-4.82-4.627-7.4-7.16l-1.87-1.85m56 50.91c2.13.31 4.61-1.29 6.81-4.38 2.338-3.549 3.931-7.537 4.68-11.72-.666.771-1.622 1.234-2.64 1.28-3.34 0-6.06-5.77-6.06-12.88-.03-2.723.417-5.431 1.32-8l3.58-2.89 1.69-1.38.5-.42 1.17-1c1.821 1.837 3.17 4.088 3.93 6.56 1.693 5.477 2.09 11.273 1.16 16.93-.71 5.686-2.726 11.132-5.89 15.91-1.61 2.479-3.912 4.433-6.62 5.62-1-.52-2-1-3.09-1.55-1.64-.8-3.3-1.58-5-2.33-1.24-.57-2.48-1.11-3.7-1.64-2.55-4.8-3.58-12-2.44-19.86.16-1.12.36-2.21.6-3.27.87-.61 1.77-1.26 2.69-1.94s2-1.46 3-2.23c-.956 2.586-1.627 5.268-2 8-1.68 11.63 2 20.43 6.26 21.05m-32.78-19.65c-3 0-5.56-4.78-6-11 3.26 2.9 6.32 5.56 9.02 7.56.26.21.52.4.77.59.4.3.78.59 1.16.86.68.49 1.33.94 1.93 1.33-.781 4.189-2.28 8.211-4.43 11.89-.53.09-1.09.21-1.68.37s-.92.25-1.4.4c-1.51.47-3.17 1.09-4.92 1.83 3.28-2.1 6.65-7.56 8.19-15.13-.666.771-1.622 1.234-2.64 1.28m-8.9 14.77c.474.066.955.042 1.42-.07-1.14.51-2.31 1.07-3.47 1.65-.75.37-1.49.75-2.24 1.14-5.15-3.68-7.8-13.33-6.21-24.38.601-4.465 1.954-8.796 4-12.81l1.61 1.53 1.64 1.54c-1.506 3.283-2.517 6.771-3 10.35-1.68 11.63 1.95 20.43 6.26 21m-21.79 15.02c-6.434-9.909-9.552-21.613-8.9-33.41l1.59-.87c6.22-3.39 12.1-6.59 18.84-18.64.005-.023.005-.047 0-.07l3.2 3.08.19.18.18.17-4.52.57c-.88 1.5-13.12 22.73-9.93 40.5.364 1.992.968 3.933 1.8 5.78l-.17.14-.15.13c-.815.715-1.531 1.536-2.13 2.44m73.14 22.17c-1.4.85-2.8 1.6-4.16 2.27-1.69.83-3.32 1.52-4.85 2.1-3.059 1.186-6.223 2.08-9.45 2.67s-28.1 1.84-33.18-1.75c-3.5-2.43-8.1-7.62-11.97-12.76-1.31-1.74-2.53-3.47-3.59-5.09-1.226-1.813-2.296-3.727-3.2-5.72-.37-.697-.546-1.481-.51-2.27.336-.559.757-1.062 1.25-1.49l.13-.12.16-.15c3.13-2.8 10.15-7.2 17-10.64 3.136-1.623 6.388-3.01 9.73-4.15 1.823-.722 3.783-1.033 5.74-.91 7 1.3 55.21 20.34 46.89 29.74-.36.4-.72.79-1.09 1.17l-.29.3-.24.24c-2.537 2.521-5.371 4.723-8.44 6.56m57.51-20c-2.35 2.54-15.28 7.79-32.17 13.07-6.43 2-12.62 3.76-18.08 5.16 1.748-1.435 3.383-3.003 4.89-4.69.388-.436.723-.916 1-1.43l.11-.21.12-.27c10.276-3.141 20.158-7.453 29.45-12.85.12-2.21 2-37.86-2.37-45.16-2.35-3.95-21.13-6.3-38.35-7.64l.23-.19.24-.2c4.13-3.42 8.19-6.86 11.91-10l26.77 13.83-26.12-14.39c4-3.4 7.5-6.49 10.28-8.93 3.11-2.73 6.24-5.51 9.33-8.28 1.033 1.133 2.033 2.27 3 3.41 7.56 9.2 11.8 18.75 12.28 27.62.019.388.201.751.5 1 6.83 5.64 19.8 8.56 24.45 9.47-6.05 15.35-15.69 38.81-17.45 40.72"/><path d="m71.46 59.06c.237-.082.396-.307.396-.557 0-.069-.012-.138-.036-.203-1-2.67-.15-8 1.21-13.62 1.5-6.24 3.7-12.83 5.07-16.72.23-.65.43-1.22.61-1.7.34-1 .57-1.58.63-1.72.054-.137-.013-.295-.15-.35-.134-.048-.285.018-.34.15l-.19.48c-.15.37-.38 1-.67 1.73l-.65 1.72c-2.416 6.423-4.42 12.993-6 19.67-1 4.52-1.38 8.53-.6 10.79.082.237.307.396.557.396.069 0 .138-.012.203-.036"/><path d="m69.78 110.06c-1.207 2.405-2.278 4.876-3.21 7.4-.6 1.53-1.25 3.22-1.89 5s-1.19 3.34-1.74 5.05c-.37 1.14-.71 2.29-1 3.42-.74 2.55-1.38 5-1.86 7.2-.25 1.14-.45 2.2-.6 3.15 0 .14 0 .27-.07.41v.23c-.005.067-.005.133 0 .2 0 .2 0 .39-.07.58-.06.55-.09 1-.1 1.46-.029.484.046.968.22 1.42.035.069.118.099.19.07.074-.036.106-.126.07-.2-.115-.368-.152-.756-.11-1.14.03-.479.086-.957.17-1.43l.09-.48v-.41c0-.07.07-.33.11-.5.22-1 .49-2 .82-3.17.48-1.73 1.08-3.65 1.72-5.66l1.1-3.37c.25-.75.49-1.5.74-2.25.44-1.37.87-2.74 1.3-4.06l.87-2.71c.75-2.31 1.44-4.4 2-6.08.421-1.359.915-2.694 1.48-4 .057-.058.057-.152 0-.21-.026-.027-.062-.042-.1-.042s-.074.015-.1.042"/><path d="m112.21 128.21c-1.53 2.59-1.43 4.38-1.33 6.9 0 0 5.2-.05 5-2.2s-3.7-4.7-3.7-4.7"/><path d="m104.64 123.28c-1 2.84-.5 4.58.11 7 0 0 5.08-1.12 4.47-3.19s-4.58-3.84-4.58-3.84"/><path d="m41.18 125.23c-.005.026-.005.054 0 .08.023.26.178.491.41.61.702.312 1.462.476 2.23.48.186-1.257-.061-2.541-.7-3.64s-1.86 1.34-2 2.47"/><path d="m44.7 122.18c-.32 1.09 2.36 1.68 2.36 1.68.436-1.191.457-2.495.06-3.7s-2.09.93-2.42 2"/><path d="m47.23 60.77 1.08 1 4 3.7 2.93 2.69 1.56 1.43 1.63 1.41 1.2 1.09.38.36 1.5 1.37 3.69 3.37 1.15 1.06 1.15 1 2.57 2.35 2.22 2 .24.22 1.87 1.72 2.74 2.5c.219.184.541.184.76 0s9.1-7.24 21.6-17.48l.24-.19.24-.2 7.63-6.24 1.81-1.47 2.11-1.73 4.53-3.7.84-.69 22.1-18.08 1.08-.89 1.11-.92 4-3.24c4.11-3.38 8-6.57 11.48-9.47 10.2-8.46 17.15-14.3 17.15-14.3.054-.063.054-.157 0-.22-.028-.031-.068-.048-.11-.048s-.082.017-.11.048-7.12 5.63-17.46 13.92c-3.53 2.84-7.44 6-11.58 9.35l-4.07 3.3-1.12.91-1.09.88c-7.29 5.91-15 12.17-22.4 18.19l-.87.71-4.15 3.37-1.58 1.29-1.22 1-.41.34-3.47 2.82-5.89 4.8-.24.2-.24.19-20.26 16.51-3.12-2.9-2.2-2-2.32-2.1-1.22-1.11-2.3-2-4.5-4.09-.42-.39-.2-.17-.19-.24-1.83-1.66-1.61-1.46-1.57-1.44-3-2.72-4.3-3.91-2.16-2-1.8-1.63-1.23-1.18-1.19-1c-4.85-4.41-9.7-8.81-14.2-12.88l-6.42-5.77c-8.79-7.88-15-13.43-15-13.43-.028-.031-.068-.048-.11-.048s-.082.017-.11.048c-.058.061-.058.159 0 .22s6.1 5.73 14.74 13.76c2 1.85 4.12 3.83 6.34 5.87 4.59 4.24 9.58 8.81 14.56 13.38l1.24 1.13 1.29 1.19 1.47 1.34 1.08 1"/></g></g></svg>