<svg clip-rule="evenodd" fill-rule="evenodd" stroke-linejoin="round" stroke-miterlimit="2" viewBox="0 0 1500 844" xmlns="http://www.w3.org/2000/svg"><path d="m413.146726 28.450595h673.70679491932v787.09909775312h-673.70679491932z" fill="none" stroke-width="5.45732519173"/><g fill-rule="nonzero" transform="matrix(5.45732519173 0 0 5.45732519173 413.146726 28.450595)"><path d="m6.565 142.845c-.38.435-.992.653-1.839.653-.38 0-.661-.039-.846-.12-.183-.079-.303-.202-.358-.367-.055-.166-.082-.371-.082-.617v-4.424c.108-.008.226-.032.33-.035.295-.006.503-.008.626-.008.956 0 1.651.284 2.086.853.436.571.653 1.31.653 2.217 0 .797-.19 1.414-.57 1.848m-3.125-8.928c0-.306.027-.543.082-.708.055-.166.153-.285.294-.359.14-.073.327-.11.56-.11.381 0 .703.08.966.239.265.16.466.399.607.718.14.318.212.711.212 1.177 0 .711-.166 1.314-.496 1.811-.332.497-.829.744-1.49.744-.026 0-.166-.002-.423-.009-.092-.001-.203-.005-.312-.007zm3.888 3.879c-.426-.184-.927-.282-1.462-.34.619-.225 1.122-.519 1.49-.899.54-.559.809-1.175.809-1.85 0-.526-.14-.965-.423-1.315-.282-.349-.683-.612-1.205-.79-.52-.178-1.149-.266-1.884-.266-.393 0-.779.018-1.159.054-.379.037-.747.056-1.104.056-.44 0-.858-.01-1.249-.028-.392-.018-.749-.028-1.067-.028-.025 0-.037.037-.037.111s.012.11.037.11c.343 0 .609.034.8.102.19.067.321.189.395.368.073.177.111.444.111.799v8.514c0 .356-.041.626-.12.81-.08.183-.215.306-.405.367-.19.063-.457.093-.799.093-.037 0-.056.036-.056.11 0 .073.019.111.056.111.318 0 .677-.006 1.075-.018.399-.014.819-.02 1.259-.02.417 0 .88.02 1.389.056s.929.054 1.26.054c.809 0 1.536-.148 2.179-.449.644-.302 1.15-.709 1.518-1.224.367-.514.552-1.09.552-1.728 0-.626-.173-1.174-.516-1.646-.344-.471-.825-.843-1.444-1.114" fill="#ea2e92"/><path d="m22.894 132.391c-.27 0-.564.008-.883.028-.319.018-.643.027-.975.027-.381 0-.733-.009-1.057-.027-.324-.02-.641-.028-.947-.028-.025 0-.037.036-.037.11 0 .073.012.111.037.111.539 0 .959.193 1.26.579.299.385.45.903.45 1.554v5.13c0 1.153-.288 2.039-.864 2.657-.577.619-1.373.928-2.39.928-1.006 0-1.809-.336-2.41-1.01-.6-.674-.901-1.765-.901-3.273v-5.26c0-.356.034-.625.1-.809.068-.185.194-.313.378-.386.184-.074.46-.11.827-.11.038 0 .056-.038.056-.111 0-.074-.018-.11-.056-.11-.306 0-.655.008-1.048.028-.392.018-.821.027-1.287.027-.441 0-.858-.009-1.25-.027-.393-.02-.749-.028-1.068-.028-.036 0-.054.036-.054.11 0 .073.018.111.054.111.369 0 .648.032.838.1s.315.191.377.368c.06.179.092.445.092.799v5.94c0 .908.199 1.684.597 2.327.399.644.95 1.138 1.655 1.481.706.343 1.505.515 2.401.515.919 0 1.721-.175 2.408-.525.687-.349 1.221-.845 1.6-1.489.38-.643.571-1.401.571-2.271v-5.112c0-.651.131-1.169.394-1.554.264-.386.642-.579 1.132-.579.024 0 .036-.038.036-.111 0-.074-.012-.11-.036-.11" fill="#ea2e92"/><path d="m35.934 139.342c-.761.038-1.484.052-2.171.046-.686-.006-1.459-.034-2.317-.083-.061 0-.092.049-.092.147 0 .099.038.148.11.148.577 0 .994.043 1.251.128.257.086.42.267.488.542.067.277.101.708.101 1.297 0 .625-.065 1.098-.193 1.416-.129.319-.335.533-.617.644-.281.11-.656.165-1.122.165-.735 0-1.41-.144-2.022-.432-.613-.287-1.149-.698-1.609-1.232-.46-.533-.816-1.162-1.067-1.885s-.377-1.526-.377-2.409c0-1.091.19-2.028.57-2.813.38-.786.892-1.389 1.536-1.812.643-.424 1.358-.635 2.142-.635.626 0 1.178.117 1.656.35s.888.518 1.231.855c.344.338.623.681.837 1.03.215.35.364.641.45.874.025.048.068.067.129.055.062-.013.092-.037.092-.074l-.239-2.556c-.012-.172-.027-.273-.046-.303-.018-.03-.095-.07-.229-.12-.369-.159-.847-.282-1.435-.368-.589-.086-1.171-.129-1.747-.129-1.031 0-1.981.148-2.851.442-.871.294-1.63.707-2.279 1.241-.651.533-1.153 1.167-1.508 1.904-.356.735-.534 1.55-.534 2.446 0 .808.153 1.568.46 2.28.305.711.753 1.335 1.343 1.875.587.54 1.305.963 2.151 1.27.846.305 1.808.459 2.886.459.687 0 1.401-.05 2.143-.148.742-.097 1.45-.22 2.124-.367.086-.025.141-.049.167-.074.024-.023.036-.073.036-.146 0-.098-.01-.194-.028-.285-.018-.092-.04-.237-.064-.433-.025-.196-.037-.497-.037-.901 0-.65.012-1.127.037-1.435.024-.306.086-.504.184-.597.097-.092.251-.132.46-.119.06 0 .088-.043.083-.13-.007-.086-.035-.128-.083-.128" fill="#ea2e92"/><path d="m40.384 139.158 1.898-4.185 2.118 4.185zm9.414 4.506c-.197 0-.39-.071-.579-.211-.191-.142-.394-.381-.608-.719-.215-.336-.468-.793-.763-1.369l-4.597-9.048c-.013-.048-.068-.07-.165-.064-.099.006-.154.028-.167.064l-3.99 8.772c-.307.687-.58 1.217-.819 1.591-.239.373-.478.631-.717.773-.239.14-.524.211-.854.211-.049 0-.074.036-.074.11s.025.11.074.11c.416 0 .769-.012 1.057-.036.287-.025.671-.037 1.149-.037.465 0 .852.012 1.159.037.306.024.644.036 1.011.036.062 0 .092-.036.092-.11s-.03-.11-.092-.11c-.687 0-1.189-.215-1.508-.643-.319-.43-.313-1.012.018-1.749l.726-1.599h4.509l1.257 2.482c.306.602.42 1.003.34 1.205-.08.203-.371.304-.873.304-.049 0-.073.036-.073.11s.024.11.073.11c.379 0 .722-.012 1.03-.036.305-.025.668-.037 1.084-.037.368 0 .751.012 1.149.037.399.024.783.036 1.151.036.06 0 .092-.036.092-.11s-.032-.11-.092-.11" fill="#ea2e92"/><path d="m63.077 132.391c-.269 0-.564.008-.883.028-.318.018-.643.027-.975.027-.343 0-.659-.009-.946-.027-.289-.02-.568-.028-.837-.028-.025 0-.038.036-.038.11 0 .073.013.111.038.111.478 0 .852.193 1.121.579.27.385.405.903.405 1.554v5.936l-6.362-7.334c-.295-.356-.482-.604-.562-.745-.079-.141-.199-.211-.358-.211-.196 0-.472.006-.827.018-.356.012-.755.018-1.196.018-.22 0-.46-.006-.718-.018-.257-.012-.508-.018-.753-.018-.024 0-.038.036-.038.11 0 .073.014.111.038.111.306 0 .613.088.919.267.28.161.619.467 1.011.9v7.769c0 .651-.156 1.166-.468 1.545-.313.381-.739.57-1.279.57-.036 0-.054.038-.054.111s.018.11.054.11c.295 0 .617-.006.966-.018s.709-.019 1.076-.019c.343 0 .659.007.947.019s.567.018.837.018c.024 0 .036-.037.036-.11s-.012-.111-.036-.111c-.478 0-.852-.189-1.121-.57-.271-.379-.406-.894-.406-1.545v-7.147l8.625 9.814c.024.013.065.016.119.01.056-.007.083-.028.083-.064v-9.416c0-.651.141-1.169.423-1.554.283-.386.669-.579 1.159-.579.024 0 .036-.038.036-.111 0-.074-.012-.11-.036-.11" fill="#ea2e92"/><path d="m75.529 132.391c-.307 0-.568.008-.781.028-.215.018-.494.027-.838.027-.526 0-.95-.009-1.268-.027-.32-.02-.656-.028-1.013-.028-.036 0-.054.036-.054.11 0 .073.018.111.054.111.602 0 .998.201 1.187.607.19.405.175.907-.046 1.508l-2.388 6.309-3.183-6.788c-.234-.503-.265-.901-.093-1.194.172-.296.521-.442 1.049-.442.036 0 .054-.038.054-.111 0-.074-.018-.11-.054-.11-.197 0-.43.006-.699.018-.271.012-.619.022-1.048.028-.43.006-.988.009-1.674.009-.306 0-.53-.003-.672-.009-.14-.006-.251-.016-.331-.028-.079-.012-.191-.018-.34-.018-.036 0-.054.036-.054.11 0 .073.018.111.054.111.283 0 .534.11.755.331.22.221.434.545.643.974l4.69 9.949c.024.048.094.074.21.074.117 0 .181-.026.194-.074l3.403-9.085c.245-.661.566-1.189.966-1.581.397-.393.823-.588 1.277-.588.037 0 .055-.038.055-.111 0-.074-.018-.11-.055-.11" fill="#ea2e92"/><path d="m79.705 133.108c.061-.184.187-.312.378-.386.189-.074.468-.11.836-.11.036 0 .055-.037.055-.111s-.019-.11-.055-.11c-.306 0-.66.009-1.057.028-.399.018-.831.026-1.297.026-.442 0-.864-.008-1.269-.026-.404-.019-.766-.028-1.085-.028-.024 0-.038.036-.038.11s.014.111.038.111c.38 0 .665.033.856.1.188.068.319.191.386.368.067.179.1.445.1.8v8.515c0 .354-.033.625-.1.808-.067.185-.198.307-.386.369-.191.061-.476.091-.856.091-.024 0-.038.038-.038.11 0 .074.014.111.038.111.319 0 .681-.006 1.085-.018.405-.012.827-.019 1.269-.019.466 0 .895.007 1.287.019s.749.018 1.067.018c.036 0 .055-.037.055-.111 0-.072-.019-.11-.055-.11-.38 0-.663-.03-.846-.091-.184-.062-.307-.184-.368-.369-.061-.183-.092-.454-.092-.808v-8.478c0-.356.031-.625.092-.809" fill="#ea2e92"/><path d="m91.196 140.537c-.233.858-.698 1.545-1.398 2.06-.698.515-1.526.772-2.482.772h-.625c-.294 0-.518-.024-.672-.073-.153-.05-.253-.15-.303-.303-.049-.154-.073-.378-.073-.672v-8.422c0-.356.03-.625.091-.81.062-.183.188-.309.377-.376.191-.068.47-.102.837-.102.037 0 .055-.037.055-.11 0-.074-.018-.111-.055-.111-.307 0-.656.009-1.048.028-.393.018-.821.028-1.287.028-.441 0-.868-.01-1.279-.028-.41-.019-.763-.028-1.057-.028-.024 0-.036.037-.036.111 0 .073.012.11.036.11.38 0 .663.034.846.102.184.067.309.189.377.368.067.177.101.444.101.799v8.514c0 .356-.034.626-.101.81-.068.183-.193.307-.377.367-.183.061-.466.093-.846.093-.024 0-.036.036-.036.11 0 .073.012.11.036.11h8.68c.184 0 .277-.092.277-.276 0-.478.018-1.002.054-1.572.037-.571.074-1.057.111-1.462 0-.037-.03-.061-.093-.073-.06-.012-.098 0-.11.036" fill="#ea2e92"/><path d="m101.217 140.537c-.233.858-.698 1.545-1.398 2.06-.698.515-1.526.772-2.482.772h-.626c-.293 0-.518-.024-.671-.073-.153-.05-.254-.15-.303-.303-.05-.154-.074-.378-.074-.672v-8.422c0-.356.03-.625.092-.81.062-.183.187-.309.377-.376.19-.068.469-.102.836-.102.038 0 .056-.037.056-.11 0-.074-.018-.111-.056-.111-.306 0-.655.009-1.046.028-.394.018-.823.028-1.289.028-.44 0-.868-.01-1.278-.028-.411-.019-.763-.028-1.058-.028-.024 0-.036.037-.036.111 0 .073.012.11.036.11.381 0 .663.034.847.102.183.067.309.189.376.368.068.177.102.444.102.799v8.514c0 .356-.034.626-.102.81-.067.183-.193.307-.376.367-.184.061-.466.093-.847.093-.024 0-.036.036-.036.11 0 .073.012.11.036.11h8.681c.183 0 .276-.092.276-.276 0-.478.018-1.002.054-1.572.038-.571.074-1.057.111-1.462 0-.037-.03-.061-.092-.073-.061-.012-.098 0-.11.036" fill="#ea2e92"/><path d="m105.538 139.158 1.898-4.185 2.119 4.185zm9.415 4.506c-.197 0-.39-.071-.58-.211-.19-.142-.393-.381-.607-.719-.215-.336-.468-.793-.763-1.369l-4.597-9.048c-.012-.048-.068-.07-.166-.064-.097.006-.153.028-.165.064l-3.991 8.772c-.307.687-.579 1.217-.818 1.591-.24.373-.479.631-.718.773-.239.14-.524.211-.855.211-.048 0-.073.036-.073.11s.025.11.073.11c.417 0 .769-.012 1.058-.036.287-.025.671-.037 1.149-.037.466 0 .853.012 1.158.037.307.024.645.036 1.012.036.061 0 .093-.036.093-.11s-.032-.11-.093-.11c-.687 0-1.19-.215-1.508-.643-.319-.43-.312-1.012.018-1.749l.725-1.599h4.511l1.255 2.482c.307.602.422 1.003.341 1.205-.08.203-.371.304-.873.304-.05 0-.074.036-.074.11s.024.11.074.11c.379 0 .723-.012 1.03-.036.305-.025.667-.037 1.085-.037.367 0 .751.012 1.149.037.398.024.782.036 1.15.036.06 0 .09-.036.09-.11s-.03-.11-.09-.11" fill="#ea2e92"/><path d="m123.036 139.314c-.277-.423-.625-.796-1.048-1.121s-.867-.635-1.334-.928c-.429-.283-.835-.565-1.222-.847-.386-.282-.699-.597-.938-.947-.239-.349-.358-.756-.358-1.223 0-.38.076-.69.229-.929s.356-.419.607-.542.53-.185.837-.185c.49 0 .908.133 1.251.396.342.264.625.58.846.947.221.368.397.722.532 1.059.136.335.239.578.313.725.024.038.064.046.119.028.056-.018.083-.046.083-.083v-2.703c0-.074-.015-.14-.045-.203-.031-.061-.108-.116-.231-.166-.257-.109-.606-.204-1.048-.283-.44-.081-.882-.121-1.324-.121-.612 0-1.217.105-1.811.313-.595.208-1.085.53-1.472.965-.386.436-.579.998-.579 1.683 0 .54.123 1.002.368 1.389.245.386.564.729.956 1.03.393.3.804.591 1.233.874.442.281.864.578 1.268.891.405.312.736.674.993 1.085.259.41.387.904.387 1.48 0 .454-.083.809-.248 1.067-.167.257-.378.435-.635.533-.257.097-.528.147-.809.147-.442 0-.834-.112-1.177-.341-.343-.225-.653-.516-.928-.872-.277-.357-.524-.745-.745-1.168-.221-.424-.424-.824-.607-1.205-.013-.049-.052-.07-.119-.065-.067.007-.095.041-.083.102l.055 2.925c0 .11.019.186.055.229.036.042.079.082.129.12.146.122.383.239.707.349.325.109.686.202 1.086.276.398.072.781.11 1.149.11.759 0 1.437-.138 2.032-.414.594-.275 1.066-.658 1.416-1.15.35-.49.524-1.06.524-1.709 0-.589-.138-1.095-.414-1.518" fill="#ea2e92"/><path d="m35.924 116.628c.283 0 .534.109.755.33.22.221.435.546.643.975l4.689 9.949c.025.048.096.073.212.073.117 0 .181-.025.193-.073l3.402-9.085c.245-.662.567-1.188.966-1.581.398-.393.824-.588 1.278-.588.037 0 .055-.038.055-.11 0-.075-.018-.111-.055-.111-.308 0-.567.008-.782.027-.214.019-.494.028-.837.028-.526 0-.95-.009-1.268-.028-.319-.019-.656-.027-1.012-.027-.036 0-.056.036-.056.111 0 .072.02.11.056.11.601 0 .996.201 1.187.607.189.404.173.906-.046 1.508l-2.388 6.309-3.185-6.789c-.233-.502-.263-.9-.092-1.194.172-.295.522-.441 1.048-.441.038 0 .056-.038.056-.11 0-.075-.018-.111-.056-.111-.195 0-.428.006-.699.018-.269.012-.618.021-1.048.028-.428.007-.986.009-1.673.009-.307 0-.53-.002-.671-.009-.142-.007-.251-.016-.331-.028s-.193-.018-.341-.018c-.036 0-.055.036-.055.111 0 .072.019.11.055.11" fill="#ea2e92"/><path d="m49.986 127.22c-.068.183-.197.307-.387.367-.19.061-.475.093-.854.093-.026 0-.038.036-.038.11 0 .073.012.11.038.11.318 0 .679-.005 1.084-.017.405-.014.828-.02 1.27-.02.465 0 .894.006 1.287.02.392.012.747.017 1.066.017.037 0 .055-.037.055-.11 0-.074-.018-.11-.055-.11-.379 0-.662-.032-.846-.093-.184-.06-.306-.184-.367-.367-.062-.184-.092-.454-.092-.81v-8.478c0-.355.03-.624.092-.807.061-.185.187-.314.376-.387.19-.074.47-.111.837-.111.037 0 .055-.037.055-.11 0-.074-.018-.111-.055-.111-.307 0-.659.009-1.058.028-.398.018-.83.028-1.295.028-.442 0-.865-.01-1.27-.028-.405-.019-.766-.028-1.084-.028-.026 0-.038.037-.038.111 0 .073.012.11.038.11.379 0 .664.034.854.102.19.067.319.189.387.368.067.177.101.444.101.799v8.514c0 .356-.034.626-.101.81" fill="#ea2e92"/><path d="m56.034 127.22c-.068.183-.194.307-.377.367-.185.061-.466.093-.846.093-.025 0-.037.036-.037.11 0 .073.012.11.037.11h8.68c.183 0 .275-.092.275-.276 0-.478.019-1.002.056-1.572.037-.571.073-1.057.11-1.462 0-.037-.031-.061-.092-.073-.062-.012-.098 0-.11.036-.233.858-.699 1.545-1.398 2.06s-1.526.772-2.482.772h-.626c-.294 0-.518-.024-.671-.073-.153-.05-.255-.15-.304-.303-.048-.154-.073-.378-.073-.672v-8.423c0-.355.031-.624.092-.809.062-.183.187-.309.377-.376.191-.068.468-.102.837-.102.037 0 .055-.037.055-.11 0-.074-.018-.111-.055-.111-.307 0-.656.009-1.048.028-.393.018-.823.028-1.287.028-.442 0-.868-.01-1.279-.028-.41-.019-.763-.028-1.057-.028-.025 0-.037.037-.037.111 0 .073.012.11.037.11.38 0 .661.034.846.102.183.067.309.189.377.368.067.177.101.444.101.799v8.514c0 .356-.034.626-.101.81" fill="#ea2e92"/><path d="m66.054 127.22c-.068.183-.193.307-.377.367-.184.061-.466.093-.846.093-.024 0-.036.036-.036.11 0 .073.012.11.036.11h8.68c.184 0 .276-.092.276-.276 0-.478.018-1.002.055-1.572.038-.571.074-1.057.11-1.462 0-.037-.03-.061-.092-.073-.061-.012-.098 0-.111.036-.233.858-.698 1.545-1.397 2.06s-1.526.772-2.482.772h-.625c-.295 0-.518-.024-.671-.073-.154-.05-.255-.15-.305-.303-.048-.154-.072-.378-.072-.672v-8.423c0-.355.03-.624.092-.809.061-.183.187-.309.376-.376.191-.068.469-.102.837-.102.037 0 .056-.037.056-.11 0-.074-.019-.111-.056-.111-.307 0-.656.009-1.048.028-.392.018-.822.028-1.287.028-.442 0-.868-.01-1.278-.028-.411-.019-.763-.028-1.058-.028-.024 0-.036.037-.036.111 0 .073.012.11.036.11.38 0 .662.034.846.102.184.067.309.189.377.368.068.177.101.444.101.799v8.514c0 .356-.033.626-.101.81" fill="#ea2e92"/><path d="m79.969 118.989 2.118 4.185h-4.015zm-5.743 8.911c.416 0 .77-.012 1.057-.036.287-.025.671-.037 1.149-.037.466 0 .853.012 1.159.037.306.024.644.036 1.012.036.06 0 .092-.036.092-.11s-.032-.11-.092-.11c-.687 0-1.189-.215-1.508-.643-.32-.43-.312-1.012.018-1.749l.725-1.599h4.51l1.257 2.482c.306.601.419 1.003.339 1.205-.08.203-.369.304-.873.304-.048 0-.073.036-.073.11s.025.11.073.11c.38 0 .723-.012 1.03-.036.307-.025.669-.037 1.085-.037.369 0 .751.012 1.15.037.398.024.782.036 1.149.036.06 0 .092-.036.092-.11s-.032-.11-.092-.11c-.197 0-.39-.071-.58-.211-.19-.142-.392-.381-.607-.719-.213-.336-.468-.793-.763-1.369l-4.597-9.048c-.012-.048-.068-.07-.165-.064-.098.006-.154.028-.166.064l-3.991 8.772c-.306.687-.58 1.217-.817 1.591-.239.373-.48.631-.719.773-.238.14-.524.211-.854.211-.049 0-.074.036-.074.11s.025.11.074.11" fill="#ea2e92"/><path d="m86.421 28.85-3.59 9.584c5.677.906.643 5.397 5.544 5.234 6.361-.211 12.297-8.268 17.597-10.812 3.303-1.585 5.373-4.24 8.514-4.887-3.49-6.592-8.346-12.347-14.187-16.901-1.85.865-3.642 2.145-5.373 3.85-3.511 3.458-6.347 8.101-8.505 13.932" fill="#3cc1c9"/><path d="m58.318 103.892c3.185.607 6.466.937 9.825.937 16.117 0 30.552-7.317 40.174-18.797h-15c-.033 0-.061-.028-.061-.06 0-.033.028-.061.061-.061h15.104c1.459-1.752 2.798-3.604 4.022-5.538h-22.06c-.066 0-.12-.053-.12-.119 0-.068.054-.121.12-.121h22.215c1.064-1.7 2.037-3.461 2.903-5.283h-29.546c-.174 0-.315-.14-.315-.315 0-.174.141-.314.315-.314h29.831c.717-1.561 1.36-3.162 1.924-4.8h-36.311c-.335 0-.604-.27-.604-.604 0-.333.269-.603.604-.603h36.72c.467-1.475.863-2.982 1.2-4.511h-44.162c-.333 0-.604-.269-.604-.603 0-.333.271-.604.604-.604h44.417c.291-1.482.522-2.985.684-4.51h-44.749z" fill="#3cc1c9"/><path d="m67.198 67.178 3.478-9.192h-4.322c.428 2.769.705 5.57.819 8.287.012.299.017.603.025.905" fill="#3cc1c9"/><path d="m120.493 49.89-42.045.249-2.487 6.64h44.4c.12-1.44.196-2.893.196-4.364 0-.847-.025-1.688-.064-2.525" fill="#3cc1c9"/><path d="m74.383 38.792c1.41-.199 2.628-.33 3.712-.413l3.788-10.014c1.945-5.29 2.079-9.721.406-13.285-1.676-3.564-5.159-5.346-10.449-5.346-.325 0-.485-.323-.485-.97 0-.65.16-.973.485-.973 3.132 0 6.101.08 8.91.242 2.807.163 6.534.243 11.179.243 1.601 0 3.034-.024 4.319-.069-8.129-5.186-17.768-8.207-28.104-8.207-10.065 0-19.471 2.858-27.463 7.794.178-.001.369-.003.54-.003.325 0 .487.323.487.973 0 .647-.162.97-.487.97-1.527 0-2.868.155-4.056.435-2.051 1.508-3.989 3.16-5.797 4.944-.72 2.397-.256 5.405 1.43 9.04l6.686 14.254c4.39-1.191 8.648-1.405 11.208.27.19.125.295.344.272.569-.024.221-.166.41-.372.495-.071.034-2.774 1.376-6.03 9.49l.934 1.993c8.745-11.143 8.385-16.061 8.379-16.123-.023-.221.076-.438.259-.563.181-.126.419-.144.616-.043 3.099 1.591 5.596 4.889 7.527 9.075 1.769-1.952 5.304-3.818 12.106-4.778" fill="#3cc1c9"/><path d="m73.634 50.168-8.947.053c.598 2.12 1.094 4.329 1.479 6.581.039-.008.075-.023.116-.023h4.851z" fill="#3cc1c9"/><path d="m13.971 35.166c-2.132-1.679-4.468-3.142-6.784-3.947-.017.003-.035.004-.05.008.587.682 1.427 1.926 2.309 4.065.887-.19 2.894-.522 4.525-.126" fill="#ea2e92"/><path d="m15.699 32.703c-2.969-1.247-5.887-1.929-8.114-1.555 1.549.393 4.141 1.35 7.35 3.658-.075-1.009.355-1.694.764-2.103" fill="#ea2e92"/><path d="m15.24 35.025c.239.176.483.366.728.558.194.151.384.293.581.454.138.112.277.235.414.352.336.284.67.579 1.005.884.66.605 1.312 1.247 1.948 1.922 0-.088.001-.174.003-.258l-1.477-3.132-.745-1.581-.368-.78c-.175-.085-.351-.172-.528-.254-.274-.127-.549-.249-.823-.367-.419.376-.915 1.069-.738 2.202" fill="#ea2e92"/><path d="m14.572 39.137c.127-.029.262-.048.394-.073.41-.073.837-.124 1.271-.138.419-.015.837.006 1.244.056.299.039.59.092.868.169-.232-.239-.466-.479-.71-.722-.319-.317-.65-.635-.989-.952-.324-.302-.654-.603-.994-.902-.347-.305-.701-.607-1.063-.904-1.586-.697-4.007-.323-5.037-.111.568 1.418 1.148 3.222 1.692 5.492.619-.873 1.784-1.56 3.324-1.915" fill="#ea2e92"/><path d="m20.77 46.659c0 .314-.082.607-.215.87 1.028.034 2.008.105 2.934.215.115-.156.23-.313.36-.47l-.769-1.629c-.856-.326-1.886-.462-2.976-.44.404.356.666.873.666 1.454" fill="#ea2e92"/><path d="m17.404 39.252c-.404-.048-.819-.065-1.236-.046-.436.019-.863.076-1.271.157-.087.017-.177.029-.262.048-1.277.295-2.687.972-3.292 2.032.358 1.548.7 3.298 1.007 5.298.055.362.12.713.187 1.06.252-.354.617-.691 1.063-1.005.375-.263.812-.509 1.309-.734.34-.154.698-.302 1.091-.433.061-.021.128-.035.19-.055.43-.137.879-.251 1.338-.347.345-.314.799-.51 1.3-.51.319 0 .616.085.88.22 1.147-.057 2.258.041 3.198.339l-.689-1.462c-.276-.401-.575-.814-.899-1.241-.65-.856-1.521-1.887-2.544-2.976-.415-.174-.878-.287-1.37-.345" fill="#ea2e92"/><path d="m16.151 45.878c-.019.006-.041.011-.062.018-.443.149-.847.317-1.221.495-.498.238-.937.495-1.297.772-.357.274-.635.564-.837.862.26-.042.52-.087.781-.123.406-.057.813-.105 1.221-.15.407-.045.814-.082 1.221-.114.388-.031.776-.055 1.163-.074-.144-.272-.234-.577-.234-.906 0-.401.122-.774.331-1.083-.366.088-.722.19-1.066.303" fill="#ea2e92"/><path d="m7.388 55.558c1.289.819 2.814 1.943 4.581 3.468-.007-1.022.498-2.197 1.452-3.337.044-.053.082-.106.128-.158.123-.14.259-.276.397-.413.141-.141.29-.276.444-.41.062-.055.122-.11.185-.162.096-.079.194-.152.292-.226.287-.217.587-.411.896-.583.281-.157.566-.296.856-.402-.288-.052-.574-.104-.871-.152-.396-.065-.8-.126-1.212-.181-.125-.017-.256-.03-.383-.047-.229-.029-.458-.058-.691-.084-.046-.004-.091-.012-.137-.016-.181-.02-.366-.034-.548-.051-.409-.039-.821-.073-1.236-.099-1.695.361-3.441 2.079-4.153 2.853" fill="#ea2e92"/><path d="m10.729 52.658c-2.708-.117-5.454.062-7.8.76-.011.013-.025.025-.036.037.876.21 2.282.728 4.248 1.949.608-.673 2.035-2.114 3.588-2.746" fill="#ea2e92"/><path d="m10.705 49.65c-3.139.722-5.906 1.872-7.494 3.479 1.487-.587 4.149-1.324 8.101-1.326-.651-.776-.702-1.582-.607-2.153" fill="#ea2e92"/><path d="m12.394 51.821c.212.007.426.014.645.026.099.005.19.005.289.011.005 0 .008 0 .013.001.119.006.241.021.359.029.275.02.552.04.833.068.397.039.799.087 1.204.141.624.082 1.254.182 1.888.3.096.018.193.038.289.057-.051-.072-.102-.144-.152-.214-.636-.906-1.073-1.664-.882-2.398.106-.408.41-.767.914-1.103-.637.022-1.282.065-1.931.12-.407.035-.813.076-1.22.123-.408.047-.816.101-1.222.161-.191.028-.38.058-.569.088-.195.033-.39.065-.583.1-.203.038-.403.075-.602.115-.225.045-.449.091-.671.139-.119.549-.112 1.406.69 2.218.231.002.469.01.708.018" fill="#ea2e92"/><path d="m24.524 62.068c-.063.192-.131.383-.18.576-.052.205-.088.412-.126.618-.247 1.356-.198 2.697.037 3.796.096.46.228.868.376 1.225.012.029.022.063.035.092.126.03.247.049.369.074 1.011.196 1.901.189 2.621-.014.205-.056.4-.124.577-.212 1.545-.77 1.78-2.497 1.646-3.991-.017-.19-.038-.377-.065-.557-.005-.033-.005-.058-.008-.089-.023-.154-.028-.285-.044-.431-.051-.069-.099-.144-.148-.219-.352-.536-.678-1.194-.95-2.018-.358-1.078-.761-1.857-1.186-2.463-.057-.062-.119-.117-.183-.172-1.185.802-2.089 1.945-2.64 3.372-.051.137-.086.276-.131.413" fill="#ea2e92"/><path d="m15.071 61.886c.12.118.246.246.369.367.057.058.115.116.173.174.19.189.375.368.569.566l.005.006c.257.262.515.508.772.751 0-.019.005-.041.005-.061.002-.234.037-.482.091-.741.044-.204.103-.415.179-.632.068-.195.147-.394.239-.597.254-.559.592-1.147 1.029-1.755.178-.249.378-.494.58-.738.161-.194.331-.381.505-.568.229-.248.464-.486.711-.718.628-.589 1.303-1.108 1.997-1.529.349-.211.698-.393 1.049-.543.112-.049.223-.104.334-.145-.059-.041-.113-.086-.169-.128-.163-.126-.315-.263-.454-.417-.039-.043-.073-.095-.111-.142-.594-.225-1.218-.446-1.913-.659-.103-.032-.221-.063-.33-.095.041.156.069.316.069.483 0 1.072-.87 1.943-1.941 1.943-1.072 0-1.943-.871-1.943-1.943 0-.495.192-.941.498-1.285-.052-.01-.101-.021-.152-.031-.003-.001-.004-.001-.005-.001-.133.03-.266.063-.4.108-.356.12-.71.293-1.056.497-.261.152-.515.321-.76.507-.147.112-.287.228-.427.349-.017.016-.035.031-.053.047-.152.135-.298.271-.437.413-.114.115-.231.229-.333.348-.105.119-.208.248-.309.38-.727.942-1.29 2.126-1.177 3.191.538.472 1.101.984 1.684 1.532.363.34.731.693 1.112 1.066" fill="#ea2e92"/><path d="m18.946 65.447c.763.581 1.512 1.072 2.24 1.487.054.031.109.064.164.094.141.079.28.152.419.225.901.468 1.761.808 2.56 1.028-.019-.048-.038-.095-.057-.145-.132-.361-.243-.759-.329-1.192-.216-1.1-.252-2.394-.01-3.715.039-.205.076-.412.128-.617.05-.193.115-.385.178-.577.052-.161.093-.321.154-.481.564-1.461 1.482-2.64 2.685-3.472-.077-.066-.157-.129-.222-.206-.001-.003-.008-.088-.014-.202-.672-.671-1.373-1.007-2.03-1.318-.286-.137-.549-.277-.799-.424-.01-.006-.018-.012-.027-.017-.297.097-.595.222-.895.371-1.07.53-2.134 1.357-3.058 2.307-.21.216-.421.433-.614.66-.246.288-.477.581-.689.875-.391.544-.699 1.074-.938 1.581-.097.201-.18.399-.25.593-.081.217-.144.428-.191.631-.093.403-.122.774-.082 1.103.563.515 1.123.988 1.677 1.411" fill="#ea2e92"/><path d="m22.471 49.556c.041-.107.079-.213.127-.32.053-.117.117-.234.177-.352-1.189-.12-2.455-.183-3.786-.172-.201.001-.408.008-.612.012-.699.369-1.113.759-1.225 1.19-.157.605.231 1.29.803 2.109.055.079.112.16.17.242.064.088.128.177.194.269 1.341.274 2.675.625 3.959 1.047-.154-.669-.218-1.494-.146-2.596.031-.465.152-.943.339-1.429" fill="#ea2e92"/><path d="m40.956 41.545c-.003.013-.007.028-.01.041.008-.004.017-.007.025-.011.973-.495 1.951-.931 2.916-1.29 2.123-.795 3.775-1.077 4.895-1.178-.89-.298-1.917-.443-3.051-.443-1.595 0-3.383.277-5.212.731.336.461.649 1.188.437 2.15" fill="#ea2e92"/><path d="m46.294 42.912c1.202-1.979 2.222-3.077 2.909-3.66-.025-.011-.054-.017-.081-.027-1.363.249-3.801.936-7.241 2.861 1.664-.125 3.57.505 4.413.826" fill="#ea2e92"/><path d="m35.352 45.141c1.66-1.277 3.446-2.426 5.257-3.375.078-.239.121-.463.136-.671.053-.739-.236-1.283-.513-1.625-.073.019-.148.038-.222.058-2.11.56-4.249 1.347-6.221 2.256.596.074 1.027.253 1.305.569.54.61.444 1.575.258 2.788" fill="#ea2e92"/><path d="m40.532 46.181c-1.272-.509-2.887-.766-4.14-.45-1.958 1.528-3.682 3.161-5.053 4.783-.072.087-.149.175-.221.262.138-.03.266-.073.411-.094 2.039-.287 4.674.383 6.693 1.431 1.55.804 2.621 1.744 3.088 2.68.12-.333.238-.669.349-1.019.611-1.929 1.219-3.605 1.812-5.079-.434-1.139-1.723-2.026-2.939-2.514" fill="#ea2e92"/><path d="m43.864 47.744c.802-1.889 1.571-3.389 2.279-4.584-.942-.353-3.115-1.048-4.768-.722-.059.012-.119.024-.176.038-.724.424-1.481.892-2.285 1.43-.697.466-1.372.951-2.028 1.446 1.212-.147 2.616.113 3.75.567 1.467.59 2.512 1.447 2.989 2.404.08-.194.159-.393.239-.579" fill="#ea2e92"/><path d="m36.765 61.965c.008.068.014.134.02.201.65-.592 1.3-1.328 1.926-2.221.501-.714.982-1.53 1.436-2.433.36-.718.702-1.489 1.016-2.323-.348-.959-1.439-1.98-3.07-2.827-1.913-.992-4.378-1.635-6.32-1.424-.249.026-.482.078-.712.135-.054.013-.113.022-.166.038-.017.004-.036.007-.053.012-.051.064-.098.126-.148.19-.036.047-.072.095-.107.142-.723.952-1.315 1.893-1.742 2.797 1.231.017 2.404.34 3.471.954.187.107.37.224.552.35.178.123.352.257.523.397.098.081.2.156.295.241 1.624 1.465 2.578 3.406 2.948 5.038.057.254.102.498.131.733" fill="#ea2e92"/><path d="m36.525 62.402c-.003-.053-.012-.114-.016-.169-.022-.237-.06-.488-.115-.752-.33-1.601-1.27-3.61-2.896-5.077-.072-.064-.146-.118-.219-.179-.157-.133-.317-.259-.482-.376-.176-.127-.356-.247-.54-.355-1.085-.641-2.286-.964-3.544-.96-.175.398-.31.786-.418 1.167-.065.228-.118.453-.156.675-.002.001-.002.003-.002.004-.03.174-.064.348-.078.517-.01.112-.004.219-.006.329.019.023.038.041.058.065.04.047.079.088.118.139.004.003.006.007.009.011.053.069.105.157.159.232.222.308.438.665.646 1.063.262.501.512 1.058.739 1.729.008.027.019.046.027.073.126.378.283.773.476 1.155.178.351.392.686.637.988.115.141.242.269.372.392.146.136.305.256.472.362.425.269.912.444 1.489.444h.02c.04 0 .084-.008.125-.011.298-.014.608-.068.931-.172.493-.16 1.011-.424 1.539-.791.217-.151.436-.317.655-.503" fill="#ea2e92"/><path d="m28.221 45.739c.074.057.144.121.207.192.496.566.676 1.576.874 2.722.036.211.082.424.121.636.045.249.087.498.142.744.011.05.031.095.044.146.037.153.091.296.135.447.087-.112.174-.225.264-.337.127-.158.249-.317.382-.476.223-.264.461-.525.701-.787.266-.291.545-.579.829-.865.954-.961 1.995-1.895 3.108-2.772.202-1.276.35-2.289-.145-2.851-.292-.33-.84-.492-1.619-.507-.187.09-.381.175-.564.266-.582.291-1.138.589-1.677.893-.178.1-.355.202-.528.303-.178.104-.353.209-.524.314-.894.547-1.712 1.107-2.449 1.672.203.017.391.059.556.152.052.029.096.072.143.108" fill="#ea2e92"/><path d="m25.781 47.97c.067.019.135.036.199.062.089.036.171.081.254.129.05.029.102.057.149.092.285.201.512.476.656.799.092.21.143.439.157.681.001.034.009.066.009.101 0 .458-.165.874-.432 1.206.045.055.088.111.132.168.123.157.239.327.356.497.116.168.226.338.333.518.178.297.342.605.488.93.243-.452.517-.904.82-1.358.192-.286.385-.573.598-.859.01-.013.022-.027.033-.041-.023-.073-.046-.146-.066-.221-.034-.118-.078-.231-.108-.352-.036-.151-.078-.294-.11-.444-.053-.25-.097-.493-.141-.736-.025-.146-.059-.3-.084-.44-.192-1.118-.365-2.101-.819-2.602-.064-.07-.134-.129-.209-.18-.02-.013-.036-.031-.057-.043-.212-.12-.476-.15-.785-.108-.621.498-1.18.997-1.662 1.492-.217.225-.42.447-.607.668.122-.024.249-.037.379-.037.18 0 .351.032.517.078" fill="#ea2e92"/><path d="m23.337 51.066c-.101 1.531.046 2.403.377 2.979.01.017.016.04.027.057.105.173.234.312.374.438.147.133.314.248.494.352.221.128.457.247.722.373.053.025.111.054.166.081.04.019.081.039.123.06.055.026.108.052.163.08.006.002.011.004.017.007.37.186.761.407 1.159.699.032-.167.062-.335.104-.504.081-.322.17-.644.292-.974.152-.41.338-.826.549-1.245-.166-.398-.353-.778-.566-1.133-.108-.18-.221-.349-.337-.516-.117-.167-.23-.339-.352-.492-.022-.027-.042-.053-.063-.08-.024.022-.051.041-.076.063-.176.148-.375.265-.596.345-.187.067-.385.108-.593.114-.019.001-.038.006-.057.006-.137 0-.271-.016-.401-.043-.108-.023-.213-.058-.315-.097-.519-.208-.922-.632-1.109-1.161-.051.201-.09.399-.102.591" fill="#ea2e92"/><path d="m63.817 51.723c-.131-.503-.263-1.002-.406-1.495-.564-1.95-1.218-3.811-1.965-5.527-1.585-3.639-3.589-6.595-6.005-8.338 1.162 2.42 3.164 7.842 3.186 17.009 1.889-2.043 4.032-1.926 5.19-1.649" fill="#b8d532"/><path d="m51.959 57.875c-1.292-1.084-2.904-2.069-4.547-2.566l7.597 16.194c.553-1.951 1.051-4.08 1.464-6.331-.2-2.575-2.237-5.385-4.514-7.297" fill="#b8d532"/><path d="m65.969 66.426c-.066.029-.145.006-.178-.062-.855-1.659-1.746-2.573-2.728-2.797-1.515-.345-3.18.907-5.284 2.494-.128.096-.265.197-.395.294-.435 2.274-.982 4.535-1.639 6.717l2.527 5.387c1.964-.663 3.695-1.179 4.977-.843l2.767-7.315c.018-1.26.006-2.551-.047-3.875" fill="#b8d532"/><path d="m52.14 57.659c2.079 1.746 3.956 4.233 4.481 6.643.519-3.017.886-6.206 1.042-9.407-.003-.002-.004-.005-.006-.008-.015-.012-.022-.025-.03-.041-.009-.017-.016-.03-.018-.048 0-.009-.008-.013-.008-.021.209-4.009-5.024-8.473-6.392-9.57-1.261 2.072-2.93 4.481-5.135 7.248l1.181 2.517c1.766.484 3.506 1.529 4.885 2.687" fill="#b8d532"/><path d="m58.392 78.716 2.458 5.239 2.299-6.075c-1.195-.298-2.86.197-4.757.836" fill="#b8d532"/><path d="m58.628 53.798c-.004.782-.018 1.585-.052 2.42-.127 3.121-.505 6.433-1.116 9.729.049-.037.102-.075.149-.112 2.162-1.631 3.867-2.924 5.517-2.543 1.032.236 1.957 1.152 2.826 2.784-.207-4.57-.894-9.489-2.058-14.056-1.082-.307-3.322-.535-5.266 1.778" fill="#b8d532"/><path d="m57.727 53.282c.162-6.229-.53-12.345-2.501-17.081-.065-.046-.127-.104-.193-.147-.184 1.441-.926 4.334-3.676 8.908 1.185.934 5.51 4.566 6.37 8.32" fill="#b8d532"/><path d="m14.72 64.703c.41.047.83.102 1.275.17.163.025.335.057.503.084-.209-.188-.414-.389-.62-.587-.184-.178-.371-.341-.552-.526-.24-.245-.464-.457-.697-.689-.082.011-.164.023-.246.034-1.766.257-3.308.704-4.555 1.345 1.131-.074 2.786-.075 4.892.169" fill="#b8d532"/><path d="m32.007 64.884c-.242-.08-.49-.185-.743-.33-.056-.013-.112-.029-.169-.042.011.24.01.465.001.682.262-.122.558-.228.911-.31" fill="#b8d532"/><path d="m22.493 71.947c1.789-1.102 4.195-1.877 6.213-1.805-.321-.159-.648-.319-.982-.478-.413.094-.848.147-1.31.147-1.998 0-4.396-.866-6.823-2.443-.528.098-1.056.233-1.566.392-.398.126-.78.263-1.144.405-.405.157-.779.316-1.117.468-.499.226-.907.43-1.189.578.775.876 1.614 1.916 2.502 3.128.71.967 1.452 2.046 2.227 3.258.05-.201.12-.402.21-.603.183-.41.445-.818.783-1.218.547-.643 1.279-1.264 2.196-1.829" fill="#b8d532"/><path d="m25.41 80.895c.204-.208.425-.415.664-.623.223-.194.465-.389.718-.583.033-.025.062-.052.095-.077.261-.197.536-.389.819-.577.389-.26.794-.51 1.214-.749 2.66-1.511 5.85-2.547 8.405-2.419l-.236-.5c-1.032-.822-2.222-1.678-3.627-2.569-.903-.572-1.959-1.183-3.111-1.803-.174-.092-.342-.185-.52-.28-.151-.079-.309-.158-.464-.237-.023-.004-.043-.01-.067-.014-2.047-.288-4.721.529-6.66 1.723-.934.576-1.673 1.221-2.208 1.886-.341.424-.596.855-.753 1.284-.073.196-.125.39-.155.583 1.084 1.718 2.227 3.685 3.421 5.946.287.544.579 1.064.876 1.565.046-.196.11-.394.197-.595.159-.372.389-.754.684-1.142.207-.271.437-.544.708-.819" fill="#b8d532"/><path d="m16.801 67.884c.364-.141.747-.278 1.145-.403.429-.134.872-.25 1.319-.344-.567-.383-1.132-.807-1.694-1.265-.029-.007-.059-.016-.09-.023-.445-.116-.89-.227-1.337-.327-.434-.098-.867-.197-1.299-.279-1.84-.35-3.651-.538-5.376-.528-.035.021-.079.037-.114.057 1.046.546 2.775 1.729 5.023 4.222.295-.158.748-.388 1.306-.641.339-.153.713-.313 1.117-.469" fill="#b8d532"/><path d="m30.746 91.253c.062-.089.124-.177.186-.264.149-.206.297-.405.446-.604.096-.128.193-.258.289-.383.034-.045.069-.092.103-.137.019-.024.037-.049.057-.073.025-.175.049-.349.085-.53.354-1.775 1.181-3.777 2.614-5.52.998-1.213 2.585-2.638 4.899-3.419l-1.061-2.253-.146-.309-.75-1.591c-2.157-.143-4.847.6-7.247 1.763-.396.191-.785.392-1.161.605-.719.405-1.397.842-2.003 1.3-.117.087-.219.175-.329.263-.252.202-.486.402-.705.604-.24.222-.461.443-.66.662-.18.2-.342.396-.487.592-.297.401-.52.794-.662 1.171-.086.227-.153.449-.179.662 2.123 3.483 4.473 5.927 6.711 7.461" fill="#b8d532"/><path d="m34.744 83.921c-1.407 1.71-2.214 3.669-2.557 5.404-.003.009-.004.017-.005.027.006-.009.012-.016.019-.025 3.017-3.73 6.078-5.931 8.583-6.124l-1.238-2.625c-2.272.76-3.825 2.155-4.802 3.343" fill="#b8d532"/><path d="m30.325 69.711c.035.018.069.038.104.055.015.008.029.015.044.024-.006-.021-.014-.04-.02-.061-.081-.242-.158-.48-.23-.711-.074-.24-.143-.475-.2-.701-.303.354-.626.613-.93.8.271.131.538.255.813.393.142.07.277.129.419.201" fill="#b8d532"/><path d="m30.65 69.427c.047.144.095.288.145.437.013.037.025.078.038.115.038.021.075.04.114.06 1.73.914 3.463 1.957 5.091 3.097l-2.895-6.142-.289-.613-.277-.59-.314-.666c-.486.101-.873.24-1.187.41-.094 1.093-.417 1.9-.834 2.488.049.22.107.447.18.687.068.23.146.47.228.717" fill="#b8d532"/><path d="m30.707 93.461c-1.212 1.89-2.328 3.986-3.186 6.066.384.413 1.09.897 2.214.7.308-.433.634-.874.992-1.328.907-1.149 1.962-2.308 3.1-3.417-.126.002-.259.005-.381.005-1.052 0-1.879-.089-2.354-.643-.276-.321-.397-.777-.385-1.383" fill="#b8d532"/><path d="m29.247 100.552c-.864 0-1.461-.386-1.838-.753-1.2 2.99-1.835 5.92-1.422 8.141.367-1.558 1.284-4.169 3.545-7.419-.094.008-.197.031-.285.031" fill="#b8d532"/><path d="m40.503 99.738c-.059-.15-.121-.294-.176-.451-.144-.405-.266-.834-.373-1.271-.133-.535-.23-1.085-.3-1.64-.128-1.014-.148-2.028-.018-2.95.046-.318.103-.625.184-.916.043-.157.108-.294.163-.44-.74.452-1.535.995-2.387 1.644-.139.106-.271.197-.412.31-.135.105-.282.228-.425.344-.037.031-.073.059-.111.09-.269.222-.548.459-.84.715-.291.256-.589.525-.897.811-.216.202-.438.415-.661.63-.478 1.196-.444 2.821-.117 4.142.315 1.273 1.017 2.672 2.085 3.259 1.542-.384 3.285-.755 5.28-1.094.362-.061.711-.133 1.056-.205-.78-.536-1.491-1.57-2.051-2.978" fill="#b8d532"/><path d="m34.124 95.196c.258-.246.521-.487.787-.728.033-.029.065-.058.098-.087.2-.178.398-.357.602-.532.079-.066.16-.13.238-.197.15-.125.299-.25.452-.373 1.208-.98 2.464-1.869 3.719-2.594-.463-.208-.938-.394-1.427-.553-.154-.051-.309-.108-.462-.157-.274-.087-.538-.173-.79-.26-.403-.138-.771-.283-1.085-.451-.453-.24-.795-.526-.949-.918-.069-.176-.085-.37-.074-.574-.518.51-1.042 1.077-1.563 1.686-.164.192-.329.385-.491.586-.147.18-.294.362-.44.548-.064.082-.128.166-.192.25-.181.235-.361.472-.54.717-.065.089-.128.182-.191.272-.016.021-.032.044-.048.066-.008.012-.016.024-.026.037-.108.151-.215.3-.321.454-.017.026-.035.05-.053.076-.081.117-.16.241-.239.359-.014.02-.027.041-.041.061-.02.031-.04.061-.06.091-.095.786-.012 1.347.277 1.684.461.539 1.41.558 2.605.539.074-.002.139 0 .214-.002" fill="#b8d532"/><path d="m33.86 100.823c-.292-1.179-.356-2.598-.049-3.775-1.134 1.131-2.313 2.423-3.42 3.815-.667 1.597-.253 4.008-.025 5.035 1.407-.59 3.202-1.201 5.462-1.781-.883-.605-1.588-1.759-1.968-3.294" fill="#b8d532"/><path d="m29.9 101.49c-1.645 2.159-3.069 4.519-3.836 6.847.005.017.006.035.01.052.672-.6 1.901-1.459 4.026-2.376-.204-.885-.57-2.886-.2-4.523" fill="#b8d532"/><path d="m44.997 95.36c-.988-1.459-1.424-3.081-1.291-4.738.009-.107.02-.213.033-.321-.145.045-.286.087-.44.14-.53.187-1.113.433-1.749.749-.336.168-.688.358-1.054.57-.042.024-.088.053-.13.078-.022.048-.038.105-.058.155-.152.367-.266.767-.343 1.197-.187 1.036-.174 2.21-.004 3.383.082.565.192 1.124.338 1.666.088.326.184.647.293.954.095.269.198.526.304.77.578 1.327 1.31 2.259 2.071 2.662.702-.158 1.371-.337 2.001-.536.57-.18 1.102-.378 1.613-.585.526-.215 1.025-.44 1.487-.679.283-.146.553-.295.81-.448.606-.36 1.139-.737 1.603-1.125-.822-.193-1.765-.584-2.692-1.186-1.024-.662-2.021-1.567-2.792-2.706" fill="#b8d532"/><path d="m40.638 90.348c.263-.141.525-.275.787-.4.019-.01.039-.018.059-.028.253-.121.507-.244.758-.349.145-.06.287-.106.432-.162.024-.008.048-.018.071-.026-.134-.085-.259-.175-.388-.267-.16-.112-.317-.228-.466-.348-.016-.013-.034-.024-.05-.037-.182-.149-.348-.302-.513-.459-1.275-1.201-2.06-2.575-2.087-3.42-1.133.495-2.382 1.383-3.669 2.599-.085.301-.092.565-.003.791.163.411.606.701 1.194.952.349.149.75.286 1.179.424.091.029.181.059.275.088.33.106.681.227 1.029.35.373.132.724.292 1.081.462.103-.058.207-.114.311-.17" fill="#b8d532"/><path d="m41.402 87.963c.164.16.326.321.509.473.149.124.314.238.475.355.014.011.03.021.044.034.212.152.43.293.66.429.159-.055.316-.106.473-.153.142-.043.282-.078.422-.116.249-.065.495-.122.739-.166.407-.077.804-.119 1.193-.133-.094-.177-.18-.35-.254-.521-.187-.429-.317-.837-.434-1.211-.296-.935-.526-1.628-1.495-2.065-.168-.077-.355-.147-.573-.208-.182-.051-.393-.093-.615-.133-.349-.061-.734-.113-1.198-.147h-.004c-.071-.006-.145-.008-.22-.008-.491 0-1.027.116-1.596.335-.076.67.621 2.015 1.874 3.235" fill="#b8d532"/><path d="m51.872 93.588c-.56-.631-1.325-1.116-2.04-1.469-1.453-.718-2.396-1.475-3.056-2.22-.336-.037-.828-.049-1.483.041-.062.009-.131.022-.196.033-.31.05-.643.118-1.019.222-.012.003-.028.009-.041.013 0 .004-.001.007-.002.012-.015.105-.033.211-.044.316-.154 1.63.267 3.229 1.239 4.665.641.947 1.457 1.721 2.307 2.332 1.113.8 2.284 1.311 3.215 1.494 1.122-1.001 1.771-2.052 1.912-3.014.091-.625-.037-1.17-.281-1.658-.138-.274-.303-.534-.511-.767" fill="#b8d532"/></g></svg>