<svg clip-rule="evenodd" fill-rule="evenodd" stroke-linejoin="round" stroke-miterlimit="2" viewBox="0 0 1500 844" xmlns="http://www.w3.org/2000/svg"><path d="m1090.72 771.005c-.02-.54-.02-1.08-.02-1.623 0-35.373 28.71-64.091 64.09-64.091 35.37 0 64.09 28.718 64.09 64.091 0 7.676-1.35 15.038-3.83 21.862-2.46 6.777-6.04 13.023-10.5 18.517-4.57.646-9.33 1.084-14.28 1.274-18.4.71-39.41-1.995-63.07-10.073-4.52-1.543-8.84-3.032-12.96-4.468-7.41-2.58-14.19-4.989-20.4-7.24-1.88-5.768-2.97-11.895-3.12-18.249z" fill="#ffb700" transform="matrix(1.6889 0 0 1.6889 -1623.224729 -870.662588)"/><path d="m1304.67 704.861c0 .001.01 208.842.01 208.842 0 .042-.03.09-.07.144-.08 10.464-8.48 18.926-18.84 18.962h-261.9c-10.36-.036-18.76-8.498-18.84-18.962-.04-.054-.07-.102-.07-.144 0 0 .01-208.841.01-208.842 4.32-68.86 69.28-131.942 149.85-131.942s145.53 63.082 149.85 131.942zm-261.9 189.736h224.1s-.15-189.686-.16-189.736c-3.16-50.556-52.73-93.73-111.89-93.73s-108.73 43.174-111.89 93.73c-.01.05-.16 189.736-.16 189.736z" fill="#ffb700" transform="matrix(1.6889 0 0 1.6889 -1623.224729 -851.564512)"/><path d="m1266.865 731.848c.002 3.452.005 5.378.005 5.378h-.005z" fill="#b8825a" transform="matrix(1.6889 0 0 1.6889 -1623.224729 -585.780704)"/><path d="m1052.343 615.357c6.682 2.856 15.082 6.236 25.637 10.229 4.82 1.825 10.1 3.777 15.86 5.867 6.21 2.251 12.99 4.66 20.4 7.24 4.12 1.436 8.44 2.925 12.96 4.468 23.66 8.078 44.67 10.783 63.07 10.073 4.95-.19 9.71-.628 14.28-1.274 10.51-1.488 20.03-4.081 28.56-7.316 9.214-3.495 17.272-7.74 24.18-12.149v16.168c-1.423.862-2.377 1.395-2.73 1.598-8.74 5.021-14.47 7.257-16.4 8.035-1.21.492-7.62 3.085-14.83 5.193-.77.226-1.56.446-2.34.658-6.97 1.876-15.98 3.867-27.04 5.028-4.04.423-8.35.736-12.93.893-5.85.2-12.15.146-18.89-.257-2.22-.133-2.22-.095-4.43-.356.26.039.51.066.77.105.97.149 7.54 1.567 17.25 2.613 4.39.473 9.43.87 14.89 1.038 2.97.091 12.57.439 25.58-.935 8.27-.872 17.91-2.439 28.1-5.208 5.677-1.542 10.062-2.928 13-3.913v37.957c-18.212 6.862-34.154 9.956-37.08 10.545-9.85 1.985-18.64 3.319-30.44 4.369-29.29 2.606-65.64-1.209-98.87-6.633-1.96-.319 10.8 4.328 20.55 6.481 10.79 2.383 46.51 10.065 89.24 9.377 18.82-.303 29.93-1.608 31.2-1.731 9.291-.901 17.805-2.165 25.4-3.592v7.725h-204.947v-58.696c13.797 4.73 26.915 7.606 27.387 7.712 11.03 2.478 17.37 3.552 18.89 3.81 4.04.684 8 1.277 11.87 1.79 23.88 3.165 44.23 3.264 58.15 2.848 1.17-.035 1.17-.016 2.34-.031-.84-.058-.84-.024-2.33-.159-23.7-2.161-42.23-5.974-56.57-9.767-5.08-1.346-9.93-2.833-14.07-4.189-6.84-2.244-11.71-4.127-12.42-4.413-13.41-5.403-21.32-9.812-25.75-12.337-2.711-1.549-5.21-3.069-7.497-4.535z" fill="#b8825a" transform="matrix(1.6889 0 0 1.6889 -1623.224729 -585.780704)"/><g fill="#ffb700"><path d="m1646.25 824.989c-10.22 2.317-17.45 5.043-24.4 10.768-8.31 6.815-9.54 15.402-9.54 26.307v9.542c0 20.855 7.5 24.399 17.31 24.399 8.72 0 14.31-3.681 18.54-11.041 3 8.996 8.45 11.041 15.54 11.041 5.72 0 10.9-2.999 12.81-7.361l-2.18-2.726c-.96 1.363-2.32 2.044-3.55 2.044-2.31 0-3.95-1.499-3.95-4.498v-78.922c0-11.586-10.9-17.038-23.17-17.038-14.31 0-30.26 6.679-30.26 22.082 0 6.27 5.32 11.859 12.54 11.859 6.27 0 11.99-5.316 11.99-12.268 0-8.179-6.95-11.314-11.72-11.586 3.41-2.317 7.23-3.408 10.63-3.408 5.18 0 9.41 2.726 9.41 8.996zm0 53.568c-1.36 3.135-3.82 4.907-6.82 4.907-4.77 0-6.54-1.772-6.54-10.359v-20.31c0-12.813 1.23-17.992 13.36-20.446z" transform="matrix(1.6889 0 0 1.6889 -1623.224729 -1151.818759)"/><path d="m1591.86 797.863c-.68-.136-1.5-.272-2.45-.272-5.86 0-11.18 4.498-11.18 11.586 0 6.952 5.73 12.268 12.13 12.268 7.23 0 12.54-5.18 12.54-12.813 0-10.905-6.95-21.128-26.17-21.128-26.03 0-28.62 12.131-28.62 35.576v37.485c0 26.988 7.36 35.44 28.49 35.44 19.49 0 24.53-9.542 24.53-22.219 0-2.589-.27-5.452-.54-8.042h-6c.54 1.909.82 4.635.82 6.679 0 8.724-1.91 15.267-13.91 15.267-9.13 0-13.08-4.089-13.08-22.491v-55.613c0-12.132 6.81-15.812 13.36-15.812 4.22 0 8.31 1.5 10.08 4.089z" transform="matrix(1.6889 0 0 1.6889 -1623.224729 -1151.818759)"/><path d="m1514.85 896.005h20.58v-94.597c0-7.906-5.45-12.54-12.95-12.54-8.99 0-15.67 5.043-20.99 9.95v-8.587h-20.58v105.774h20.58v-90.78c3.68-2.863 7.77-5.043 10.5-5.043 1.77 0 2.86.954 2.86 2.589z" transform="matrix(1.6889 0 0 1.6889 -1623.224729 -1154.122418)"/><path d="m819.634009 180.4987172h34.7609398v178.6417086h-34.7609398z" stroke-width="1.6889"/><path d="m1391.22 894.642h20.58v-53.296h10.63c6.14 0 8.32.273 10.36.546v-8.588c-2.04.273-4.22.545-10.36.545h-10.63v-37.484h5.18c9.54 0 12.95 4.226 12.95 15.948v2.453h5.72v-25.898h-44.43z" transform="matrix(1.6889 0 0 1.6889 -1623.224729 -1151.820448)"/><g transform="matrix(1.6889 0 0 1.6889 -1623.224729 -1131.371252)"><path d="m1769.92 820.806c-8.91 2.059-15.21 4.481-21.26 9.567-7.25 6.055-8.32 13.684-8.32 23.371v8.477c0 18.528 6.53 21.677 15.09 21.677 7.6 0 12.47-3.27 16.15-9.809 2.61 7.992 7.36 9.809 13.54 9.809 4.99 0 9.5-2.665 11.16-6.54l-1.9-2.422c-.83 1.211-2.02 1.817-3.09 1.817-2.01 0-3.44-1.332-3.44-3.996v-70.116c0-10.293-9.5-15.137-20.19-15.137-12.47 0-26.37 5.934-26.37 19.618 0 5.571 4.63 10.535 10.93 10.535 5.46 0 10.45-4.722 10.45-10.898 0-7.266-6.06-10.051-10.21-10.293 2.97-2.059 6.29-3.028 9.26-3.028 4.51 0 8.2 2.422 8.2 7.992zm0 47.591c-1.19 2.785-3.33 4.36-5.94 4.36-4.16 0-5.7-1.575-5.7-9.204v-18.043c0-11.383 1.07-15.985 11.64-18.165z"/><path d="m1690.22 882.687h40.15v-23.13h-5.11v2.301c0 10.414-2.85 14.41-11.28 14.41h-5.82v-87.553h-17.94z"/></g></g><g fill="#b8825a"><path d="m1750.49 638.531c-18.56 4.206-31.67 9.155-44.29 19.547-15.09 12.371-17.32 27.959-17.32 47.753v17.32c0 37.856 13.61 44.289 31.42 44.289 15.84 0 25.98-6.68 33.65-20.041 5.45 16.33 15.34 20.041 28.21 20.041 10.39 0 19.79-5.443 23.26-13.361l-3.96-4.948c-1.73 2.474-4.21 3.711-6.43 3.711-4.21 0-7.18-2.722-7.18-8.165v-143.26c0-21.031-19.79-30.929-42.06-30.929-25.98 0-54.93 12.124-54.93 40.084 0 11.381 9.65 21.526 22.76 21.526 11.38 0 21.78-9.65 21.78-22.269 0-14.845-12.62-20.536-21.28-21.031 6.18-4.206 13.11-6.186 19.3-6.186 9.4 0 17.07 4.949 17.07 16.331zm0 97.239c-2.47 5.69-6.93 8.907-12.37 8.907-8.66 0-11.88-3.217-11.88-18.804v-36.867c0-23.258 2.23-32.66 24.25-37.114z" transform="matrix(1.6889 0 0 1.6889 -1623.224729 -568.167171)"/><path d="m1567.89 762.491h37.36v-93.28h8.17c10.88 0 15.83 2.969 15.83 12.619v53.691c0 21.032 13.11 29.444 28.21 29.444 15.34 0 23.26-5.691 26.72-13.361l-3.96-4.948c-1.73 2.474-3.96 3.711-6.43 3.711-4.21 0-7.18-2.722-7.18-8.165v-54.681c0-15.588-7.92-22.516-17.57-24.99v-.743c12.62-4.453 17.82-13.856 17.82-30.186v-25.732c0-24.001-13.11-35.382-48-35.382h-50.97zm45.53-178.395c10.88 0 16.08 3.959 16.08 17.073v38.846c0 13.113-5.2 16.825-16.08 16.825h-8.17v-72.744z" transform="matrix(1.6889 0 0 1.6889 -1623.224729 -563.987145)"/><path d="m1504.05 638.531c-18.55 4.206-31.67 9.155-44.29 19.547-15.09 12.371-17.32 27.959-17.32 47.753v17.32c0 37.856 13.61 44.289 31.43 44.289 15.83 0 25.98-6.68 33.65-20.041 5.44 16.33 15.34 20.041 28.2 20.041 10.4 0 19.8-5.443 23.26-13.361l-3.96-4.948c-1.73 2.474-4.2 3.711-6.43 3.711-4.21 0-7.18-2.722-7.18-8.165v-143.26c0-21.031-19.79-30.929-42.06-30.929-25.98 0-54.93 12.124-54.93 40.084 0 11.381 9.65 21.526 22.77 21.526 11.38 0 21.77-9.65 21.77-22.269 0-14.845-12.62-20.536-21.28-21.031 6.19-4.206 13.11-6.186 19.3-6.186 9.4 0 17.07 4.949 17.07 16.331zm0 97.239c-2.47 5.69-6.93 8.907-12.37 8.907-8.66 0-11.88-3.217-11.88-18.804v-36.867c0-23.258 2.23-32.66 24.25-37.114z" transform="matrix(1.6889 0 0 1.6889 -1623.224729 -568.167171)"/><path d="m1348.67 746.161c1.24.247 2.72.495 4.45.495 10.39 0 20.04-8.165 20.04-21.032 0-12.618-10.14-22.268-21.77-22.268-13.11 0-22.76 9.402-22.76 23.258 0 19.794 12.62 38.351 47.26 38.351 47.5 0 52.2-21.773 52.2-64.578v-129.899h-36.86v154.394c0 22.021-12.62 28.702-24.25 28.702-7.67 0-15.09-2.722-18.31-7.423z" transform="matrix(1.6889 0 0 1.6889 -1623.224729 -563.987145)"/></g></svg>