<svg clip-rule="evenodd" fill-rule="evenodd" stroke-linejoin="round" stroke-miterlimit="2" viewBox="0 0 1500 844" xmlns="http://www.w3.org/2000/svg"><path d="m120 117.83c-.372-1.966-.559-3.962-.559-5.963 0-17.599 14.481-32.08 32.08-32.08 15.476 0 28.855 11.199 31.579 26.433l2.9 15.78-63.1 11.61zm94.62-17.41c-3.25-17.715-13.831-33.26-29.12-42.78 30.337 8.159 57.296 25.784 76.94 50.3l-44.92 8.26zm66.38 37.36c-3.449 1.294-6.696 3.075-9.64 5.29l-5.69-30.92c5.966 8.001 11.102 16.589 15.33 25.63zm-165.66 176.63 141.99-26.12c3.759-.691 7.399-1.917 10.81-3.64-27.538 39.366-72.658 62.872-120.7 62.88-81.3 0-147.44-66.15-147.44-147.44 0-72.84 53.09-133.5 122.61-145.34-25.325 12.814-39.303 40.958-34.21 68.88l2.94 15.78-47.34 8.71 24.64 134.1c3.982 21.638 25.061 36.168 46.7 32.19zm583.95-151.41c.727 7.273.921 14.589.58 21.89-.353 7.2-1.06 14.49-2.12 21.87-2.127 16.973-5.043 33.67-8.75 50.09-3.74 16.48-8.625 32.68-14.62 48.48-2.818 7.353-6.005 14.559-9.55 21.59-3.624 7.137-8.075 13.823-13.26 19.92-5.259 6.651-11.525 12.441-18.57 17.16-3.553 2.172-7.636 3.324-11.8 3.33-1.297-.002-2.591-.113-3.87-.33-5.247-.815-10.036-3.476-13.5-7.5-2.467-2.593-2.467-5.363 0-8.31 11.859-17.733 21.23-37.01 27.85-57.29 6.54-20.12 13.35-40.323 20.43-60.61-.026-.425-.216-.823-.53-1.11-1.759 1.828-3.275 3.874-4.51 6.09-1.296 2.327-2.448 4.732-3.45 7.2-2.12 3.7-4.243 7.297-6.37 10.79s-4.423 6.907-6.89 10.24c-6.28 7.173-13.087 10.76-20.42 10.76-5.127.007-10.523-1.737-16.19-5.23-9.9-6.267-16.353-13.83-19.36-22.69s-3.803-18.64-2.39-29.34c1.071-8.54 2.569-17.02 4.49-25.41.62-2.667 1.287-5.333 2-8-.23.08-.43.17-.67.24-3.533.733-7.07 1.38-10.61 1.94-2.171.332-4.364.496-6.56.49-1.5 0-3.02-.07-4.58-.22h-8.22c-2.78.016-5.546.389-8.23 1.11 4.953 10.7 6.9 21.31 5.84 31.83-1.156 10.868-4.202 21.451-9 31.27-2.487 5.533-6.73 10.517-12.73 14.95-4.401 3.45-9.602 5.734-15.12 6.64-.788.117-1.584.173-2.38.17-4.407.007-9.007-1.71-13.8-5.15l-.53-.55c-11.467-6.167-19.35-13.32-23.65-21.46-1.19 2.46-2.4 4.91-3.67 7.34-3.36 6.46-6.983 12.827-10.87 19.1-6.013 10.707-13.973 17.903-23.88 21.59-6.246 2.394-12.872 3.644-19.56 3.69-3.225-.001-6.443-.309-9.61-.92-5.689-.957-11.01-3.446-15.39-7.2-4.247-3.7-8.49-7.573-12.73-11.62-6.72-6.273-11.14-13.38-13.26-21.32-2.145-8.067-3.568-16.31-4.25-24.63v-.76c-2.073 3.147-4.187 6.26-6.34 9.34-7.091 10.172-15.471 19.382-24.93 27.4-6.22 5.263-13.437 9.218-21.22 11.63-3.746 1.108-7.633 1.667-11.54 1.66-4.204-.046-8.385-.631-12.44-1.74-1.011-.717-2.175-1.19-3.4-1.38-.767-.114-1.512-.343-2.21-.68l-.45-.21-.51-.32-.28-.17c-4.6-3.32-9.02-6.827-13.26-10.52-4.176-3.611-7.915-7.699-11.14-12.18-.24-.29-.46-.58-.68-.88-2.326 3.774-5.13 7.233-8.34 10.29-6.08 5.58-12.66 8.37-19.74 8.37-3.406-.023-6.784-.608-10-1.73-5.834-2.12-11.362-5.001-16.44-8.57-4.947-3.507-8.307-9.32-10.08-17.44-2.147 2.927-4.003 5.593-5.57 8s-3.233 4.9-5 7.48c-6.367 9.227-15.74 15.87-28.12 19.93-2.351 1.071-4.889 1.672-7.47 1.77-.519 0-1.037-.037-1.55-.11-4.24-.073-8.41-1.098-12.2-3-4.294-2.063-8.307-4.668-11.94-7.75-3.63-3.05-6.919-6.483-9.81-10.24-2.621-3.291-4.598-7.047-5.83-11.07-1.076-4.626-1.547-9.373-1.4-14.12.189-4.724.633-9.434 1.33-14.11 1.073-7.38 2.407-14.76 4-22.14 1.595-7.372 3.817-14.595 6.64-21.59.022-.426.213-.826.53-1.11 3.333-8.867 8.333-13.3 15-13.3 2.133.037 4.246.415 6.26 1.12 11.32 2.96 16.093 10.71 14.32 23.25l-6.4 58.17c-.245 5.477.661 10.945 2.66 16.05 4.269-1.287 8.175-3.562 11.4-6.64 2.978-2.92 5.726-6.066 8.22-9.41 7.08-9.227 13.713-18.64 19.9-28.24 6.329-9.894 11.08-20.714 14.08-32.07 2.145-8.919 5.922-17.365 11.14-24.91 1.318-1.745 2.733-3.415 4.24-5 1.413-1.48 3.537-2.22 6.37-2.22 7.773.007 11.84 4.62 12.2 13.84.343 6.464.166 12.945-.53 19.38-.713 6.64-1.42 13.097-2.12 19.37-1.06 7.38-1.947 14.76-2.66 22.14-.7 7.363-.7 14.777 0 22.14.35 1.072.529 2.192.53 3.32 0 1.107.71 1.847 2.13 2.22.243.051.491.078.74.08 1.44 0 2.79-.95 4-2.85 2.853-3.32 5.52-6.55 8-9.69 1.39-1.76 2.79-3.57 4.19-5.4-.966-5.06-1.128-10.24-.48-15.35 1.604-13.337 4.81-26.431 9.55-39 4.785-12.293 12.003-23.494 21.22-32.93.924-.999 1.899-1.95 2.92-2.85 3.165-2.773 6.817-4.937 10.77-6.38l.55-.19.49-.17c3.297-1.052 6.739-1.578 10.2-1.56 9.147.08 18.115 2.564 26 7.2 2.487 1.853 4.963 3.883 7.43 6.09 1.42 1.84 1.59 3.32.53 4.43-.5 1.34-1.19 2-2.06 2-.394-.015-.778-.125-1.12-.32-1.941-.624-3.962-.96-6-1-2.734-.121-5.385.979-7.23 3-2.912 3.215-5.585 6.637-8 10.24-3.226 4.381-6.153 8.975-8.76 13.75-.16.29-.32.58-.47.88l-.48.88c-3.306 6.265-6.005 12.831-8.06 19.61-.66 2.19-1.26 4.42-1.82 6.65-2.661 10.606-4.272 21.448-4.81 32.37v2.77c0 5.48.55 9.6 1.66 12.39.1.25.22.52.31.72s.19.4.29.58c.42.807 1.002 1.518 1.71 2.09.762.542 1.632.914 2.55 1.09.769.165 1.553.249 2.34.25 3.504-.172 6.958-.905 10.23-2.17 4.639-1.681 9.016-4.01 13-6.92 3.72-2.76 7.523-5.807 11.41-9.14 13.846-13.11 25.531-28.328 34.62-45.09 1.087-5.64 2.277-11.273 3.57-16.9 4.96-19.533 10.263-38.633 15.91-57.3 5.749-18.888 12.478-37.463 20.16-55.65 3.893-9.22 8.14-18.26 12.74-27.12 4.536-8.769 9.862-17.107 15.91-24.91 1.77-2.21 3.54-4.25 5.31-6.09l5.3-5.54c5.847-6.46 11.697-9.69 17.55-9.69h.49c6.013.193 12.733 4.163 20.16 11.91 6.733 7.393 9.76 16.983 9.08 28.77-.673 9.43-2.091 18.793-4.24 28-2.147 9.094-4.818 18.055-8 26.84-6.881 19.507-15.398 38.397-25.46 56.47-10.087 17.988-21.247 35.353-33.42 52-.975 1.719-2.036 3.388-3.18 5-1.152 1.556-2.595 2.874-4.25 3.88-2.677 1.989-4.633 4.799-5.57 8-.886 3.173-1.508 6.414-1.86 9.69-.696 5.787-1.05 11.611-1.06 17.44v17.44c-.031.566.061 1.133.27 1.66.203.529.292 1.095.26 1.66.713 6.273 2.13 10.057 4.25 11.35.934.518 1.993.767 3.06.72 2.972-.185 5.887-.896 8.61-2.1 7.707-2.712 14.887-6.738 21.22-11.9 6.249-5.25 11.777-11.302 16.44-18 3.54-5.187 6.9-10.447 10.08-15.78 1.18-1.98 2.3-4.05 3.3-6.16.219-5.648.888-11.269 2-16.81 1.369-5.42 3.234-10.702 5.57-15.78 2.475-5.23 5.264-10.306 8.35-15.2 4.613-7.38 10.28-11.81 17-13.29 1.78-.39 3.597-.588 5.42-.59 5.395.114 10.665 1.657 15.27 4.47 6.25 3.171 12.969 5.319 19.9 6.36 3.694.521 7.42.778 11.15.77 3.096-.001 6.191-.165 9.27-.49 2.82-.367 5.82-.737 9-1.11 2.987-.351 5.992-.535 9-.55.828-.178 1.673-.272 2.52-.28.759-.001 1.515.093 2.25.28.31.084.599.23.85.43.58-1.81 1.18-3.62 1.8-5.41 1.004-3.177 2.345-6.238 4-9.13 1.567-2.773 3.233-5.633 5-8.58 2.04-3.08 4.707-4.62 8-4.62.671.004 1.34.068 2 .19 7.42.733 12.99 3.683 16.71 8.85s4.87 11.44 3.45 18.82c-1.053 6.273-2.29 12.457-3.71 18.55s-2.66 12.273-3.72 18.54c-1.06 6.653-1.853 13.203-2.38 19.65-.53 6.73-.443 13.495.26 20.21 2.83 0 4.86-.93 6.1-2.77 1.254-1.876 2.773-3.56 4.51-5 9.547-12.375 18.053-25.52 25.43-39.3 3.9-6.28 7.533-12.74 10.9-19.38s6.993-13.097 10.88-19.37c1.032-2.151 1.917-4.37 2.65-6.64l2.12-6.65c1.133-3.54 3.283-5.31 6.45-5.31.867.009 1.729.12 2.57.33 8.467 1.107 13.23 6.08 14.29 14.92zm-173.47 64.24c2.546-7.715 4.151-15.71 4.78-23.81-.007-5.16-1.423-9.217-4.25-12.17-1.35-1.91-2.51-2.91-3.81-2.91s-2.51 1.15-3.61 3.46c-7.433 16.973-11.503 35.61-12.21 55.91.295-.03.588.073.8.28.218.196.508.293.8.27h.53c.474-.219.917-.498 1.32-.83.408-.33.854-.609 1.33-.83 7.073-5.533 11.847-11.99 14.32-19.37zm-119.09-50.37c-.882 3.26-1.329 6.623-1.33 10l2.12-1.11c.698-1.075 1.499-2.079 2.39-3 .891-.939 1.691-1.96 2.39-3.05 11.812-16.974 21.94-35.06 30.24-54 8.227-18.913 14.968-38.439 20.16-58.4 2.144-7.514 3.564-15.216 4.24-23 .703-8.205.525-16.462-.53-24.63-1.757.851-3.369 1.971-4.78 3.32-1.153 1.209-2.223 2.495-3.2 3.85-4.513 5.769-8.423 11.985-11.67 18.55-3.167 6.46-6.167 13.193-9 20.2-6.938 16.212-12.527 32.969-16.71 50.1-4.073 16.787-8.053 34.04-11.94 51.76-.7 2.95-1.5 6.08-2.38 9.41z" fill="#189cd9" transform="matrix(2.071378 0 0 2.071378 24.983498 41.560349)"/></svg>