<svg viewBox="0 0 64 64" xmlns="http://www.w3.org/2000/svg"><path d="m41.02.01c7.42 0 14.84.01 22.26-.01.55 0 .73.06.72.68-.05 2.42-.02 4.85-.02 7.28-.05.05-.11.09-.15.15-4.93 6.44-9.86 12.87-14.8 19.31-1.58 2.06-3.16 4.11-4.73 6.17-.19.25-.35.41-.62.16-1.19-1.1-2.31-2.28-2.8-3.86-.65-2.06-1.25-4.13-2.07-6.13-.09-.21-.14-.39-.09-.62.28-1.14.13-2.3.12-3.45 0-.44-.15-.87-.45-1.19-1.13-1.18-2.35-2.19-4.13-2.16-2.02.03-4.04 0-6.06 0-1.82 0-3.08 1.05-4.19 2.33-.32.36-.41.85-.4 1.35.02.82.01 1.64 0 2.45 0 .42.04.84.31 1.16.9 1.08 1.91 2.21 3.37 2.25 3.32.08 6.7.69 9.95-.68.06.13-.02.26-.06.39-.31 1.16-.76 2.28-.81 3.5-.02.52.4 1.21.04 1.49-.28.23-.99-.15-1.5-.11-.88.07-1.58-.22-2.26-.72-.46-.34-.98-.6-1.55-.75-.33-.09-.57-.06-.71.27-.14.34.12.52.36.59.84.25 1.36.84 1.67 1.59.59 1.44 1.76 2.18 3.12 2.68 1.2.44 2.38.9 3.4 1.68 1.68 1.28 3.46 2.46 4.72 4.19 1.19 1.63 2.26 3.35 3.39 5.01 2.25 3.3 4.63 6.49 7.51 9.28 1.26 1.23 2.58 2.4 4.15 3.25.59.31 1.19.6 1.8.91-.17.25-.4.19-.61.2-1.13.03-2.26.02-3.39.1-2.3.15-4.59.39-6.74 1.31-1.34.57-2.29 1.48-2.5 3-.05.37-.24.67-.49.94h-36.24c-.61-.63-.75-1.44-.74-2.29-4.46 1.69-7.75.85-9.8-2.47v-.29c.27-.05.52.04.78.1 1.99.47 3.9.26 5.73-.66 2.19-1.1 3.77-2.85 5.2-4.77 2.38-3.22 4.13-6.81 6.04-10.31 1.76-3.22 3.33-6.57 6.42-8.83.31-.22.56-.53.82-.82 1.5-1.72 1.42-3.22-.12-5.04-.91-1.07-1.95-2.09-2.21-3.6-.85.41-1.58.94-2.27 1.55-.63.55-1.1.52-1.54-.19-.76-1.25-1.39-2.54-.66-4.05.05-.1.05-.22.09-.4-.94.21-1.8 0-2.65-.24-.25-.07-.63-.07-.64-.36-.02-.34.39-.41.64-.47.69-.19 1.4-.31 2.1-.46.11-.02.26 0 .27-.17 0-.05-.06-.16-.1-.17-.69-.17-1.19-.96-2.06-.59-.29.12-.67.03-1 .03-.25 0-.52.05-.71-.28 1.53-.59 3.06-.95 4.66-.84.81.06 1.09.39 1.1 1.22.03 1.53-.19 3.01-.89 4.39-.3.59-.15.86.5.9.85.05 1.67-.12 2.44-.51.32-.16.4-.3.16-.65-1.38-2.01-1.12-4.4.61-6.13.49-.49 1.05-.93 1.44-1.52.72-1.08.32-1.98-.92-2.22-.87-.16-1.72-.07-2.58.02-2.02.21-3.99.58-5.81 1.53-1.2.62-1.52 1.27-1.23 2.58.1.48.25.95.38 1.43-.63.04-.8-.34-.92-.77-.18-.64-.52-1.01-1.26-.78-.3.09-.62.1-.93.01-.12-.03-.31.02-.33-.19-.02-.15.11-.19.19-.28.24-.26.64-.35.82-.74-.32-.12-.63-.22-.93-.34-1.36-.51-2.79-.88-3.96-1.84-1.32-1.08-1.35-2.53-.02-3.58.56-.44 1.21-.68 1.91-.8 1.4-.25 2.79-.08 4.15.21 1 .21 1.72.1 2.27-.87.82-1.42 2.1-2.26 3.73-2.56 3.26-.6 6.21.15 8.8 2.17 1.52 1.18 2.56 2.67 2.3 4.76-.04.28 0 .57 0 1.07.24-.3.33-.41.42-.53 2.79-3.67 5.58-7.33 8.36-11 .83-1.1 1.77-2.13 2.45-3.35zm3.47 17.87c-1.23 0-2.45-.02-3.68 0-1.12.03-1.6.53-1.55 1.59.04.86.12 1.72.23 2.57.11.86.63 1.37 1.48 1.38 2.45.03 4.91.04 7.36 0 1.12-.02 1.65-.65 1.67-1.76 0-.33.04-.66.09-1 .28-1.83-.56-2.78-2.42-2.79h-3.17zm12.87 39.55c-.72-.45-1.39-.87-2.06-1.28-1.91-1.16-3.7-2.47-5.21-4.15-.62-.7-1.13-1.49-1.79-2.16-1.79-1.82-3.87-3.29-5.94-4.75-.18-.13-.35-.22-.58-.11 1.01 1.37 2.01 2.75 3.03 4.1 1.12 1.49 2.2 3.03 3.49 4.39.17.17.33.51.64.32.57-.37.99 0 1.36.29 1.76 1.37 3.71 2.36 5.78 3.15.39.15.76.38 1.28.2"/><path d="m63.98 39.16c-1.12 1.43-2.26 2.84-3.34 4.3-.41.55-.72.61-1.29.22-3.78-2.56-7.7-4.89-11.58-7.29-.14-.09-.28-.18-.42-.28q-1.17-.78-.29-1.92l15.13-19.72c.41-.53.79-1.09 1.21-1.61.15-.18.24-.49.58-.42zm-47.01-9.83c.98.36 1.95.73 2.63 1.63.6.8.68.78 1.51.28.14-.08.25-.37.45-.19.21.19.25.45.12.73-.24.53-.74.82-1.15 1.18-4.83 4.31-9.68 8.6-14.73 12.65-1.08.87-2.16 1.74-3.36 2.45-.21.12-.42.24-.65.3-.59.15-.87-.15-.7-.75.34-1.2 1.09-2.18 1.79-3.18.38-.54.88-.91 1.47-1.23 2.71-1.47 5.15-3.35 7.63-5.16 2.56-1.87 5.08-3.78 7.64-5.65.39-.29.33-.37-.01-.63-.94-.72-1.84-1.49-2.76-2.24l.12-.18zm3.63-.86c-1.04.03-1.86-.51-2.77-.73-.1-.03-.19-.08-.16-.19.08-.23.23-.42.44-.55.09-.06.24-.03.25.05.1.69.68.45 1.06.53.34.07.72.05 1.07.01.45-.05.84.11.82.55-.01.39-.47.33-.72.33zm-1.29.22c.73.03 1.34.27 1.97.2.33-.04.36.23.47.43.09.16.15.33-.02.44-.19.12-.4.24-.66.11-.61-.3-1.16-.67-1.76-1.18m-2.92-1.41c-.06-.29-.13-.59-.2-.93.58.1.93-.22 1.25-.63.13-.17.21-.46.51-.4.12.03.13.19.13.31 0 .27.03.54-.29.67-.24.1-.49.2-.73.3-.31.13-.42.43-.68.68zm14.98-2.79c-1.4.03-2.41-.41-3.18-1.33-1.15-1.37-.82-3.39.69-4.5 1.32-.97 3.54-.91 4.78.12 1.05.87 1.46 2.15 1.08 3.34-.41 1.28-1.69 2.27-3.07 2.36-.17.01-.34 0-.31 0zm.81-3.23c.02-.54-.44-1.03-.98-1-.58.03-.91.37-.97.94-.05.51.43 1.04.94 1.07.5.02.99-.46 1.01-1z"/></svg>