<svg viewBox="0 0 64 64" xmlns="http://www.w3.org/2000/svg"><path clip-rule="evenodd" d="m11.828 31.699-6.9-30.222c-.162-.7-.162-.704.528-.862.862-.198 1.714-.377 2.572-.586.323-.083.47.004.535.33.201.919.431 1.835.621 2.758.069.342.205.443.553.353.883-.219 1.778-.395 2.658-.618.395-.097.575-.025.657.399.169.894.406 1.771.596 2.658.068.348.219.445.567.366.898-.226 1.803-.406 2.701-.636.37-.093.514.018.589.381.172.848.377 1.688.575 2.532.14.621.14.621.787.474.826-.19 1.659-.359 2.482-.575.377-.097.542-.014.628.384.172.891.406 1.767.589 2.661.075.366.237.474.603.381.88-.223 1.774-.395 2.654-.625.395-.104.542.018.614.402.172.848.377 1.688.575 2.525.136.6.136.6.715.467.876-.194 1.749-.381 2.618-.596.32-.079.467 0 .542.33.19.916.42 1.832.611 2.747.075.348.237.445.578.359.88-.215 1.774-.391 2.658-.621.409-.108.557.022.639.424.172.855.399 1.706.571 2.571.083.402.233.528.65.417.883-.223 1.774-.395 2.654-.618.345-.083.496 0 .571.352.183.905.417 1.799.607 2.712.072.366.237.456.6.366.837-.208 1.684-.388 2.525-.582.621-.144.621-.144.769.503.19.822.391 1.648.56 2.482.075.384.23.499.621.399.901-.226 1.803-.406 2.701-.625.33-.079.474.011.539.338.194.905.424 1.803.607 2.701.079.402.251.488.632.388.83-.208 1.677-.395 2.525-.582.593-.133.593-.133.725.442.198.862.406 1.71.585 2.564.075.374.226.481.596.391.88-.223 1.778-.395 2.654-.625.391-.097.535.014.618.395.463 2.097.945 4.202 1.44 6.292.108.435-.018.578-.431.672a2639 2639 0 00-13.385 3.049c-.607.136-.607.136-.467.743.19.848.395 1.681.575 2.532.068.323.215.42.542.338.898-.223 1.803-.399 2.697-.632.395-.097.532.022.618.402.442 1.997.905 3.99 1.361 5.983.18.783.18.783.98.6s1.598-.356 2.392-.553c.32-.075.467 0 .539.327q.727 3.243 1.48 6.475c.072.32-.007.467-.338.535-.916.194-1.828.424-2.747.614-.352.075-.435.237-.352.582.215.883.391 1.774.618 2.654.09.366.029.546-.377.629q-3.173.7-6.335 1.447c-.377.086-.549.014-.632-.381-.172-.887-.409-1.771-.589-2.661-.075-.366-.233-.47-.6-.381-.883.223-1.781.391-2.654.625-.391.097-.532-.022-.618-.399-.445-2.011-.912-4.022-1.368-6.026-.169-.74-.169-.74-.93-.567-.769.172-1.541.327-2.302.535-.431.122-.614.018-.711-.438-.445-2.054-.937-4.105-1.39-6.163-.09-.427-.259-.539-.682-.424-.833.215-1.681.402-2.525.575-.399.079-.481.255-.384.632.215.851.377 1.72.6 2.561.108.42.029.607-.413.69-.88.172-1.738.409-2.622.585-.359.075-.467.23-.377.6.219.898.406 1.803.628 2.697.09.348-.018.492-.359.564-.876.176-1.742.42-2.618.582-.463.086-.549.287-.438.722.23.866.399 1.738.611 2.607.079.316.007.47-.323.546-2.158.481-4.32.973-6.472 1.48-.327.072-.488 0-.535-.345-.025-.158-.072-.32-.111-.485z" fill-rule="evenodd"/></svg>