<svg xmlns="http://www.w3.org/2000/svg" xml:space="preserve" style="fill-rule:evenodd;clip-rule:evenodd;stroke-linejoin:round;stroke-miterlimit:2" viewBox="0 0 64 64"><path d="M23 0c3.863 0 7 3.137 7 7v50c0 3.862-3.137 7-7 7-3.613 0-6.587-2.738-6.962-6.263A7.9 7.9 0 0 1 14 58c-4.412 0-8-3.588-8-8 0-.925.163-1.825.45-2.65A9.99 9.99 0 0 1 0 38a9.99 9.99 0 0 1 5.725-9.038A7.9 7.9 0 0 1 4 24c0-3.838 2.7-7.038 6.3-7.825-.2-.688-.3-1.425-.3-2.175 0-3.738 2.575-6.888 6.038-7.763A7 7 0 0 1 23 0" style="fill-rule:nonzero"/><path d="M41 0c-3.862 0-7 3.137-7 7v50c0 3.862 3.138 7 7 7 3.612 0 6.587-2.738 6.962-6.263.65.175 1.338.263 2.038.263 4.412 0 8-3.588 8-8a8.1 8.1 0 0 0-.45-2.65A9.99 9.99 0 0 0 64 38a9.99 9.99 0 0 0-5.725-9.038A7.92 7.92 0 0 0 60 24c0-3.838-2.7-7.038-6.3-7.825.2-.688.3-1.425.3-2.175 0-3.738-2.575-6.888-6.038-7.763A7.003 7.003 0 0 0 41 0" style="fill:none;fill-rule:nonzero"/><clipPath id="a"><path d="M41 0c-3.862 0-7 3.137-7 7v50c0 3.862 3.138 7 7 7 3.612 0 6.587-2.738 6.962-6.263.65.175 1.338.263 2.038.263 4.412 0 8-3.588 8-8a8.1 8.1 0 0 0-.45-2.65A9.99 9.99 0 0 0 64 38a9.99 9.99 0 0 0-5.725-9.038A7.92 7.92 0 0 0 60 24c0-3.838-2.7-7.038-6.3-7.825.2-.688.3-1.425.3-2.175 0-3.738-2.575-6.888-6.038-7.763A7.003 7.003 0 0 0 41 0" clip-rule="nonzero"/></clipPath><g clip-path="url(#a)"><path d="M35.038 0c-.33 0-.6.27-.6.6v3.468c0 .336.258.6.6.6h1.764a.59.59 0 0 0 .6-.6V.6c0-.33-.27-.6-.6-.6zm0 4.068V.6h1.764v3.468zM40.54 4.068V0h-1.482c-.156 0-.3.084-.3.3s.144.3.3.3h.882v3.468h-.882c-.156 0-.3.084-.3.3s.144.3.3.3h2.364c.156 0 .3-.084.3-.3V2.856c0-.174-.078-.3-.3-.3s-.3.126-.3.3v1.212zM44.86 4.068V0h-1.482c-.156 0-.3.084-.3.3s.144.3.3.3h.882v3.468h-.882c-.156 0-.3.084-.3.3s.144.3.3.3h2.364c.156 0 .3-.084.3-.3V2.856c0-.174-.078-.3-.3-.3s-.3.126-.3.3v1.212zM47.998 0c-.33 0-.6.27-.6.6v3.468c0 .336.258.6.6.6h1.764a.59.59 0 0 0 .6-.6V.6c0-.33-.27-.6-.6-.6zm0 4.068V.6h1.764v3.468zM36.22 11.268V7.2h-1.482c-.156 0-.3.084-.3.3s.144.3.3.3h.882v3.468h-.882c-.156 0-.3.084-.3.3s.144.3.3.3h2.364c.156 0 .3-.084.3-.3v-1.512c0-.174-.078-.3-.3-.3s-.3.126-.3.3v1.212zM40.54 11.268V7.2h-1.482c-.156 0-.3.084-.3.3s.144.3.3.3h.882v3.468h-.882c-.156 0-.3.084-.3.3s.144.3.3.3h2.364c.156 0 .3-.084.3-.3v-1.512c0-.174-.078-.3-.3-.3s-.3.126-.3.3v1.212zM43.678 7.2c-.33 0-.6.27-.6.6v3.468c0 .336.258.6.6.6h1.764a.59.59 0 0 0 .6-.6V7.8c0-.33-.27-.6-.6-.6zm0 4.068V7.8h1.764v3.468zM49.18 11.268V7.2h-1.482c-.156 0-.3.084-.3.3s.144.3.3.3h.882v3.468h-.882c-.156 0-.3.084-.3.3s.144.3.3.3h2.364c.156 0 .3-.084.3-.3v-1.512c0-.174-.078-.3-.3-.3s-.3.126-.3.3v1.212zM53.5 11.268V7.2h-1.482c-.156 0-.3.084-.3.3s.144.3.3.3h.882v3.468h-.882c-.156 0-.3.084-.3.3s.144.3.3.3h2.364c.156 0 .3-.084.3-.3v-1.512c0-.174-.078-.3-.3-.3s-.3.126-.3.3v1.212zM36.22 18.468V14.4h-1.482c-.156 0-.3.084-.3.3s.144.3.3.3h.882v3.468h-.882c-.156 0-.3.084-.3.3s.144.3.3.3h2.364c.156 0 .3-.084.3-.3v-1.512c0-.174-.078-.3-.3-.3s-.3.126-.3.3v1.212zM39.358 14.4c-.33 0-.6.27-.6.6v3.468c0 .336.258.6.6.6h1.764a.59.59 0 0 0 .6-.6V15c0-.33-.27-.6-.6-.6zm0 4.068V15h1.764v3.468zM43.678 14.4c-.33 0-.6.27-.6.6v3.468c0 .336.258.6.6.6h1.764a.59.59 0 0 0 .6-.6V15c0-.33-.27-.6-.6-.6zm0 4.068V15h1.764v3.468zM47.998 14.4c-.33 0-.6.27-.6.6v3.468c0 .336.258.6.6.6h1.764a.59.59 0 0 0 .6-.6V15c0-.33-.27-.6-.6-.6zm0 4.068V15h1.764v3.468zM53.5 18.468V14.4h-1.482c-.156 0-.3.084-.3.3s.144.3.3.3h.882v3.468h-.882c-.156 0-.3.084-.3.3s.144.3.3.3h2.364c.156 0 .3-.084.3-.3v-1.512c0-.174-.078-.3-.3-.3s-.3.126-.3.3v1.212zM56.638 14.4c-.33 0-.6.27-.6.6v3.468c0 .336.258.6.6.6h1.764a.59.59 0 0 0 .6-.6V15c0-.33-.27-.6-.6-.6zm0 4.068V15h1.764v3.468zM35.038 21.6c-.33 0-.6.27-.6.6v3.468c0 .336.258.6.6.6h1.764a.59.59 0 0 0 .6-.6V22.2c0-.33-.27-.6-.6-.6zm0 4.068V22.2h1.764v3.468zM40.54 25.668V21.6h-1.482c-.156 0-.3.084-.3.3s.144.3.3.3h.882v3.468h-.882c-.156 0-.3.084-.3.3s.144.3.3.3h2.364c.156 0 .3-.084.3-.3v-1.512c0-.174-.078-.3-.3-.3s-.3.126-.3.3v1.212zM43.678 21.6c-.33 0-.6.27-.6.6v3.468c0 .336.258.6.6.6h1.764a.59.59 0 0 0 .6-.6V22.2c0-.33-.27-.6-.6-.6zm0 4.068V22.2h1.764v3.468zM47.998 21.6c-.33 0-.6.27-.6.6v3.468c0 .336.258.6.6.6h1.764a.59.59 0 0 0 .6-.6V22.2c0-.33-.27-.6-.6-.6zm0 4.068V22.2h1.764v3.468zM52.318 21.6c-.33 0-.6.27-.6.6v3.468c0 .336.258.6.6.6h1.764a.59.59 0 0 0 .6-.6V22.2c0-.33-.27-.6-.6-.6zm0 4.068V22.2h1.764v3.468zM56.638 21.6c-.33 0-.6.27-.6.6v3.468c0 .336.258.6.6.6h1.764a.59.59 0 0 0 .6-.6V22.2c0-.33-.27-.6-.6-.6zm0 4.068V22.2h1.764v3.468zM36.22 32.868V28.8h-1.482c-.156 0-.3.084-.3.3s.144.3.3.3h.882v3.468h-.882c-.156 0-.3.084-.3.3s.144.3.3.3h2.364c.156 0 .3-.084.3-.3v-1.512c0-.174-.078-.3-.3-.3s-.3.126-.3.3v1.212zM39.358 28.8c-.33 0-.6.27-.6.6v3.468c0 .336.258.6.6.6h1.764a.59.59 0 0 0 .6-.6V29.4c0-.33-.27-.6-.6-.6zm0 4.068V29.4h1.764v3.468zM44.86 32.868V28.8h-1.482c-.156 0-.3.084-.3.3s.144.3.3.3h.882v3.468h-.882c-.156 0-.3.084-.3.3s.144.3.3.3h2.364c.156 0 .3-.084.3-.3v-1.512c0-.174-.078-.3-.3-.3s-.3.126-.3.3v1.212zM47.998 28.8c-.33 0-.6.27-.6.6v3.468c0 .336.258.6.6.6h1.764a.59.59 0 0 0 .6-.6V29.4c0-.33-.27-.6-.6-.6zm0 4.068V29.4h1.764v3.468zM52.318 28.8c-.33 0-.6.27-.6.6v3.468c0 .336.258.6.6.6h1.764a.59.59 0 0 0 .6-.6V29.4c0-.33-.27-.6-.6-.6zm0 4.068V29.4h1.764v3.468zM57.82 32.868V28.8h-1.482c-.156 0-.3.084-.3.3s.144.3.3.3h.882v3.468h-.882c-.156 0-.3.084-.3.3s.144.3.3.3h2.364c.156 0 .3-.084.3-.3v-1.512c0-.174-.078-.3-.3-.3s-.3.126-.3.3v1.212zM60.958 28.8c-.33 0-.6.27-.6.6v3.468c0 .336.258.6.6.6h1.764a.59.59 0 0 0 .6-.6V29.4c0-.33-.27-.6-.6-.6zm0 4.068V29.4h1.764v3.468zM35.038 36c-.33 0-.6.27-.6.6v3.468c0 .336.258.6.6.6h1.764a.59.59 0 0 0 .6-.6V36.6c0-.33-.27-.6-.6-.6zm0 4.068V36.6h1.764v3.468zM40.54 40.068V36h-1.482c-.156 0-.3.084-.3.3s.144.3.3.3h.882v3.468h-.882c-.156 0-.3.084-.3.3s.144.3.3.3h2.364c.156 0 .3-.084.3-.3v-1.512c0-.174-.078-.3-.3-.3s-.3.126-.3.3v1.212zM43.678 36c-.33 0-.6.27-.6.6v3.468c0 .336.258.6.6.6h1.764a.59.59 0 0 0 .6-.6V36.6c0-.33-.27-.6-.6-.6zm0 4.068V36.6h1.764v3.468zM49.18 40.068V36h-1.482c-.156 0-.3.084-.3.3s.144.3.3.3h.882v3.468h-.882c-.156 0-.3.084-.3.3s.144.3.3.3h2.364c.156 0 .3-.084.3-.3v-1.512c0-.174-.078-.3-.3-.3s-.3.126-.3.3v1.212zM52.318 36c-.33 0-.6.27-.6.6v3.468c0 .336.258.6.6.6h1.764a.59.59 0 0 0 .6-.6V36.6c0-.33-.27-.6-.6-.6zm0 4.068V36.6h1.764v3.468zM57.82 40.068V36h-1.482c-.156 0-.3.084-.3.3s.144.3.3.3h.882v3.468h-.882c-.156 0-.3.084-.3.3s.144.3.3.3h2.364c.156 0 .3-.084.3-.3v-1.512c0-.174-.078-.3-.3-.3s-.3.126-.3.3v1.212zM60.958 36c-.33 0-.6.27-.6.6v3.468c0 .336.258.6.6.6h1.764a.59.59 0 0 0 .6-.6V36.6c0-.33-.27-.6-.6-.6zm0 4.068V36.6h1.764v3.468zM36.22 47.268V43.2h-1.482c-.156 0-.3.084-.3.3s.144.3.3.3h.882v3.468h-.882c-.156 0-.3.084-.3.3s.144.3.3.3h2.364c.156 0 .3-.084.3-.3v-1.512c0-.174-.078-.3-.3-.3s-.3.126-.3.3v1.212zM40.54 47.268V43.2h-1.482c-.156 0-.3.084-.3.3s.144.3.3.3h.882v3.468h-.882c-.156 0-.3.084-.3.3s.144.3.3.3h2.364c.156 0 .3-.084.3-.3v-1.512c0-.174-.078-.3-.3-.3s-.3.126-.3.3v1.212zM43.678 43.2c-.33 0-.6.27-.6.6v3.468c0 .336.258.6.6.6h1.764a.59.59 0 0 0 .6-.6V43.8c0-.33-.27-.6-.6-.6zm0 4.068V43.8h1.764v3.468zM49.18 47.268V43.2h-1.482c-.156 0-.3.084-.3.3s.144.3.3.3h.882v3.468h-.882c-.156 0-.3.084-.3.3s.144.3.3.3h2.364c.156 0 .3-.084.3-.3v-1.512c0-.174-.078-.3-.3-.3s-.3.126-.3.3v1.212zM53.5 47.268V43.2h-1.482c-.156 0-.3.084-.3.3s.144.3.3.3h.882v3.468h-.882c-.156 0-.3.084-.3.3s.144.3.3.3h2.364c.156 0 .3-.084.3-.3v-1.512c0-.174-.078-.3-.3-.3s-.3.126-.3.3v1.212zM56.638 43.2c-.33 0-.6.27-.6.6v3.468c0 .336.258.6.6.6h1.764a.59.59 0 0 0 .6-.6V43.8c0-.33-.27-.6-.6-.6zm0 4.068V43.8h1.764v3.468zM60.958 43.2c-.33 0-.6.27-.6.6v3.468c0 .336.258.6.6.6h1.764a.59.59 0 0 0 .6-.6V43.8c0-.33-.27-.6-.6-.6zm0 4.068V43.8h1.764v3.468zM35.038 50.4c-.33 0-.6.27-.6.6v3.468c0 .336.258.6.6.6h1.764a.59.59 0 0 0 .6-.6V51c0-.33-.27-.6-.6-.6zm0 4.068V51h1.764v3.468zM40.54 54.468V50.4h-1.482c-.156 0-.3.084-.3.3s.144.3.3.3h.882v3.468h-.882c-.156 0-.3.084-.3.3s.144.3.3.3h2.364c.156 0 .3-.084.3-.3v-1.512c0-.174-.078-.3-.3-.3s-.3.126-.3.3v1.212zM43.678 50.4c-.33 0-.6.27-.6.6v3.468c0 .336.258.6.6.6h1.764a.59.59 0 0 0 .6-.6V51c0-.33-.27-.6-.6-.6zm0 4.068V51h1.764v3.468zM49.18 54.468V50.4h-1.482c-.156 0-.3.084-.3.3s.144.3.3.3h.882v3.468h-.882c-.156 0-.3.084-.3.3s.144.3.3.3h2.364c.156 0 .3-.084.3-.3v-1.512c0-.174-.078-.3-.3-.3s-.3.126-.3.3v1.212zM53.5 54.468V50.4h-1.482c-.156 0-.3.084-.3.3s.144.3.3.3h.882v3.468h-.882c-.156 0-.3.084-.3.3s.144.3.3.3h2.364c.156 0 .3-.084.3-.3v-1.512c0-.174-.078-.3-.3-.3s-.3.126-.3.3v1.212zM57.82 54.468V50.4h-1.482c-.156 0-.3.084-.3.3s.144.3.3.3h.882v3.468h-.882c-.156 0-.3.084-.3.3s.144.3.3.3h2.364c.156 0 .3-.084.3-.3v-1.512c0-.174-.078-.3-.3-.3s-.3.126-.3.3v1.212zM36.22 61.668V57.6h-1.482c-.156 0-.3.084-.3.3s.144.3.3.3h.882v3.468h-.882c-.156 0-.3.084-.3.3s.144.3.3.3h2.364c.156 0 .3-.084.3-.3v-1.512c0-.174-.078-.3-.3-.3s-.3.126-.3.3v1.212zM40.54 61.668V57.6h-1.482c-.156 0-.3.084-.3.3s.144.3.3.3h.882v3.468h-.882c-.156 0-.3.084-.3.3s.144.3.3.3h2.364c.156 0 .3-.084.3-.3v-1.512c0-.174-.078-.3-.3-.3s-.3.126-.3.3v1.212zM43.678 57.6c-.33 0-.6.27-.6.6v3.468c0 .336.258.6.6.6h1.764a.59.59 0 0 0 .6-.6V58.2c0-.33-.27-.6-.6-.6zm0 4.068V58.2h1.764v3.468zM47.998 57.6c-.33 0-.6.27-.6.6v3.468c0 .336.258.6.6.6h1.764a.59.59 0 0 0 .6-.6V58.2c0-.33-.27-.6-.6-.6zm0 4.068V58.2h1.764v3.468z" style="fill-rule:nonzero;stroke:#000;stroke-width:.11px"/></g><path d="M41 0a7.003 7.003 0 0 1 6.962 6.237C51.425 7.112 54 10.262 54 14c0 .75-.1 1.487-.3 2.175 3.6.787 6.3 3.987 6.3 7.825 0 1.875-.638 3.6-1.725 4.962A9.99 9.99 0 0 1 64 38a9.99 9.99 0 0 1-6.45 9.35c.288.825.45 1.725.45 2.65 0 4.412-3.588 8-8 8-.7 0-1.388-.088-2.038-.263C47.587 61.262 44.612 64 41 64c-3.862 0-7-3.138-7-7V7c0-3.863 3.138-7 7-7m0 1.111A5.893 5.893 0 0 0 35.111 7v50A5.893 5.893 0 0 0 41 62.889a5.894 5.894 0 0 0 5.858-5.269 1.11 1.11 0 0 1 1.393-.955 6.895 6.895 0 0 0 8.25-8.949 1.11 1.11 0 0 1 .657-1.406A8.87 8.87 0 0 0 62.889 38a8.88 8.88 0 0 0-5.089-8.033 1.11 1.11 0 0 1-.393-1.698A6.8 6.8 0 0 0 58.889 24c0-3.305-2.326-6.061-5.426-6.74a1.11 1.11 0 0 1-.83-1.395 6.906 6.906 0 0 0-4.943-8.55 1.11 1.11 0 0 1-.832-.959A5.89 5.89 0 0 0 41 1.111"/></svg>