<svg viewBox="0 0 64 64" xmlns="http://www.w3.org/2000/svg"><path d="m25.48 23.51c-.05 0-.11.01-.15.05.05-.04.1-.05.15-.05"/><path d="m31.92 63.91c-10.36 0-20.73 0-31.09.01-.63.01-.83-.13-.83-.85.02-20.72.02-41.43 0-62.15 0-.73.22-.92.84-.85.65.08 1.52-.3 1.9.15.32.39.12 1.3.12 1.98 0 19.25 0 38.5-.02 57.74 0 .77.17.95.89.95 19.76-.02 39.51-.02 59.27-.02.92 0 .93 0 .92.99-.01.65.26 1.49-.12 1.9-.38.42-1.17.13-1.78.13h-30.1z"/><path d="m55.81 38.97c0 4.51 0 9.02.01 13.52 0 .58-.11.77-.69.77q-5.085-.045-10.17 0c-.55 0-.65-.17-.65-.72q.03-13.56 0-27.12c0-.55.11-.73.66-.73 3.41.03 6.83.03 10.25 0 .51 0 .62.16.62.68-.02 4.53-.01 9.07-.01 13.6zm-28.7 3.11c0-3.49.01-6.99-.01-10.48 0-.61.13-.83.74-.83 3.37.03 6.73.03 10.1 0 .57 0 .71.18.7.77-.02 6.99-.02 13.98 0 20.96 0 .58-.12.77-.69.76-3.37-.03-6.73-.03-10.1 0-.57 0-.76-.13-.76-.78.03-3.47.01-6.94.01-10.41zm12.29-40.23h10.58c.28 0 .57-.06.57.43-.01 3.76 0 7.53 0 11.46-1.25-1.34-2.4-2.56-3.55-3.79-1.12-1.2-1.11-1.19-2.23 0-3.28 3.47-6.65 6.83-10.58 9.48-4.26 2.88-8.89 4.72-13.84 5.71-3.34.66-6.7.94-10.09.95-.54 0-.73-.13-.72-.74.03-1.85 0-1.85 1.75-1.85 4.64 0 9.19-.7 13.6-2.22 5.16-1.78 9.65-4.8 13.7-8.61 1.8-1.69 3.48-3.5 5.19-5.29.33-.35.34-.53 0-.88-1.43-1.48-2.82-2.99-4.38-4.64zm-17.9 44.33c0 2.13-.01 4.25 0 6.38 0 .5-.08.71-.61.7-3.44-.03-6.88-.02-10.31 0-.45 0-.6-.11-.6-.62.02-4.35.02-8.71 0-13.06 0-.51.14-.62.6-.62 3.44.02 6.88.02 10.31 0 .53 0 .61.2.61.7-.02 2.18 0 4.35 0 6.53z"/></svg>