<svg viewBox="0 0 64 64" xmlns="http://www.w3.org/2000/svg"><path d="m57.241 36.711v-5.314c0-2.461-2.686-4.451-6.005-4.451h-45.231c-3.316 0-6.005 1.99-6.005 4.451v28.152c0 2.46 2.689 4.451 6.005 4.451h45.231c3.319 0 6.005-1.991 6.005-4.451v-11.322h6.759v-11.516zm-43.986-11.896c6.527 0 11.816-5.557 11.816-12.408 0-6.853-5.289-12.407-11.816-12.407-6.524 0-11.81 5.554-11.81 12.408 0 6.85 5.286 12.407 11.81 12.407m30.383.161c6.53 0 11.819-5.557 11.819-12.408 0-6.854-5.289-12.408-11.819-12.408-6.524 0-11.806 5.554-11.806 12.408 0 6.85 5.283 12.408 11.806 12.408"/></svg>