<svg viewBox="0 0 64 64" xmlns="http://www.w3.org/2000/svg"><path d="m64 33.95c-.1.76-.21 1.52-.3 2.28-.54 4.21-1.9 8.13-4.02 11.8-2.45 4.24-5.71 7.75-9.76 10.48-4.73 3.2-9.97 5.02-15.69 5.41-4.14.28-8.18-.2-12.13-1.47a31.4 31.4 0 01-10.32-5.63 32.2 32.2 0 01-7.57-8.93 31.4 31.4 0 01-3.22-7.9 32.3 32.3 0 01-.75-11.91c.48-3.94 1.66-7.67 3.54-11.16 2.04-3.79 4.73-7.04 8.07-9.76 2.43-1.97 5.09-3.56 7.98-4.75 3.1-1.28 6.34-2.03 9.68-2.31.18-.02.36-.07.55-.1h3.9c.15.03.29.08.44.1 1.2.16 2.41.26 3.6.49 3.52.66 6.82 1.9 9.93 3.69 2.38 1.37 4.55 3.02 6.5 4.94 2.1 2.07 3.89 4.39 5.35 6.95 2.07 3.64 3.4 7.51 3.92 11.67.09.74.2 1.48.3 2.23v3.9zm-62.55-1.97c0 16.85 13.68 30.55 30.52 30.58 16.81.02 30.54-13.69 30.57-30.55.03-16.78-13.75-30.56-30.56-30.56-16.8 0-30.53 13.73-30.53 30.53"/><path d="m25.16 48.83c-3.34-9.94-6.64-19.77-9.98-29.7.38-.03.69-.04 1-.07.65-.05 1.3-.09 1.94-.17.82-.1 1.26-.57 1.21-1.24s-.57-1.08-1.38-1.04c-2.27.1-4.54.22-6.81.32-.65.03-1.3 0-2.1 0 4.4-6.4 10.25-10.46 17.76-11.87 8.88-1.66 16.73.7 23.7 6.63-.56.07-.96.08-1.35.18-2.16.52-3.7 2.68-3.58 5 .07 1.24.49 2.37 1.08 3.44.8 1.43 1.65 2.83 2.4 4.29 1.46 2.82 1.84 5.82 1.13 8.91-.44 1.87-1.05 3.71-1.6 5.55-.67 2.24-1.35 4.48-2.03 6.72-.27.88-.53 1.75-.8 2.63h-.14c-3.27-9.73-6.54-19.46-9.84-29.26.73-.05 1.4-.09 2.08-.16.42-.04.85-.08 1.26-.19.58-.16.87-.64.79-1.2-.08-.58-.46-.98-1.06-.97-.75 0-1.5.07-2.25.13-3.84.28-7.68.25-11.52-.1-.34-.03-.68-.05-1.02-.03-.59.04-1.01.47-1.06 1.05s.25 1.04.86 1.14c.84.14 1.69.2 2.54.27.32.02.51.1.63.44.87 2.43 1.76 4.84 2.65 7.26.45 1.22.9 2.43 1.33 3.66.08.23.1.54.02.77-1.8 5.45-3.61 10.89-5.42 16.33-.13.39-.27.77-.45 1.28z"/><path d="m32.48 34.43c2.89 7.92 5.73 15.69 8.58 23.49-5.56 1.88-11.12 2.02-16.81.43 2.74-7.97 5.46-15.88 8.23-23.92m-12.66 22.19c-6.09-3.11-10.58-7.78-13.18-14.13-2.93-7.15-2.77-14.33.17-21.45.05 0 .11-.02.16-.03 4.32 11.84 8.64 23.68 12.97 35.52-.04.03-.08.05-.12.08zm36.28-37.63c6.84 12.37 2.92 28.96-10.25 36.69.11-.34.18-.6.27-.86 1.66-4.82 3.32-9.65 5-14.47 1.19-3.42 2.39-6.83 3.59-10.24 1.11-3.12 1.68-6.33 1.52-9.65-.02-.44-.08-.88-.13-1.47"/></svg>