<svg viewBox="0 0 64 64" xmlns="http://www.w3.org/2000/svg"><path d="m60.7 19.96-.24.08c-.06.02-.12.04-.18.07l-.05.02.1.49c.06.37.05.69-.04.97-.11.35-.35.61-.71.79-.07-.45-.01-.84.17-1.15.09-.14.2-.27.34-.38l.03-.02-.1-.6-.07.04c-.25.16-.47.38-.62.63-.31.52-.37 1.17-.18 1.93l.07.28.24-.08c.56-.18.96-.51 1.19-.98.04-.08.08-.17.11-.27.18-.56.1-1.15 0-1.54l-.07-.28zm-.27-.24.24-.08-.07-.28-.06-.21-.02-.05-.43.12c-.32.07-.61.06-.85-.04q-.465-.195-.69-.81c.4-.08.74-.01 1.01.2.12.1.24.23.33.39l.02.04.52-.12-.04-.08a1.95 1.95 0 00-.55-.7c-.46-.36-1.03-.43-1.69-.21l-.24.08.07.28c.19.76.56 1.26 1.09 1.48.49.2 1.01.11 1.36 0m1.75-3.18c-.67.22-1.1.64-1.3 1.24-.18.56-.1 1.15 0 1.54l.07.28.24-.08c.06-.02.12-.04.18-.07l.05-.02-.1-.49c-.06-.37-.05-.69.04-.97.11-.35.35-.61.71-.79.07.45.01.84-.17 1.15-.09.14-.2.27-.34.38l-.03.02.1.6.07-.04c.25-.16.47-.38.62-.63.03-.05.06-.1.08-.15.24-.49.27-1.09.1-1.77l-.07-.28-.24.08zm-.95 3.3-.24.08.07.28.06.21.02.05.43-.12c.32-.07.61-.06.85.04q.465.195.69.81c-.4.08-.74.01-1.01-.2q-.195-.15-.33-.39l-.02-.04-.52.12.04.08c.14.29.33.53.55.7.46.36 1.03.43 1.69.21l.24-.08-.07-.28c-.19-.76-.56-1.26-1.09-1.48-.49-.2-1.01-.11-1.36 0m-13 12.43h-4.76c.13-1.59.95-2.83 2.27-2.83 1.64 0 2.38 1.41 2.48 2.83m3.54 1.8c0-4.51-2.14-8.24-5.84-8.24s-6.19 3.4-6.19 8.24 2.54 8.21 6.53 8.21c1.85 0 3.86-.93 4.97-2.56l-2.59-2.46c-.53.69-1.37 1.11-2.38 1.11-1.32 0-2.72-.81-2.86-2.98h8.3c.03-.3.05-.72.05-1.32m12.25-6.79c-.48-.57-1.37-1.11-2.56-1.11-1.3 0-2.22.63-2.86 1.38v-1.05h-3.65v15.78h3.65v-8.54c0-2.74.93-3.43 2.35-3.43.82 0 1.53.42 2.12 1.02l.95-4.06zm-31.07 9.77c-.53.78-1.11 1.32-2.25 1.32-1.43 0-2.38-1.35-2.38-4.6 0-2.65.77-4.03 2.17-4.03 1.06 0 1.9.48 2.46 1.35v5.95zm3.65 4.9v-21.91l-3.65 2.07v4.96a4.11 4.11 0 00-2.93-1.23c-3.44 0-5.39 3.31-5.39 8.03 0 5.89 2.43 8.42 5.39 8.42 1.32 0 2.25-.63 2.93-1.32v.99h3.65zm-17.98-9.68h-4.76c.13-1.59.95-2.83 2.27-2.83 1.64 0 2.38 1.41 2.49 2.83m3.54 1.8c0-4.51-2.14-8.24-5.84-8.24s-6.19 3.4-6.19 8.24 2.54 8.21 6.53 8.21c1.85 0 3.86-.93 4.97-2.56l-2.59-2.46c-.53.69-1.37 1.11-2.38 1.11-1.32 0-2.72-.81-2.86-2.98h8.3c.03-.3.05-.72.05-1.32m34.27-11.37c-.19 0-.29-.09-.29-.25 0-.18.11-.26.35-.26h.28s.02 0 .02.02v.18c0 .2-.13.31-.36.31m.56.2s.03-.01.03-.03v-1.06c0-.39-.15-.54-.55-.54-.21 0-.37.06-.48.16-.01.01-.01.03 0 .05l.08.15s.03.02.04 0c.08-.07.18-.11.34-.11.26 0 .34.09.34.31v.12s0 .02-.02.02h-.32c-.34 0-.55.16-.55.49s.21.48.47.48c.21 0 .35-.09.42-.21v.14s.01.03.03.03zm-2.46-.8c0 .18.02.31.04.41.08.28.28.43.55.43.21 0 .38-.1.48-.27v-.05l-.13-.12s-.03-.01-.04 0c-.08.12-.16.17-.3.17-.15 0-.27-.08-.31-.25-.02-.08-.03-.18-.03-.33s0-.24.03-.32c.05-.17.16-.25.31-.25.14 0 .22.06.3.17.01.02.03.02.04 0l.13-.12s.02-.03 0-.05a.54.54 0 00-.48-.27c-.27 0-.48.15-.55.43-.03.1-.04.23-.04.4m-.43.8s.03-.01.03-.03v-1.53s-.01-.03-.03-.03h-.19s-.03.01-.03.03v1.53s.01.03.03.03zm0-1.96s.03-.01.03-.03v-.24s-.01-.03-.03-.03h-.2s-.03.01-.03.03v.24s.01.03.03.03zm-.6 1.98s.03-.01.03-.03v-.19s-.01-.03-.03-.03h-.06c-.1 0-.14-.04-.14-.18v-1.82s-.01-.03-.03-.03h-.19s-.03.01-.03.03v1.83c0 .29.1.42.34.42h.1zm-1.43-.24c-.16 0-.26-.08-.31-.24-.02-.08-.03-.17-.03-.33s0-.25.03-.33c.05-.16.16-.24.31-.24s.26.08.31.24c.02.09.03.19.03.33s0 .25-.03.33c-.05.16-.15.24-.31.24m-.37.22s.03-.01.03-.03v-.15c.07.13.19.22.4.22.24 0 .41-.13.48-.38.04-.13.05-.25.05-.45s-.01-.32-.05-.45c-.07-.25-.24-.38-.48-.38-.21 0-.33.09-.4.22v-.82s-.01-.03-.03-.03h-.19s-.03.01-.03.03v2.2s.01.03.03.03h.19zm-.73 0s.03-.01.03-.03v-1.53s-.01-.03-.03-.03h-.19s-.03.01-.03.03v.95c0 .24-.13.39-.32.39-.21 0-.31-.15-.31-.41v-.93s-.01-.03-.03-.03h-.19s-.03.01-.03.03v1c0 .36.18.6.49.6.18 0 .31-.09.38-.22v.15s.01.03.03.03h.19zm-.49-1.86s.04 0 .06-.03l.27-.41s0-.03-.01-.03h-.19s-.04 0-.05.03l-.22.41s0 .03.02.03h.14zm-1.57 1.64c-.16 0-.26-.08-.31-.24-.02-.08-.03-.17-.03-.33s0-.25.03-.33c.05-.16.16-.24.31-.24s.26.08.31.24c.02.09.03.19.03.33s0 .25-.03.33c-.05.16-.15.24-.31.24m-.37.82s.03-.01.03-.03v-.75c.07.13.19.22.4.22.24 0 .41-.13.48-.38.04-.13.05-.25.05-.45s-.01-.32-.05-.45c-.07-.25-.24-.38-.48-.38-.21 0-.33.09-.4.22v-.15s-.01-.03-.03-.03h-.19s-.03.01-.03.03v2.13s.01.03.03.03h.19zm-1.99-.82c-.16 0-.26-.09-.31-.24q-.03-.12-.03-.33c0-.21 0-.25.03-.33.05-.16.15-.24.31-.24s.26.08.31.24c.02.08.03.17.03.33s0 .26-.03.33c-.05.16-.16.24-.31.24m.56.22s.03-.01.03-.03v-2.2s-.01-.03-.03-.03h-.19s-.03.01-.03.03v.82c-.07-.13-.19-.22-.4-.22-.24 0-.41.13-.48.38-.04.13-.05.25-.05.45s.01.33.05.45c.07.25.24.38.48.38.21 0 .33-.1.4-.22v.15s.01.03.03.03h.19zm-2.13-.2c-.19 0-.29-.09-.29-.25 0-.18.11-.26.35-.26h.28s.02 0 .02.02v.18c0 .2-.13.31-.36.31m.56.2s.03-.01.03-.03v-1.06c0-.39-.15-.54-.55-.54-.21 0-.37.06-.48.16-.01.01-.01.03 0 .05l.08.15s.03.02.04 0c.08-.07.18-.11.34-.11.26 0 .34.09.34.31v.12s0 .02-.02.02h-.32c-.34 0-.55.16-.55.49s.21.48.47.48c.21 0 .35-.09.42-.21v.14s.01.03.03.03zm-2.1-.22c-.16 0-.26-.09-.31-.24q-.03-.12-.03-.33c0-.21 0-.25.03-.33.05-.16.15-.24.31-.24s.26.08.31.24c.02.08.03.17.03.33s0 .26-.03.33c-.05.16-.16.24-.31.24m.56.22s.03-.01.03-.03v-2.2s-.01-.03-.03-.03h-.19s-.03.01-.03.03v.82c-.07-.13-.19-.22-.4-.22-.24 0-.41.13-.48.38-.04.13-.05.25-.05.45s.01.33.05.45c.07.25.24.38.48.38.21 0 .33-.1.4-.22v.15s.01.03.03.03h.19zm-1.58 0s.03-.01.03-.03v-1.53s-.01-.03-.03-.03h-.19s-.03.01-.03.03v1.53s.01.03.03.03zm0-1.96s.03-.01.03-.03v-.24s-.01-.03-.03-.03h-.2s-.03.01-.03.03v.24s.01.03.03.03zm-.6 1.98s.03-.01.03-.03v-.19s-.01-.03-.03-.03h-.06c-.1 0-.14-.04-.14-.18v-1.82s-.01-.03-.03-.03h-.19s-.03.01-.03.03v1.83c0 .29.1.42.34.42h.1zm-.95-.02s.03-.01.03-.03v-1.53s-.01-.03-.03-.03h-.19s-.03.01-.03.03v1.53s.01.03.03.03zm0-1.96s.03-.01.03-.03v-.24s-.01-.03-.03-.03h-.2s-.03.01-.03.03v.24s.01.03.03.03zm-.63 1.98s.03-.01.03-.03v-.19s-.01-.03-.03-.03h-.06c-.13 0-.18-.04-.18-.2v-.9s0-.02.02-.02h.22s.03-.01.03-.03v-.16s-.01-.03-.03-.03h-.22s-.02 0-.02-.02v-.45s-.01-.03-.03-.03h-.19s-.03.01-.03.03v.45s0 .02-.02.02h-.12s-.03.01-.03.03v.16s.01.03.03.03h.12s.02 0 .02.02v.91c0 .31.11.45.38.45h.11zm-1.03-.02s.03-.01.03-.03v-1.53s-.01-.03-.03-.03h-.19s-.03.01-.03.03v.95c0 .24-.13.39-.32.39-.21 0-.31-.15-.31-.41v-.93s-.01-.03-.03-.03h-.19s-.03.01-.03.03v1c0 .36.18.6.49.6.18 0 .31-.09.38-.22v.15s.01.03.03.03h.19zm16.96-4.92s-.02 0-.02-.02c0-.07 0-.13.02-.18.05-.16.16-.25.32-.25s.28.09.32.25c.01.05.02.11.02.18 0 .01 0 .02-.02.02h-.65zm.34.97c.25 0 .44-.11.55-.27.01-.02.01-.03 0-.05l-.12-.12h-.04c-.08.1-.19.18-.36.18s-.3-.09-.36-.28a1 1 0 01-.02-.19c0-.01 0-.02.02-.02h.89s.03-.01.03-.03c0-.24-.01-.35-.04-.46-.08-.27-.28-.43-.55-.43s-.47.15-.55.43c-.03.1-.04.22-.04.4s.02.3.05.4c.08.28.28.43.56.43m-1.6-.26c-.16 0-.26-.09-.31-.24q-.03-.12-.03-.33c0-.21 0-.25.03-.33.05-.16.15-.24.31-.24s.26.08.31.24c.02.08.03.17.03.33s0 .26-.03.33c-.05.16-.16.24-.31.24m.56.22s.03-.01.03-.03v-2.2s-.01-.03-.03-.03h-.19s-.03.01-.03.03v.82c-.07-.13-.19-.22-.4-.22-.24 0-.41.13-.48.38-.04.13-.05.25-.05.45s.01.33.05.45c.07.25.24.38.48.38.21 0 .33-.1.4-.22v.15s.01.03.03.03h.19zm-2.84-.22c-.16 0-.26-.09-.31-.24q-.03-.12-.03-.33c0-.21 0-.25.03-.33.05-.16.15-.24.31-.24s.26.08.31.24c.02.08.03.17.03.33s0 .26-.03.33c-.05.16-.16.24-.31.24m.56.22s.03-.01.03-.03v-2.2s-.01-.03-.03-.03h-.19s-.03.01-.03.03v.82c-.07-.13-.19-.22-.4-.22-.24 0-.41.13-.48.38-.04.13-.05.25-.05.45s.01.33.05.45c.07.25.24.38.48.38.21 0 .33-.1.4-.22v.15s.01.03.03.03h.19zm-2.13-.2c-.19 0-.29-.09-.29-.25 0-.18.11-.26.35-.26h.28s.02 0 .02.02v.18c0 .2-.13.31-.36.31m.56.2s.03-.01.03-.03v-1.06c0-.39-.15-.54-.55-.54-.21 0-.37.06-.48.16-.01.01-.01.03 0 .05l.08.15s.03.02.04 0c.08-.07.18-.11.34-.11.26 0 .34.09.34.31v.12s0 .02-.02.02h-.32c-.34 0-.55.16-.55.49s.21.48.47.48c.21 0 .35-.09.42-.21v.14s.01.03.03.03zm-2.1-.22c-.16 0-.26-.09-.31-.24q-.03-.12-.03-.33c0-.21 0-.25.03-.33.05-.16.15-.24.31-.24s.26.08.31.24c.02.08.03.17.03.33s0 .26-.03.33c-.05.16-.16.24-.31.24m.56.22s.03-.01.03-.03v-2.2s-.01-.03-.03-.03h-.19s-.03.01-.03.03v.82c-.07-.13-.19-.22-.4-.22-.24 0-.41.13-.48.38-.04.13-.05.25-.05.45s.01.33.05.45c.07.25.24.38.48.38.21 0 .33-.1.4-.22v.15s.01.03.03.03h.19zm-1.58 0s.03-.01.03-.03v-1.53s-.01-.03-.03-.03h-.19s-.03.01-.03.03v1.53s.01.03.03.03zm0-1.96s.03-.01.03-.03v-.24s-.01-.03-.03-.03h-.2s-.03.01-.03.03v.24s.01.03.03.03zm-.63 1.98s.03-.01.03-.03v-.19s-.01-.03-.03-.03h-.06c-.13 0-.18-.04-.18-.2v-.9s0-.02.02-.02h.22s.03-.01.03-.03v-.16s-.01-.03-.03-.03h-.22s-.02 0-.02-.02v-.45s-.01-.03-.03-.03h-.19s-.03.01-.03.03v.45s0 .02-.02.02h-.12s-.03.01-.03.03v.16s.01.03.03.03h.12s.02 0 .02.02v.91c0 .31.11.45.38.45h.11zm-1.01-.02s.03-.01.03-.03v-1c0-.36-.18-.6-.49-.6-.19 0-.33.09-.39.22v-.15s-.01-.03-.03-.03h-.19s-.03.01-.03.03v1.53s.01.03.03.03h.19s.03-.01.03-.03v-.95c0-.24.13-.39.32-.39.21 0 .31.15.31.41v.93s.01.03.03.03zm-2.42-.94s-.02 0-.02-.02c0-.07 0-.13.02-.18.05-.16.16-.25.32-.25s.28.09.32.25c.01.05.02.11.02.18 0 .01 0 .02-.02.02h-.65zm.34.97c.25 0 .44-.11.55-.27.01-.02.01-.03 0-.05l-.12-.12h-.04c-.08.1-.19.18-.36.18s-.3-.09-.36-.28a1 1 0 01-.02-.19c0-.01 0-.02.02-.02h.89s.03-.01.03-.03c0-.24-.01-.35-.04-.46-.08-.27-.28-.43-.55-.43s-.47.15-.55.43c-.03.1-.04.22-.04.4s.02.3.05.4c.08.28.28.43.56.43m13.17 28.63c.4 0 .61-.24.61-.57 0-.31-.16-.48-.49-.53h-.08c-.26-.05-.35-.16-.35-.32 0-.18.11-.31.32-.31.14 0 .27.05.4.14h.03l.08-.15v-.04a.83.83 0 00-.51-.18c-.33 0-.54.22-.54.55 0 .3.17.47.49.52h.08c.27.05.35.16.35.32 0 .19-.14.32-.37.32-.19 0-.36-.1-.47-.19q-.015-.015-.03 0l-.11.15v.04c.12.13.35.24.58.24m-1.72-.7.26-.86.26.86h-.53zm-.42.64s0 .03.02.03h.17s.02 0 .03-.03l.13-.41h.67l.13.41s.01.03.03.03h.17s.02-.01.02-.03l-.57-1.84s-.01-.03-.03-.03h-.16s-.02.01-.03.03zm-.74-1h-.39s-.01 0-.01-.02v-.6s0-.02.01-.02h.39c.19 0 .31.12.31.31s-.12.31-.31.31m.54 1.03s.02-.02.01-.03l-.36-.8c.2-.07.33-.26.33-.51 0-.33-.21-.55-.52-.55h-.6s-.02.01-.02.03v1.84s0 .03.02.03h.17s.02-.01.02-.03v-.76s0-.02.01-.02h.37l.33.77s.01.03.03.03h.2zm-2.37-.67.26-.86.26.86h-.53zm-.42.64s0 .03.02.03h.17s.02 0 .03-.03l.13-.41h.67l.13.41s.01.03.03.03h.17s.02-.01.02-.03l-.57-1.84s-.01-.03-.03-.03h-.16s-.02.01-.03.03zm-.74-1h-.39s-.01 0-.01-.02v-.6s0-.02.01-.02h.39c.19 0 .31.12.31.31s-.12.31-.31.31m.54 1.03s.02-.02.01-.03l-.35-.8c.2-.07.33-.26.33-.51 0-.33-.21-.55-.52-.55h-.6s-.02.01-.02.03v1.84s0 .03.02.03h.17s.02-.01.02-.03v-.76s0-.02.01-.02h.37l.33.77s.01.03.03.03zm-2.91.03c.4 0 .61-.24.61-.57 0-.31-.16-.48-.49-.53h-.08c-.26-.05-.35-.16-.35-.32 0-.18.11-.31.32-.31.14 0 .27.05.4.14h.03l.08-.15v-.04a.83.83 0 00-.51-.18c-.33 0-.54.22-.54.55 0 .3.17.47.49.52h.08c.27.05.35.16.35.32 0 .19-.14.32-.37.32-.19 0-.36-.1-.47-.19q-.015-.015-.03 0l-.11.15v.04c.12.13.35.24.58.24m-1.88-.06s0 .03.02.03h1s.02-.01.02-.03v-.18s0-.03-.02-.03h-.79s-.01 0-.01-.02v-.58s0-.02.01-.02h.67s.02-.01.02-.03v-.17s0-.03-.02-.03h-.67s-.01 0-.01-.02v-.56s0-.02.01-.02h.79s.02-.01.02-.03v-.17s0-.03-.02-.03h-1s-.02.01-.02.03v1.84zm-1.31-.22v-1.4s0-.02.01-.02h.31c.2 0 .33.07.38.26.02.07.03.16.03.46s-.01.39-.03.46c-.05.18-.18.26-.38.26h-.31s-.01 0-.01-.02m-.22.22s0 .03.02.03h.56c.28 0 .47-.14.54-.4.03-.1.04-.21.04-.54s-.01-.44-.04-.54c-.08-.27-.26-.4-.54-.4h-.56s-.02.01-.02.03v1.84zm-1.21-.64.26-.86.26.86h-.53zm-.42.64s0 .03.02.03h.17s.02 0 .03-.03l.13-.41h.67l.13.41s.01.03.03.03h.17s.02-.01.02-.03l-.57-1.84s-.01-.03-.03-.03h-.16s-.02.01-.03.03zm-1.12-.22v-1.4s0-.02.01-.02h.31c.2 0 .33.07.38.26.02.07.03.16.03.46s-.01.39-.03.46c-.05.18-.18.26-.38.26h-.31s-.01 0-.01-.02m-.22.22s0 .03.02.03h.56c.28 0 .47-.14.54-.4.03-.1.04-.21.04-.54s-.01-.44-.04-.54c-.08-.27-.26-.4-.54-.4h-.56s-.02.01-.02.03v1.84zm-1.38 0s0 .03.02.03h1s.02-.01.02-.03v-.18s0-.03-.02-.03h-.79s-.01 0-.01-.02v-.58s0-.02.01-.02h.67s.02-.01.02-.03v-.17s0-.03-.02-.03h-.67s-.01 0-.01-.02v-.56s0-.02.01-.02h.79s.02-.01.02-.03v-.17s0-.03-.02-.03h-1s-.02.01-.02.03v1.84zm-1.85 0s0 .03.02.03h.15s.02-.01.02-.03v-1.32l.41 1.04s.02.03.05.03h.1s.03 0 .04-.03l.41-1.04v1.32s0 .03.02.03h.15s.02-.01.02-.03v-1.84s0-.03-.02-.03h-.16s-.03 0-.04.03l-.49 1.27-.5-1.27s-.02-.03-.04-.03h-.16s-.02.01-.02.03v1.84zm-.89-1h-.39s-.01 0-.01-.02v-.6s0-.02.01-.02h.39c.19 0 .31.12.31.31s-.11.31-.31.31m.54 1.03s.02-.02.01-.03l-.36-.8c.2-.07.33-.26.33-.51 0-.33-.21-.55-.52-.55h-.6s-.02.01-.02.03v1.84s0 .03.02.03h.17s.02-.01.02-.03v-.76s0-.02.01-.02h.37l.33.77s.01.03.03.03h.2zm-2.54-.03s0 .03.02.03h1s.02-.01.02-.03v-.18s0-.03-.02-.03h-.79s-.01 0-.01-.02v-.58s0-.02.01-.02h.67s.02-.01.02-.03v-.17s0-.03-.02-.03h-.67s-.01 0-.01-.02v-.56s0-.02.01-.02h.79s.02-.01.02-.03v-.17s0-.03-.02-.03h-1s-.02.01-.02.03v1.84zm-1.36 0s0 .03.02.03h.17s.02-.01.02-.03v-.78s0-.02.01-.02h.67s.02-.01.02-.03v-.18s0-.03-.02-.03h-.67s-.01 0-.01-.02v-.58s0-.02.01-.02h.79s.02-.01.02-.03v-.17s0-.03-.02-.03h-1s-.02.01-.02.03v1.84zm-1.6 0s0 .03.02.03h.15s.02-.01.02-.03v-1.41l.76 1.41s.02.03.04.03h.16s.02-.01.02-.03v-1.84s0-.03-.02-.03h-.15s-.02.01-.02.03v1.42l-.75-1.42s-.02-.03-.04-.03h-.16s-.02.01-.02.03v1.84zm-1.38 0s0 .03.02.03h1s.02-.01.02-.03v-.18s0-.03-.02-.03h-.79s-.01 0-.01-.02v-.58s0-.02.01-.02h.67s.02-.01.02-.03v-.17s0-.03-.02-.03h-.67s-.01 0-.01-.02v-.56s0-.02.01-.02h.79s.02-.01.02-.03v-.17s0-.03-.02-.03h-1s-.02.01-.02.03v1.84zm-2.19 0s0 .03.02.03h1s.02-.01.02-.03v-.18s0-.03-.02-.03h-.79s-.01 0-.01-.02v-.58s0-.02.01-.02h.67s.02-.01.02-.03v-.17s0-.03-.02-.03h-.67s-.01 0-.01-.02v-.56s0-.02.01-.02h.79s.02-.01.02-.03v-.17s0-.03-.02-.03h-1s-.02.01-.02.03v1.84zm-1.31-.22v-1.4s0-.02.01-.02h.31c.2 0 .33.07.38.26.02.07.03.16.03.46s-.01.39-.03.46c-.05.18-.18.26-.38.26h-.31s-.01 0-.01-.02m-.22.22s0 .03.02.03h.56c.28 0 .47-.14.54-.4.03-.1.04-.21.04-.54s-.01-.44-.04-.54c-.08-.27-.26-.4-.54-.4h-.56s-.02.01-.02.03v1.84zm-2.02-.64.26-.86.26.86h-.53zm-.42.64s0 .03.02.03h.17s.02 0 .03-.03l.13-.41h.67l.13.41s.01.03.03.03h.17s.02-.01.02-.03l-.57-1.84s-.01-.03-.03-.03h-.16s-.02.01-.03.03zm-1.17 0s0 .03.02.03h1s.02-.01.02-.03v-.18s0-.03-.02-.03h-.79s-.01 0-.01-.02v-1.62s0-.03-.02-.03h-.17s-.02.01-.02.03v1.84zm-.96-.17c-.18 0-.3-.1-.35-.28-.02-.07-.04-.19-.04-.47s.02-.4.04-.46c.05-.18.17-.28.35-.28s.3.1.35.28c.02.07.04.19.04.46s-.02.4-.04.47c-.05.18-.17.28-.35.28m0 .23c.28 0 .48-.15.57-.44.03-.11.04-.22.04-.53s-.01-.43-.04-.53c-.09-.29-.29-.44-.57-.44s-.48.15-.57.44c-.03.11-.04.22-.04.53s.01.43.04.53c.09.29.29.44.57.44m-2.15-.06s0 .03.02.03h.15s.02-.01.02-.03v-1.41l.76 1.41s.02.03.04.03h.16s.02-.01.02-.03v-1.84s0-.03-.02-.03h-.15s-.02.01-.02.03v1.42l-.75-1.42s-.02-.03-.04-.03h-.16s-.02.01-.02.03v1.84zm.73-2.11c.07 0 .12-.04.17-.09.01-.02.02-.03.02-.05v-.13s0-.02-.02 0c-.05.05-.09.09-.15.09a.2.2 0 01-.13-.05c-.05-.03-.09-.06-.15-.06-.07 0-.12.04-.17.09-.01.02-.02.03-.02.05v.13s0 .02.02 0c.05-.05.09-.09.15-.09.05 0 .09.02.13.05.05.03.1.06.15.06m-1.94 1.47.26-.86.26.86h-.53zm-.42.64s0 .03.02.03h.17s.02 0 .03-.03l.13-.41h.67l.13.41s.01.03.03.03h.17s.02-.01.02-.03l-.57-1.84s-.01-.03-.03-.03h-.16s-.02.01-.03.03zm-.54-.97h-.37s-.01 0-.01-.02v-.64s0-.02.01-.02h.37c.21 0 .33.13.33.33s-.12.33-.33.33m-.41.99s.02-.01.02-.03v-.72s0-.02.01-.02h.38c.32 0 .53-.22.53-.57s-.21-.56-.53-.56h-.59s-.02.01-.02.03v1.84s0 .03.02.03h.17zm-1.14.03c.4 0 .61-.24.61-.57 0-.31-.16-.48-.49-.53h-.08c-.26-.05-.35-.16-.35-.32 0-.18.11-.31.32-.31.14 0 .27.05.4.14h.03l.08-.15v-.04a.83.83 0 00-.51-.18c-.33 0-.54.22-.54.55 0 .3.17.47.49.52h.08c.27.05.35.16.35.32 0 .19-.14.32-.37.32-.19 0-.36-.1-.47-.19q-.015-.015-.03 0l-.11.15v.04c.12.13.35.24.58.24m-1.88-.06s0 .03.02.03h1s.02-.01.02-.03v-.18s0-.03-.02-.03h-.79s-.01 0-.01-.02v-.58s0-.02.01-.02h.67s.02-.01.02-.03v-.17s0-.03-.02-.03h-.67s-.01 0-.01-.02v-.56s0-.02.01-.02h.79s.02-.01.02-.03v-.17s0-.03-.02-.03h-1s-.02.01-.02.03v1.84zm-2.41 0s0 .03.02.03h.15s.02-.01.02-.03v-1.41l.76 1.41s.02.03.04.03h.16s.02-.01.02-.03v-1.84s0-.03-.02-.03h-.15s-.02.01-.02.03v1.42l-.75-1.42s-.02-.03-.04-.03h-.16s-.02.01-.02.03v1.84zm-.96-.17c-.18 0-.3-.1-.35-.28-.02-.07-.04-.19-.04-.47s.02-.4.04-.46c.05-.18.17-.28.35-.28s.3.1.36.28c.02.07.04.19.04.46s-.02.4-.04.47c-.05.18-.17.28-.36.28m0 .23c.28 0 .48-.15.57-.44.03-.11.04-.22.04-.53s-.01-.43-.04-.53c-.09-.29-.29-.44-.57-.44s-.48.15-.57.44c-.03.11-.04.22-.04.53s.01.43.04.53c.09.29.29.44.57.44m.02-2.15s.03 0 .04-.03l.26-.3s0-.03-.01-.03h-.17s-.03.01-.04.03l-.21.29v.03h.12zm-1.2 2.09s0 .03.02.03h.17s.02-.01.02-.03v-1.84s0-.03-.02-.03h-.17s-.02.01-.02.03zm-1.4-.39c.08.3.28.44.55.44.25 0 .44-.14.53-.38v-.04l-.15-.08s-.03 0-.03.01c-.07.15-.17.25-.34.25s-.29-.1-.35-.28c-.02-.08-.03-.17-.03-.47s0-.39.03-.47c.05-.18.16-.28.35-.28s.28.11.34.25c0 .01.02.02.03.01l.15-.08s.01-.02 0-.04c-.1-.24-.29-.38-.53-.38-.27 0-.47.15-.55.44-.03.11-.04.22-.04.53s.01.42.04.53m-1.15-.25.26-.86.26.86h-.53zm-.42.64s0 .03.02.03h.17s.02 0 .03-.03l.13-.41h.67l.13.41s.01.03.03.03h.17s.02-.01.02-.03l-.57-1.84s-.01-.03-.03-.03h-.16s-.02.01-.03.03zm-.74-1h-.39s-.01 0-.01-.02v-.6s0-.02.01-.02h.39c.19 0 .31.12.31.31s-.12.31-.31.31m.54 1.03s.02-.02.01-.03l-.35-.8c.2-.07.33-.26.33-.51 0-.33-.21-.55-.52-.55h-.6s-.02.01-.02.03v1.84s0 .03.02.03h.17s.02-.01.02-.03v-.76s0-.02.01-.02h.37l.33.77s.02.03.03.03zm-2.54-.03s0 .03.02.03h1s.02-.01.02-.03v-.18s0-.03-.02-.03h-.79s-.01 0-.01-.02v-.58s0-.02.01-.02h.67s.02-.01.02-.03v-.17s0-.03-.02-.03h-.67s-.01 0-.01-.02v-.56s0-.02.01-.02h.79s.02-.01.02-.03v-.17s0-.03-.02-.03h-1s-.02.01-.02.03v1.84zm-1.31-.22v-1.4s0-.02.01-.02h.31c.2 0 .33.07.38.26.02.07.03.16.03.46s-.01.39-.03.46c-.05.18-.18.26-.38.26h-.31s-.01 0-.01-.02m-.22.22s0 .03.02.03h.56c.28 0 .47-.14.54-.4.03-.1.04-.21.04-.54s-.01-.44-.04-.54c-.08-.27-.26-.4-.54-.4h-.56s-.02.01-.02.03v1.84zm-1.38 0s0 .03.02.03h1s.02-.01.02-.03v-.18s0-.03-.02-.03h-.79s-.01 0-.01-.02v-.58s0-.02.01-.02h.67s.02-.01.02-.03v-.17s0-.03-.02-.03h-.67s-.01 0-.01-.02v-.56s0-.02.01-.02h.79s.02-.01.02-.03v-.17s0-.03-.02-.03h-1s-.02.01-.02.03v1.84zm-1.36 0s0 .03.02.03h.17s.02-.01.02-.03v-.78s0-.02.01-.02h.67s.02-.01.02-.03v-.18s0-.03-.02-.03h-.67s-.01 0-.01-.02v-.58s0-.02.01-.02h.79s.02-.01.02-.03v-.17s0-.03-.02-.03h-1s-.02.01-.02.03v1.84z"/><path d="m58.59 44.04h-56.3" stroke="#2288c5" stroke-miterlimit="10" stroke-width=".08"/><path d="m10.44 19.47h-3.93c-2.92 0-4.18 2.35-4.18 4.66v3.59h-.88c-.8 0-1.44.73-1.44 1.62s.65 1.62 1.44 1.62h.84v11.04h3.61l-.04-11.03h1.58l1.67-3.24h-3.21v-3.34c0-.94.39-1.47 1.24-1.47h1.43l1.86-3.44z"/></svg>