<svg viewBox="0 0 64 64" xmlns="http://www.w3.org/2000/svg"><path d="m43.66 24.61c.63-.95 1.1-1.95 1.77-2.79.54-.68 1.07-1.36 1.85-1.71.46-.2.61-.72.72-1.26.26-1.27.59-2.5 1.27-3.58.54-.86 1.2-1.25 2.12-1.12 1.02.14 1.98.46 2.88 1.02 1.27.8 1.49 1.89.76 3.33-.73 1.43-1.17 2.99-1.22 4.67-.03 1.13.46 2.21 1.01 2.35.54.14 1.59-.67 1.96-1.49.85-1.92 1.25-3.95 1.19-6.12-.04-1.55.42-1.94 1.72-1.55 1.14.35 2.2.91 3.1 1.82 1.12 1.13 1.47 2.48 1.04 4.18-1.33 5.32-3.34 10.2-6.62 14.27-.25.32-.44.51-.13 1 .33.53.37 1.2.16 1.87-.71 2.27-1.25 4.61-2.1 6.81-.39 1.02-.99 1.84-2 1.88-1.12.05-2.33.22-3.05-1.2-.17-.33-1.29-.35-1.42-.05-.51 1.15-1.78 1.98-2.83 1.5-1.09-.5-1.95-.16-2.84.38-.7.43-1.32.33-1.97-.05-.21-.13-.42-.3-.65-.37-.43-.13-.87-.68-1.18.35-.22.72-1.81.99-2.36.39-.91-.99-1.58-.7-2.54 0-1.5 1.09-3.16.76-4.75.03-1-.46-1.93-1.03-2.56-2.1-.24-.41-.4-.23-.62 0-.8.82-1.58 1.63-2.55 2.22-.92.56-1.74.66-2.61-.03-.15-.12-.33-.2-.49-.32-1.17-.89-1.16-.88-2.22.22-.93.96-1.97 1.07-3.11.53-2.64-1.23-4.63-3.34-6.13-6.12-.31-.58-.58-.72-1.01-.2-1.67 2.05-2.7 2.2-5.54.25-2.16-1.48-3.25-5.03-2.42-7.67.5-1.6 1.69-2.53 2.87-3.36.53-.37.5-.5.13-1.01-1.41-1.99-2.36-4.23-2.14-6.91.12-1.5.67-2.88 1.28-4.2.72-1.56 1.45-3.11 2.45-4.46.58-.78 1.27-1.35 2.14-1.52 1.37-.27 2.75-.83 4.16-.32 1.23.45 2.19 2.63 1.84 4.08-.17.69-1.07 1.28-1.93 1.11-.78-.15-1.22.22-1.5 1-.9 2.5-.71 5.06-.34 7.63.15 1.07.52 2.03 1.14 2.84.5.65 1.1 1 1.85.71.66-.26 1.05-.83 1.07-1.68.01-.51-.02-.84-.63-.57-1.07.48-2.24-.37-2.45-1.68-.18-1.16-.31-2.34-.28-3.53.02-.71.25-1.22.84-1.54.84-.47 1.69-.88 2.61-1.07.37-.08.55-.23.59-.78.12-1.57.39-1.78 1.78-2.09 1.71-.38 3.32-.2 4.85.82.91.61 1.2 1.37.9 2.56-.25.98-.31 1.97-.11 2.96.23 1.12.12 2.3.53 3.38.2.52.39 1.12.99 1.01.62-.12.84-.74.91-1.38.12-1.1-.08-2.17-.24-3.25-.19-1.27-.64-2.44-1.05-3.62-.38-1.11-.15-1.72.82-2.06.53-.19 1.09-.28 1.64-.36.4-.05.52-.22.39-.66-.16-.54-.17-1.1-.15-1.66.05-1.3 1.04-1.96 1.97-1.26 1.45 1.08 2.86 2.23 4.28 3.37.32.26.45.68.58 1.1.33 1.12.77 2.18 1.3 3.19.23.44.36.34.57.05.55-.8 1.09-1.61 1.73-2.32.26-.28.2-.61.13-.95-.21-1.03-.39-2.07-.26-3.13.15-1.18.98-1.74 1.93-1.32.79.36 1.33 1.12 1.98 1.7.06.06.11.15.17.19 1.84 1.34 2.86 3.31 3.28 5.76.11.65.45 1.19.75 1.85zm-31.02 10.54c.68.08 1.35 0 2-.15 2.06-.47 3.87-1.49 5.11-3.59.83-1.42.8-3.06.77-4.69-.04-2.14-1.76-4.17-3.59-4.22-1.51-.04-2.94.39-4.35.96-.79.32-1.18.87-1.04 1.89.1.67.15 1.36.2 2.04.05.62.19.87.79.62 1.05-.42 1.68-.1 2.14.92.83 1.85-.34 4.16-2.15 4.26-1.5.08-3.16-1.21-3.78-3.04-.99-2.92-1.14-5.94-.57-8.98.44-2.36 1.02-2.87 3.07-3.06.5-.05.77-.22.66-.93-.24-1.51-.34-1.68-1.62-1.63-2.02.09-3.81.64-4.92 2.93-.67 1.37-1.42 2.68-1.96 4.14-1.02 2.72-.75 5.31.73 7.58 2.12 3.25 5.04 4.85 8.53 4.93zm20.42-.94c2.02.15 3.87.28 5.73.41 2.38.17 4.7 1.07 7.12.73.32-.05.7.11.99.29 1.09.65 2.29.98 3.41 1.52.52.25.91.23 1.32-.31.98-1.27 2.16-1.61 3.51-.82.14.08.31.1.45.19.29.19.49.07.7-.19 3.23-4.19 5.4-9.02 6.49-14.53.19-.98-.11-1.65-.65-2.24-.5-.55-1.11-.96-1.76-1.26-.53-.24-.78-.26-.78.6 0 2.31-.5 4.5-1.47 6.52-.82 1.72-2.65 2.44-3.91 1.53-.93-.67-1.38-1.7-1.43-2.96-.08-2.12.52-4.04 1.36-5.86.38-.81.19-1.25-.47-1.62-.49-.27-.98-.42-1.5-.55-.94-.24-1.46.26-1.86 1.13-.42.91-.68 1.88-.9 2.88-.15.68-.07 1.08.5 1.44.86.53.97.96.68 2.07-.28 1.09-.29 2.21-.25 3.34.04 1.41.53 2.58 1.73 2.91 1.89.52 3.75.5 5.25-1.32.18-.22.39-.37.64-.22.26.16.35.43.28.78-.53 2.46-1.44 4.66-2.96 6.5-.33.4-.67.41-1.08.23-1.27-.57-2.44-1.37-3.66-2.06-.42-.24-.82-.39-1.3-.22-.88.32-1.52-.08-2.06-.93-.4-.65-.63-1.4-1-2.12-.25 1.26-1.07 1.07-1.83 1.08-.07.63.41 1.27-.11 1.86-.66.74-2.88 1.37-3.68.83-.58-.4-1.06-.29-1.64-.14-1.41.39-2.04.04-2.69-1.48-.32-.75-.62-1.51-.96-2.33-.6 1.25-1.47.95-2.43.47.19 1.35 1.49 2.45.2 3.86zm-16.5 14.63c.37.05.69-.09.98-.33.55-.45 1.06-.95 1.44-1.6.39-.67.77-.64 1.25-.18q.795.765 1.62 1.5c.37.33.75.37 1.19.09 2.52-1.59 4.34-3.95 5.53-6.99.14-.36.16-.71-.04-1.06-.63-1.15-1.45-2.05-2.46-2.73-.44-.3-.64-.17-.85.34-.64 1.57-1.3 3.12-2.16 4.56-1.18 1.98-1.33 2.06-2.83.54-.57-.58-.95-.52-1.4.07-.14.19-.3.36-.41.57-.3.53-.59.51-1.06.22-1.86-1.16-3.12-2.97-4.08-5.09-.25-.55-.47-.65-.92-.36-.73.47-1.4 1.01-1.91 1.8-.66 1.04-.68 1.55-.1 2.63.74 1.38 1.59 2.65 2.64 3.73 1.04 1.07 2.14 2.04 3.57 2.28zm27.17-12.09c1.42 1.76 1.33 3.45.34 5.22-.39.7-.32 1.4.22 2.02s.96 1.36 1.03 2.26c.06.84.47 1 1.09.98 1.1-.04 1.31-.24 1.3-1.52 0-.38.04-.69.34-.87.28-.16.5-.02.71.23.46.55.96.58 1.51.15.17-.14.39-.21.57-.33.28-.2.54-.21.82.02.32.27.11.53.04.81-.26 1.01-.05 1.32.84 1.32 1.08 0 1.54-.88 1.86-1.86.55-1.68 1.03-3.38 1.53-5.08.51-1.73.41-1.99-.96-2.76-.21-.12-.46-.17-.66-.3-.55-.36-.99-.17-1.45.25-1.1 1.01-1.97 2.26-2.68 3.66-.44.86-.9.85-1.34-.01-.47-.94-1-1.84-1.4-2.81-.5-1.21-1.27-1.68-2.38-1.53l-1.33.17zm-12.69-3.3c.43.03.81-.08 1.18-.27.32-.16.39-.37.21-.72-.58-1.15-.79-2.44-1.02-3.72-.06-.35-.35-.76.11-1.06.45-.29.7.08.95.38.37.45.68.96 1.15 1.29.29.21.5.25.66-.21.19-.51.45-.99.7-1.46.17-.31.44-.48.76-.38.28.08.34.37.34.66-.01 1.4.52 2.59 1.09 3.75.47.96 1.33 1.13 2.18.59.31-.19.35-.38.23-.74-.98-2.87-1.34-5.81-.74-8.87.05-.24.05-.48-.13-.7-.57-.66-1.45-.67-2.05-.02-.78.85-1.37 1.9-2.03 2.87-.48.72-.76.73-1.23.02-.86-1.28-1.5-2.7-2.02-4.21-.19-.54-.34-1.11-.8-1.47-1.03-.82-2.06-1.65-3.08-2.48-.16-.13-.34-.33-.49-.15-.32.38-.24.86-.11 1.32.09.32-.03.81.49.77.92-.06 1.5.57 1.9 1.42 1.36 2.86 1.22 5.84.17 8.71-.57 1.55-.36 2.7.42 3.94.32.51.66.78 1.17.71zm8.47-8c.1.97.23 1.96.3 2.95.08 1.24.76 2.26.9 3.45.09.74.34.95.93.93.41-.02.79-.13 1.17-.27.47-.18.7-.49.44-1.12-.29-.7-.51-1.43-.75-2.16-.12-.37-.05-.7.25-.89.31-.2.55-.04.74.29.2.37.44.69.77.93.5.38.87.4 1.03-.42.11-.59.37-1.1.79-1.47.21-.19.4-.45.7-.28.27.16.22.48.21.75-.04 1.2.5 2.15.99 3.1.4.78.99.82 1.66.45.69-.37.38-.96.29-1.51-.38-2.23-.88-4.45-.39-6.73.16-.74.08-1.21-.5-1.63-.59-.43-1.03-.25-1.5.2-1.12 1.06-1.88 2.43-2.52 3.91-.55 1.27-.94 1.31-1.71.21-.83-1.18-1.26-2.58-1.64-4.02-.21-.79-.29-1.68-.84-2.27-.97-1.06-1.99-2.07-2.98-3.09-.37-.38-.69-.27-.74.26-.1.97.06 1.94.34 2.84.17.55.76.49 1.17.68 1.18.54 1.46 1.14 1.22 2.58-.12.76-.19 1.54-.29 2.33zm-17.83 9.68c-.52-.29-1.01-.51-1.46-.83-.6-.43-1.08-.32-1.67.12-1.85 1.39-3.89 2.2-6.1 2.06-2.29-.14-4.46-.93-6.33-2.49-.8-.66-1.37-.71-2.04.07-.09.11-.23.15-.34.24-.79.73-1.62 1.43-1.98 2.61-.74 2.46.78 5.81 3.02 6.64.5.18 1.05.43 1.54 0 1.07-.93 2.3-1.66 2.85-3.25a4.6 4.6 0 011.92-2.42c.89-.55 1.81-1.53 2.9-.38.12.13.25 0 .37-.06 2.32-1.22 4.78-1.77 7.32-2.31m17.45 1.4c-1.35.02-2.62.4-3.81 1.17-.71.46-.78.88-.2 1.59.37.45.77.87 1.03 1.42.78 1.66 1.47 3.35.73 5.3-.37.97-.25 1.5.5 2.04.21.15.41.28.66.1.25-.17.15-.42.14-.66-.06-.83.25-1.12.92-.86.7.27 1.44.47 2.09.86 1.15.69 1.99-.11 2.89-.65.22-.13.24-.38.12-.65-.45-1.01-.99-1.91-1.93-2.36-.33-.15-.78-.1-.84-.69-.06-.64.44-.6.74-.79 1.07-.66 1.6-1.7 1.54-3.11-.05-1.3-.9-1.84-1.76-2.27-.89-.45-1.86-.44-2.82-.44m-19.02-3.72c1 .79 2.01 1.1 3.08 1.19.89.07 1.73-.01 2.45-.79 2.56-2.74 3.79-6.09 3.47-10.15-.08-1-.38-1.93-.91-2.74-.24-.36-.52-.5-.9-.42-.91.18-1.82.38-2.74.51-.58.09-.65.38-.41.94.77 1.84 1.08 3.82 1.29 5.83.1.97-.08 1.93-.56 2.76-.34.6-.89.86-1.49.96-.78.13-1.34-.35-1.9-.97-.34 1.06-.57 2.09-1.38 2.87zm11.59 15.72c2.06 0 3.96-1.55 4.3-3.22.44-2.21-.4-3.88-1.74-5.26-1.29-1.34-2.73-.78-4.13-.27-.23.08-.33.27-.34.56-.07 1.69-.73 3.09-1.62 4.34-.29.4-.3.73-.14 1.18.77 2.14 2.34 2.6 3.67 2.67m-7.7-12.35c-.67-.09-1.27.08-1.87.16-2.47.29-4.84 1.02-7.16 2.05-.24.11-.61.16-.35.6.62 1.04 1.12 2.19 2.06 2.93.32.25.61.39.91-.01.9-1.18 1.79-1.13 2.94-.1.55.5.77.3 1.08-.26.92-1.67 1.77-3.38 2.38-5.36zm1.96-.19c.97.61 1.83 1.33 2.56 2.24.22.27.48.31.8.14.63-.33 1.28-.69 1.98-.62 1.08.11 1.99-.08 2.72-1.17.29-.44.9-.58 1.51-.94-3.32-.28-6.44-.28-9.57.35m25.18-5.64c-.14.43.15.73 0 1.08-.22.55.03.83.46 1.06.68.36 1.33.77 1.99 1.16.22.13.45.26.65-.01.64-.87 1.22-1.79 1.68-3.01-1.72.41-3.26.44-4.79-.28zm-30.94-7.19c.1-.57.16-.9.22-1.22.19-1.03.06-1.31-.8-1.65-1.11-.44-2.24-.32-3.37-.11-.32.06-.57.22-.67.57-.11.38-.06.71.38.66 1.59-.18 3.06.06 4.24 1.76zm9.22 11.07c-.44-.85-.85-1.62-1.28-2.45-.69 1.01-1.29 2.01-2.14 2.79.57.02 1.1-.05 1.63-.12.58-.07 1.15-.15 1.79-.23zm19.18 3.57c.3.35.22 1.05.67 1.14.21.04.52-.51.45-.64-.22-.44-.71-.36-1.13-.5z"/><path d="m40.98 37.78c1.1 0 1.65.35 1.67 1.09.02.72-.65 1.21-1.69 1.21-.21 0-.43 0-.63-.08-.51-.17-1.12-.35-1.05-1.14.06-.77.65-.99 1.23-1.08.16-.03.32 0 .48 0zm1.05 1.15c-.55-.47-1.06-.43-1.58-.33-.14.03-.34.02-.35.27 0 .29.21.35.38.37.49.07.98.08 1.54-.32zm-6.76 4.33c.01.91-.6 1.58-1.45 1.58-.77 0-1.36-.69-1.36-1.6 0-.86.62-1.53 1.41-1.53.8 0 1.39.65 1.4 1.55m-1.37-.78c-.45.01-.76.24-.74.76.01.42.19.77.63.79.43.01.75-.21.78-.71.02-.49-.26-.78-.66-.83z"/></svg>