<svg viewBox="0 0 64 64" xmlns="http://www.w3.org/2000/svg"><path d="m49.21 0c-.86 3.11-2.5 5.83-4.63 8.38-3.88 4.64-9.18 7.95-14.41 11.35-5.84 3.79-10.26 8.52-12.45 14.58-2.9 8.04-1.36 15.78 2.26 23.37.88 1.84 1.91 3.6 3.13 5.28.34.47.79 1.19 1.41 1.01.75-.21.39-.94.24-1.49-.27-.99-.45-1.99-.51-3.02-.37-5.85 2.71-10.6 6.43-15.19 4.64-5.72 10.93-10 17.02-14.46 11.51-8.42 9.93-20.64 1.52-29.81zm-28.96 14.68c-.04-2.91-2.86-5.25-6.28-5.2-3.32.04-5.9 2.38-5.89 5.33.01 3.06 2.58 5.25 6.14 5.25 3.38 0 6.07-2.41 6.03-5.38"/></svg>