<svg xmlns="http://www.w3.org/2000/svg" xml:space="preserve" viewBox="0 0 64 64"><path d="M39.677 28.855c.199-.603.325-.857.364-1.119.439-3.045.906-6.087 1.284-9.138.463-3.736.813-7.482 1.291-11.217.152-1.193 1.207-1.95 2.414-2.361 1.429-.488 2.958-.101 3.744.924.367.479.478 1.182.468 1.781-.092 5.891-.243 11.781-.356 17.671-.035 1.859-.005 3.718-.005 5.578l.532.095c.31-.55.748-1.074.91-1.653.932-3.343 1.802-6.699 2.684-10.053.29-1.102.549-2.209.824-3.314.31-1.24 1.811-2.075 3.497-1.946 1.368.104 2.429 1.061 2.406 2.392-.042 2.39-.123 4.785-.337 7.167a422 422 0 0 1-1.352 12.916c-.294 2.431-.675 4.862-1.211 7.261a90 90 0 0 1-2.201 8.111c-.475 1.468-1.037 3.048-2.104 4.213-1.63 1.78-1.117 3.694-1.219 5.599-.039.721-.006 1.446-.006 2.239H26.551c0-1.039-.151-2.09.034-3.095.321-1.74-.673-2.756-2.151-3.744-3.102-2.075-6.004-4.361-8.419-7.029-1.293-1.428-2.32-3.036-3.425-4.585a378 378 0 0 1-4.238-6.079c-.943-1.377-1.845-2.775-2.753-4.169-.404-.621-.82-1.239-1.156-1.887-.424-.819-.064-1.529.897-1.929 2.741-1.142 6.617-.452 8.347 1.724 1.389 1.748 2.474 3.68 3.616 5.565.879 1.45 1.774 2.282 3.106 2.559 0-.931.03-1.845-.007-2.756a78 78 0 0 0-.237-3.729c-.329-3.679-.652-7.358-1.03-11.034a803 803 0 0 0-1.26-11.25c-.095-.812-.396-1.614-.418-2.423-.08-3.006 2.795-3.986 5.477-3.079 1.223.414 1.923 1.288 2.027 2.449.167 1.864.281 3.732.506 5.591.378 3.122.788 6.243 1.266 9.355.188 1.223.574 2.427.922 3.629.091.313.38.585.906.883.279-1.299.78-2.596.798-3.897.079-5.989.045-11.98-.004-17.969-.009-1.093-.252-2.187-.433-3.275-.435-2.62 3.147-4.594 5.757-3.531.716.291 1.427.897 1.763 1.509 1.293 2.355 1.01 4.932 1.155 7.437.22 3.804.303 7.614.577 11.414.173 2.398.576 4.785.908 7.173.039.26.284.5.595 1.026M38.179 40.01c-2.376-2.494-6.176-3.381-9.237-1.95-3.359 1.571-3.65 5.381-1.959 7.338 1.516 1.754 3.212 3.404 4.94 5.013 1.944 1.81 4.006 3.527 6.042 5.263.137.117.597.155.719.057a112 112 0 0 0 3.798-3.14c1.7-1.478 3.442-2.928 5.014-4.502 1.071-1.072 2.059-2.264 2.758-3.533.72-1.308.661-2.812.024-4.165-.546-1.159-1.587-1.997-2.986-2.523-1.795-.675-3.581-.8-5.304.001-1.323.615-2.532 1.414-3.809 2.141"/></svg>