<svg viewBox="0 0 64 64" xmlns="http://www.w3.org/2000/svg"><path d="m.85 22.94c0-2.64-.17-5.33.04-7.99.4-5.25 3.47-8.54 8.41-9.74 7.54-1.84 15.15-3.41 22.77-4.9 3.54-.69 7.14-.24 10.48 1.16 4.37 1.83 8.7 3.76 12.95 5.85 5.47 2.68 8.2 7.01 7.65 13.28-.58 6.65-.95 13.31-1.43 19.96-.53 7.4-4.16 12.8-10.87 15.86-5.18 2.36-10.48 4.5-15.85 6.39-6.21 2.19-12.12 1.4-17.33-2.91-4.06-3.36-8.1-6.76-11.27-11.02-2.47-3.32-4.23-6.98-4.53-11.2-.35-4.9-.67-9.81-1-14.76zm42.3 20.73c2.93-.03 6.13-4.06 5.63-7.1-.32-1.95-1.87-2.78-3.83-2.05-2.32.86-4.36 3.74-4.4 6.21-.03 1.79 1 2.97 2.6 2.95zm-2.57 4.9c-.02-2.24-1.58-3.34-3.71-2.63-2.41.8-4.58 3.84-4.55 6.37.03 2.2 1.64 3.34 3.74 2.64 2.44-.82 4.54-3.79 4.52-6.37zm16.27-22.18c.1-3.12-1.87-4.41-4.24-3.11-2.44 1.34-3.8 3.48-3.79 6.3 0 2.28 1.8 3.41 3.88 2.46 2.57-1.18 3.83-3.32 4.14-5.65zm-53.02-5.62c.08 2.2.68 4.25 1.94 6.05.57.81 1.23 1.82 2.4 1.47s1.2-1.54 1.19-2.54c0-2.3-.67-4.42-2.02-6.28-.56-.78-1.21-1.72-2.32-1.36-1.16.37-1.14 1.53-1.2 2.54v.13zm10.4 25.12c.46 2.7 1.12 5.04 2.89 6.9.42.44 1.31.86 1.79.7s.95-1.01 1.04-1.62c.38-2.54-.36-4.86-1.76-6.97-.58-.86-1.34-2.04-2.45-1.48-.73.36-1.02 1.61-1.51 2.46zm2.82-34.42c1.54-.33 2.96-.55 4.33-.96.45-.13.98-.68 1.07-1.12.06-.29-.54-.89-.97-1.06-3.03-1.22-6.13-1.28-9.23-.23-.42.14-.97.67-.99 1.04-.02.36.51.96.91 1.09 1.61.5 3.27.85 4.87 1.24zm9.74 5.63c1.5-.35 2.91-.61 4.27-1.04.4-.13.85-.7.9-1.12.03-.31-.49-.84-.88-.99-2.92-1.19-5.89-1.2-8.83-.09-.42.16-.95.72-.95 1.09s.53.96.94 1.08c1.49.44 3.03.72 4.55 1.06zm.68-8.44c1.42-.26 2.68-.41 3.9-.74.47-.13.82-.68 1.23-1.04-.37-.4-.66-.97-1.11-1.16-2.69-1.11-5.46-1.22-8.22-.31-.46.15-.98.67-1.09 1.11-.06.27.55.92.97 1.05 1.45.46 2.94.76 4.32 1.1zm10.14 5.22c1.41-.3 2.69-.52 3.94-.89.39-.11.89-.61.91-.96.02-.33-.43-.88-.8-1.04-2.69-1.15-5.43-1.23-8.16-.17-.38.15-.86.66-.85 1 0 .35.48.88.86 1 1.36.43 2.76.71 4.1 1.04zm.26-7.93c1.32-.27 2.45-.42 3.53-.74.38-.11.89-.6.91-.93.02-.34-.44-.86-.81-1.03-2.53-1.15-5.16-1.3-7.8-.43-.42.14-.9.64-.98 1.05-.05.27.49.87.87.99 1.45.45 2.94.76 4.28 1.09m9.69 1.32c-1.29.29-2.45.5-3.56.84-.34.11-.78.59-.79.91 0 .32.4.79.74.95 2.46 1.14 4.99 1.15 7.52.25.35-.13.85-.59.83-.86-.03-.38-.42-.93-.78-1.04-1.31-.43-2.67-.72-3.96-1.05"/></svg>