<svg viewBox="0 0 64 64" xmlns="http://www.w3.org/2000/svg"><path d="m32 59.74c-7.73 0-15.45.02-23.18 0-3.87-.01-6.63-1.84-8.18-5.36-.39-.89-.61-1.93-.61-2.9-.03-10.12-.03-20.24-.01-30.36 0-4.07 3.31-7.7 7.08-8.12 1.85-.21 3.74-.13 5.61-.17.9-.02 1.79-.03 2.69 0 .48.02.71-.19.86-.62.48-1.33.93-2.67 1.5-3.96 1.1-2.45 3.06-3.89 5.74-3.94 5.66-.1 11.33-.05 16.99-.02 2.59.01 5.03 1.89 5.97 4.47.42 1.17.87 2.33 1.3 3.51.15.41.39.57.84.57 2.17-.02 4.33 0 6.5-.01 2.35-.02 4.42.66 6.15 2.29 1.27 1.2 2.19 2.61 2.5 4.36.14.79.23 1.6.23 2.4.02 9.75-.02 19.49.02 29.24.02 4.05-2.82 7.39-6.23 8.31-.83.23-1.73.32-2.59.32-7.73.02-15.45.01-23.18.01zm-.02-8.5c8.26 0 14.98-6.7 14.99-14.94.01-8.16-6.63-15.02-15-15-8.35.01-14.96 6.84-14.96 14.98 0 8.25 6.72 14.96 14.97 14.96"/><path d="m32 26.74c4.83-.23 9.6 4 9.59 9.52-.01 5.37-4.36 9.62-9.61 9.6-5.3-.02-9.56-4.33-9.56-9.59 0-5.59 4.81-9.75 9.58-9.52z"/></svg>