<svg viewBox="0 0 64 64" xmlns="http://www.w3.org/2000/svg"><path d="m63.4 32.26c-1.37.02-2.73-.02-4.1.02-.55.02-.87-.16-1.16-.62-1.86-2.96-3.75-5.91-5.64-8.86-.2-.31-.2-.53 0-.85 1.7-2.66 3.38-5.32 5.04-8 .23-.37.48-.5.9-.49 1.29.02 2.57-.01 3.86.02.54.01.74-.11.73-.7q-.045-3.375 0-6.75c0-.55-.14-.74-.72-.74-4.82.02-9.64.02-14.47 0-.56 0-.73.15-.72.71.03 2.17.04 4.34 0 6.51-.01.7.05 1.16 1.03.93-.3.47-.52.81-.75 1.17-.37-.19-.5-.53-.68-.82-1.65-2.69-3.34-5.35-5.09-7.97-.23-.34-.46-.53-.9-.53q-4.5.03-9 0c-.51 0-.63.18-.63.66.02 2.3.02 4.61 0 6.91 0 .52.19.62.65.61 1.31-.03 2.63.03 3.94-.03.63-.03.95.21 1.27.71q2.565 4.065 5.19 8.1c.27.41.23.69-.02 1.08-1.79 2.82-3.56 5.65-5.33 8.48-.2.33-.43.48-.83.47-1.39-.03-2.79.01-4.18-.02-.52-.01-.69.12-.69.66.03 2.28.03 4.55 0 6.83 0 .52.15.69.68.69q7.515-.03 15.03 0c.52 0 .68-.14.67-.68-.03-2.09-.01-4.18-.01-6.27q0-1.15-1.19-1.31c.09-.16.14-.26.19-.35.26-.43.44-1.15.87-1.15.41 0 .61.72.87 1.15 1.7 2.72 3.4 5.44 5.09 8.16.19.31.39.44.77.44 3.11-.02 6.22-.02 9.32 0 .45 0 .6-.15.6-.6q-.03-3.495 0-6.99c0-.46-.15-.59-.6-.59zm-1.74 5.27c0 .39-.09.58-.53.57-1.96-.02-3.91-.02-5.87 0-.44 0-.57-.26-.77-.57-2.24-3.58-4.49-7.15-6.75-10.72-.11-.18-.24-.34-.44-.61-1.74 2.77-3.44 5.47-5.22 8.32.93 0 1.74.02 2.55 0 .45-.02.62.11.59.58-.04.8-.03 1.61 0 2.41.02.44-.1.61-.57.61-3.56-.02-7.13-.02-10.69 0-.52 0-.63-.19-.61-.66.03-.75.04-1.5 0-2.25-.02-.51.1-.71.66-.69 1.07.04 2.14 0 3.21.02.38 0 .59-.1.82-.46 2.24-3.61 4.52-7.2 6.8-10.78.23-.37.26-.63.02-1-2.29-3.55-4.56-7.11-6.82-10.67-.23-.36-.5-.42-.87-.41-1.07.01-2.14-.01-3.22.01-.44.01-.62-.11-.6-.58.03-.8.02-1.61 0-2.41 0-.38.06-.6.52-.6 1.96.02 3.91.02 5.87 0 .46 0 .58.33.76.61 2.06 3.25 4.11 6.5 6.19 9.74.74 1.16.59 1.1 1.3 0 1.36-2.11 2.69-4.24 4.03-6.37.05-.08.09-.18.2-.4-.83 0-1.52-.02-2.22 0-.42.02-.63-.07-.61-.56.04-.83.03-1.66 0-2.49-.01-.43.15-.54.56-.54q5.145.015 10.29 0c.42 0 .56.14.55.56-.02.83-.03 1.66 0 2.49.02.44-.15.55-.56.54-1.04-.02-2.09 0-3.13-.01-.36 0-.59.1-.79.41-2.16 3.47-4.32 6.94-6.53 10.38-.32.5 0 .75.18 1.05 1.67 2.64 3.36 5.27 5.04 7.91.65 1.01 1.3 2.02 1.92 3.05.23.39.49.56.96.54 1.04-.04 2.09 0 3.13-.02.46-.01.69.07.66.61-.05.8-.03 1.61 0 2.41zm-57.49-5.47c-.94-.02-1.88.02-2.81-.02-.48-.02-.64.11-.64.62.03 2.36.03 4.71 0 7.07 0 .49.12.64.62.64 8.68-.02 17.35-.02 26.03 0 .53 0 .66-.15.66-.67-.02-4.85-.02-9.69 0-14.54 0-.53-.1-.75-.69-.74-2.44.03-4.87.03-7.31 0-.58 0-.71.18-.7.73.03 2.01-.01 4.02.03 6.03.01.67-.11.94-.86.9-1.36-.07-2.73-.06-4.1 0-.7.03-.91-.16-.9-.88.03-4.31.02-8.62.02-12.93h.04v-13.01c0-.5-.04-.77-.67-.76-3.86.03-7.71.02-11.57 0-.43 0-.61.09-.61.57.02 2.38.02 4.77 0 7.15 0 .46.14.6.59.58.96-.03 1.93 0 2.89-.02.38 0 .51.11.51.5 0 6.08-.01 12.16 0 18.24 0 .41-.12.57-.55.55zm2.91-9.8c0-3.67-.01-7.34.01-11.01 0-.62-.15-.86-.8-.82-.88.06-1.77 0-2.65.02-.47.02-.6-.16-.59-.6.03-.8.04-1.61 0-2.41-.02-.51.18-.62.65-.62 2.25.02 4.5.03 6.75 0 .63-.01.74.21.74.78-.02 4.34-.01 8.68-.01 13.02s.02 8.62-.02 12.94c0 .68.2.84.85.83 2.97-.03 5.95-.03 8.92 0 .57 0 .71-.17.7-.72-.03-2.06 0-4.12-.03-6.19 0-.57.17-.74.72-.71.94.04 1.87.03 2.81 0 .46-.01.6.16.59.61-.01 3.37-.02 6.75 0 10.12 0 .47-.16.58-.6.58q-10.725-.015-21.45 0c-.49 0-.66-.12-.64-.63.04-.83.03-1.66 0-2.49-.02-.44.11-.62.58-.6.86.03 1.72-.04 2.57.02.69.05.91-.13.9-.87-.04-3.75-.02-7.5-.02-11.25zm21.24 29.16c-.07-.38-.35-.58-.72-.67-.4-.09-.8-.07-1.19.03-1.17.31-1.98 1.06-2.64 2.06-.73 1.11-1.59 2.09-3.04 2.24-.49.05-.86-.16-1.01-.61-.13-.38-.3-.79.27-1.09.29-.15-.14-.15-.17-.26 0 .02 0 .05.01.07-.03-.01-.05-.03-.08-.04.02-.01.04-.02.07-.03.18-.76.69-1.31 1.23-1.83.25-.24.58-.55.89-.27.36.32.03.67-.17.99-.32.5-.91.69-1.38 1.21.6 0 1-.21 1.41-.36.95-.36 1.47-1.04 1.26-1.6-.22-.58-1.28-.76-2.16-.35-.92.43-1.64 1.07-2.21 1.92-.33.51-.44 1.57-.07 2.12.42.63 1.03.76 1.76.64 1.2-.19 2.09-.89 3.04-1.82.05 1.04.38 1.82 1.39 1.86 1.12.05 2.09-.38 2.82-1.26-.39.15-.73.39-1.1.56-.48.22-.99.28-1.45-.05-.42-.3-.42-.77-.37-1.24.1-.99.64-1.74 1.35-2.37.26-.24.63-.54 1-.3.34.22.15.64.12.97-.01.2-.27.42-.04.59.25.17.53 0 .74-.14.32-.23.5-.57.43-.98zm30.55 4.11.01.01h.02-.03zm-.22-1.3c.69-.18.75-.57.39-1.03-.26-.34.14-.37.16-.55-.63.15-1.2.31-1.5-.58-.46-1.37-1.42-1.74-2.76-1.13-1.01.46-1.65 1.27-2.2 2.23-.39.7-.17 1.27.13 1.8.34.61.96.76 1.67.63 1.68-.31 2.53-1.46 3.11-2.95.21.14.4.28.6.41-.84 1.18-.61 2.09.62 2.47-.13-.15-.29-.29-.38-.46-.14-.3-.34-.7.16-.83zm-3.79.9c-.25.24-.55.35-.88.2-.34-.16-.3-.5-.26-.78.19-1.34.77-2.49 1.76-3.41.2-.18.48-.36.81-.2.3.14.31.41.33.75-.25 1.27-.75 2.48-1.77 3.44zm-2.04-5.12c.66-1.13 1.33-2.26 1.99-3.38-.98-.32-1.45.09-1.86.84-1.09 1.96-2.11 3.96-3.46 5.76-.12.15-.05.3-.07.46-.03.13-.07.26-.1.39-.08.11-.03.31-.23.33.1 1.05.33 1.23 1.38 1.02-.54-.48-.25-.96.01-1.41.77-1.34 1.56-2.68 2.34-4.01m-10.32 2.55c.51-.14.78-.5.74-1.01-.04-.57-.45-.8-.99-.85-1.67-.14-3.4 1.23-4.08 3.23.27.06.25.31.27.5.1.81.63 1.19 1.36 1.21.86.02 1.67-.23 2.36-.85-.35-.17-.54.1-.77.19-1.02.37-1.74-.02-1.79-.99-.05-1.05.84-2.53 1.78-2.95.55-.25.83-.07.78.52-.01.18-.07.37-.13.54-.17.49.04.58.46.46zm-4.34 1.38h-.01z"/><path d="m59.56 51.71c-.1.32-.3.6-.34.93.47.12 1.19 1.07 1.21 1.63.02.65-.4.95-.95 1.12-.19.06-.38.1-.57.14.23.04.46.14.69.11.52-.06 1.3.05 1.48-.37.32-.74.75-1.64-.05-2.43-.13-.13-.21-.31-.3-.47-.23-.41-.37-.83 0-1.25.17-.2.41-.32.64-.2.5.27.28.74.26 1.14 0 .17-.2.36.05.49.18.09.36.04.54-.05.51-.26.6-1.12.15-1.52-.75-.67-2.5-.25-2.79.71z"/><path d="m59.22 52.64h-.02v.02h.02zm-48.84 2.58c.42-.54.64-1.3.21-2.03-.16-.28-.35-.54-.52-.81-.25-.41-.37-.84-.03-1.26a.52.52 0 01.66-.14c.5.28.31.73.21 1.14-.04.15-.14.31.04.43.15.09.31.09.46.02.36-.18.62-.42.58-.87-.04-.49-.35-.77-.78-.92-.71-.24-1.74.05-2.12.59-.49.69-.23 1.29.2 1.91.82 1.17.57 1.83-.77 2.28.67.1 1.44.18 1.85-.34zm38.94-1.14c.03-.13.07-.26.1-.39-.31-.12-.43.15-.59.3-.36.32-.7.66-1.07.96-.2.16-.48.39-.71.2-.22-.19-.07-.51.04-.75.16-.34.34-.66.52-.99.47-.82.95-1.63 1.51-2.59-.61.15-1.15-.14-1.44.32-.59.98-1.13 2-1.85 2.9l-.09.12c.46.29.04 1 .61 1.27.51.23.94.08 1.36-.19.31-.2.58-.47.88-.69.14-.1.23-.39.48-.15-.2-.31.03-.31.24-.33zm-.24.33v.01zm-45.21.92c-1.76.19-2.98-1.28-2.48-2.96.19-.62.62-1.04 1.08-1.45 1.41-.55 2.38-1.42 2.44-3.08.02-.56.44-1.01.91-1.34 1.16-.17 1.66.1 1.76.93.15 1.2-.4 1.75-2.02 1.93.93.35 1.64.06 2.32-.4.54-.37.71-.93.61-1.55-.1-.66-.56-1.03-1.18-1.15-.49-.1-1-.16-1.5.05-1.49.27-2.18 1-2.37 2.65-.09.77-.32 1.38-.99 1.78-.69.24-1.31.6-1.83 1.11-.95.91-.82 2.61.29 3.27 1.07.64 2.22.68 3.44.28-.19-.22-.35-.1-.49-.08zm13.3-4.51c-.59-.32-1.23-.12-1.82.52 1.01-.21 1.17-.05 1.11.83-.08 1.12-.79 1.91-1.44 2.73-.21.27-.51.58-.88.38-.38-.2.23-.49.03-.76-.59.22-.76.39-.62.71.17.42.5.5.92.36 1.56-.53 2.74-1.44 3.15-3.13.16-.64.17-1.31-.44-1.64zm19.83 3.95c-.32.21-.69.68-1.03.38-.35-.31-.02-.79.17-1.17.06-.12.14-.23.21-.34.54-.87 1.08-1.75 1.61-2.62-.08-.06-.1-.09-.12-.09-.46 0-.98-.21-1.31.3-.15.22-.52-.63-.51.13 0 1.1-.56 1.97-1.11 2.86-.12.19-.59.26-.34.58.3.38.51.98 1.17.85.65-.13 1.23-.4 1.64-1-.21-.09-.28.05-.38.12m-28.93-.55c.27-.1.5-.17.5-.52 0-.31-.14-.52-.42-.61-.31-.09-.6.03-.79.27-.16.21-.25.49-.42.82.07.05.14.19.19.43.13.6.32.69.96.78-.5-.64-.51-.98-.02-1.16zm-1.13-.04v.01z"/><path d="m4.34 51.95c.66.1 1.33.02 1.49.79.22 1.07-.26 1.84-1.12 2.46.93-.1 1.07-.16 1.72-.77.22-.21.39-.34.51-.25-.09-2.27-.64-2.75-2.6-2.23m28.8 2.61c-.24-1.36 1.26-3.53 2.63-3.75-1.88-.29-4.07 1.76-3.86 3.58.06.53.21 1 .79 1.18.55.17 1.01 0 1.58-.5-.6.03-1.02.1-1.13-.5zm11.02-.22c.09-.25.23-.48.37-.71.52-.89 1.04-1.77 1.56-2.66-.92-.34-1.41.06-1.77.79-.31.62-.69 1.2-1.03 1.8-.31.56-.46 1.19-.04 1.71.43.52 1 .29 1.53-.06-.84.12-.8-.33-.62-.86zm-6.19-5.74c.12-.27.1-.53-.22-.66-.23-.1-.39.03-.42.22-.13.79-.69 1.33-1.11 1.97.81-.27 1.41-.77 1.76-1.53zm-5.1 2.35c-.59-.03-1.03-.05-1.47-.08.28-.5.56-1 .86-1.53-.87-.2-1.38 0-1.79.79-.59 1.14-1.14 2.33-1.96 3.33-.1.13-.5.19-.09.43-.12.48-.39 1 .08 1.42.35.31.79.28 1.25.07-.41-.12-.59-.36-.43-.72.57-1.25 1.16-2.49 2.07-3.55.45.03.91.16 1.48-.17zm-2.29 3.88s.04.05.06.08l.4-.34-.05-.05c-.14.1-.27.21-.41.31m-15.65-3.01c-.01-.13-.15-.08-.24-.08.69-1.09 1.39-2.19 2.13-3.35-.91-.09-1.47.06-1.86.86-1.07 2.19-2.56 4.14-3.65 6.32-.66 1.33-1.48 2.58-2.26 3.93.68 0 1.25.19 1.63-.52 1.24-2.32 2.52-4.63 4-6.82.12-.09.27-.17.25-.34m27.49 2.62.07-.11v-.02c-.03.03-.06.07-.09.1v.03zm8.86.56s.05-.03.06-.05v-.07c-.02.02-.04.03-.05.05s0 .05 0 .08zm11.98-1.51s-.08.03-.12.05c.01.02.02.04.04.06l.12-.06c-.01-.02-.03-.05-.04-.05m-1.28 1.27.05.05c.02-.04.04-.09.06-.13 0 0-.04-.03-.06-.04-.02.04-.04.08-.05.12m-23.82-.82h-.03.04zm-.18.12s.1-.08.14-.12c-.06.01-.12.03-.18.04a.3.3 0 00.04.08"/></svg>