<svg xmlns="http://www.w3.org/2000/svg" xml:space="preserve" viewBox="0 0 64 64"><path fill-rule="evenodd" d="M55.248 5.781H16.579C16.394 2.539 14.604 0 12.421 0h-.834C9.368 0 7.559 2.62 7.425 5.927 3.222 6.899 0 12.398 0 19.041V50.74C0 58.067 3.922 64 8.752 64h46.497C60.088 64 64 58.067 64 50.74V19.041c0-7.327-3.912-13.26-8.752-13.26M31.832 49.615c-7.901 0-14.304-6.494-14.304-14.509s6.402-14.512 14.304-14.512c7.905 0 14.304 6.497 14.304 14.512s-6.399 14.509-14.304 14.509" clip-rule="evenodd"/></svg>