<svg viewBox="0 0 64 64" xmlns="http://www.w3.org/2000/svg"><path d="m12.63 30.97h44.46c.61 0 1.21.08 1.8.17 1.13.18 1.72.78 1.86 1.85.04.3.04.61.04.92v27.36c-.05 2.09-.75 2.73-3.01 2.73h-47.62c-1.85-.03-2.57-.71-2.59-2.45-.02-1.72-.04-3.44-.04-5.16 0-8.07-.01-16.13.01-24.2 0-1-.37-1.77-1.1-2.46-.87-.82-1.71-1.66-2.54-2.52-1.08-1.11-.9-2.45.48-3.25 3.96-2.28 7.93-4.52 11.9-6.77 5.82-3.3 11.63-6.6 17.46-9.9 3.95-2.23 7.91-4.46 11.87-6.67.95-.53 1.96-.98 3.04-.19.31.23.55.51.7.83.76 1.69 1.56 3.37 2.23 5.09.48 1.23.15 1.94-1.05 2.66-2.93 1.74-5.87 3.47-8.82 5.18-3.44 1.99-6.9 3.95-10.36 5.91-4.11 2.33-8.24 4.65-12.35 6.99-2.08 1.18-4.25 2.23-6.22 3.57-.08.06-.21.08-.15.33zm20.8-21.42c-.12-.07-.19 0-.29.06-2.38 1.21-4.61 2.64-6.9 3.99-.36.21-.64.54-.74.9-.51 1.85-.91 3.73-1.19 5.62-.02.16-.1.39.08.5.19.12.34-.07.5-.17 2.22-1.3 4.44-2.61 6.68-3.89.32-.18.51-.43.56-.71.45-2.1.99-4.18 1.28-6.3.02-.02.04-.03.06-.05v-.04l-.03.09zm8.86 24.07c-.3-.08-.43-.15-.56-.15h-7.77c-.49 0-.88.24-1.22.55-1.79 1.66-3.58 3.33-5.38 4.99-.15.14-.43.24-.3.48.1.19.35.1.53.1h7.36c.35 0 .68-.06.92-.27 2.11-1.86 4.21-3.74 6.42-5.71zm15.16-.15c-2.6 0-5.08.01-7.55 0-.68 0-1.21.21-1.68.65-1.18 1.1-2.38 2.19-3.57 3.28-.74.67-1.48 1.35-2.25 2.05.41.22.72.15 1.01.15 2.26 0 4.52-.02 6.78.02.73.01 1.27-.21 1.76-.67 1.09-1.05 2.2-2.09 3.3-3.13.75-.71 1.55-1.37 2.21-2.34zm-46.1 6.13c2.16 0 4.12.02 6.07-.01.54 0 1.05.14 1.62.05.92-.14 1.71-.49 2.28-1.11 1.48-1.59 3.24-2.91 4.79-4.43.14-.14.41-.26.31-.5-.11-.24-.39-.12-.59-.13-2.34 0-4.68.01-7.03-.02-.54 0-.97.12-1.33.46l-6.11 5.68zm26.91-26.73 7.67-4.57c.24-.14.36-.37.4-.64.26-1.56.56-3.11.79-4.67.07-.48.29-.96.15-1.49-.17.03-.29.03-.38.08-2.26 1.34-4.52 2.67-6.76 4.04-.41.25-.67.65-.76 1.14-.35 1.98-.72 3.95-1.12 6.13zm-19.43 4.92c-.19.07-.33.1-.44.17-1.72 1.08-3.4 2.21-5.28 3.07-1.49.68-2.38 1.85-2.64 3.39-.15.88-.28 1.76-.38 2.65-.08.67-.4 1.31-.32 2.1 2.22-1.29 4.34-2.59 6.52-3.77.92-.5 1.36-1.11 1.51-2.08.27-1.83.67-3.65 1.03-5.53"/></svg>