<svg viewBox="0 0 64 64" xmlns="http://www.w3.org/2000/svg"><path d="m31.88 61.92c.42-2.06.68-3.87 1.17-5.63 2.71-9.72 8.31-17.07 17.67-21.25 3.94-1.76 8.09-2.79 12.42-2.99.9-.04.9.57.85 1.18-.2 2.59-.49 5.17-1.27 7.66-1.63 5.23-4.26 9.91-8.08 13.84-3.63 3.74-8.04 6.26-13.04 7.74-3.92 1.16-7.91 1.76-11.99 1.45-4.78-.36-9.28-1.68-13.46-4.1-4.53-2.61-8.2-6.09-11.02-10.47-2.54-3.95-4.12-8.26-4.65-12.94-.11-.96-.3-1.91-.42-2.87-.18-1.38.05-1.65 1.42-1.53 3.35.3 6.68.85 9.8 2.13 11.09 4.54 17.79 12.74 20.14 24.49.2.98.28 1.98.46 3.29"/><path d="m31.98 34.79c-9.74 0-17.38-7.71-17.38-17.53.01-9.3 7.81-17.15 16.97-17.26 10.25-.12 17.85 7.95 17.82 17.43-.03 9.77-7.62 17.36-17.41 17.36"/></svg>