<svg xmlns="http://www.w3.org/2000/svg" xml:space="preserve" viewBox="0 0 64 64"><path d="M32.818 6.423c0-3.547-2.93-6.423-6.546-6.423H6.545C2.933 0 0 2.876 0 6.423v19.371c0 3.547 2.933 6.423 6.545 6.423h19.727c3.616 0 6.545-2.876 6.545-6.423zM57.455 31.787H37.724c-3.612 0-6.542 2.876-6.542 6.426v19.365c0 3.553 2.929 6.423 6.542 6.423h19.731C61.071 64 64 61.131 64 57.577V38.213c0-3.55-2.929-6.426-6.545-6.426M41.346 26.303h12.489c2.287 0 4.143-1.822 4.143-4.062V9.973c0-2.243-1.856-4.062-4.143-4.062H41.346c-2.291 0-4.143 1.819-4.143 4.062v12.268c0 2.24 1.853 4.062 4.143 4.062M22.654 37.698H10.165c-2.29 0-4.146 1.822-4.146 4.062v12.268c0 2.244 1.856 4.062 4.146 4.062h12.489c2.29 0 4.143-1.819 4.143-4.062V41.76c0-2.24-1.852-4.062-4.143-4.062"/></svg>