<svg clip-rule="evenodd" fill-rule="evenodd" stroke-linejoin="round" stroke-miterlimit="2" viewBox="0 0 64 64" xmlns="http://www.w3.org/2000/svg"><path d="m0 32c0-17.7 14.3-31.8 31.6-32 17.9-.2 32.3 14.4 32.4 31.8.1 17.6-14.2 32-31.7 32.2-17.7.1-32.3-14.1-32.3-32m3.2 3.3c.2-.1.3-.3.4-.5 4.1-6.9 8.2-13.7 12.3-20.6.6-1 .9-1.9.8-3.1-.1-.6 0-1.3 0-1.9 0-1.2.7-2 2-2h2c1.2 0 1.9.8 2 2 0 .5.2.7.5 1 6.7 4.7 13.3 9.4 20 14.1 2.1 1.5 4.1 2.9 6.2 4.3.1.1.3.3.5.2s.1-.3.1-.5v-2c0-1.2.8-2 1.9-2s1.9.9 1.9 2.1v4.8c0 .3 0 .5.3.7l6.3 4.5c.4.3.5.2.6-.3.7-5.3.1-10.4-1.9-15.3-5-11.7-16.9-19-29.7-17.8-10 1-17.5 6-22.6 14.6-2.5 4.3-3.7 9-3.8 13.9-.1 1.3 0 2.5.2 3.8m46.6 13v-6.2c0-.4-.1-.6-.6-.5-1.9.2-3.9.3-5.8.4-4.1.3-8.1.6-12.2.9l-8.1.6c-.5 0-.6.2-.6.6v14.8c0 .4.2.6.6.7 2.4.8 4.9 1.2 7.4 1.4 6.9.3 13.2-1.6 18.9-5.7.3-.2.5-.5.5-.9-.1-2-.1-4-.1-6.1m-27.3-35.1v23.9c0 .5.2.6.6.6h26.1c.5 0 .6-.2.6-.6 0-1.4-.1-2.9 0-4.3.1-1.2-.4-1.9-1.4-2.5-7.2-4.8-14.4-9.6-21.6-14.3-1.4-.9-2.8-1.8-4.3-2.8m-17.3 24.4h11.1c.5 0 .4-.3.4-.6v-17.8c0-.2 0-.4-.1-.6-3.9 6.4-7.6 12.7-11.4 19m11.4 12.7v-5.6c0-.6-.2-.7-.8-.7-3.2.3-6.3.5-9.5.7-.5 0-.5.2-.3.5 1 1.9 2.1 3.7 3.5 5.3 1.9 2.2 4 4.1 6.4 5.7.2.1.3.3.5.2s.1-.3.1-.5c.1-1.8.1-3.7.1-5.6m37 1c.1-.1.2-.1.2-.1 2.6-2.9 4.5-6.3 5.8-10 .1-.4-.1-.5-.4-.4-1.7.1-3.3.3-5 .4-.5 0-.6.2-.6.7zm0-17.7v3.5c0 .2 0 .4.3.4h5.4v-.1c-1.8-1.3-3.7-2.5-5.7-3.8" fill-rule="nonzero"/></svg>