<svg xmlns="http://www.w3.org/2000/svg" xml:space="preserve" viewBox="0 0 64 64"><path d="M63.985 29.524c0 4.64-.037 9.28.015 13.92.028 2.538-1.018 4.387-3.211 5.585-3.193 1.746-6.416 3.438-9.607 5.187-4.784 2.621-9.552 5.272-14.327 7.91-.69.381-1.373.776-2.073 1.136-1.795.923-3.636 1.021-5.423.057-3.52-1.899-7.001-3.871-10.508-5.797-2.286-1.256-4.592-2.476-6.881-3.726-3.166-1.728-6.349-3.428-9.477-5.223-1.725-.99-2.478-2.646-2.481-4.6C-.006 34.357 0 24.741.006 15.125c.002-2.69 1.07-4.203 3.648-5.15C12.347 6.781 21.043 3.597 29.74.414c1.482-.543 2.98-.555 4.463-.015q13.212 4.811 26.419 9.64c2.223.813 3.359 2.55 3.362 5.107.006 4.793.001 9.585.001 14.378m-4.936-9.616c-.343.106-.576.166-.8.248-7.481 2.717-14.954 5.456-22.45 8.129-1.055.376-1.353.929-1.348 1.999.038 8.664.02 17.327.024 25.991 0 .437.047.873.077 1.4.431-.212.76-.359 1.075-.532 2.917-1.607 5.825-3.231 8.749-4.825q6.745-3.677 13.51-7.316c.802-.431 1.215-.998 1.199-1.95-.044-2.762-.033-5.526-.035-8.289-.003-4.911-.001-9.822-.001-14.855m-.423-5.208c-.225-.145-.314-.229-.42-.268-8.249-3-16.5-5.995-24.749-8.996-.869-.316-1.687-.469-2.631-.12-6.976 2.573-13.971 5.094-20.959 7.636-1.466.533-2.926 1.082-4.499 1.665.239.148.351.248.482.295 2.641.959 5.284 1.911 7.926 2.869 5.74 2.082 11.475 4.18 17.228 6.226.552.196 1.283.267 1.816.076 7.058-2.519 14.095-5.094 21.137-7.659 1.521-.554 3.037-1.121 4.669-1.724"/></svg>