<svg viewBox="0 0 64 64" xmlns="http://www.w3.org/2000/svg"><path d="m16.968 27.035-9.858-15.15c6.142-7.639 15.355-11.845 24.774-11.884 5.458-.039 11.033 1.355 16.103 4.284 5.6 3.252 9.858 7.923 12.568 13.291l-26.491-1.394c-7.496-.438-14.631 3.781-17.096 10.853m4.245 4.968a10.783 10.783 0 0010.787 10.788 10.784 10.784 0 0010.788-10.788 10.783 10.783 0 00-10.788-10.788 10.774 10.774 0 00-10.787 10.788m40.633-11.511-18.026.929c4.89 5.717 4.968 13.962.852 20.285l-14.465 22.247c6 .323 12.181-.994 17.781-4.245 13.858-8.001 19.471-24.776 13.858-39.216m-44.594 17.653-12.039-23.679a32 32 0 00-5.213 17.537c0 16.001 11.716 29.253 27.033 31.601l8.22-16.104c-7.433 1.394-14.607-2.684-18.001-9.355"/></svg>