<svg clip-rule="evenodd" fill-rule="evenodd" stroke-linejoin="round" stroke-miterlimit="2" viewBox="0 0 64 64" xmlns="http://www.w3.org/2000/svg"><path d="m795.229 515.397c.647-.8 4.63-2.511 2.391 3.144-2.578 6.512-1.668 6.896-1.109 6.897 19.901.025-11.873 9.965-14.682 7.721-5.455-4.359 9.287-4.449 7.193-6.291-.077-.069-2.542-.916-4.139-2.698-.109-.122-.525-.587-1.055-1.76-1.007-2.227.535-2.314.654-2.507l4.104 2.426c3.363 1.981 2.443-2.908 6.643-6.932zm14.213 32.117c1.773 6.836 3.753 8.961-2.844 11.297-15.483 5.485-15.965 2.853-16.634 1.467-1.474-3.058-6.774-19.015-6-21.683.005-.017-1.198-1.941 10.533-5.226 1.858-.521 1.847.565 6.281 15.056 1.315 4.296-4.378 4.793-6.975-3.063-.297-.899-.413-1.848-.666-2.76-.755-2.719-3.108-1.824-2.643.899 2.155 12.609 6.814 11.737 7.914 11.531 11.083-2.074 2.231-10.182 2.029-18.533-.039-1.63 2.184-11.153 4.932-1.956.101.338.1.33 4.073 12.971z" transform="matrix(1.343049 0 0 1.343049 -1036.917241 -690.980081)"/></svg>