<svg clip-rule="evenodd" fill-rule="evenodd" stroke-linejoin="round" stroke-miterlimit="2" viewBox="0 0 64 64" xmlns="http://www.w3.org/2000/svg"><path d="m0 9.143c0-5.043 4.1-9.143 9.143-9.143h45.714c5.043 0 9.143 4.1 9.143 9.143v45.714c0 5.043-4.1 9.143-9.143 9.143h-45.714c-5.043 0-9.143-4.1-9.143-9.143zm20.571.571c-3.471 0-6.285 2.815-6.285 6.286v6.857c0 3.472 2.814 6.286 6.285 6.286h4.572c3.471 0 6.286-2.814 6.286-6.286v-6.857c0-3.471-2.815-6.286-6.286-6.286zm-.571 6.286c0-.314.257-.571.571-.571h4.572c.314 0 .571.257.571.571v6.857c0 .314-.257.572-.571.572h-4.572c-.314 0-.571-.258-.571-.572zm20-6.286c-1.571 0-2.857 1.286-2.857 2.857 0 1.386.986 2.529 2.286 2.8v10.915c0 1.571 1.285 2.857 2.857 2.857 1.571 0 2.857-1.286 2.857-2.857v-13.715c0-1.571-1.286-2.857-2.857-2.857zm-21.143 28c0 1.386.986 2.529 2.286 2.8v10.915c0 1.571 1.286 2.857 2.857 2.857s2.857-1.286 2.857-2.857v-13.715c0-1.571-1.286-2.857-2.857-2.857h-2.286c-1.571 0-2.857 1.286-2.857 2.857zm13.714 3.429v6.857c0 3.471 2.815 6.286 6.286 6.286h4.572c3.471 0 6.285-2.815 6.285-6.286v-6.857c0-3.472-2.814-6.286-6.285-6.286h-4.572c-3.471 0-6.286 2.814-6.286 6.286zm6.286-.572h4.572c.314 0 .571.258.571.572v6.857c0 .314-.257.571-.571.571h-4.572c-.314 0-.571-.257-.571-.571v-6.857c0-.314.257-.572.571-.572z" fill-rule="nonzero"/></svg>