<svg viewBox="0 0 64 64" xmlns="http://www.w3.org/2000/svg"><path d="m0 40.05c.35-.22.3-.63.36-.97.6-3.34 1.74-6.38 4.02-8.83.85-.91 1.6-1.92 2.39-2.88 7.16-8.64 14.33-17.27 21.46-25.95 1.06-1.29 2.2-1.66 3.74-1.28 9.85 2.43 19.71 4.8 29.57 7.19.6.15 1.17.35 1.63.81 1.08 1.1 1.11 2.74.04 4.09-2.19 2.75-4.39 5.49-6.58 8.23-6.25 7.82-12.5 15.63-18.76 23.45l-.54.66c-.85 1.1-1.9 1.39-3.16.99-1.89-.6-3.78-1.17-5.67-1.76l-18.88-5.85c-.3-.09-.61-.19-.92-.22-2.08-.22-3.21.69-3.59 2.93-.32 1.91-.26 3.81.55 5.59.78 1.7 1.95 2.87 3.69 3.42 8.63 2.74 17.25 5.53 25.86 8.34.73.24 1.15.12 1.64-.53 7.02-9.22 14.07-18.42 21.12-27.61.37-.48.48-.92.38-1.54-.36-2.31-.21-4.57.64-6.75.43-1.11 1.48-1.77 2.51-1.64 1.13.14 1.99 1.05 2.17 2.3.08.53-.03 1.04-.18 1.54-.5 1.63-.51 3.25.02 4.87.4 1.22.08 2.25-.66 3.21-5.65 7.36-11.28 14.74-16.92 22.11-2.2 2.88-4.43 5.75-6.6 8.65-.95 1.27-2.05 1.64-3.49 1.17-9.6-3.11-19.21-6.16-28.8-9.32-2.7-.89-4.48-3.08-5.77-5.74-.48-.99-.79-2.05-1.01-3.14-.05-.24-.04-.51-.28-.65v-4.9zm29.94-29.44c-.98-.04-1.79.3-2.41 1.11-.55.72-1.12 1.41-1.65 2.14-.52.71-.38 1.31.38 1.68.63.31 1.32.42 1.99.6l16.33 4.32c1.1.29 2.19.31 3.08-.56.82-.81 1.49-1.77 2.16-2.73.36-.52.21-1.05-.3-1.38-.34-.22-.73-.33-1.12-.43l-16.7-4.41c-.59-.15-1.17-.36-1.76-.33z"/></svg>