<svg viewBox="0 0 64 64" xmlns="http://www.w3.org/2000/svg"><path d="m6.68 27.01c1.72-9.7 9.5-16.71 19.19-17.42 8.99-.65 17.86 4.52 21.27 13.73 2.01 5.45 1.78 10.9-.68 16.22-2.48 5.35-6.67 8.86-11.95 11.26 6.17 0 12.33.01 18.49.01-3.32-1.33-5.63-3.63-7.27-6.64 5.37-7.17 5.62-19.1.3-25.91-1.81-2.31-2.33-4.56-2.19-7.27.2-3.62.26-7.25.37-10.93-11.02 0-22.55-.17-34.08.04-5.7.11-10.09 5.14-10.11 10.81-.02 9.7-.02 19.4-.02 29.11 0 5.44 3.93 10 9.39 10.63 2.63.3 5.31.18 7.97.24.95.02 1.89 0 2.84 0-11.93-5.56-14.96-15.72-13.51-23.88zm57.28-16.68c-.04-5.13-4.59-9.77-9.08-9.92.09 3.1.23 6.23.25 9.36.04 8.81 0 17.61.05 26.42.02 3.06 1.46 4.55 4.34 4.55 1.7 0 2.93.6 3.94 2.64.23-1.21.49-1.93.49-2.65.03-10.14.1-20.27.01-30.4"/><path d="m37.33 30.6c-.03-5.58-4.49-9.96-10.06-9.87-5.53.1-9.76 4.44-9.74 9.99.03 5.51 4.38 9.76 9.96 9.73 5.56-.04 9.87-4.35 9.84-9.85m-10.41 25.92c-1.2-.08-2.33-.31-3.42-.18-1.78.2-2.98 1.96-2.86 3.88.13 2.05 1.65 3.63 3.59 3.73 1.92.1 3.78-1.12 3.88-2.88.17-2.69.05-5.4.05-8.61-1.8 1.34-.71 2.95-1.24 4.05zm-2.37 6.19c-1.41.16-2.56-1.1-2.57-2.64-.01-1.63.93-2.61 2.53-2.6 1.57 0 2.57 1.04 2.51 2.63-.05 1.58-.99 2.44-2.46 2.6zm-19.26-6.55c-2.22-.02-3.76 1.52-3.78 3.8-.03 2.34 1.4 3.92 3.61 3.99 2.23.06 3.93-1.63 3.93-3.93 0-2.29-1.51-3.84-3.76-3.85zm-.03 6.54c-1.37.12-2.59-1.24-2.57-2.69.01-1.6 1-2.56 2.61-2.55 1.61.02 2.43.97 2.41 2.69-.02 1.64-.97 2.42-2.45 2.55m27.51-6.27c-1.99.66-3.09 3.05-2.32 5.09s3.03 2.99 5.13 2.22c.65-.24 1.38-.26 2.47-.45-.08-1.2 0-2.69-.3-4.11-.49-2.3-2.79-3.47-4.98-2.75m1.34 6.37c-1.54.02-2.86-1.21-2.86-2.67 0-1.47 1.3-2.69 2.84-2.68 1.48.02 2.86 1.38 2.79 2.76-.07 1.34-1.38 2.57-2.77 2.58zm18.04-4.85c-.15 3.63-.77 4.83-2.57 4.8-1.79-.03-2.32-1.08-2.47-4.68-.03-.59-.29-1.16-.53-2.07-1.34 2.45-.87 5.91.68 7.16 1.35 1.09 3.33 1.09 4.73.02 1.5-1.16 1.94-4.67.63-7.13-.22.84-.45 1.37-.47 1.9m-34.83-1.01c-1.53-1.22-4.09-.99-5.32.48-1.22 1.46-1.28 5.16.25 6.39.07-1.46.09-2.67.2-3.87.17-1.92 1.22-2.77 3.02-2.46 1.54.27 2 1.38 2.02 2.76.03 1.11 0 2.21 0 3.32 1.78-1.61 1.36-5.4-.18-6.63zm44.65-.06-.45-.51c-1.86.2-3.84-.5-5.61.39.01.24.03.48.04.72 1.19.05 2.38.11 3.81.17-1.65 2.02-3.08 3.77-4.74 5.79h6.98c.03-.24.05-.48.08-.72-1.42-.15-2.83-.3-4.48-.47 1.54-1.9 2.95-3.65 4.35-5.39zm-20.87 1.17c.06-1.26.05-2.52-.01-3.78-.03-.48-.31-.95-.48-1.43-.22.07-.43.14-.64.21 0 2.64-.12 5.28.04 7.91.1 1.7 1.36 2.64 2.98 2.95.38.07.84-.27 1.27-.43.12-.2.24-.4.35-.6-3.73-.1-3.62-2.44-3.5-4.83z"/></svg>