<svg viewBox="0 0 64 64" xmlns="http://www.w3.org/2000/svg"><path d="m62.799 13.91c-1.594-2.175-4.168-2.19-5.773-.044l-.033.044-.022.029-1.576-10.11c-.333-2.15-1.539-3.864-2.691-3.828l-51.137 1.572c-1.152.036-1.814 1.806-1.481 3.956l8.519 54.641c.336 2.15 1.539 3.865 2.695 3.829l51.133-1.573c1.152-.036 1.814-1.806 1.481-3.96l-4.881-31.299 3.861-5.28-.062-.088c1.568-2.193 1.557-5.713-.033-7.889m-3.572 39.405c.227 1.481-.399 2.709-1.397 2.742l-44.27 1.514c-.998.033-1.993-1.14-2.219-2.618l-5.763-37.628c-.227-1.481.399-2.71 1.397-2.742l44.27-1.514c.998-.033 1.993 1.137 2.219 2.618l.384 2.519-16.464 22.509-2.161 11.017 8.058-2.954-.029-.04 12.629-17.262z"/></svg>