<svg viewBox="0 0 64 64" xmlns="http://www.w3.org/2000/svg"><path d="m0 39.22c.26-.11.23-.36.29-.57 1.39-5.61 5.67-9.37 11.58-10.11 1.88-.24 3.75-.05 5.55.54.53.18.83.08 1.11-.4.98-1.71 1.99-3.4 3-5.08.24-.4.28-.77.08-1.19-.39-.84-.77-1.69-1.11-2.56-.19-.49-.44-.71-1.02-.55-.6.16-1.23.19-1.86.17-.69-.03-1.14-.34-1.36-.96a4.9 4.9 0 01-.22-2.09c.05-.57.39-.82 1.09-.83 1.42-.01 2.83 0 4.25 0h5.56c.41 0 .89-.07 1.02.46s-.03 1-.53 1.31c-.63.38-1.37.48-2.06.68-.2.06-.4.11-.61.14-.44.07-.55.29-.37.68.31.68.61 1.37.9 2.06.14.32.36.45.72.45h12.75c.51 0 .65-.19.55-.67-.46-2.12-.89-4.25-1.22-6.4-.24-1.57.56-2.5 2.21-2.59 1.48-.08 2.95-.18 4.39-.56.75-.2 1.45-.47 2.09-.92.89-.63 2.05-.51 2.71.24.69.77.65 1.83-.12 2.63-.84.87-1.95 1.29-3.09 1.64-1.03.32-2.09.54-3.18.62-.55.04-.77.23-.66.8.8 4.17 1.81 8.3 3.21 12.33.27.77.28.77 1.11.53 7.41-2.13 14.99 2.05 16.87 9.29.08.31.01.7.37.92v4.1c-.24.12-.22.37-.27.58-1.37 5.36-4.83 8.69-10.38 10.01-.22.05-.47.03-.6.26h-4.25c-.26-.36-.71-.3-1.07-.39-6.92-1.71-11.22-8.26-9.82-15.01.57-2.77 1.95-5.11 4.15-6.99.49-.42.71-.8.36-1.38-.05-.09-.07-.19-.11-.28-.09-.18-.07-.47-.29-.5-.27-.04-.33.27-.44.45-2.41 3.9-4.85 7.79-7.22 11.71-.63 1.05-1.44 1.51-2.69 1.46-1.39-.06-2.79 0-4.19-.02-.48 0-.71.18-.8.64-.1.53-.24 1.06-.43 1.57-1.66 4.38-4.82 7.18-9.5 8.38-.33.08-.73.02-.95.36h-4.25c-.13-.23-.38-.21-.6-.26-5.55-1.32-9.01-4.66-10.38-10.01-.05-.21-.03-.45-.27-.58v-4.1zm41.35 2.35c-.01.4.06 1.08.22 1.74 1.23 4.96 6.34 7.97 11.38 6.71 5.14-1.28 8.11-6.3 6.65-11.25-1.37-4.67-6.61-7.48-11.43-6.13-.39.11-.79.18-.51.75 1.04 2.11 2.22 4.14 3.81 5.92.28.32.6.62.84.97.62.93.3 2.11-.68 2.66-.85.48-1.8.29-2.64-.55-1.95-1.97-3.37-4.28-4.61-6.7-.33-.64-.45-.66-.93-.09-1.38 1.65-2.1 3.54-2.1 5.96zm-27.97-9.25c-.37.02-.75.01-1.12.05-3.82.43-6.96 3.07-7.94 6.66-.99 3.61.42 7.38 3.59 9.59 3.08 2.15 7.23 2.26 10.46.25 1.91-1.19 3.2-2.84 3.89-4.94.16-.5.03-.73-.53-.71h-8.12c-1.1 0-1.81-.44-2.12-1.28-.26-.7-.04-1.34.33-1.95 1.3-2.2 2.61-4.39 3.9-6.59.36-.61.31-.72-.41-.88-.63-.13-1.27-.21-1.92-.2zm20.05-7.09h-5.43c-.75 0-.8.08-.53.71 1.51 3.48 3.03 6.96 4.55 10.44.07.16.09.39.33.39.19 0 .24-.21.32-.34 2.18-3.52 4.35-7.04 6.52-10.56.34-.55.28-.64-.39-.65h-5.37zm-5.79 14.13h.56c.64-.02.7-.12.47-.68-.15-.37-.32-.74-.48-1.11-1.36-3.13-2.72-6.26-4.09-9.38-.07-.17-.08-.45-.34-.45-.19 0-.24.25-.33.4-.48.8-.92 1.62-1.44 2.4-.34.5-.27.82.19 1.21 2.09 1.77 3.44 3.99 4.09 6.61.25 1.01.26 1.01 1.35 1.01zm-8.04 0h2.12c.49 0 .69-.16.53-.66-.44-1.39-1.19-2.6-2.23-3.65-.28-.28-.5-.32-.72.06-.73 1.24-1.46 2.48-2.2 3.71-.21.35-.11.53.31.53h2.19z"/></svg>