<svg xmlns="http://www.w3.org/2000/svg" xml:space="preserve" viewBox="0 0 64 64"><path d="M14.627 40.304h34.748c4.144 0 7.515-2.981 7.515-6.646V19.142c0-3.666-3.372-6.648-7.515-6.648H14.627c-4.143 0-7.515 2.981-7.515 6.648v14.516c-.001 3.665 3.371 6.646 7.515 6.646m-1.675-21.162c0-.208.575-.807 1.674-.807h34.748c1.099 0 1.674.599 1.674.807v14.516c0 .206-.575.807-1.674.807H14.627c-1.099 0-1.674-.601-1.674-.807V19.142zM61.362 44.5H2.638C1.181 44.5 0 46.069 0 48.003s1.181 3.503 2.638 3.503h58.725c1.457 0 2.638-1.569 2.638-3.503C64 46.069 62.819 44.5 61.362 44.5"/></svg>