<svg viewBox="0 0 64 64" xmlns="http://www.w3.org/2000/svg"><path d="m0 52.48c3.05 0 5.5.17 7.89-.07 1.05-.11 2.4-.85 2.9-1.66 1.85-3.02 3.39-6.2 5.07-9.31 2.04-3.77 4.1-7.53 6.35-11.66 3.88 7.16 7.51 13.9 11.2 20.61.43.78 1.16 1.93 1.83 1.99 2.91.22 5.84.1 9.19.1-7.51-13.95-14.74-27.36-22.22-41.25-7.48 13.88-14.74 27.38-22.21 41.25m30.24-33.47c-.31.66-.26 1.69.09 2.35 5.38 10.02 10.82 20.02 16.32 29.99.34.61 1.28 1.3 1.98 1.34 2.59.16 5.2.07 8.28.07-7.52-13.87-14.86-27.4-22.51-41.51-1.59 2.94-2.98 5.31-4.15 7.77zm23.96-5.84c-5.52-.06-10.05 3.96-10.09 8.95-.04 5 4.42 9.05 9.97 9.05 5.45 0 9.82-3.88 9.92-8.82.11-5.02-4.27-9.12-9.8-9.18m-1.99 14.54c-2.28-.06-3.95-1.75-3.82-3.86.13-1.97 1.92-3.45 4.08-3.38 2.14.07 3.88 1.69 3.87 3.62 0 2.06-1.86 3.69-4.14 3.62z"/></svg>