<svg viewBox="0 0 64 64" xmlns="http://www.w3.org/2000/svg"><path d="m24.43 64c-.88-.28-1.72-.62-2.36-1.31-.78-.84-1.05-1.83-1.06-2.92-.02-2.62-.05-5.25-.04-7.87 0-.5-.16-.61-.66-.62-1.2-.02-2.43 0-3.6-.19-1.58-.27-2.92-1.9-3.04-3.44-.04-.49-.06-.99-.06-1.48v-24.66h36.78c.01.17.04.35.04.53v24.79c0 1.83-.76 3.26-2.51 4.05-.63.29-1.4.34-2.11.41-.72.07-1.46.04-2.18 0-.45-.02-.57.12-.57.55.02 2.62 0 5.25 0 7.87 0 1.13-.3 2.14-1.1 3.01-.64.69-1.49 1.01-2.37 1.28h-1.39c-.56-.25-1.17-.42-1.67-.75-1.23-.81-1.75-2-1.74-3.42.02-2.66 0-5.31.02-7.97 0-.46-.15-.57-.61-.56q-2.16.045-4.32 0c-.5-.01-.67.11-.66.62.03 2.64 0 5.28.02 7.92 0 1.38-.46 2.55-1.66 3.36-.53.35-1.16.55-1.75.82h-1.39zm19.3-64c.34.32.34.65.11 1.05-.85 1.48-1.66 2.97-2.51 4.44-.19.33-.13.47.19.63 2.79 1.43 5 3.44 6.67 6.01 1.5 2.31 2.24 4.84 2.35 7.54.01.27-.06.43-.38.41h-35.99c-.73 0-.75 0-.71-.69.17-3.74 1.67-6.96 4.26-9.73 1.36-1.46 2.97-2.63 4.77-3.54.32-.16.38-.3.19-.63-.85-1.46-1.65-2.93-2.49-4.39-.23-.4-.3-.75.08-1.09h.53c.24.38.49.75.71 1.13.73 1.27 1.46 2.53 2.16 3.81.19.35.36.41.78.28 1.27-.42 2.55-.86 3.87-1.09 3.61-.64 7.17-.39 10.64.86 1.15.42 1.14.38 1.73-.67.82-1.45 1.67-2.88 2.51-4.32h.53zm-18.66 12.17c.01-.81-.7-1.5-1.54-1.5-.83 0-1.5.65-1.51 1.47-.01.81.66 1.49 1.47 1.51.84.02 1.56-.66 1.58-1.48m13.85 0c.02.82.75 1.49 1.58 1.46.82-.03 1.48-.71 1.46-1.52a1.5 1.5 0 00-1.52-1.46c-.84 0-1.55.71-1.53 1.52zm21.32 20.74v8.02c0 1.66-.66 2.93-2.2 3.75-2.47 1.31-5.67-.29-5.98-2.99-.03-.29-.05-.58-.05-.87v-15.79c0-1.08.26-2.06 1-2.94 1.25-1.49 3.96-1.79 5.54-.61 1.17.88 1.69 2.01 1.69 3.41-.01 2.67 0 5.35 0 8.02m-48.26.04v7.97c0 1.69-.66 3.05-2.28 3.8-2.69 1.25-5.54-.46-5.87-2.92-.06-.45-.07-.92-.07-1.38v-15.43c0-1.11.27-2.1 1.06-2.96 1.57-1.74 4.62-1.71 6.16.06.73.85 1.01 1.81 1.01 2.88v7.97z"/></svg>