<svg viewBox="0 0 64 64" xmlns="http://www.w3.org/2000/svg"><path d="m64 36.713h-6.761v-5.312c0-2.461-2.684-4.45-6.004-4.45h-45.231c-3.317 0-6.004 1.989-6.004 4.45v28.15c0 2.46 2.687 4.449 6.004 4.449h45.232c3.32 0 6.004-1.989 6.004-4.45v-11.323h6.76zm-38.931-24.303c0 6.849-5.291 12.406-11.817 12.406-6.523 0-11.81-5.557-11.81-12.406 0-6.852 5.287-12.41 11.81-12.41 6.527 0 11.817 5.558 11.817 12.41m30.388.16c0 6.848-5.291 12.406-11.817 12.406-6.523 0-11.81-5.558-11.81-12.406 0-6.852 5.287-12.406 11.81-12.406 6.526 0 11.817 5.554 11.817 12.406"/></svg>