<svg viewBox="0 0 64 64" xmlns="http://www.w3.org/2000/svg"><path d="m43.55 40.57c.03-.11.04-.41.12-.46.39-.25.38-.82.4-1.28.16-3.01.3-6.03.41-9.05.09-2.64.12-5.29.18-7.94 0-.19.07-.37.07-.55 0-1.03.04-2.06-.03-3.07-.04-.59-.46-.92-.78-.84s-.5.53-.51 1.19l-.24 14.86c-.01.75-.09 1.5-.13 2.25h-.11l-.18-.83c-.4-1.99-.74-4.02-1.21-5.96-.64-2.62-1.41-5.15-2.1-7.74-.26-.97-.42-2-.62-3.01-.12-.64-.42-.97-.79-.94-.19.02-.4.4-.54.7-.11.24-.17.58-.18.88-.06 1.48-.12 2.96-.13 4.44-.02 2.56 0 5.12 0 7.69 0 2.22-.02 4.45 0 6.67 0 .63.04 1.27.14 1.87.1.59.44.86.78.74.36-.14.53-.54.53-1.11 0-.33-.07-.67-.08-1-.05-2.2-.11-4.4-.14-6.6-.02-1.05.01-2.1.01-3.16v-6.28c.03-.02.05-.03.08-.05.06.18.13.35.17.54.74 3.15 1.47 6.3 2.2 9.45.41 1.76.84 3.52 1.23 5.29.15.67.17 1.41.32 2.08.07.34.28.65.47.85s.45.25.68.36zm-20.97-.71c.2-.69.4-1.39.51-2.13.53-3.47.75-7 .83-10.58-.12-1.81-.16-3.63-.37-5.41-.19-1.68-.67-3.22-1.68-4.05-.7-.57-1.46-1.21-2.24-.33-.32.36-.59.91-.79 1.46-.56 1.56-.72 3.31-.78 5.07-.08 2.22-.12 4.44-.08 6.66s.16 4.43.32 6.64c.15 2.01.82 3.42 2.11 3.87.27.1.29.4.32.69.13 1.21.26 2.42.37 3.63.12 1.36.29 1.64 1.16 1.77.17.03.34.02.52.02.43 0 .66-.25.71-.76.04-.48-.18-.87-.57-1.01-.09-.03-.19-.09-.27-.06-.26.06-.35-.15-.4-.51-.13-1.01-.27-2.02-.39-3.04-.06-.49-.07-.94.31-1.2.17-.12.33-.45.41-.74zm-.89-1.54c-.14.92-.6 1.04-1.08 1.07-.45.04-.69-.51-.79-1.07-.22-1.21-.46-2.45-.52-3.69-.12-2.62-.17-5.25-.18-7.87-.01-2.21.17-4.39.55-6.52.11-.62.2-1.38.69-1.48.54-.11 1.02.23 1.36.93.54 1.1.72 2.41.76 3.75.05 1.56.01 3.13.01 4.7.16 3.2-.01 6.35-.64 9.41-.05.26-.13.51-.17.78zm-20.97 1.33c.53.38.81.19.99-.69.03-.16.06-.33.08-.49.16-1.24.31-2.49.49-3.72.03-.23.22-.6.31-.59.71.12 1.41.31 2.11.51.11.03.28.27.28.43.04 1.27.06 2.54.04 3.8 0 .68.2 1.15.66 1.21.49.06.79-.33.8-1.04v-1.14c.03 0 .05 0 .08-.01-.16-2.96-.33-5.93-.49-8.9-.06-1.22-.1-2.44-.17-3.65-.15-2.74-.31-5.48-.48-8.21-.04-.71-.13-1.42-.23-2.12-.08-.53-.34-.79-.67-.84-.32-.05-.54.19-.67.63s-.28.88-.35 1.35c-.46 3.23-.92 6.47-1.36 9.71-.38 2.87-.71 5.76-1.09 8.64a62 62 0 01-.62 3.92c-.12.65-.12.93.28 1.21zm1.9-7.87c.2-1.25.45-2.48.6-3.74.29-2.45.53-4.91.8-7.37.04-.34.11-.68.17-1.01.03 0 .07 0 .1.01.11 1.21.25 2.41.31 3.62.15 2.76.26 5.53.39 8.29 0 .21.04.45 0 .63-.06.21-.19.51-.29.51-.63-.04-1.26-.13-1.89-.25-.26-.05-.24-.38-.19-.69m54.69 7.03c.59-1.59.79-3.38.83-5.18.07-3.08.06-6.17 0-9.25-.04-1.94-.33-3.81-1.02-5.47-.31-.75-.7-1.22-1.28-1.33-.4-.08-.81-.26-1.17-.53-.48-.35-.87-.36-1.15.34a10 10 0 00-.57 2.2c-.4 2.8-.46 5.66-.57 8.53.13 2.31.23 4.64.42 6.94.12 1.54.39 3.03.98 4.31.42.91.97 1.41 1.69 1.38.87-.04 1.42-.83 1.83-1.94zm-1.37-.41c-.36.71-.87.61-1.19-.15-.45-1.07-.61-2.3-.71-3.54-.15-1.84-.22-3.7-.33-5.74.16-3 .32-6.16.48-9.32.02-.44.13-.6.42-.6 1.33 0 1.96 1.03 2.01 3.17.04 2.09.17 4.17.25 6.26.11 2.82.13 5.63-.42 8.36-.11.55-.28 1.11-.51 1.55zm-5.26-1.93c.28-1.55.39-3.18.56-4.78.08-.71.17-1.42.17-2.14 0-1.35-.07-2.7-.08-4.05-.02-2.52-.58-4.6-1.84-6.16-.13-.16-.23-.37-.37-.48-.39-.34-.79-.65-1.19-.95-.27-.2-.57-.31-.82-.56-.35-.34-.65-.28-.94.13-.29.4-.39.87-.22 1.47.08.28.13.6.13.91.03 1.21.05 2.41.06 3.62v8.58h.04v7.11c0 .46.06 1.03.37 1.07.61.08 1.3.25 1.84-.08 1.06-.65 1.93-1.87 2.26-3.68zm-3.02 1.34c-.08-2.47-.17-4.95-.22-7.42-.04-2.2-.05-4.41-.04-6.61 0-1.37.07-2.73.11-4.13.64.05 1.05.56 1.36 1.22.63 1.34 1.03 2.85 1.08 4.56.05 1.48.12 2.96.15 4.44.03 1.68-.08 3.34-.39 4.95-.27 1.43-.76 2.59-1.55 3.42-.31.32-.48.2-.5-.42zm-17.57-5.99c.05-2.48.06-4.96.1-7.43.02-.95.11-1.9.13-2.85.03-1.39.06-2.79.02-4.18-.01-.62-.34-.87-.8-.76-.35.08-.45.44-.46.99-.07 5.36-.12 10.71-.25 16.07-.03 1.42-.28 2.83-.49 4.22-.2 1.3-.86 1.05-1.29.48-.21-.29-.36-.79-.44-1.24-.09-.52-.09-1.08-.11-1.63-.13-3.95-.25-7.91-.37-11.86h.06c0-1.4.01-2.8 0-4.2 0-.46-.07-.92-.17-1.36-.11-.51-.38-.97-.71-.78-.18.11-.31.74-.33 1.15-.04.67.04 1.35.05 2.03.09 4.59.15 9.19.26 13.78.03 1.32.15 2.66.33 3.96.3 2.18 2.12 3.21 3.12 1.75.39-.57.66-1.43.84-2.25.43-1.89.46-3.9.5-5.89zm29.75-12.73h.91c.03.68.07 1.31.07 1.94-.02 3.37-.07 6.74-.07 10.1 0 2.03.09 4.06.14 6.09.01.49-.04.81-.43.76-.3-.04-.68.55-.67.96.01.63.32.77.63.86.19.06.39.11.59.13.34.04.67.08 1.01.07.32-.02.65-.12.97-.17.14-.02.29.03.43-.02.37-.11.6-.58.57-1.12-.04-.61-.31-.8-.64-.85-.26-.04-.53-.04-.79 0-.32.04-.42-.18-.43-.66-.04-3.07-.1-6.14-.12-9.21-.01-2.75.03-5.51.05-8.26 0-.11.04-.22.06-.31.27.02.5.06.74.05.36-.02.59-.42.44-.9-.12-.38-.39-.79-.64-.9-.56-.23-1.14-.32-1.72-.4-.39-.06-.8-.05-1.19.01-.42.06-.7.52-.67.96.04.55.31.87.75.87zm-46.97-.01c.25 0 .51-.05.75 0 .11.03.28.27.28.42.03 1.92.03 3.85.04 5.77v12.67c-.09 0-.17.02-.25.02-.37.02-.74.5-.75.99-.01.47.28.81.71.86.18.02.36.11.54.13.32.04.65.07.97.05.31-.02.62-.13.93-.18.14-.02.29.02.44 0 .36-.07.62-.53.6-1.07-.02-.6-.28-.84-.6-.91a2.1 2.1 0 00-.75 0c-.35.04-.5-.11-.49-.74.02-1.12-.03-2.24-.04-3.36-.02-4.68-.03-9.36-.04-14.03 0-.11.03-.22.04-.26.28 0 .51-.02.75 0 .29.04.41-.25.46-.63.07-.5-.1-.89-.37-.99-.64-.25-1.28-.47-1.93-.58-.49-.08-1 0-1.49.11-.28.06-.48.4-.42.91.06.52.27.8.62.8zm22.78 20.72c.32-.1.59-.61.56-1.08-.03-.53-.26-.76-.55-.86-.13-.04-.26-.04-.4-.04-.93 0-.91 0-.92-1.49-.03-3.79-.08-7.58-.11-11.38-.01-1.84 0-3.68 0-5.57.32.03.56.11.79.05.17-.04.42-.24.45-.43.04-.29-.02-.74-.15-.95-.16-.27-.43-.48-.66-.52-.88-.15-1.76-.22-2.65-.29-.12-.01-.26.1-.38.18-.24.17-.43.49-.3.89.1.31.3.61.51.75.18.12.42.05.63 0 .42-.1.54.22.53.82-.01 2.5-.03 5-.02 7.5 0 2.58.04 5.16.06 7.74v2.81c-.12.02-.22.04-.33.04-.32.02-.72.54-.74.97-.02.41.29.81.68.88.18.03.36.09.55.12.32.04.65.11.97.09.36-.02.73-.12 1.09-.18.13-.02.27 0 .39-.04zm-27.13.78c.82-.11 1.64-.1 2.46-.14.44-.02.7-.31.73-.83.02-.53-.29-1.03-.7-1.06-.52-.04-1.03-.09-1.55-.07-.34.01-.44-.19-.42-.7.03-1.01.06-2.03.07-3.05 0-1.3-.04-2.61-.04-3.91v-6.54h.05c0-1.97-.02-3.94 0-5.91 0-.68-.24-.73-.54-.77-.33-.05-.54.13-.56.71-.04 1.06-.13 2.11-.14 3.17-.04 4.19-.05 8.39-.08 12.58-.01 1.73-.05 3.47-.07 5.2 0 .68.31 1.39.8 1.33zm4.61 1.75c-1.19-.25-2.03-.14-2.75 2.12-.14.45-.28.91-.41 1.37-.03.12-.04.28-.02.4q.135.6.3 1.17c.44 1.44 1.14 2.34 2.16 2.43 1 .08 1.68-.71 2.1-2.12.16-.55.33-1.1.48-1.61-.1-.4-.2-.74-.26-1.09-.23-1.38-.68-2.46-1.61-2.66zm.05 6.51c-.12.53-.41.8-.75.79-.33-.01-.62-.25-.75-.79-.2-.81-.24-1.63-.03-2.47.04-.17.06-.42.02-.57-.26-.83-.19-1.65 0-2.46.16-.66.47-.93.91-.86.41.06.6.49.68 1.07.12.86.17 1.72-.17 2.49.38.93.3 1.88.08 2.82zm37.89-6.49c-.95-.28-1.88-.17-2.48 1.28-.32.77-.56 1.62-.81 2.34.14.56.25 1.03.39 1.49.44 1.42 1.13 2.27 2.14 2.35 1 .08 1.68-.72 2.1-2.13.16-.55.33-1.1.48-1.62-.1-.37-.22-.72-.28-1.1-.22-1.33-.66-2.34-1.54-2.6zm-.06 6.64c-.11.31-.43.55-.68.61-.31.08-.6-.17-.74-.68-.22-.83-.24-1.67-.06-2.53.04-.21.04-.47 0-.67-.18-.89-.17-1.75.09-2.58.18-.55.5-.73.87-.67.34.06.55.4.64.91.16.91.21 1.83-.13 2.64a4.4 4.4 0 010 2.97zm-45.69-5.76c-.43.76-.69 1.79-1.01 2.7-.02.07 0 .2.02.29.09.37.19.74.3 1.1.43 1.52 1.15 2.41 2.2 2.49 1.02.08 1.69-.79 2.11-2.22.15-.52.31-1.02.45-1.49-.12-.54-.23-1.01-.33-1.48-.5-2.49-2.64-3.33-3.74-1.38zm2.24 5.66c-.13.5-.4.75-.73.73-.35-.02-.65-.25-.77-.84-.17-.82-.23-1.65 0-2.48.04-.14.04-.36 0-.5-.23-.88-.2-1.74.04-2.59.15-.54.43-.78.8-.77.37 0 .62.32.72.84.17.91.24 1.83-.12 2.72.35.96.3 1.93.06 2.88zm39.02-5.49c-.66-1.29-1.53-1.47-2.62-.56-.07-.16-.14-.33-.23-.52l-.32.46c-.56-.63-.82-.59-.94.19h.43c-.07-.2-.11-.32-.18-.49.54.34.65 2.41.25 3.49.32 1.08.24 2.14.11 3.2-.02.13-.16.23-.25.33-.02.02-.07-.02-.11-.04.06-.09.12-.16.17-.24-.13-.12-.24-.13-.35-.08-.04.02-.07.28-.05.3.09.1.21.23.3.2.21-.06.42-.2.65-.32.08.08.18.2.29.31l.28-.38c1.02.79 1.68.7 2.31-.41.26-.46.43-1.05.62-1.6.14-.4.24-.83.34-1.17-.11-.5-.21-.98-.32-1.44-.11-.42-.19-.9-.36-1.24zm-.81 5.16c-.06.57-.53.99-.9.93s-.63-.48-.63-1.18.11-1.4.16-2.1v-.35c-.05-.76-.14-1.52-.13-2.28.02-.72.35-1.1.77-1.1s.72.4.76 1.12c.05.81.14 1.65-.21 2.37.35.82.28 1.72.18 2.58zm-7.67-5.7c-.74-.81-1.49-.84-2.24-.04-.11-.16-.2-.31-.31-.47-.11.16-.2.31-.24.37-.25-.16-.47-.29-.74-.46.2.34.42.55.43.79.04.99.19 2.03-.17 2.96.34 1.02.24 2.09.11 3.15-.02.16-.19.28-.29.41v-.49c-.13.05-.25.11-.44.19.39.55.44.55 1.09 0 .17.61.37.33.57-.03 0 .07.01.14.02.22.41.11.82.36 1.21.3.84-.13 1.3-1.1 1.62-2.25.14-.5.27-1 .39-1.44-.12-.53-.26-1.03-.33-1.56-.1-.7-.34-1.24-.7-1.64zm-.43 5.48c0 .64-.44 1.17-.86 1.17-.37 0-.7-.45-.71-1.14-.01-.78.07-1.57.12-2.57-.28-.64-.19-1.59-.04-2.51.09-.58.47-.88.85-.79.34.08.65.54.65 1.12-.01.74-.1 1.48-.16 2.23 0 .09-.03.22 0 .28.31.7.16 1.48.15 2.22zm-3.92-5.28c.08-.08.17-.16.25-.24-.06-.14-.12-.37-.2-.39-.14-.04-.33-.02-.44.11-.19.21-.3.15-.49 0-.11-.08-.25-.05-.38-.02.11.04.25.05.3.16.11.25.21.56.21.86.03 1.48.02 2.97.02 4.45 0 .07-.03.13-.05.2-.04.01-.07.03-.11.04-.26-.82-.51-1.64-.77-2.46-.04-.12-.11-.21-.16-.32-.31-.72-.65-1.41-.92-2.17-.11-.31-.02-.7.33-.76-.02.2-.04.34-.06.49.04.01.08.03.12.04.02-.16.09-.39.06-.46-.34-.55-.58.04-.87.26-.23-.7-.45-.39-.65.02-.16-.16-.3-.4-.46-.42-.19-.03-.38.12-.57.19.02.12.02.28.06.35.04.06.14.01.25.01-.08-.16-.12-.26-.19-.39.28-.2.44-.03.53.33.05.21.07.46.07.68 0 1.5.02 3.01 0 4.51 0 .33-.06.69-.16.96-.08.22-.27.34-.41.51-.04-.08-.08-.16-.12-.23.09-.03.17-.07.26-.1l-.12-.24c-.1.09-.19.18-.29.28.09.12.19.35.25.33.44-.15.86-.21 1.29.05.05.03.14-.02.18-.09.05-.09.07-.23.11-.35l-.27-.15v.46c-.12-.08-.3-.1-.36-.25-.12-.31-.23-.68-.24-1.04-.03-1.31-.01-2.63-.01-3.94 0-.09.03-.18.07-.42.29.93.8 1.49.8 2.5 0 .1.12.19.17.3.33.7.68 1.39.98 2.12.05.13-.08.45-.12.69-.07-.14-.14-.29-.24-.49-.04.12-.1.27-.15.41.1.08.21.25.3.23.23-.05.45-.19.67-.3 0 .03 0 .06-.01.09h.67c.52.36.77.35 1.04-.3-.15-.02-.26-.04-.38-.06v.4s-.06.05-.1.07c-.09-.3-.24-.59-.24-.89-.02-1.67-.02-3.35 0-5.02 0-.53.11-1.01.5-1.15.03-.01.07.02.12.04-.05.15-.1.27-.14.4.02.04.04.07.06.11z"/><path d="m32.44 42.53s.03 0 .05-.01c-.01 0-.03 0-.04-.01v.02zm-.14.36c.06.08.16.07.24.09.01 0 .03-.05.07-.11-.07-.07-.13-.14-.2-.2 0-.05.02-.09.03-.14-.04.01-.08.02-.11.03-.02 0-.06.29-.03.33m-17.09-.05c.11.07.23.14.34.21.02-.05.03-.1.05-.14l-.12-.36c.03-.04.06-.07.09-.11-.04 0-.08-.03-.11-.03-.08 0-.17.28-.25.43"/><path d="m19.38 47.43c0-.66-.17-1.12-.55-1.31-.26-.13-.54-.13-.82-.17-.21-.02-.43 0-.71 0 .15-.32.23-.5.32-.68-.02-.02-.03-.04-.05-.06-.16.21-.31.41-.48.64-.26-1.36-.1-2.94.28-3.29.07.15.13.3.2.46.05-.11.09-.21.14-.32-.11-.11-.22-.27-.35-.31-.09-.03-.2.09-.29.17s-.17.19-.29.33c-.17-.6-.38-.56-.53-.2-.24-.09-.44-.17-.64-.22.1.22.26.43.29.67.1.91.18 1.84-.07 2.74-.03.1-.04.25 0 .34.28.83.17 1.69.09 2.54-.04.41-.17.82-.51.78v-.44c-.08.04-.18.04-.24.13-.03.05-.02.3.02.33.1.08.23.17.33.13.24-.09.46-.24.7-.38.09.11.18.23.28.37.11-.12.22-.23.3-.32.14.11.26.21.32.26-.03-1.02-.07-2.01-.08-3.01 0-.16.1-.45.18-.48.48-.15 1.1.06 1.09 1.19 0 .77-.05 1.53-.09 2.36.1-.08.22-.19.35-.3v.11h.63s0-.07-.01-.1l.51.3c-.4-.69-.3-1.49-.29-2.24zm-3.81-4.99h.03s-.01-.02-.01-.03l-.02.02zm48.25-.06c-.6.64-1.38-.64-2.03.37q-.33-.46-.69.1c-.56-1.11-1.29.07-1.84-.4-.04.48-.07.89-.09 1.31-.01.29-.03.61.02.88.03.18.19.29.3.42-.08-.32-.21-.58-.18-.79.09-.75.36-1.32.82-1.59.34-.21.65-.03.71.46.11.97.18 1.96-.1 2.93.4 1.07.22 3.3-.28 3.43.03-.11.05-.22.08-.34-.06-.02-.13-.08-.18-.05s-.12.2-.11.22c.05.12.14.31.2.3.25-.04.49-.15.78-.25.17.48.39.23.53.01.3.13.54.23.73.31-.14-.32-.35-.59-.37-.89-.05-.75-.03-1.52-.02-2.28 0-.21.11-.42.1-.62-.02-.84-.1-1.67-.08-2.5 0-.26.2-.65.35-.73.63-.32 1.44.87 1.33 1.91-.01.12-.08.22-.12.33a.4.4 0 00-.07-.06l.06-.48c-.04-.01-.08-.03-.12-.04-.02.18-.07.36-.05.52 0 .08.17.21.21.18.09-.1.19-.26.2-.41.03-.29.02-.59 0-.88-.02-.41-.05-.82-.08-1.32zm-59.83 4.53c.03.1.07.16.07.23.1 1.29-.92 2.62-1.68 2.13-.18-.11-.39-.53-.4-.81-.02-.74.07-1.49.12-2.24v-.3c-.04-.81-.11-1.62-.11-2.42 0-.45.13-.87.46-.98.03 0 .06.05.19.16-.13.07-.22.12-.31.16.03.07.06.15.09.22.11-.08.21-.16.32-.25-.09-.15-.18-.42-.26-.41-.26.05-.52.2-.82.33-.16-.44-.38-.42-.54-.05-.23-.1-.42-.2-.61-.25.12.29.27.53.26.76 0 .92-.07 1.83-.11 2.75 0 .1 0 .2.01.3.03.81.09 1.63.08 2.44 0 .38-.11.79-.36.82-.09-.2-.15-.33-.22-.46-.07.08-.13.17-.2.25.08.12.18.35.25.34.28-.04.55-.16.89-.28.1.2.28.46.52.01.03-.06.18.02.27.05.24.09.48.27.72.26.48-.01.96-.13 1.37-.19.04-.35.1-.73.13-1.12s.06-.8.02-1.19c-.01-.1-.09-.19-.17-.27zm-3.83-4.11c.05.07.11.14.16.22l.16-.6c-.02 0-.03-.01-.05-.02-.09 0-.18.26-.27.4m3.83 4.11"/><path d="m.48 42.41s.03.01.05.02c-.01-.03-.02-.05-.03-.08 0 .02-.01.04-.02.06m3.36 4.34c-.07.21-.13.41-.2.62.05.03.1.07.15.1.06-.17.13-.35.2-.56-.05-.05-.11-.1-.15-.16m23.34-.74c-.18-.88-.41-1.73-.59-2.61-.08-.39 0-.75.28-.91.04.18.07.33.1.48l.3-.23c-.43-.77-.74-.11-1.08.08-.2-.33-.41-.67-.61-.14-.22-.14-.41-.26-.59-.38.41.46.46.69.3 1.49-.03.16-.07.32-.1.48-.23 1.04-.46 2.09-.71 3.13-.17.75-.37 1.49-.52 2.13.16.02.4.06.62.09-.35-.51-.28-1.59.25-2.83.22.41.42.77.6 1.1.22-.34.44-.66.73-1.09.15 1.07.56 1.85.18 2.94.25-.2.4-.32.56-.45.2.26.41.63.63.04.14.12.27.23.4.33-.14-.56-.29-1.06-.39-1.59-.13-.68-.21-1.38-.35-2.06zm-1.26.75c-.14.28-.29.54-.46.85-.19-.35-.37-.68-.53-1.03a.7.7 0 01-.04-.41c.17-.82.35-1.63.52-2.45.04 0 .08-.01.11-.02.18.86.37 1.71.53 2.57.02.13-.06.35-.12.48zm32.63 2.33c-.06.07-.08.26-.11.4-.03.02-.07.04-.1.06-.08-.34-.23-.69-.22-1.02.01-.81.1-1.61.16-2.42 0-.06.02-.13 0-.18-.32-.8-.13-1.7-.16-2.55-.02-.41.06-.8.41-.89-.02.18-.04.33-.08.63.15-.15.27-.2.29-.31.02-.09-.06-.36-.08-.36-.27.03-.53.09-.88.16-.13-.32-.36-.37-.55.15-.22-.15-.4-.33-.6-.4-.11-.04-.25.07-.36.17-.03.03-.03.32 0 .34.12.08.25.1.47.18-.11-.28-.15-.4-.2-.52.31.14.41.28.39.83-.03.85-.1 1.7-.15 2.55 0 .08.01.16.02.24.04.85.11 1.71.12 2.56 0 .33-.07.72-.32.75-.09-.19-.14-.31-.2-.44-.06.09-.12.19-.18.28.08.11.18.32.25.31.25-.06.49-.2.77-.33.18.39.39.43.61-.04.53.51.69.5 1-.08-.11-.04-.23-.14-.28-.09zm-38.84-6.7c-.4.14-.79.5-1.19-.04-.03-.04-.22.2-.32.34-.02.02.05.2.09.3.1-.09.21-.18.39-.35.18 1.27-.71 1.51-.94 2.41.78-.77 1.2-2.23 2.14-2.49.04.06.07.13.11.19-.09.03-.18.06-.27.1.04.07.08.14.11.21.08-.1.17-.2.25-.3-.12-.14-.27-.43-.37-.39z"/></svg>