<svg viewBox="0 0 64 64" xmlns="http://www.w3.org/2000/svg"><path d="m40.54 32.01c.11 10.96-8.89 20.28-20.36 20.24-11.12-.04-20.64-9.17-20.16-21.14.41-10.48 9.02-19.42 20.43-19.36 11.24.06 20.2 9.26 20.09 20.26m-20.3 16.74c9.36 0 16.92-7.47 16.88-16.76-.04-9.54-7.72-16.52-16.32-16.77-9.58-.28-17.36 7.41-17.35 16.77 0 9.4 7.72 16.85 16.79 16.76"/><path d="m55.34 30.38c1.48.43 2.88.88 4.12 1.72 2.87 1.95 4.44 4.6 4.53 8.1.09 3.31-1.05 6.14-3.47 8.39-2.44 2.27-5.46 3.25-8.73 3.55-4.05.38-7.91-.3-11.57-2.11-.6-.3-.75-.59-.48-1.22.38-.9.69-1.83.98-2.76.17-.55.32-.52.82-.27 3.83 1.94 7.83 2.89 12.05 1.49 2.95-.98 4.64-3.16 4.87-6.24.21-2.87-.86-5.21-3.41-6.78-1.67-1.02-3.49-1.47-5.42-1.63-1.2-.1-2.39-.1-3.59-.08-.54 0-.68-.19-.66-.69.03-.85.04-1.7 0-2.55-.03-.55.14-.74.71-.72 1.62.05 3.24.02 4.84-.31 2-.42 3.73-1.31 5.05-2.93 1.93-2.36 1.67-7.6-2.96-8.88-2.72-.76-5.36-.36-7.92.75-.8.35-1.58.72-2.31 1.22-.34.23-.47.13-.59-.26-.29-.93-.62-1.85-1-2.75-.24-.56-.03-.85.41-1.09 2.54-1.39 5.24-2.26 8.14-2.5 2.81-.23 5.51.08 8.03 1.41 2.73 1.44 4.31 3.73 4.64 6.78.45 4.13-1.36 7.13-4.84 9.25-.7.42-1.49.65-2.25 1.12zm-24.05-7.57c4.34 4.39 4.76 13.29-.02 18.47-.09-1.04-.44-1.93-1.1-2.67-1.43-1.61-3.9-1.84-5.69-.49-.39.29-.66.3-1.06.09-3.37-1.7-6.74-3.38-10.12-5.05-.43-.21-.65-.47-.66-.96 0-.52.2-.81.67-1.04 3.38-1.67 6.75-3.36 10.12-5.05.32-.16.58-.26.93.02 2.8 2.25 6.94.29 6.87-3.28 0-.01.04-.03.06-.04m-25.34 5.99c1.6-8.61 11.73-14.1 20.28-9.97-1.4.4-2.44 1.15-3 2.46-.22.52-.39 1.06-.34 1.62.06.58-.21.86-.7 1.1-3.31 1.63-6.61 3.29-9.91 4.93-.32.16-.63.4-1.02.07-1.59-1.3-3.28-1.32-5.03-.33-.08.05-.17.07-.28.12m19.88 16.61c-3.65 1.42-7.11 1.58-10.59.3-4.58-1.67-7.61-4.84-9.08-9.49-.05-.17-.22-.36-.04-.51s.35.04.5.12c1.64.83 3.18.63 4.61-.49.3-.23.55-.22.88-.05 3.42 1.71 6.84 3.42 10.26 5.12.27.14.52.28.51.63-.08 2.07.9 3.47 2.95 4.37"/></svg>