<svg viewBox="0 0 64 64" xmlns="http://www.w3.org/2000/svg"><path d="m4.8 40.89c-.09-.76.09-1.46.44-2.12.31-.6.67-1.17 1-1.75-.44-.32-.9-.63-1.32-.98-.62-.51-1.13-1.11-1.39-1.88-.06-.18-.21-.36-.37-.47-.44-.29-.9-.54-1.41-.83-.14.19-.31.4-.45.63-.59.94-.95 1.94-.71 3.07.02.09-.06.23-.13.31-.66.76-.59 1.83.36 2.35.13.07.26.22.3.35.32 1.42 1.34 2.26 2.51 3.03 0-.1-.01-.17.02-.2.33-.39.67-.76 1-1.15.08-.1.16-.24.15-.35zm-4.27-12.42c0 .05.01.11.02.16.15.98.55 1.84 1.22 2.55.51-.3.98-.57 1.43-.86.1-.06.19-.17.23-.27.27-.69.65-1.32 1.23-1.81.51-.43 1.06-.83 1.61-1.25-.2-.29-.44-.57-.62-.9-.51-.91-1.03-1.83-.85-2.94.01-.09-.05-.2-.11-.28-.35-.44-.71-.87-1.16-1.41-.39.35-.78.73-1.2 1.06-.62.48-.94 1.11-1.17 1.82-.06.2-.23.42-.41.54-.63.42-.97 1.11-.6 1.74.35.61.4 1.21.38 1.86zm33.64-25.15c.88.23 1.54.78 2.1 1.44.35.42.66.87.99 1.32h.08c.17-.11.34-.23.51-.34 1.04-.65 2.13-1.2 3.43-1.04.07 0 .17-.01.22-.06.46-.34.91-.7 1.39-1.07 0 0 0-.06-.03-.1-.55-.91-1.24-1.68-2.25-2.12-.35-.15-.83-.25-1-.53-.52-.84-1.47-1.11-2.44-.42-.1.07-.25.1-.37.09-1.43-.18-2.65.27-3.7 1.12.28.52.54 1.02.82 1.52a.5.5 0 00.24.19zm-4.49 57.3c-.35-.12-.73-.29-.98-.54-.67-.67-1.29-1.39-1.97-2.14-.07.05-.22.14-.37.23-1.07.69-2.19 1.25-3.53 1.13-.1-.01-.23.05-.32.12q-.66.48-1.32.99c.62 1.17 1.55 2.07 2.92 2.49.16.05.34.17.44.31.55.83 1.46 1.01 2.27.46.15-.1.37-.13.56-.15.53-.04 1.07 0 1.58-.1.79-.15 1.47-.57 2.07-1.02-.28-.48-.55-.89-.77-1.33a.9.9 0 00-.56-.46zm29.61-36.98c.02.05.01.14-.01.2-.23.62-.43 1.26-.72 1.86-.22.46-.55.88-.84 1.33.11.07.19.13.28.19 1.02.66 1.97 1.41 2.42 2.57.14.38.4.56.72.74.35.2.69.42 1.09.67.85-1.03 1.39-2.16 1.25-3.54a1 1 0 01.18-.62c.58-.82.42-1.62-.44-2.15-.16-.1-.29-.3-.38-.48-.2-.4-.35-.83-.56-1.23-.06-.11-.25-.16-.3-.28-.35-.69-1.01-1.01-1.6-1.4-.23.32-.42.6-.64.85-.34.38-.67.73-.46 1.29zm4.17 12.75c.12-1.36-.37-2.5-1.23-3.51-.4.24-.75.52-1.14.67-.37.15-.56.42-.67.73-.28.78-.82 1.34-1.45 1.84-.41.32-.84.61-1.28.93.1.14.18.24.26.35.78 1.05 1.34 2.18 1.26 3.54 0 .09.05.2.12.28.33.44.67.86 1.03 1.32 1.48-.88 1.93-1.43 2.48-2.94.05-.15.2-.28.34-.37.87-.53 1.04-1.42.46-2.23a.94.94 0 01-.16-.61zm-22.19 22.89c-.92.11-1.76-.16-2.55-.57-.49-.25-.95-.55-1.43-.83-.04.05-.08.1-.11.14l-.15.24c-.72 1.07-1.53 2.05-2.85 2.46-.1.03-.19.15-.24.24-.26.46-.51.93-.82 1.48.19.1.44.2.66.35.93.67 1.97.84 3.09.71.14-.02.32.05.44.14.85.59 1.7.47 2.24-.37.17-.27.38-.39.66-.47 1.32-.38 2.11-1.33 2.72-2.39-.45-.35-.86-.67-1.28-.98-.11-.08-.27-.16-.39-.15zm-18.38-54.58c.68-.04 1.33.04 1.94.34.65.33 1.29.68 1.96 1.03.16-.24.33-.49.5-.73.65-.93 1.4-1.72 2.55-2.05.09-.03.17-.15.23-.25.21-.34.38-.71.62-1.03.2-.28.19-.47-.09-.67-1.02-.72-2.15-.99-3.39-.87a.7.7 0 01-.43-.11c-.67-.5-1.7-.57-2.23.3-.18.29-.41.42-.72.52-1.3.4-2.11 1.32-2.73 2.38.47.36.88.69 1.31.99.13.09.32.14.48.13zm35.45 39.72c-.19.05-.42.12-.54.26a5.96 5.96 0 01-2.3 1.53c-.39.14-.8.24-1.22.37.01.09.01.18.04.27.29.95.32 1.92.01 2.84-.23.69-.39 1.34-.09 2.04.09.22.04.49.06.73 2.3-.32 4.16-1.64 5.13-3.73.7-1.51.85-3.11.31-4.68-.51.13-.96.23-1.39.36zm-3.99-27.49c-.04.18-.07.35-.12.56 1.51.22 2.71.92 3.71 1.99.04.05.13.07.21.09.5.11 1 .21 1.58.33.22-.53.29-1.15.29-1.79 0-1.33-.32-2.57-1.07-3.67-1.04-1.52-2.49-2.46-4.32-2.86-.25-.05-.37-.01-.41.27-.07.45-.2.9-.3 1.35-.01.07.02.15.05.22.52 1.13.67 2.3.38 3.51m-47.28 1.58s.09-.07.14-.09c.81-.37 1.61-.75 2.49-1.15 0-.03 0-.15-.03-.26-.28-1.27-.2-2.49.37-3.67.04-.09.03-.21.01-.31-.09-.44-.18-.88-.3-1.31-.02-.09-.2-.23-.26-.22-.56.16-1.13.3-1.66.54-2.02.94-3.24 2.5-3.73 4.64a5.77 5.77 0 00.18 3.22c1.04-.27 2.1-.5 2.79-1.39m5.29-8.16c.29.07.51.05.77-.07.71-.32 1.46-.51 2.25-.48.53.02 1.06.05 1.61.08.02-.03.04-.05.04-.08.21-1.23.69-2.33 1.53-3.29.16-.18.49-.26.43-.67-.05-.33.09-.71.23-1.04.12-.29.09-.41-.22-.42-.74-.03-1.49-.12-2.23-.06-1.42.11-2.64.72-3.67 1.65-1.17 1.06-1.82 2.4-2.13 3.9-.02.1 0 .21 0 .3.49.05.96.07 1.4.17zm-2.65 39.68c-.15-1.05-.29-2.11.01-3.17.07-.26-.09-.32-.3-.36-1.25-.26-2.3-.84-3.17-1.77-.1-.1-.22-.21-.35-.24-.52-.14-1.05-.24-1.58-.36-1.29 3.53 1.22 7.87 5.41 8.34.04-.31.02-.65.13-.94.18-.52.39-.99-.14-1.43-.01-.01 0-.05 0-.08zm9.13 7.67c-.96-.9-1.52-2-1.72-3.28-.04-.26-.12-.33-.4-.28-1.31.27-2.57.1-3.77-.47-.09-.04-.18-.1-.26-.08-.54.09-1.08.2-1.72.33.35 2.07 1.31 3.8 3.21 4.92 1.61.95 3.35 1.17 5.12.75-.11-.58-.21-1.1-.32-1.61-.02-.1-.07-.2-.15-.27zm26.49-51.3c.93.86 1.46 1.94 1.66 3.17.06.31.16.44.51.37 1.26-.26 2.46-.05 3.62.48.08.04.18.1.26.09.57-.09 1.13-.19 1.7-.29-.24-3.82-4.21-6.79-8.17-5.71.08.57.14 1.09.23 1.61.02.1.11.21.19.29zm7.22 47.27c-.32-.04-.63-.11-.95-.15-.17-.02-.37-.05-.51.01-.98.44-1.99.71-3.08.59-.32-.04-.64-.09-.94-.13-.03.05-.05.07-.06.09-.14 1.4-.72 2.59-1.75 3.56-.06.05-.12.13-.13.2-.09.55-.16 1.09-.24 1.65 4.14 1.1 8.08-2.2 8.13-5.81-.16 0-.32.02-.48 0zm-10.85-2.25c-.09-.06-.19-.18-.26-.17-.44.07-.93.07-1.3.28-.61.34-1.12.75-1.04 1.64.08.85-.18 1.69-.98 2.33.13.12.23.23.35.31.68.46 1.48.57 2.26.75.21.05.44.14.6.27.49.42.94.88 1.43 1.31.28.24.49.15.51-.22.03-.57 0-1.14.05-1.71.03-.29.13-.58.26-.84.28-.52.65-1.01.91-1.54.13-.27.13-.6.18-.86-.46-.09-.89-.08-1.21-.27-.62-.37-1.18-.84-1.77-1.27zm-35.8-8.44c.4.06.81.11 1.21.09.7-.04 1.35.01 1.89.53.15.14.35.25.55.33.48.2.94.47 1.44.41.09-.45.08-.86.26-1.15.4-.64.9-1.22 1.35-1.83.06-.08.13-.21.1-.3-.18-.6-.18-1.25-.69-1.74-.19-.19-.33-.31-.62-.34-1.08-.09-2.19-.1-3.02-1.02-.1.1-.22.17-.29.27-.44.66-.67 1.4-.75 2.17-.03.37-.2.6-.45.84-.41.39-.81.79-1.17 1.22-.23.26-.16.45.18.5zm53.18-11.76c-.51-.2-1-.4-1.23-.95-.11-.24-.28-.46-.45-.66-.37-.42-.73-.86-1.31-1-.13.23-.21.41-.32.57-.37.57-.94.93-1.54 1.2-.57.26-1.1.51-1.06 1.25 0 .04-.04.08-.03.11.06.48.11.96.17 1.44 0 .03.05.06.09.08.26.13.53.24.78.38.78.43 1.56.87 1.88 1.83.19-.08.37-.14.51-.24.67-.49 1.13-1.17 1.57-1.84.07-.11.2-.21.33-.27.6-.27 1.21-.53 1.81-.81.11-.05.26-.19.25-.27-.02-.12-.15-.25-.26-.31-.38-.19-.78-.37-1.18-.53zm-6.22-10.46c-.27.52-.59 1.01-.95 1.48-.31.39-.77.71-.44 1.3.03.07.02.16.02.24 0 .56.5.83.75 1.25.08.14.47.1.72.13.98.12 1.99.16 2.72 1.05.13-.15.26-.28.37-.43.45-.67.55-1.44.72-2.19.04-.2.16-.42.31-.58.28-.32.62-.59.92-.9.21-.22.38-.48.6-.77-.22-.08-.37-.16-.51-.17-.56-.03-1.12-.01-1.67-.05-.26-.02-.53-.08-.75-.2-.36-.19-.66-.47-1.02-.65-.51-.27-1.03-.52-1.61-.44-.06.36-.03.69-.16.94zm3.48 22.21c.57.04 1.14 0 1.71-.05.4-.03.48-.16.24-.46-.38-.46-.84-.87-1.22-1.33-.18-.21-.31-.48-.4-.75-.19-.59-.31-1.19-.5-1.77-.1-.29-.26-.59-.63-.68-.39.5-.91.72-1.51.81-.5.07-1 .11-1.49.19-.15.02-.36.06-.43.17-.28.46-.69.84-.73 1.47-.04.47-.02.82.35 1.13.05.04.1.09.15.14.57.71 1.13 1.42 1.06 2.48.35-.07.68-.09.95-.21.5-.23.99-.5 1.45-.79.32-.2.59-.37 1-.34zm-22.78 15.09c.58-.5 1.21-.94 1.76-1.47.31-.3.23-.45-.15-.64-.07-.03-.15-.08-.21-.12-.64-.46-1.05-1.09-1.38-1.79-.16-.34-.25-.75-.8-.67-.17.02-.36-.11-.54-.16a.7.7 0 00-.31-.04q-1.14.26-1.66 1.31s-.03.07-.05.11c-.41.65-.82 1.3-1.67 1.5.01.08.02.14.04.2.03.09.08.17.13.25.42.67 1.07 1.09 1.74 1.47.33.19.52.43.64.79.16.48.35.95.59 1.4.23.43.46.43.67 0 .26-.52.47-1.07.73-1.6.1-.2.28-.37.45-.52zm-16.04-9.94c.04-.14.04-.33-.03-.44-.34-.5-.65-.99-1.25-1.31-.37-.19-.58-.17-.91-.05-.98.35-1.97.64-3.05.12-.06.23-.17.43-.16.63.04.7.13 1.4.19 2.1.02.25.03.53-.05.76-.18.57-.44 1.12-.63 1.69-.12.39.02.52.4.41.42-.12.84-.25 1.22-.45.49-.25.96-.41 1.51-.2.23.08.48.09.72.12.61.08 1.22.15 1.82-.19-.33-.58-.4-1.16-.22-1.76.14-.47.3-.94.43-1.41zm4.96 8.95c.26-.28.53-.45.92-.52.56-.1 1.12-.25 1.65-.44.31-.11.57-.33.84-.48-.27-.42-.56-.72-.67-1.07-.18-.56-.23-1.15-.34-1.72-.05-.29.14-.64-.29-.83-.31-.13-.54-.45-.85-.53-1.06-.3-1.06-.26-1.91.43-.59.47-1.18.96-2 .98-.44.01-.54.09-.38.49.26.63.57 1.26.93 1.84.21.34.38.64.36 1.06-.03.53-.02 1.07.03 1.59.03.42.22.5.55.24.41-.33.81-.67 1.17-1.05zm-13.98-22.55c.6-.41 1.22-.78 1.85-1.14.21-.12.29-.26.35-.48.16-.59.22-1.16 0-1.73v-.04c-.1-.14-.18-.33-.31-.41-.43-.27-.92-.45-1.33-.75-.37-.27-.72-.62-.97-.99-.26-.39-.35-.49-.7-.14-.49.49-.91 1.06-1.38 1.58-.21.23-.43.48-.7.62-.51.27-1.07.46-1.6.7-.12.05-.27.19-.27.29 0 .11.15.24.26.31.34.17.68.34 1.04.46.64.21 1.19.52 1.47 1.16.07.17.2.32.32.46.38.43.73.89 1.38 1.06 0-.15-.04-.28 0-.34.17-.22.34-.45.57-.61zm12.79-22.83c.36.26.69.56 1.05.83.08.06.21.13.3.11.59-.09 1.23-.05 1.68-.55.04-.05.11-.08.18-.11.26-.09.31-.28.32-.53.05-1.09.11-2.19 1.07-3.04-.24-.16-.43-.36-.66-.44-.62-.2-1.24-.39-1.87-.53-.34-.07-.6-.18-.84-.43-.35-.38-.72-.72-1.12-1.06-.14-.12-.35-.16-.53-.24-.07.18-.19.36-.19.55-.03.54 0 1.09-.03 1.64 0 .18-.03.38-.12.53-.2.34-.45.66-.66 1-.3.49-.59.99-.51 1.67.76-.13 1.36.18 1.92.58zm25.92 5.63q.91.6 1.97.27c.1-.04.21-.08.31-.1.73-.14 1.47-.31 2.23.13.32-.64.3-1.28.15-1.95-.12-.58-.39-1.16-.02-1.78.27-.45.42-.98.61-1.48.04-.1.01-.22.02-.35-.71-.09-1.25.25-1.83.47-.28.11-.59.24-.88.23-.5-.02-.99-.16-1.49-.23-.53-.07-1.06-.1-1.5.23.07.23.17.44.21.66.13.76-.11 1.48-.36 2.19-.18.53.11 1.4.57 1.71zm-34.93.15c.55-.05 1-.18 1.44-.12.64.08 1.26.3 1.89.45.13.03.32.07.41 0 .49-.36 1.06-.6 1.36-1.2.17-.33.23-.54.1-.89-.33-.95-.75-1.92-.15-2.99-.19-.07-.34-.17-.48-.16-.72.03-1.44.04-2.14.15-.44.06-.81.05-1.21-.14-.47-.23-.98-.39-1.48-.57-.28-.1-.43 0-.38.31.03.16.04.32.1.47.2.51.41 1.01.61 1.53.04.11.04.25.03.37-.08.51-.22 1.02-.24 1.54-.02.46-.11.96.15 1.27zm31.38-8.86c-.14-.27-.26-.58-.29-.88-.05-.52 0-1.04-.03-1.56 0-.15-.1-.29-.15-.44-.15.06-.34.09-.46.19-.44.38-.83.8-1.28 1.18-.18.15-.42.26-.66.33-.65.2-1.31.34-1.95.56-.25.08-.44.31-.59.42.25.39.53.68.62 1.02.17.67.23 1.36.35 2.04.03.15.06.37.18.44.51.3.96.67 1.62.74.43.05.66-.03.97-.29.76-.64 1.48-1.36 2.71-1.24-.04-.31 0-.61-.12-.83-.28-.57-.64-1.11-.94-1.68zm8.07 37.92c-.56.05-1.03.14-1.49.13-.37-.01-.78-.08-1.11-.23-.66-.31-1.19-.29-1.8.15-.47.34-.57.85-.9 1.24-.02.03.01.1.03.15.07.24.15.49.24.72.32.86.46 1.71.01 2.6.11.04.21.08.31.11.81.22 1.59.04 2.38-.12.35-.07.65-.07.98.08.5.23 1.03.41 1.56.6.12.04.33.05.4-.01.07-.07.07-.27.03-.39-.18-.52-.42-1.01-.58-1.53-.09-.28-.13-.59-.1-.88.05-.54.18-1.08.23-1.62.03-.37.01-.77-.18-.99zm-44.14-25.41c-.57.04-1.14 0-1.71.03-.36.02-.45.2-.22.47.37.44.77.86 1.19 1.26.23.22.4.44.45.77.08.51.2 1.02.38 1.51.14.37.39.7.54.96.52-.28.88-.57 1.29-.68.64-.16 1.31-.2 1.96-.31.14-.02.33-.05.38-.14.3-.52.79-.96.72-1.63 0-.08.06-.16.06-.23-.01-.14-.02-.3-.1-.4-.25-.31-.58-.57-.78-.91-.29-.49-.55-1.01-.69-1.55-.12-.45-.16-.6-.63-.4-.69.3-1.34.69-2.01 1.01-.26.12-.54.23-.82.26zm21.28-13.88c-.18.16-.26.41-.38.63.95.35 1.16.56 1.93 1.92.03-.04.06-.07.06-.07.08.22.16.46.26.69.03.06.1.15.16.15.59 0 1.13.34 1.78.12.44-.14.72-.3.88-.69.04-.11.1-.22.16-.33.44-.73.85-1.51 1.85-1.78-.1-.21-.16-.43-.29-.57-.29-.31-.6-.62-.95-.86-.62-.44-1.33-.79-1.49-1.63-.02-.12-.07-.23-.12-.34-.19-.36-.38-.71-.62-1.14-.56.65-.84 1.3-1 2-.02.08 0 .2-.06.24-.23.17-.49.31-.72.49-.48.38-.98.76-1.43 1.17zm8.2 5.93c-.32-.42-.86-.81-1.35-.95-.08-.03-.2-.04-.25 0-.4.27-.78.55-1.21.86.98.59 2.02.82 3.22.61-.17-.21-.29-.36-.41-.52m-25.14 14.61c-.17.59-.07 1.1.38 1.54.15.14.24.35.39.58.64-1 .82-2.03.62-3.18-.23.19-.4.34-.59.46-.21.13-.44.22-.64.35-.08.05-.13.16-.16.25m17.33-15.08c-.43-.42-.91-.54-1.48-.36-.09.03-.22.02-.25.08-.29.42-.56.86-.84 1.31 1.13.15 2.17-.01 3.2-.66-.26-.15-.48-.22-.63-.37m20.15 30.32a.5.5 0 00.07-.31c-.07-.44-.16-.88-.25-1.35-.85.39-1.85 1.86-1.76 2.65.26-.08.53-.25.78-.23.63.06.91-.34 1.17-.76zm-7.86 5.84c.25.03.44.05.62.08.2.04.4.09.59.13.14.03.32.1.42.05.28-.15.65-.31.75-.56.19-.45.22-.96.32-1.52-1.13.3-2.02.85-2.71 1.82zm-6.75 2.59c.47.45.98.63 1.61.37.09-.04.22-.06.26-.13.26-.37.5-.75.74-1.13-.78-.31-2.53 0-3.13.6.18.1.38.16.52.29m8.41-36.31a.63.63 0 00-.4-.1c-.44.07-.87.18-1.35.29.68.93 1.57 1.5 2.7 1.75.01-.07.02-.1.01-.12-.05-.18-.11-.36-.16-.54-.06-.2-.65-1.19-.81-1.29zm6.06 6.88c.11-.46.31-.92-.2-1.28-.06-.04-.05-.15-.1-.22s-.13-.14-.21-.15c-.46-.08-.92-.15-1.38-.22.02.86 1.04 2.34 1.78 2.57.03-.23.05-.47.11-.7m-37.29 14.4c.18.26.57.37.87.56.14.1.26.22.45.38.16-1.17.06-2.22-.6-3.17-.31.45-.61.87-.89 1.28.05.32 0 .71.18.94zm14.67 14.02c.3.47.56.88.83 1.29.03.05.14.06.22.07.28.05.55.1.81.14.43-.27.85-.55 1.34-.86-.99-.65-2.05-.72-3.2-.64m-4.85-35.23c-.45-.17-.86-.24-1.22.18-.1.12-.34.16-.37.28-.11.46-.16.93-.23 1.44 1.12-.24 1.97-.8 2.67-1.75-.34-.05-.61-.06-.84-.14zm-6.82 26.14c-.11.49-.22.98-.32 1.45.15.21.3.43.46.64.07.09.15.2.25.23.44.11.89.19 1.34.28.13-.65-1.11-2.5-1.72-2.59zm37.1-6.34c-.24-.19-.36-.51-.55-.8-.65.91-.93 2.55-.54 3.06.37-.23.73-.45 1.09-.68.06-.03.15-.1.14-.12-.11-.48.44-.99-.14-1.46m-32.22 12.09c.08.27.19.5.21.75.03.46.1.86.62 1.03.16.05.31.24.44.22.46-.07.91-.2 1.37-.31-.35-.76-1.83-1.72-2.65-1.69zm32.08-17.96c.26-.34.54-.65.26-1.12-.08-.14 0-.4-.11-.48-.38-.29-.8-.52-1.25-.8-.19 1.16.03 2.17.64 3.16.17-.29.29-.55.45-.77zm-36.48-8.7c-.32.17-.52.58-.76.89-.01.01.01.05.02.07.12.44.23.87.36 1.37.92-.68 1.5-1.54 1.78-2.62-.51.09-1.01.08-1.39.28z"/></svg>