<svg viewBox="0 0 64 64" xmlns="http://www.w3.org/2000/svg"><path d="m28.56 58.02c-16.08.27-28.9-12.8-28.56-28.43.33-14.78 12.53-27.17 28.07-27.18 15.61-.01 28.19 12.52 28.06 28.08-.13 15.31-12.58 27.29-27.57 27.53m6.04-46.74c-.02-3.61-2.93-6.49-6.56-6.48-3.6 0-6.54 2.95-6.52 6.53.02 3.56 3.01 6.49 6.6 6.46 3.58-.03 6.49-2.96 6.47-6.51zm-16.81 10c0-3.51-2.94-6.49-6.42-6.49-3.73 0-6.69 2.88-6.68 6.51.01 3.54 2.94 6.45 6.52 6.48 3.56.03 6.58-2.95 6.58-6.5m16.81 27.89c.02-3.56-2.88-6.5-6.44-6.53-3.66-.03-6.61 2.85-6.63 6.48-.02 3.51 2.88 6.45 6.41 6.49 3.69.04 6.63-2.8 6.66-6.44m-22.46-1.98c3.62.01 6.6-2.9 6.6-6.45 0-3.57-2.94-6.51-6.54-6.54-3.55-.02-6.58 2.98-6.58 6.51 0 3.52 2.97 6.47 6.52 6.48m31.84-20.99c3.63-.01 6.54-2.96 6.52-6.6-.02-3.47-2.99-6.37-6.54-6.37-3.65 0-6.56 2.92-6.54 6.57.01 3.53 2.98 6.42 6.56 6.41zm.86 19.42c3.63.02 6.59-2.85 6.63-6.43.05-3.52-2.96-6.53-6.54-6.54-3.57-.01-6.55 2.89-6.59 6.41-.03 3.58 2.89 6.54 6.49 6.56zm-13.15-15.38c.02-2-1.57-3.6-3.58-3.62-1.98-.02-3.63 1.55-3.65 3.48-.03 2.05 1.55 3.67 3.58 3.68 2.03 0 3.63-1.55 3.65-3.54"/><path d="m56.61 15.09c2.12 0 4.19 0 6.27.02.14 0 .35.31.39.5.62 3.63.84 7.3.69 10.98-.26 6.35-1.73 12.37-4.95 17.9-4.2 7.23-10.35 12.25-17.92 15.63-1.36.61-2.77 1.08-4.21 1.48 1.22-.65 2.45-1.27 3.65-1.96 5.89-3.39 10.71-7.86 13.95-13.9 2.67-4.98 3.91-10.34 4.07-15.96.14-4.86-.47-9.63-1.88-14.29-.03-.1-.03-.22-.06-.39z"/></svg>