<svg viewBox="0 0 64 64" xmlns="http://www.w3.org/2000/svg"><path d="m0 47.16c.29-.35.35-.85.67-1.2.29-.32.43-.32.69.04 1.46 1.97 3.18 3.61 5.06 5.02 2.63 1.97 5.48 3.32 8.56 4.02.51.12.69.28.46.92-.42 1.16-1.18 1.65-2.4 1.36-3.67-.86-6.99-2.55-9.85-5.37-.94-.92-1.81-1.89-2.61-2.97-.28-.38-.3-.89-.59-1.24v-.58zm29.65-19.66c-.13 1.17-.77 2.08-1.25 3.06-1.36 2.75-2.77 5.47-4.16 8.21-1.75 3.44-3.49 6.89-5.23 10.34-.36.71-.7 1.43-1.07 2.13-.72 1.35-1.57 1.79-2.89 1.44-4.65-1.23-8.64-3.78-11.82-7.88-.91-1.18-.92-2.37-.12-3.92 1.82-3.51 3.61-7.03 5.41-10.55 1.72-3.38 3.44-6.76 5.15-10.14.35-.69.7-1.38 1.03-2.08.16-.34.3-.36.51-.08 3.87 5.02 8.7 8.13 14.44 9.47m2.12-14.23c1.81.2 3.62.4 5.44.59 3.9.4 7.8.8 11.71 1.18 3.38.32 6.76.6 10.14.9 1.48.13 2.95.31 4.43.4.56.03.59.24.41.72-.66 1.75-1.31 3.5-1.96 5.25-1.02 2.75-2.03 5.5-3.06 8.25-1.02 2.73-2.04 5.45-3.06 8.18-.8 2.15-1.61 4.3-2.41 6.45-.07.19-.09.48-.3.49-.17.01-.23-.25-.33-.4l-9.32-14.03c-3.5-5.28-6.99-10.56-10.49-15.83-.45-.67-.93-1.31-1.33-2.03l.13-.13zm.02 9.32c0 .46-.02.92-.16 1.36-.25.81-.96 1.25-1.71 1.11-3.58-.67-6.81-2.26-9.65-4.81-1.28-1.15-2.54-2.36-3.28-4.09-.52-1.22-.42-1.69.6-2.45.44-.33.89-.66 1.36-.92.45-.25.93-.84 1.37-.61.7.35 1.46.75 1.93 1.49 1.71 2.7 4.01 4.21 6.9 4.62 1.44.2 2.41 1.96 2.62 3.59.03.24.02.48.04.73zm-2.98-6.82c-.93.01-1.53-.6-2.19-1.01-.82-.5-1.59-1.1-2.4-1.62-.26-.17-.34-.31-.17-.61.78-1.43 1.35-3.01 2.29-4.33.23-.32.46-.64.72-.92.72-.79.67-.95 1.8-.24 1 .63 1.93 1.38 2.9 2.07.35.25.38.48.09.82-.39.45-.75.88-1.32 1.08-1.25.44-1.52 1.1-1.1 2.52.13.44.19.88.15 1.35-.05.65-.4.85-.77.89"/><path d="m31.64 13.4c-.04-.07-.07-.13-.11-.2.1-.07.18-.04.24.07z"/></svg>