<svg viewBox="0 0 64 64" xmlns="http://www.w3.org/2000/svg"><path d="m55.89 56.99v-.03c-.05-.48-.19-.92-.43-1.35 0 0 0-.02-.01-.02l-4.15-7.2a27.93 27.93 0 008.74-20.34c0-15.5-12.55-28.05-28.04-28.05s-28.04 12.55-28.04 28.04c0 7.92 3.29 15.08 8.57 20.18l-4.25 7.36s0 .02-.01.02a3.5 3.5 0 00-.43 1.35v.04l-.35 4.68c-.08.77.28 1.52.96 1.97.34.22.73.34 1.13.34s.83-.13 1.19-.37l3.91-2.64s.05-.03.07-.05c.38-.29.69-.62.92-.98.01-.02.02-.03.03-.05l3.88-6.72c3.74 1.85 7.96 2.89 12.42 2.89s8.54-1.01 12.24-2.81l3.81 6.58c.25.44.61.82 1.04 1.1l3.88 2.65h.01c.35.23.76.36 1.18.36.33 0 .67-.08.97-.23.06-.03.12-.07.18-.1.62-.41.97-1.07.97-1.81v-.13l-.38-4.69zm-5.89 2.57s-.05-.03-.07-.05a1.7 1.7 0 01-.33-.32c-.02-.03-.04-.05-.05-.08-.02-.03-.03-.05-.05-.08l-3.78-6.53-3.21-5.55-.42-.72s.09-.05.14-.08.11-.06.16-.09c.04-.02.09-.05.13-.08.06-.03.11-.07.17-.1.03-.02.07-.04.1-.06.06-.04.13-.08.19-.12 0 0 .02-.01.03-.02 1.2-.75 2.31-1.62 3.33-2.6l.43.74 3.27 5.68 3.98 6.9s.03.06.05.09c.04.08.07.15.1.23.02.06.04.13.05.19 0 .03.01.07.02.1s0 .07.01.1l.38 4.69c0 .18-.08.33-.23.43-.03.01-.06.03-.09.03a.6.6 0 01-.14.02c-.09 0-.18-.03-.26-.08l-3.91-2.66zm-40.15 2.69s-.04.03-.07.04-.04.02-.07.03c-.01 0-.02 0-.03.01-.02 0-.05 0-.07.01h-.03c-.03 0-.07 0-.1-.01h-.02c-.03-.01-.06-.02-.09-.04a.3.3 0 01-.06-.05l-.04-.04s-.05-.06-.07-.09l-.03-.06c0-.02-.02-.04-.02-.07v-.31l.36-4.53c0-.07.02-.14.03-.21 0-.02.01-.04.02-.07 0-.03.02-.06.03-.09.04-.12.09-.23.15-.35l4.07-7.05 6.87-11.9 4.49-7.77 3.83 3.83-4.3 7.46c.36.2.73.38 1.11.55.08.04.16.07.23.1.1.04.2.08.3.13.14.06.28.11.43.16.1.04.19.07.29.1.17.06.34.11.52.17l.29.09c.07.02.15.04.23.06.15.04.3.08.45.11s.31.07.46.1c.31.06.62.11.94.15.63.08 1.27.13 1.93.13.73 0 1.46-.05 2.16-.15.16-.02.31-.05.47-.08s.31-.06.46-.09a13.8 13.8 0 002.45-.75c.05-.02.11-.04.16-.07.09-.04.18-.07.27-.11.14-.06.28-.13.42-.19.03-.01.05-.03.08-.04.11-.05.22-.11.33-.17.01 0 .03-.01.04-.02.12-.06.24-.13.37-.2.1-.05.2-.11.29-.16.29-.17.57-.35.85-.53.28-.19.54-.38.81-.59.17-.14.35-.28.51-.42.17-.14.33-.29.49-.44s.32-.31.48-.46c.06-.06.12-.12.17-.18.09-.09.17-.18.26-.27l.25-.28s.01-.01.01-.02c.07-.08.13-.15.19-.23.03-.04.06-.07.09-.11.05-.06.09-.12.14-.18s.09-.12.14-.18c.04-.05.08-.1.12-.16.04-.05.08-.1.11-.16.1-.14.2-.29.3-.43.02-.04.05-.07.07-.11.12-.18.23-.37.35-.55.11-.19.22-.38.32-.57.21-.38.4-.78.57-1.18.13-.3.25-.61.36-.92l.21-.63q.195-.63.33-1.29.075-.33.12-.66c.02-.11.03-.22.05-.33.03-.22.06-.45.08-.67.04-.45.06-.91.06-1.37l5.2.03c0 .35 0 .71-.03 1.05 0 .17-.02.35-.03.52s-.03.35-.05.52a23.567 23.567 0 01-.32 2.03c-.05.25-.11.5-.17.74-.02.08-.04.16-.06.25-.06.25-.13.49-.21.73l-.15.48c-.11.32-.22.63-.34.95-.04.1-.08.19-.12.29-.12.29-.24.58-.37.86-.45.98-.98 1.92-1.58 2.81-.06.08-.11.17-.17.25-.12.17-.23.33-.36.49-.08.1-.15.2-.23.3-.15.2-.31.4-.48.59-.08.1-.16.19-.25.29-.19.22-.39.44-.59.65-.1.11-.2.21-.3.31l-.3.3c-.46.45-.94.88-1.45 1.28-.07.06-.14.12-.22.17-.19.15-.39.3-.59.45-.18.13-.36.25-.54.38-.18.12-.37.24-.56.36s-.38.23-.57.34c-.1.06-.19.11-.29.16-.12.07-.24.13-.36.2s-.25.13-.37.19c-.03.01-.06.03-.08.04-.22.11-.44.22-.67.32-.06.03-.12.06-.18.08-.1.04-.19.08-.29.12-.14.06-.29.12-.44.18s-.29.11-.44.17c-.25.09-.49.18-.75.26-.25.08-.5.16-.76.23-.71.2-1.44.37-2.19.49-.21.04-.43.07-.64.1s-.43.05-.65.07c-.65.06-1.31.1-1.97.1a19 19 0 01-2.3-.13c-.22-.03-.43-.05-.64-.09-.21-.03-.43-.07-.64-.11s-.42-.08-.63-.13c-.31-.07-.62-.14-.93-.22l-.54-.15c-.12-.04-.25-.07-.37-.11-.2-.06-.4-.13-.6-.2-.26-.09-.51-.19-.77-.29-.08-.03-.16-.06-.24-.1-.21-.09-.41-.17-.61-.27l-.39-.18c-.1-.05-.19-.09-.29-.14a18 18 0 01-.85-.45l-3.98 6.9-2.1 3.63-1.76 3.04c-.04.06-.08.12-.13.18l-.02.02c-.02.03-.05.05-.07.08-.03.03-.05.06-.08.08-.04.04-.08.08-.13.11-.02.02-.05.04-.07.06l-1.95 1.32-1.95 1.32zm14.23-35.18v-6.62c0-1.6 1.32-2.92 2.92-2.92h1.65v-5.23h6.47v5.23h1.62c1.62 0 2.92 1.32 2.94 2.94v6.6h-.03c0 .19-.09.44-.32.71-.04.05-.09.1-.14.15l-.44.44-.29.29-4.42 4.42-.3.3-.4.4c-.07.07-.14.14-.22.2-.35.27-.79.41-1.23.41l-.03-.03v.03c-.42 0-.86-.14-1.22-.42a2 2 0 01-.22-.19l-.4-.4-.3-.3-4.42-4.42-.29-.29-.44-.44c-.05-.05-.1-.1-.14-.15-.23-.26-.34-.5-.31-.71h-.03zm14.59 13.2-.41-.72-.74-1.29-2.73-4.73 3.83-3.83 3.7 6.39.45.77c-.07.08-.13.16-.2.24-.43.49-.88.95-1.35 1.37-.79.7-1.63 1.3-2.53 1.79z"/><path d="m31.86 27.9h.03c2.13-.03 3.88-1.75 3.88-3.91s-1.75-3.88-3.88-3.91l-.03-.05v.05c-2.13 0-3.88 1.75-3.88 3.91s1.75 3.91 3.88 3.91"/></svg>