<svg viewBox="0 0 64 64" xmlns="http://www.w3.org/2000/svg"><path d="m5.44 18.58c-.39-.1-.83-.06-1.2-.25h-.39c-.16.08-.32.11-.48.1.14 0 .29-.03.43-.1h-1.14c-.04.12-.14.08-.23.1-.77.14-1.47.39-2.13.81-.23.12-.31.29-.31.54.02 2.54.02 5.09 0 7.63 0 .31.14.37.37.31.21-.06.6.25.6-.31 0-.64.1-1.28.31-1.9.33-.97 1.06-1.59 2.03-1.7 1.1-.12 2.09.33 2.71 1.28.95 1.47 1.03 3.16.81 4.82-.25 1.8-1.28 3.27-2.38 4.67-.41.52-.99.77-1.63.89-.72.14-1.45.04-2.15-.08-.21-.04-.39-.08-.39.27.02 1.74 0 3.5 0 5.23 0 .25.06.31.31.31 1.03 0 2.07-.06 3.08-.27 1.41-.27 2.65-.95 3.7-1.86 1.86-1.61 3.35-3.5 3.87-5.98.21-.97.39-1.97.56-2.96.43-2.46.19-4.84-.97-7.05-1.16-2.19-2.79-3.93-5.38-4.51zm58.48-.23c-.08.1-.21.08-.33.08h-4.03c-.12 0-.25.04-.33-.08h-.19c0 .12-.1.17-.17.25-1.41 1.55-2.81 3.08-4.24 4.61-.21.21-.29.41-.29.7v6.08c0 .1-.04.21.06.33 1.28-1.41 2.54-2.79 3.89-4.26v14.75c0 .31.06.41.39.41 1.59-.02 3.21-.02 4.82 0 .35 0 .41-.1.41-.43.02-7.49.04-14.98.08-22.46-.04 0-.06 0-.08.02z"/><path d="m63.57 18.42c.12 0 .25.04.33-.08h-4.7c.08.1.21.08.33.08h4.03zm-9.69 10.21c-.02-1.08-.02-2.13 0-3.21 0-.35-.08-.48-.48-.48h-7.72q-.77 0-.83.74s-.04.02-.1.06c-.29-.58-.93-.56-1.43-.77-1.34-.54-2.71-.6-4.05.08-1.94.97-2.63 2.73-2.9 4.7-.29 1.97-.08 3.91.17 5.85.17 1.22.43 2.42 1.18 3.45.62.85 1.3 1.57 2.42 1.82 1.61.37 3.04-.12 4.47-.79.14-.06.25-.14.25-.33v-3.91c-.46.5-.97.83-1.49 1.16-.66.41-1.37.56-2.03.08-.6-.41-1.1-1.01-1.24-1.76-.23-1.2-.12-2.42-.04-3.64.06-.68.25-1.34.66-1.92.99-1.39 1.7-1.45 2.92-.27.33.33.62.7.97 1.16v-4.53c0-.12-.08-.31.14-.31s.12.19.12.29c.02.91.02 1.8 0 2.71 0 .31.1.39.39.37.52-.02 1.05.02 1.57-.02.43-.02.56.08.56.54-.02 3.58 0 7.18-.02 10.78 0 .39.04.56.5.54 1.01-.04 2.05-.04 3.06 0 .39 0 .46-.12.46-.48-.02-3.72 0-7.43-.02-11.15 0-.33.06-.43.41-.41.58.04 1.14 0 1.72.02.33 0 .37-.1.37-.39zm-16.69 12.1c-.06-.39-.12-.77-.19-1.16-.79-4.8-1.59-9.58-2.38-14.38 0-.1-.04-.17-.14-.14 0 .05.02.09.04.11a.2.2 0 01-.06-.07c-1.78 0-3.54 0-5.32-.02-.27 0-.35.1-.37.33-.04.31-.1.62-.15.93-.23 1.43-.45 2.88-.68 4.3 0 .05-.02.09-.03.14.04-.01.08-.03.1-.05 0 .04-.04.06-.12.09-.02.12-.02.23-.04.35v.01c-.06.1-.07.21-.05.34.05-.02.09-.04.12-.07-.03.03-.07.06-.14.09-.21.95-.37 1.9-.48 2.87l.01.02c-.04.07-.07.14-.05.23.04 0 .07-.02.09-.04-.02.02-.06.04-.11.06-.12.66-.25 1.32-.35 1.99-.23 1.32-.43 2.67-.66 3.99-.02.21-.06.35.27.35 1.22-.02 2.44 0 3.66 0 .23 0 .31-.08.33-.31.1-.87.27-1.74.35-2.63.04-.46.14-.72.68-.62.23.04.5.04.72 0 .37-.06.45.12.5.43.12.93.25 1.88.37 2.81.02.21.1.31.33.31h3.48c.23 0 .29-.06.25-.29zm-5.42-7.43c-.48.12-.46-.1-.43-.46.1-.77.17-1.55.27-2.32.02-.12-.04-.35.19-.33.17 0 .12.21.14.33.1.77.17 1.51.27 2.28.06.39.04.62-.43.5zm-4.71-3.61c-.04-.62-.17-1.24-.45-1.82-.93-1.86-2.32-3.02-4.53-2.96-1.3.04-2.63.04-3.93.02-.33 0-.46.06-.46.43.02 2.52.02 5.05.02 7.57s0 5.13-.02 7.65c0 .31.06.43.39.41 1.22-.04 2.44.02 3.66.06 2.34.08 3.95-1.12 4.65-3.35.83-2.63.87-5.32.66-8.03zm-3.97 6.02c-.1.58-.37 1.12-.93 1.43-.56.29-.7.21-.7-.39v-7.67c-.02-.43.14-.48.5-.39.7.17 1.28.68 1.37 1.39.25 1.9.14 3.79-.23 5.65zm-9.77 5.31c1.1-.02 2.19-.02 3.29 0 .31 0 .39-.06.39-.39v-7.67c0-2.54 0-5.11.02-7.63 0-.33-.06-.46-.43-.46-1.08.02-2.13.02-3.21 0-.35-.02-.43.08-.43.41v15.37c0 .29.06.37.37.37m-7.94-11.72c.02-1.01-.83-1.86-1.84-1.88-1.01 0-1.88.81-1.9 1.82-.02 1.05.83 1.9 1.86 1.92 1.01.02 1.88-.83 1.88-1.86m15.2 14.62c.48-.19.7-.48.66-.93-.04-.48-.31-.77-.85-.81s-1.08-.02-1.61-.04c-.19 0-.23.08-.23.25v2.94c0 .19.04.25.23.25s.23-.08.23-.25v-.99c0-.12-.02-.27.17-.27.37 0 .77-.04 1.01.33.21.27.41.54.56.83.17.33.37.43.77.31-.33-.52-.6-1.06-1.12-1.53.08-.04.12-.06.19-.08zm-1.01-.25c-.1-.04-.43.14-.5-.04-.1-.27-.04-.62-.02-.93 0-.08.08-.1.17-.1.35 0 .72 0 1.08.02.31.02.5.19.5.52 0 .31-.21.5-.5.54-.21.02-.41 0-.72 0zm9.04-1.43c-.46-.06-.89 0-1.34-.04-.27-.02-.31.08-.31.33.02.43 0 .89 0 1.34 0 .12-.02.27 0 .41.12.43-.29 1.06.21 1.28.39.19.95.04 1.43 0 .37-.04.68-.23.87-.56.41-.72.39-1.47.02-2.19-.19-.33-.48-.52-.87-.58zm.66 2.11c-.1.52-.39.77-.93.81-.08.02-.14.02-.23.02q-.68.02-.68-.64v-.68c0-.14-.04-.29.02-.41.08-.27-.29-.74.23-.83.99-.14 1.45.12 1.59.81q.09.465 0 .93zm-14.38-1.8c0-.14.12-.37-.21-.37-.33.02-.23.25-.23.39v2.09s-.06.02-.1.04c-.52-.79-1.03-1.53-1.53-2.32-.12-.19-.27-.21-.46-.19-.23.02-.14.23-.14.35v2.71c0 .14-.06.33.23.33s.21-.21.21-.35v-2.13c.17 0 .19.1.23.17.48.7.97 1.41 1.43 2.13.12.19.27.21.46.19.25-.04.12-.25.12-.37q.03-1.335 0-2.67zm17.77 2.63h-1.03c-.81 0-.79 0-.79-.81 0-.25.06-.35.33-.33.41.02.85 0 1.26 0 .14 0 .29.02.29-.19 0-.23-.12-.23-.29-.23-.41 0-.81-.02-1.22 0-.27 0-.39-.06-.35-.35.02-.1.02-.23 0-.35-.04-.25.04-.35.31-.33.46.02.93 0 1.39 0 .14 0 .29 0 .29-.23-.02-.21-.17-.19-.29-.19-.62 0-1.26.02-1.88 0-.21 0-.29.06-.29.29v1.39c0 .48 0 .95-.02 1.45 0 .14-.02.29.23.29.68-.02 1.39 0 2.07 0 .12 0 .25-.02.25-.19.02-.19-.08-.23-.25-.23zm4.53.02c-.35.02-.68 0-1.03 0q-.85 0-.83-.85c0-.27.1-.29.31-.29h1.3c.14 0 .27-.02.27-.21 0-.21-.12-.21-.27-.21h-.91c-.74 0-.72 0-.72-.74 0-.25.08-.29.31-.29.45.02.93 0 1.39 0 .14 0 .29.04.29-.21s-.17-.21-.31-.21c-.6 0-1.2.02-1.8 0-.25 0-.37.04-.35.31.02.46 0 .93 0 1.39s0 .95.06 1.45c0 .17 0 .27.21.27h2.11c.14 0 .21-.04.21-.21s-.08-.21-.23-.21zm-25.75-.02h-1.03q-.83 0-.81-.83c0-.23.04-.33.29-.31.43.02.87 0 1.3 0 .14 0 .27-.02.27-.21s-.1-.21-.27-.21c-.39 0-.79-.04-1.18 0-.37.04-.5-.08-.43-.43.02-.08.02-.19 0-.27-.04-.25.06-.35.31-.33.45.02.93 0 1.39 0 .12 0 .29.04.29-.19 0-.21-.12-.23-.29-.23h-1.88c-.21 0-.29.06-.29.29v1.39c0 .48 0 .95.04 1.45 0 .17 0 .29.23.29h2.07c.12 0 .25 0 .25-.19s-.08-.23-.25-.23zm12.04-3.04c-.99 0-1.61.66-1.63 1.74-.02 1.01.64 1.74 1.57 1.76.95.02 1.66-.7 1.66-1.74s-.64-1.76-1.59-1.76zm-.17 3.08c-.62-.06-1.01-.6-1.01-1.32.02-.89.56-1.47 1.28-1.37.66.08 1.1.72 1.01 1.51-.08.81-.56 1.24-1.28 1.18m30.43-3.08c-1.03-.02-1.68.66-1.7 1.78-.02.97.66 1.7 1.59 1.72.95.02 1.61-.66 1.63-1.7.02-1.05-.6-1.78-1.53-1.8zm1.03 2.15c-.12.62-.62.97-1.24.93s-1.01-.56-1.01-1.3c0-1.03.68-1.63 1.51-1.34.58.23.91.95.74 1.72zm2.76-.6c-.31-.08-.6-.17-.91-.25-.21-.06-.35-.21-.33-.43 0-.21.14-.33.35-.41.5-.19.91-.06 1.2.43.1.21.25.14.37.1.19-.04.04-.21.02-.29-.17-.46-.58-.7-1.2-.7-.66 0-1.12.31-1.18.77-.06.52.21.83.91 1.03.29.08.56.17.83.25.21.08.37.21.37.46 0 .27-.17.39-.39.5-.54.23-1.16.02-1.39-.52-.1-.23-.23-.14-.35-.12-.21.02-.08.17-.06.27.14.6.77.93 1.59.83.62-.06 1.01-.43 1.05-.93.02-.46-.29-.81-.89-.97zm-17.69.09c-.35-.1-.72-.21-1.08-.31-.21-.06-.33-.19-.33-.41s.12-.35.33-.43c.5-.19.95-.04 1.2.43.1.21.25.12.37.1.21-.04.06-.19.04-.29-.14-.48-.56-.72-1.18-.72-.68 0-1.14.29-1.18.79-.1.54.17.85.91 1.05.27.08.54.17.81.25.21.06.35.21.35.46s-.14.39-.35.48c-.56.23-1.14.04-1.41-.5-.1-.21-.21-.21-.35-.17-.23.04-.1.21-.06.31.21.7 1.1 1.01 1.92.72.43-.14.7-.43.7-.89s-.27-.74-.7-.87zm9.68-1.43c-.14-.06-.31-.1-.48-.12-.37-.02-.77 0-1.16-.04-.35-.04-.5.08-.43.43 0 .08.02.19.02.27.12 0 .27 0 .41-.04.04-.1-.04-.25.14-.29.52-.14 1.3.06 1.53.39.31.46.27 1.49-.06 1.88-.21.25-1.16.46-1.49.31-.1-.04-.1-.12-.1-.21 0-.21-.02-.41-.02-.62v-1.43h-.41c-.04.45-.04.88 0 1.32q-.12 1.41 1.24 1.37c.08-.02.14-.02.23-.02.68-.06 1.14-.48 1.26-1.14.17-.93-.08-1.76-.68-2.07zm-3.04-.19c-.25 0-.27.12-.27.31.02.62.02 1.22 0 1.84-.02.64-.27.89-.87.89s-.83-.27-.85-.91v-1.88c0-.17-.04-.25-.23-.25s-.25.06-.25.23c.02.74-.02 1.49.04 2.21.06.7.56 1.05 1.39 1.03.7-.02 1.16-.41 1.22-1.08.02-.35 0-.68 0-1.03.02-.33.02-.68 0-1.06 0-.12.06-.31-.19-.31zm-38.1 2.3c-.19-.08-.27-.04-.35.17-.14.37-.43.6-.87.6-.7.02-1.12-.46-1.12-1.32v-.19c.04-.66.27-.99.77-1.16.48-.17.77-.06 1.18.52.14.19.27.08.39.04.17-.06.04-.21 0-.29-.27-.58-.99-.85-1.7-.64-1.06.33-1.49 1.78-.81 2.81.33.52.85.66 1.41.62.54-.04.95-.29 1.16-.81.04-.12.19-.25-.06-.35m34.98-2.28h-2.25c-.17 0-.23.06-.23.21s.06.21.21.21c.19 0 .39.02.58 0 .23-.02.33.04.31.29-.02.39 0 .79 0 1.18 0 .41.02.81 0 1.22 0 .19.02.31.27.31s.21-.17.21-.31v-1.84q0-.79.81-.83h.08c.12 0 .23-.04.23-.21s-.06-.23-.21-.23zm-25.55-.02h-2.15c-.17 0-.27.04-.27.25 0 .23.17.17.29.19.29.04.6-.12.85.1v2.67s0 .08-.02.12c.27.19.43.17.43-.23-.02-.6-.02-1.18 0-1.76 0-.31-.14-.68.06-.87.17-.14.52-.06.79-.06.14 0 .27-.02.27-.21s-.08-.21-.25-.21zm33.57 1.72c0-.43 0-.85-.02-1.26 0-.17.14-.41-.21-.43-.35 0-.23.25-.23.41v2.61c0 .17-.08.37.23.39.31 0 .23-.21.23-.37v-1.34z"/></svg>