<svg viewBox="0 0 64 64" xmlns="http://www.w3.org/2000/svg"><path d="m61.64 10.8c-3.54-.06-7.08-.16-10.62-.17-2.32 0-4.63.13-6.95.15-3.27.03-6.54.02-9.8.03-.35 0-.7-.1-.82.55-.46 2.53-.96 5.05-1.47 7.73h17.11c-1.63 2.4-3.17 4.55-4.6 6.81-1.62 2.57-3.29 5.13-4.66 7.9-1.31 2.64-2.31 5.52-3.34 8.36-1.18 3.27-1.87 6.73-2.39 10.33.18.01.26.03.33.02 4.28-.8 8.56-1.6 12.83-2.39.47-.09.55-.42.59-.91.33-4.79 1.88-9.05 3.81-13.15 2.84-6.05 6.52-11.27 10.45-16.24.63-.8.98-1.65 1.08-2.72.03-.38.09-.75.14-1.12.22-1.73.45-3.46.67-5.19h-2.36zm-37.61 1.18c-2.23.42-4.45.89-6.69 1.25-.76.12-1.11.48-1.18 1.43-.35 4.92-2.01 9.26-4.02 13.4-2.76 5.66-6.26 10.61-9.96 15.34-.81 1.04-1.24 2.17-1.38 3.55-.04.44-.1.87-.16 1.31-.21 1.44-.42 2.89-.65 4.44h5.46c0-.99-.09-1.86.02-2.69.33-2.57 2.03-4.53 4.41-5.07 1.14-.26 2.3-.35 3.5-.52-.03-.5-.04-1-.09-1.5-.08-.92-.63-1.22-1.24-1.2-.57.02-1.17.17-1.71.41-.76.34-1.46.86-2.21 1.23-.24.12-.72.14-.8-.01-.63-1.25-1.18-2.55-1.77-3.87 1.9-1.36 3.87-2.45 6.03-2.66 2.53-.25 5.05-.15 6.77 2.79 6.02-8.25 10.22-17.57 11.5-28.74-1.99.38-3.92.73-5.84 1.1zm-3.87 32.35c-.33 0-.65.07-.97.17-.13.04-.32.25-.32.39-.04 2.27-.08 4.54-.08 6.81 0 .65.31 1.01.89 1.01 3.44 0 6.87 0 10.3-.02.22 0 .59-.33.64-.59.5-2.52.96-5.07 1.46-7.75-.41-.04-.66-.09-.91-.09-3.67.02-7.35.04-11.02.08z"/><ellipse cx="12.77" cy="50.04" rx="3.7" ry="3.33"/></svg>