<svg viewBox="0 0 64 64" xmlns="http://www.w3.org/2000/svg"><path d="m1.55 64c-1.12 0-1.73-.73-1.5-1.8.28-1.31.64-2.6.98-3.89.7-2.67 1.43-5.32 2.1-8 .17-.67.46-1.21.94-1.69 3.15-3.14 6.3-6.3 9.44-9.44 10.77-10.77 21.53-21.54 32.3-32.31q.77-.77 1.53-.02c3.29 3.29 6.57 6.59 9.88 9.87.51.51.53.81 0 1.34-13.96 13.94-27.91 27.9-41.85 41.86-.42.42-.89.73-1.47.89-3.92 1.02-7.83 2.05-11.74 3.07-.24.06-.49.1-.62.13zm4.36-4.04.15-.03c2.05-.54 4.1-1.07 6.15-1.61.5-.13.44-.38.13-.69-2-2-4-3.99-6-6-.33-.33-.56-.3-.68.17l-1.59 6.08c-.09.34-.05.57.36.67.53.13.87.5 1.01 1.02.07.24.16.43.46.38zm58.09-48.95c0 .26-.16.4-.3.54-1.14 1.15-2.3 2.28-3.43 3.44-.38.39-.65.32-1-.03-3.41-3.43-6.82-6.85-10.25-10.25-.4-.4-.4-.67 0-1.06 1.13-1.09 2.23-2.21 3.33-3.33.3-.3.58-.43 1-.23 4.77 2.28 8.33 5.75 10.53 10.59.05.11.09.24.12.33"/></svg>