<svg xmlns="http://www.w3.org/2000/svg" xml:space="preserve" viewBox="0 0 64 64"><path d="M33.868 64H30.13c-.149-.033-.297-.075-.448-.099-1.568-.253-3.15-.44-4.701-.77-2.944-.626-5.698-1.775-8.313-3.23a34.7 34.7 0 0 1-8.425-6.55c-1.844-1.954-3.443-4.083-4.754-6.415-1.646-2.93-2.782-6.039-3.229-9.37-.129-.953-.172-1.918-.26-2.94h3.883c9.845 0 19.69.001 29.535-.005.268 0 .582-.001.796-.128 2.114-1.257 4.213-2.54 6.314-3.819 2.939-1.789 5.874-3.584 8.814-5.371q4.037-2.45 8.076-4.897l3.211-1.948c.133.26.255.482.362.71 1.955 4.188 2.993 8.578 3.01 13.197a30.8 30.8 0 0 1-3.046 13.545 30.9 30.9 0 0 1-7.043 9.511c-5.038 4.62-10.95 7.412-17.787 8.285-.753.095-1.505.196-2.257.294"/><path d="M33.557 0c1.077.137 2.155.262 3.231.412 3.843.536 7.435 1.792 10.822 3.648a31.6 31.6 0 0 1 8.243 6.518c.974 1.073 1.83 2.25 2.796 3.449L34.113 27.999 19.003 2.68c.995-.367 1.948-.74 2.916-1.071C24.335.785 26.837.369 29.373.117c.184-.018.366-.077.549-.117zM26.61 5.568l9.324 15.617 14.908-8.492C45.357 7.108 35.9 3.571 26.61 5.568M28.463 29.512H.005a30.8 30.8 0 0 1 3.592-12.616c2.529-4.74 6.066-8.597 10.641-11.601zM12.815 12.86c-3.327 3.356-5.609 7.178-6.838 11.659h13.681z"/></svg>