<svg xmlns="http://www.w3.org/2000/svg" xml:space="preserve" viewBox="0 0 64 64"><path d="M54.42 28.373c-.215-1.208-.837-2.106-1.908-2.745-5.247-3.135-18.348 1.124-18.482 1.169l-.602-1.836c.569-.19 14.078-4.577 20.078-.993 1.556.929 2.505 2.298 2.817 4.067.031.17.056.338.084.508l4.449-9.729c2.084-4.558-1.551-8.644-8.122-9.13L25.048 7.637c-6.569-.485-13.59 2.814-15.673 7.369L.589 34.208c-2.086 4.555 1.548 8.644 8.12 9.129l27.687 2.048c6.569.488 13.587-2.812 15.67-7.367l2.488-5.439c.12-1.367.122-2.764-.134-4.206"/><path d="M59.757 45.433c-1.001 0-1.916.232-2.644.614-2.337-2.767-1.824-5.752-1.183-9.459.416-2.418.89-5.144.474-8.047-.011-.075-.881 1.813-1.838 3.925-.109 1.289-.326 2.552-.541 3.793-.678 3.911-1.322 7.665 1.693 11.129a1.9 1.9 0 0 0-.201.854c0 1.554 1.897 2.812 4.24 2.812.276 0 1.423-.165 1.423-.165 1.643-.388 2.82-1.425 2.82-2.647 0-1.551-1.9-2.809-4.243-2.809M36.395 47.577l-22.49-1.662c3.043 6.215 9.431 10.496 16.814 10.496 7.927 0 14.7-4.932 17.43-11.891-3.163 2.128-7.548 3.369-11.754 3.057"/></svg>