<svg viewBox="0 0 64 64" xmlns="http://www.w3.org/2000/svg"><path d="m.17 25.07c.43 1.06 1.1 1.76 2.03 2.12.98.37 1.93.16 2.86-.23 1.34-.57 2.54-1.48 3.7-2.45 2.11-1.77 4.04-3.82 6.08-5.69 1.04-.95 2.11-1.85 3.28-2.56 1.03-.63 2.06-.7 3.07.11.42.33.86.63 1.28.96 1.54 1.21 2.99 2.57 4.49 3.84 1.95 1.65 3.89 3.33 5.94 4.82 1.85 1.35 3.69 2.74 5.65 3.83 1.61.89 3.26 1.58 5.02 1.84 1.25.19 2.48.07 3.65-.6.76-.44 1.08-1.19.93-2.19-.15-.99-.56-1.83-1.02-2.63-.93-1.62-2.06-3.03-3.24-4.37-2.88-3.28-6-6.2-9.18-9.03-2.37-2.11-4.78-4.14-7.23-6.1-2.64-2.11-5.28-4.19-8.01-6.1-.34-.24-.68-.56-1.07-.6-1.11-.08-2.2-.04-3.26.5-1.81.92-3.43 2.21-4.94 3.72-1.45 1.45-2.73 3.11-4.04 4.75-.77.97-1.43 2.04-2.09 3.12-1.46 2.34-2.74 4.79-3.54 7.59-.32 1.12-.6 2.24-.5 3.45 0 .36.01.71 0 1.06-.01.3.04.57.15.84z"/><path d="m7.07 44.64c1.2.44 2.42.76 3.66.98.83.14 1.65.37 2.49.37 1.5 0 2.99-.01 4.49.01 1.57.02 3.12-.1 4.66-.46 2.01-.47 3.89-1.29 5.55-2.75 1.22-1.07 2.26-2.36 2.87-4.08.18-.51.14-.59-.33-.59-1.51 0-3.01 0-4.52-.01-.35 0-.63.14-.88.42-.93 1.05-2.01 1.73-3.26 2.01-1.52.35-3.05.5-4.6.33-1.01-.12-1.99-.32-2.89-.92-1.32-.87-1.89-2.68-1.33-4.35.45-1.32 1.37-1.95 2.45-2.32s2.18-.33 3.28-.26c.78.05 1.52.32 2.18.87.64.53 1.31.99 2.02 1.36 1.63.83 3.28 1.49 5.1 1.17.9-.16 1.74-.42 2.46-1.13.61-.61.9-1.37.72-2.34-.17-.96-.71-1.62-1.32-2.17-1.08-.98-2.35-1.48-3.64-1.88-1.07-.33-2.15-.56-3.24-.72-.68-.1-1.36-.25-2.04-.27-1.44-.04-2.88-.01-4.32-.01-2.2.07-4.42-.17-6.61.38-1.02.26-2.05.44-3.06.75-1.54.48-2.99 1.19-4.23 2.42-1.01.99-1.89 2.11-2.34 3.66-.51 1.76-.35 3.38.61 4.8 1.61 2.36 3.68 3.86 6.07 4.74zm7.39 6.93c.32-.3.48-.69.36-1.18-.1-.44-.39-.66-.72-.78-.86-.31-1.73-.27-2.61-.17-.63.08-1.1.45-1.42 1.12-.38.8-.71 1.63-1.04 2.45-.3.73-.49 1.52-.93 2.16-.24.36-.45.38-.72.04-.28-.35-.5-.75-.68-1.18-.5-1.21-.99-2.42-1.49-3.63-.23-.56-.6-.88-1.11-.95-.74-.1-1.48-.09-2.22 0-.44.05-.86.18-1.24.45-.57.42-.61 1.17-.07 1.65.12.11.24.23.38.31.25.15.36.4.43.71.16.72.16 1.45.15 2.18-.03 2.06-.14 4.11-.29 6.16-.04.59-.23 1.07-.76 1.24-.24.08-.35.3-.35.61.01.46.18.75.64.92.97.37 1.94.3 2.92.04.23-.06.44-.18.63-.35.35-.34.32-1.07-.07-1.24-.51-.22-.72-.67-.75-1.29-.05-.91-.01-1.82 0-2.73 0-.24.05-.47.14-.68.12-.28.25-.33.46-.14q.27.225.39.6c.16.44.32.88.48 1.33.42 1.2.87 2.39 1.39 3.54.27.6.65.61.94.03.44-.87.67-1.86 1.03-2.77.29-.75.5-1.55.95-2.2.33-.49.63-.42.81.18.03.1.04.21.04.31 0 .49 0 .97-.01 1.46-.04.92-.12 1.82-.82 2.42-.22.19-.21.61-.07.92.12.26.33.35.53.45.7.36 1.44.28 2.25.32.7 0 1.49.02 2.23-.33.72-.33.82-.97.26-1.6-.05-.07-.11-.14-.16-.2-.31-.3-.45-.69-.45-1.17-.01-.68-.05-1.35-.08-2.02-.09-1.8-.11-3.59.05-5.39.05-.61.18-1.18.61-1.58zm31.94 10.22c-.34-.26-.71-.5-.98-.87-.8-1.09-1.54-2.25-2.19-3.47-.4-.75-.38-.81.24-1.28.43-.32.89-.56 1.37-.72.63-.21.57-.91.28-1.3-.15-.2-.33-.32-.54-.4-.25-.1-.51-.15-.76-.18-.86-.12-1.72-.12-2.55.2-.65.24-.79.7-.44 1.39.12.25.09.42-.07.59-.31.31-.67.52-1.05.67-.15.06-.26-.03-.34-.18-.09-.16-.11-.35-.11-.54v-2.63h.1v-2.48c0-.86-.1-1.03-.8-.94-1 .14-1.97.45-2.9.91-.43.22-.85.46-1.15.91-.31.45-.18.95.26 1.09.72.22.8.36.81 1.27.01 2.32-.01 4.64-.13 6.96-.03.57-.19.99-.6 1.28-.28.2-.36.5-.28.87.09.41.31.68.64.78 1.03.33 2.07.28 3.11.17.46-.05.92-.12 1.33-.41.47-.32.56-1.13.16-1.57-.32-.35-.46-.78-.43-1.29.01-.23-.05-.59.15-.67.19-.07.33.23.46.42.57.9 1.15 1.81 1.71 2.72.26.42.57.64 1.01.64.82-.01 1.64 0 2.46 0 .32 0 .64-.05.94-.16.34-.12.58-.38.65-.82.07-.42-.1-.71-.39-.94zm-7.93-17.29c.41-.34.48-.33.83.1.34.41.72.71 1.2.77 1.13.14 2.03-.39 2.76-1.41.26-.36.37-.79.36-1.27 0-.21-.06-.39-.25-.41-.53-.02-.65-.49-.73-.99-.15-.84-.09-1.7-.11-2.82 0-.31.02-.89 0-1.47-.04-.89-.34-1.65-.88-2.23-.68-.74-1.5-1.08-2.39-1.18-1.38-.17-2.69.18-3.93.89-.55.31-1.03.72-1.39 1.35-.27.47-.3 1.1-.07 1.54s.66.63 1.14.53c.49-.1.86-.43 1.17-.89.25-.38.46-.79.75-1.13.53-.63 1.18-.44 1.44.41.15.49.15 1 .14 1.51-.01.63-.15.79-.67.79-.68 0-1.35.05-2.01.25-.84.26-1.59.69-2.15 1.54-1 1.51-.58 3.82.87 4.6 1.37.73 2.69.55 3.93-.48zm-.8-4.18c.49-.24.79-.05.88.58.02.14.02.28.03.42 0 .25-.03.49-.08.73-.1.56-.33.83-.69.84-.37.02-.66-.25-.8-.76-.2-.72.1-1.55.65-1.82zm25.96 2.01c-.34-.14-.51-.42-.59-.83-.16-.83-.13-1.67-.15-2.35v-1.87c-.01-1.18-.38-2.14-1.19-2.8a3.88 3.88 0 00-2.2-.9c-1.41-.12-2.74.23-4 1.01-.48.3-.92.65-1.21 1.22-.24.47-.29.99-.09 1.49.19.48.56.63.97.61.37-.02.72-.14 1-.48.25-.3.52-.58.7-.97.12-.26.31-.49.49-.69.48-.5 1.12-.3 1.33.42.17.56.16 1.14.14 1.72-.01.48-.14.63-.52.66-.37.03-.73.03-1.1.06-1.01.09-1.95.41-2.76 1.2-1.49 1.45-1.22 4.23.51 5.16 1.28.68 2.54.53 3.73-.39.61-.47.69-.44 1.26.14.1.1.2.19.3.28.13.12.28.2.44.25 1.25.36 2.77-.62 3.24-2.1.14-.44.06-.71-.31-.86zm-4.86.08c-.24.59-.84.69-1.2.2-.52-.72-.23-2.02.51-2.3.47-.18.76.02.83.61.02.15.02.31.02.37-.01.45-.03.8-.17 1.13zm-13.88-6.34c-.34 1.37-.14 2.68.71 3.74.49.63 1.12 1.03 1.74 1.44.3.19.6.39.83.7.23.3.26.67.04.94a.66.66 0 01-.75.25c-.36-.1-.63-.38-.88-.69-.32-.39-.63-.8-.96-1.17-.22-.24-.48-.39-.79-.21-.31.19-.38.51-.38.88 0 1.12.39 2.05.98 2.87.19.27.46.37.74.31.75-.14 1.48.04 2.22.14 1.11.15 2.18.05 3.14-.75 1.59-1.32 1.68-3.84.18-5.31-.51-.5-1.07-.87-1.65-1.24-.37-.23-.75-.44-1.06-.78-.21-.23-.38-.49-.26-.86.11-.37.35-.53.72-.52.45.01.76.36 1.08.68.33.33.64.68 1.05.86.35.15.65.01.91-.25.24-.24.23-.57.18-.91-.12-.69-.38-1.31-.69-1.9-.37-.7-.82-.9-1.46-.64-.26.11-.52.14-.8.08-.49-.1-.98-.23-1.41-.19-.47 0-.86.02-1.25.14-1.05.34-1.84 1.09-2.16 2.37zm-20.49 25.21c-.49-.2-.6-.68-.66-1.21-.07-.62-.05-1.25-.05-1.81 0-.58.01-1.09 0-1.6-.03-1.12-.46-1.96-1.25-2.51-.82-.58-1.71-.7-2.63-.63-1.1.09-2.12.45-3.04 1.22-.33.27-.6.62-.73 1.1-.19.72.18 1.35.79 1.38.58.03.99-.32 1.32-.86.2-.33.39-.68.65-.95.37-.39.97-.32 1.19.17.22.5.33 1.04.24 1.61-.08.56-.28.76-.75.77-.28 0-.56-.01-.84.02-1.03.14-1.96.53-2.69 1.51-.86 1.15-.55 3.02.41 3.76 1.18.92 2.41.87 3.57-.04.42-.33.74-.31 1.08.07.48.53 1.05.59 1.65.54.66-.06 1.77-.88 1.96-1.85.06-.32.04-.59-.23-.7zm-4.25-.3c-.06.42-.27.7-.56.75-.32.06-.56-.11-.73-.53-.29-.68.07-1.63.68-1.79.4-.1.6.07.65.58.01.13.01.26.02.42-.01.16-.03.37-.05.56zm28.13-5.75c-1.11 1.45-1.4 3.17-.98 5.06.3 1.33.94 2.38 1.96 3.01 1.85 1.14 3.64.83 5.35-.49.34-.27.61-.65.73-1.15.1-.39-.03-.9-.29-1.16s-.5-.11-.75.06c-.41.28-.83.54-1.31.64-.87.18-1.86-.42-2.19-1.35-.19-.55-.1-.75.39-.75h1.74c.59-.01 1.18 0 1.77-.02.3 0 .61-.04.82-.36.17-.26.22-.58.23-.9 0-1.4-.48-2.53-1.38-3.34-1.82-1.63-4.51-1.29-6.07.75zm3.77 1.93h-.88c-.44-.02-.61-.28-.54-.8.09-.65.59-1.12 1.13-1.07.46.05.84.56.84 1.16 0 .46-.18.7-.56.71zm10.69 3.7s-.05.03-.08.04c-.59.33-1.1.06-1.32-.69-.05-.18-.05-.37-.05-.56v-3.34c0-.58.08-.68.55-.69.48 0 .97 0 1.45-.02.31 0 .43-.16.47-.53.03-.34.04-.68.03-1.03-.02-.46-.11-.56-.48-.57-.51-.01-1.02 0-1.54-.02-.41-.01-.48-.11-.49-.62 0-.45 0-.9-.02-1.35 0-.18-.04-.4-.21-.41-.46-.03-.95-.15-1.38.18-1.1.85-2.19 1.71-3.3 2.55-.39.3-.49.72-.42 1.24.05.35.21.52.49.53.19.01.39.02.58 0 .26-.02.36.11.38.43.05.78 0 1.57.04 2.34v1.06c-.01.72-.04 1.45.16 2.15.34 1.22 1.02 2.02 2.07 2.26.84.19 1.67.05 2.47-.33.59-.28 1.11-.65 1.51-1.27.25-.39.27-1.02.05-1.36-.19-.31-.48-.31-.94-.03zm-29.55-7.01c-.81-.58-1.84-.36-2.41.64-.16.27-.37.63-.66.53-.31-.1-.27-.54-.29-.88-.03-.34-.19-.52-.47-.55-.56-.06-1.11.1-1.66.2-.39.08-.79.22-1.16.41-.41.2-.83.41-1.09.9-.16.3-.16.62.03.84.15.18.31.35.48.5.22.18.31.42.34.74.09.94.03 1.88-.04 2.82-.04.75-.25 1.29-.71 1.76-.45.45-.4 1.29.09 1.59.54.32 1.13.45 1.73.5.46.04.93-.01 1.39 0 .33.01.65.03.97-.12.08-.04.18-.04.26-.03.34.07.65-.07.93-.3.27-.22.38-.54.37-.94-.01-.35-.15-.57-.43-.66-.15-.05-.3-.15-.45-.22-.28-.13-.45-.37-.47-.73-.04-.69-.15-1.38-.11-2.08v-.85c0-.22.04-.42.15-.6.12-.2.26-.26.45-.15q.33.195.6.48c.33.35.7.57 1.16.53.97-.07 1.8-1.05 1.83-2.24.02-.84-.16-1.61-.82-2.08z"/></svg>