<svg viewBox="0 0 64 64" xmlns="http://www.w3.org/2000/svg"><path d="m53.23 39.36c-4.25-.39-6.71 2.3-8.91 5.32-.69.95-1.36 1.35-2.54 1.33-5.03-.07-10.06.02-15.09-.09-.8-.02-1.83-.59-2.32-1.23-1.8-2.39-3.41-4.92-5.09-7.4 5.85-4.17 12.27-7.53 14.56-14.98-.71.54-1.43 1.06-2.13 1.61-1.85 1.44-3.91 2.12-6.23 1.58-1.93-.45-3.56.1-5.2 1.07-3.76 2.22-4.71 2.02-7.48-1.25-.17-.2-.34-.39-.51-.59-2.49-2.9-2.45-3.63.52-5.96 4.32-3.39 8.6-6.82 13.02-10.08 2.92-2.15 5.15-4.49 4.25-8.69 2.45.21 4.06 1.4 5.03 3.18 1.26 2.32 3.13 3.27 5.6 3.17 2.83-.12 5.12 1.06 6.5 3.31 1.69 2.74 3.2 5.69 4.2 8.74 1.88 5.75 2.58 16.16 1.84 20.96zm-19.48 7.38c4.51 0 9.02.04 13.52-.02 1.81-.03 2.62.59 2.59 2.5-.09 5.96.58 5.37-5.35 5.37h-24.1c-2.66 0-2.84-.17-2.84-2.74 0-5.49-.53-5.13 5.01-5.11 3.72.01 7.45 0 11.17 0m-.21 17.25c-5.68 0-11.36-.02-17.05.01-1.42 0-2.46-.24-2.45-1.98 0-1.75 1.07-1.97 2.47-1.96 11.49.02 22.99.02 34.48 0 1.42 0 2.46.25 2.45 1.99 0 1.75-1.07 1.97-2.48 1.96-5.81-.03-11.62-.01-17.44-.01zm.17-4.68c-5.23 0-10.46-.02-15.68.01-1.42 0-2.46-.25-2.43-1.99.02-1.75 1.12-1.95 2.5-1.95 10.46.02 20.91.02 31.37 0 1.43 0 2.44.31 2.44 2.03 0 1.78-1.13 1.93-2.51 1.92-5.23-.03-10.46-.01-15.68-.01z"/></svg>