<svg viewBox="0 0 64 64" xmlns="http://www.w3.org/2000/svg"><path d="m0 48.55v-4.56c.04-.31.1-.62.13-.94.73-9.96 2.99-19.33 7.23-27.9 1.75-3.55 3.88-6.73 6.82-8.9 2.61-1.92 5.32-2.63 8.25-.91 1.73 1.02 3.54 1.83 5.33 2.69 2.81 1.35 5.64 1.43 8.46.07 1.76-.85 3.54-1.68 5.25-2.68 2.91-1.71 5.66-1.22 8.35.67 2.76 1.95 4.79 4.84 6.51 8.07 3.63 6.83 5.73 14.39 6.95 22.36.3 1.95.49 3.92.72 5.88v7.19c-.05.25-.11.5-.14.75-.22 1.98-.56 3.92-1.34 5.69-.76 1.73-1.82 3.09-3.46 3.28-.99.12-2.04-.05-3.01-.37-2.24-.74-4.07-2.44-5.9-4.12-2.64-2.43-5.21-4.97-7.93-7.26-2.94-2.47-6.2-3.99-9.83-4.11-5.06-.16-9.43 1.95-13.18 6.07-1.89 2.08-3.71 4.27-5.63 6.3-2.18 2.3-4.68 3.72-7.62 3.78-1.71.04-3.05-.76-3.98-2.5-.4-.75-.81-1.56-.98-2.41-.41-2.03-.68-4.1-1.01-6.16zm18.52-34.62c-4.86-.01-8.77 4.81-8.76 10.8 0 5.89 3.93 10.73 8.68 10.72 4.9-.01 8.79-4.76 8.8-10.75 0-5.94-3.89-10.76-8.72-10.77m25.11 13.15c0-1.32-.89-2.39-1.96-2.38-1.04.02-1.91 1.07-1.92 2.34-.02 1.32.85 2.4 1.93 2.41 1.08 0 1.96-1.06 1.95-2.38zm4 9.57c1.1 0 1.96-1.07 1.94-2.39-.02-1.34-.89-2.39-1.96-2.37-1.06.02-1.94 1.15-1.91 2.44.03 1.28.9 2.32 1.94 2.31zm1.94-16.74c0-1.33-.88-2.4-1.95-2.39-1.06 0-1.96 1.13-1.94 2.42.02 1.32.91 2.36 2 2.33 1.05-.02 1.89-1.07 1.89-2.36m5.83 7.17c0-1.31-.9-2.39-1.97-2.37-1.08.03-1.94 1.12-1.92 2.43.03 1.29.88 2.31 1.94 2.31 1.1 0 1.95-1.04 1.95-2.38z"/><path d="m18.53 18.71c2.68.04 4.83 2.72 4.81 6.01-.02 3.38-2.21 5.99-5 5.95-2.6-.04-4.73-2.78-4.71-6.04.03-3.29 2.23-5.95 4.89-5.91z"/></svg>