<svg viewBox="0 0 64 64" xmlns="http://www.w3.org/2000/svg"><path d="m25.84 30.41c-.05 0-.11.01-.15.05.05-.04.1-.05.15-.05m-6.45-11.31c-2.71 0-4.91 1.65-4.91 3.68s2.2 3.68 4.91 3.68 4.9-1.65 4.9-3.68-2.19-3.68-4.9-3.68"/><path d="m44.27 8.7h-.26l-.23.11c-4.12 2.08-10.79 3.11-10.79 3.11l-2.22-.08s-6.13-1.25-10.25-3.12l-.21-.1h-.24c-11.64.01-20.07 20.93-20.07 35.04 0 3.37.49 6.09 1.44 8.08 1.14 2.38 2.95 3.63 5.21 3.63 5.17 0 8.33-3.08 11.39-6.05 3.52-3.42 7.16-12.4 14.28-12.4 5.87 0 10.38 9.08 14.74 12.59 3.63 2.93 7.07 5.7 10.86 5.7 2.09 0 3.73-1.07 4.77-3.08.86-1.68 1.3-4 1.3-6.91 0-12.34-8.94-36.52-19.73-36.52zm-24.68 19.09c-3.83 0-6.95-2.47-6.95-5.5s3.11-5.5 6.95-5.5 6.94 2.47 6.94 5.5-3.12 5.5-6.94 5.5m23.23-.59c-.67.34-1.45.52-2.24.52-1.44 0-2.76-.58-3.53-1.54-.6-.75-.8-1.63-.56-2.5s.89-1.6 1.83-2.08c1.9-.96 4.58-.48 5.78 1.01 1.23 1.55.66 3.6-1.28 4.58zm8.98-8.02c-.24.86-.89 1.6-1.84 2.08-.67.34-1.45.52-2.24.52-1.44 0-2.76-.58-3.53-1.54-.6-.75-.8-1.63-.56-2.5.24-.86.9-1.6 1.84-2.08 1.89-.95 4.57-.48 5.77 1.02.6.75.8 1.64.56 2.5"/></svg>