<svg viewBox="0 0 64 64" xmlns="http://www.w3.org/2000/svg"><path d="m62.46 37.83v-11.66h-16.29 16.29zm-24.63-20v-16.29h-11.66 11.66zm16.01-3.67-8.94 8.94zm-43.36-7.69 12.62 12.63v-.01zm34.42 34.43 16 15.99zm10.75-40.9h-14.75v14.75z"/><path d="m64 0v8.35l-14.76 14.75h14.76v17.8h-14.75l14.75 14.75v8.35h-4.01l-19.09-19.1 19.09 19.1h-4.34l-14.75-14.75v14.75h-17.8v-14.75l-14.75 14.75h-4.35l19.1-19.1-19.1 19.1h-4v-4.01l19.1-19.09-19.1 19.09v-4.34l14.75-14.75h-14.75v-17.8h14.75l-14.75-14.75v-4.35l11.39 11.4-11.39-11.4v-4 64h64z"/><path d="m23.1 0h-14.75l14.75 14.75zm-19.1 0h.01-4.01 4.01zm37.83 26.17h-4v-4 4zm-.93-3.07h4l8.94-8.94 10.16-10.16v-4h-4.01l-19.09 19.1zm-21.8 17.8-19.1 19.09v4.01h4l19.1-19.1v-4zm-7.71-25.5 7.71 7.7h4v-4l-12.62-12.63-6.47-6.47h-4.01v4zm49.51 41.49-16-15.99h-4v4l19.09 19.1h4.01v-4.01zm-14.73-19.06h16.29v-11.66h-16.29l-5.82 5.83zm-13.7-10.31-.47.47zm-.47-3.87 5.83-5.82v-16.29h-11.66v16.29zm-14.18 14.18 5.83-5.83-5.82-5.83h-16.29v11.66zm8.35 8.34v16.29h11.66v-16.29l-5.83-5.82zm5.83-10.17 2.07 2.08z"/><path d="m41.83 37.83-5.83-5.83 5.83-5.83h-4v-4l-5.36 5.35-.47.47-5.83-5.82v4h-4l5.83 5.83h-.01l-5.82 5.83h4v4l5.83-5.83 2.07 2.08 3.76 3.75v-4z"/><path d="m41.83 37.83h20.63-16.29l-5.82-5.83 5.82-5.83h-4.34l-5.83 5.83zm-9.83-1.83-5.83 5.83v20.63h11.66-11.66v-16.29l5.83-5.82 5.83 5.82v-4.34l-3.76-3.75zm.47-8.48 5.36-5.35v-4.34l-5.83 5.82-5.83-5.82v-16.29 20.63l5.83 5.82zm-10.3 10.31 5.82-5.83-5.82-5.83h-4.34l5.82 5.83-5.83 5.83h-16.28v-11.66 11.66z"/><path d="m26.17 26.17v-4l5.83 5.82-5.83-5.82zm11.66-4-5.36 5.35zm-5.83 13.83-5.83 5.83v-4h-4 4v4zm5.83 5.83-3.76-3.75z"/></svg>