<svg viewBox="0 0 64 64" xmlns="http://www.w3.org/2000/svg"><path d="m36.103 17v-17h-25.642c-1.705 0-3.077 1.338-3.077 3v58c0 1.662 1.372 3 3.077 3h43.078c1.705 0 3.077-1.338 3.077-3v-41h-17.436c-1.693 0-3.077-1.35-3.077-3m8.205 29.5c0 .825-.692 1.5-1.538 1.5h-21.54c-.846 0-1.538-.675-1.538-1.5v-1c0-.825.692-1.5 1.538-1.5h21.539c.846 0 1.538.675 1.538 1.5zm0-8c0 .825-.692 1.5-1.538 1.5h-21.54c-.846 0-1.538-.675-1.538-1.5v-1c0-.825.692-1.5 1.538-1.5h21.539c.846 0 1.538.675 1.538 1.5zm0-9v1c0 .825-.692 1.5-1.538 1.5h-21.54c-.846 0-1.538-.675-1.538-1.5v-1c0-.825.692-1.5 1.538-1.5h21.539c.847 0 1.539.675 1.539 1.5m12.308-14.262v.762h-16.41v-16h.782c.82 0 1.602.313 2.18.875l12.551 12.25c.576.563.897 1.325.897 2.113"/></svg>