<svg viewBox="0 0 64 64" xmlns="http://www.w3.org/2000/svg"><path d="m21.08 45.57h-.02zm4.01 9.5-.6-.11h-.03c0 .09-.01.17-.02.26.18-.05.4-.1.64-.15zm-13.16-34.67v-.01zm-5.16 27.16.63.74c1.39.18 1.97.4 3.13 1.12.95-2.65 4.45-3.56 5.58-6.01-1.71.08-3.42 1.12-4.83 1.96-1.49.89-3.01 1.42-4.5 2.18zm-5.8-20.39-.94.88c-.03.73-.13 1.85.31 2.38.67.81 1.76.29 2.82 0 2.98-.84 6.04-1.23 9.04-1.78-3.85-.02-7.74-.84-11.23-1.48m10.02-19.21c-1.45-.89-2.91.46-3.76.89l9.07 5.16c-.8-1.31-4.51-5.55-5.32-6.04zm20.71-3.43c.43-1.32.1-3.18-.02-4.53l-2.83.13c.03 2.84 1.19 7.88 1.89 10.64 0-1.36.55-4.94.97-6.24zm21.3 2.91-2.24 1.43c-.8 1.75-4.92 4.77-5.14 6.64 2.41-1.62 7.24-5.53 10.31-5.65-1.17-1.4-1.91-.88-2.93-2.41zm9.68 17.24s-7.98 1.66-8.12 3.35c2.68.92 7.28-2.05 9.44.08l-1.32-3.44zm-16.13 16.53 7.47 7.04c1.54-1.07 1.39-1.01.34-2.17-1.89-2.08-5.45-3.31-7.81-4.88zm-7.32 18.18c.02-.23.05-.47.09-.73-.76-.04-1.52-.02-2.27.04-4.16-.62-11.65.46-13.54 2h-.62c.11.12.2.23.3.35-.3.48-.05.99 1.01 1.5.45.6.98.97 2.26.85.07 0 .15-.01.22-.02.84.21 1.84.41 3.03.61h.25c2.27-.11 10.02-1.5 9.9-3.66-.02-.38-.25-.69-.64-.93z"/><path d="m37.66 55.28c-.45-.02-.98.07-1.54.19-1.73-.38-4.2-.65-7.14-.65-1.44 0-2.56.06-3.39.17-.38-.05-.75-.07-1.1-.04l.6.11c-.25.04-.46.09-.64.15 0-.09.01-.17.02-.26-.04 0-.09 0-.13.01 0 .09-.01.19-.02.29-2.64.88 2.17 2.77 7.05 2.77 6.49 0 8.3-.89 7.09-1.73.6-.5.78-.96-.8-1.02zm.74-5.05c.95-5.61 9.06-13.75 9.2-13.86.48-.36 2.28-1.16 2.52-1.55.41-.66.02-2.48.02-3.36 0-2.15-.02-4.38-.35-6.51-.27-1.75-5.6-12.41-17.07-13.78-12.96.33-19.22 10.89-19.2 10.66-.13 2.47-.11 2.58.01 5.05.13 2.63-.07 7.21 1.41 9.41.36.53 2.41 2.78 2.93 3.4.57.68 8.99 10.54 6.2 11.27-5.54 1.44 6.82 3.07 7.31 3.07h-.14.14c2.26 0 5 .35 7.22-.09 3.33-.66-.38-2.73-.22-3.71zm-13.95-23.47c-.02.85-.15 1.83-.37 2.92-.17.02-.34.04-.5.05l.12 2.13c-.19-.07-.46-.17-.83-.32-.12-.49-.23-.97-.35-1.44a8.8 8.8 0 00-1.71-1.15q.105.33.33 1.02c-.41-.06-.68-.07-.84 0-.23.1-.33.37-.31.82.02.29.05.72.08 1.3.02.41-.03.79-.14 1.14-.02-.02-.17-.08-.41-.21-.23-.3-.38-.59-.48-.85-.1-.34-.21-.67-.31-1.01-.1-.12-.2-.23-.29-.34s-.18-.23-.27-.35c-.04-.2-.09-.39-.13-.58s-.09-.38-.13-.57c.05.05.1.11.15.16.03.2.07.4.1.6.07.01.12.02.17.04-.03-.6-.04-1.07-.06-1.44 0-.32-.05-.67-.12-1.04-.03-.15-.06-.3-.1-.45.06.04.12.07.18.11.02.09.04.19.05.28.06.04.13.07.19.11-.06-.18-.13-.41-.21-.68-.11-.05-.26-.11-.45-.2 0-.11.08-.23.24-.4.17-.18.28-.36.3-.51a446 446 0 00-.18-2.44c.27 0 .51-.02.72-.02.61-.01.96.12 1.01.46.03.18-.01.62-.11 1.31-.04.29-.03.63.03 1.01.04.25.09.53.17.83.76.62 1.31.96 1.64 1 .07 0 .13 0 .18-.02.28-.11.43-.46.43-1.03 0-.37-.02-.79-.05-1.25q-.03-.345-.06-.81c-.09-.79-.01-1.52.25-2.24.13-.06.35-.15.64-.26.19.43.36.8.5 1.1.19.04.49.11.89.23.02.3.03.6.04.88q.045 1.17 0 2.1zm15.24 6.67c.13-1.61.58-3.66 1.39-5.9.35-.95.59-1.56.74-1.88.06-.23.16-.58.29-1.03.12-.38.26-.68.44-.9.31.02.55.03.71.05.24.55.54 1 .88 1.35.28-.05.7-.22 1.26-.52.54-.29.92-.46 1.15-.52-.83 1.14-1.53 1.96-2.23 2.13-.12.4-.3 1-.53 1.85.12-.06.31-.15.56-.28.19-.09.37-.19.55-.29-.02.13-.02.26-.01.37-.23.29-.56.66-1.01 1.09-.53.51-.89.86-1.06 1.06-.71 1.49-1.18 2.94-1.43 4.25.9-.33 2.06-1.18 3.31-2.66-.32.93-.88 1.92-1.77 2.86-.81.85-1.59 1.34-2.31 1.47-.1-.05-.28-.16-.57-.34.02-.19.03-.38.05-.56-.34-.15-.48-.69-.41-1.59zm-10.3-8.33c-.07.53-.17 1.32-.3 2.36.14-.06.36-.14.65-.25.22-.08.44-.16.66-.25 0 .18.03.35.07.52-.25.32-.62.71-1.1 1.14-.58.51-.95.86-1.12 1.06-.61 1.63-.95 3.1-1.05 4.46.99-.07 2.26-.61 3.87-1.68-.28 1-.95 1.85-1.96 2.51-.92.6-1.76.83-2.54.72-.11-.08-.33-.26-.67-.54 0-.19-.01-.38-.02-.57-.38-.25-.59-.83-.62-1.74-.06-1.63.16-3.6.74-6.05.25-1.05.43-1.77.54-2.15.04-.27.09-.68.17-1.22q.105-.705.33-1.17c.32-.08.57-.13.74-.16.34.61.73 1.13 1.18 1.56.31-.09.76-.36 1.36-.78.58-.42 1.02-.65 1.31-.7-.7 1.77-1.44 2.75-2.24 2.94zm6.49 9.36c-.61.19-1.24.44-1.91.75l-.06 1.77c-.2 0-.48.02-.82.07-.25-.07-.42-.11-.53-.11-.17-2.77-.23-6.03-.16-9.77.62-2.54 1.25-4.36 1.9-5.43.45-.76.99-1.27 1.63-1.54.3-.12.63-.14.98-.06.38.09.8.3 1.24.62 0 .12 0 .23-.02.35.28.25.62.46 1.04.62.05.57.11 1.2.18 1.91l.18 1.93c-.1-.01-.2-.03-.29-.04-.1.45-.17.74-.21.86-.09.31-.19.58-.32.8-.07 0-.16.03-.29.06q.15-.57.27-.99c.09-.32.19-.65.29-.96-.5.24-1.03.67-1.57 1.31-.6.71-.95 1.39-1.05 2.01.58.06.97.13 1.18.21.31.11.65.35 1.04.69.11.67.14 1.25.11 1.74-.02.36-.08.66-.16.9-.37 1.07-1.23 1.87-2.62 2.32z"/><path d="m36.46 21.4a1.1 1.1 0 00-.4-.16c-.28-.05-.54.03-.77.26-.69.64-1.18 1.77-1.48 3.33-.1.54-.16.99-.16 1.35v.37c.19-.04.31-.06.37-.06.46-1.45.79-2.38.97-2.82.39-.9.87-1.67 1.46-2.27zm.74 8.24c-.86-.02-1.65.13-2.35.45-.17 1.16-.36 2.6-.57 4.33 1.48-.14 2.82-1.08 4.06-2.66.09-1.41-.28-2.1-1.14-2.12m-1.35-3.21c0-.13 0-.25.01-.37-.1 0-.2-.02-.3-.03.03.3.07.56.11.79q-.045 0-.3.06c-.08.47-.14.82-.17 1.07.82-.74 1.34-1.2 1.55-1.44.54-.62.84-1.29.92-2.04-.2.11-.5.29-.9.53.06-.19.27-.45.62-.76.35-.32.56-.55.62-.73-.95 0-1.43.35-1.45 1.02s-.17 1.31-.44 1.95c-.09 0-.18-.02-.27-.03zm-11.39 28.52h.03zm-3.22-9.35h-.01zm0 0h.01-.02zm-1.98-1.65c-.64-.6-1.38-1.32-2.15-2.11s-1.59-1.64-2.36-2.51c-.19-.22-.38-.44-.54-.65-.02-.02-.03-.05-.04-.07s0-.01 0-.01l-.02-.05-.07-.2c-.04-.13-.07-.26-.1-.39-.13-.53-.26-1.09-.39-1.61-.13-.53-.25-1.04-.37-1.52-.06-.24-.12-.48-.19-.7a6 6 0 00-.2-.65c-.04-.1-.07-.21-.11-.3-.04-.1-.08-.19-.12-.28-.08-.18-.15-.36-.22-.52-.14-.33-.27-.61-.39-.83a6 6 0 00-.17-.29c-.06-.08-.1-.16-.15-.21l-.13-.16s.04.06.12.17c.04.05.08.13.13.22.05.08.1.19.15.3.11.23.21.52.33.85.06.17.11.35.18.53.03.09.06.19.1.29.03.1.05.2.08.3.06.2.1.42.15.65s.09.46.13.71c.09.49.17 1 .25 1.53.04.27.08.54.13.81.02.14.04.28.07.41l.03.21.04.22c.03.15.05.3.08.44l.05.21v.05l.02.01s.02.05.01.04l.02.04s.04.09.07.12c.17.28.34.51.52.75.72.95 1.47 1.85 2.19 2.7s1.41 1.62 2.01 2.28c.61.66 1.13 1.19 1.55 1.57.21.19.39.33.58.44.02.01.05.03.07.04.03.01.04.02.08.04.03.01.06.02.08.03 0 0 .05.02.07.02.03 0 .06.01.09.02h.16v-1.33h.05c.02 0 .04 0 .06.01h.03c-.07-.03-.21-.13-.39-.26-.38-.29-.93-.78-1.58-1.38zm1.79 1.62h.02zm-5.67-28.9-.24.12h-.02l-.02.01-.03.02-.05.03s-.07.04-.11.06c-.16.08-.33.17-.51.25-.36.18-.74.38-1.12.61-.38.24-.76.51-1.14.82-.09.08-.19.16-.28.24s-.19.17-.28.26l-.14.14-.14.15-.07.08-.08.11-.08.11s-.06.08-.06.1l-.07.15-.03.06v.02l-.02.04-.02.08-.02.08v.31c0 .08.02.14.03.21.05.26.13.49.21.71.16.44.35.84.51 1.23.04.1.07.17.11.28.03.08.05.19.08.28s.05.19.08.28l.06.28c.04.18.07.37.1.54.03.18.05.35.08.52.04.34.08.64.12.92.03.27.07.52.11.71.03.2.07.35.09.45s.03.16.03.16h.14v-.18c0-.11-.01-.26 0-.46 0-.2 0-.43.01-.71 0-.27.02-.58.02-.93v-.54c0-.19 0-.38-.03-.58 0-.1-.02-.2-.02-.3-.01-.1-.03-.21-.04-.31-.02-.11-.03-.21-.05-.32-.02-.09-.05-.23-.08-.33-.12-.42-.24-.84-.35-1.25-.05-.2-.09-.41-.11-.59v-.2l.08-.13.04-.04c.01 0 .02-.02.03-.03l.03-.03.05-.05.11-.09.12-.09c.08-.06.17-.12.26-.18s.18-.11.27-.17c.38-.22.77-.43 1.14-.65s.73-.45 1.06-.69c.17-.12.33-.24.49-.36.04-.03.08-.07.12-.1l.06-.05.03-.03h-.01l.01-.01.2-.17c.26-.23.5-.43.71-.62q.165-.135.3-.27c.09-.09.18-.16.25-.24.15-.14.27-.27.34-.35.08-.08.11-.13.11-.13l-.08-.11s-.06.02-.17.05-.26.08-.47.14c-.21.07-.44.14-.73.25-.28.11-.61.24-.92.4zm-3.44 3.73v-.01zm21.64-10.03c.07.02.14.05.23.07.18.04.4.06.65.04s.53-.06.82-.13.6-.15.92-.24.65-.18.98-.24.67-.09.95-.04c.14.03.27.06.37.13.01 0 .02.01.02.01s.01.02.02.03c0 0 .04.03.06.06.05.05.11.11.16.17.22.24.43.54.63.84s.4.6.62.88c.12.14.23.28.38.42.06.07.15.14.23.21l.03.02h.01l.03.03.05.04.1.07c.13.09.29.19.43.28l.41.22c.13.07.25.13.37.18s.23.11.34.15c.2.1.39.18.54.25.16.07.27.13.35.18.09.04.13.06.13.06l.11-.08-.05-.13c-.04-.09-.09-.22-.19-.37-.05-.07-.1-.16-.16-.25-.06-.08-.13-.18-.21-.27s-.16-.19-.25-.29-.19-.2-.29-.3c-.19-.19-.4-.4-.62-.61l-.09-.09-.04-.04-.02-.02h-.01s-.02-.03.01 0l-.12-.15-.3-.36c-.22-.26-.47-.53-.74-.8s-.55-.55-.87-.82c-.08-.07-.17-.14-.26-.21a1.7 1.7 0 00-.36-.21c-.24-.11-.49-.14-.73-.16-.48-.02-.9.09-1.27.21-.37.13-.69.27-1 .41-.3.14-.58.27-.84.37s-.5.19-.72.24-.41.07-.57.07a1.971 1.971 0 01-.36-.05c-.09-.03-.13-.04-.13-.04l-.06.12s.04.02.12.07c.04.02.1.04.17.07zm18.63 19.67.05-.77.06-.77.09-.77.11-.76c.04-.25.09-.5.14-.76.05-.25.11-.5.17-.75s.14-.49.2-.74c.07-.24.16-.48.24-.72.09-.24.19-.47.29-.7.11-.23.23-.45.34-.67l.19-.38-.39-.25-.49-.32-.48-.33-.47-.34-.45-.35-.43-.37c-.14-.13-.27-.26-.4-.39-.06-.06-.12-.13-.17-.19l-.17-.19c-.06-.07-.12-.15-.18-.23l-.18-.23-1.11.82.2.22c.07.07.13.14.2.22l.24.23c.08.08.16.16.24.23.16.13.32.27.49.4l.5.37.52.35.53.33.53.31.17.09c-.05.11-.09.23-.13.34-.08.26-.18.52-.25.77-.06.26-.14.52-.19.78s-.11.52-.15.79c-.04.26-.08.52-.11.79-.03.26-.06.52-.08.79l-.05.79-.02.79v.78l.02.78c.02.52.04 1.04.08 1.56.07 1.04.17 2.07.28 3.11-.02-1.04-.04-2.08-.02-3.11 0-.52.02-1.04.05-1.55zm-9.03 23.19-.06-.3c-.03-.1-.05-.2-.08-.3l-.09-.29c-.06-.19-.13-.39-.21-.57l-.43-1.1c-.07-.18-.13-.36-.19-.54l-.08-.27c-.02-.09-.04-.18-.06-.26-.02-.09-.03-.18-.04-.26 0-.09-.02-.17-.02-.26v-.25c0-.08.01-.17.01-.25v-.05.03-.08c0-.05.01-.1.01-.15s0-.1.01-.15v-.14c.04-.14.03-.27.07-.43l.02-.12s.01-.08.02-.12l.06-.25c.02-.09.05-.18.08-.27.02-.09.05-.18.08-.28.05-.19.11-.39.15-.59s.07-.42.08-.63l-.13-.06c-.19.13-.33.27-.5.41-.16.14-.3.28-.45.44-.07.07-.14.16-.21.24-.07.09-.14.17-.2.26-.12.19-.24.38-.33.6-.1.2-.15.47-.2.71v.05l-.01.04v.55c.02.11.03.23.06.34.02.11.06.22.08.33.03.11.07.21.1.32.04.1.07.21.12.31l.12.3.14.29c.09.19.19.37.29.55.2.36.42.69.62 1.03.1.17.2.34.3.5l.14.25c.05.08.08.17.13.26s.08.17.12.26.08.18.1.27l.03.1s-.02-.01-.02-.02l-.1.09c.06.07.11.14.16.2.02.03.04.07.06.1l.03.1.25.76.02-.81c0-.2 0-.41-.02-.61 0-.1-.02-.2-.04-.31zm4.37-13.45c.12-.08.24-.17.36-.25s.23-.17.34-.25c.21-.18.41-.35.58-.53.18-.18.35-.34.5-.5l.41-.44c.12-.13.23-.26.32-.35q.135-.15.21-.24c.05-.06.08-.09.08-.09l-.06-.12h-.12c-.08 0-.2.01-.35.03-.07.01-.16.02-.25.04s-.18.05-.27.08c-.1.03-.2.06-.31.1s-.21.09-.33.14c-.11.05-.23.11-.35.16-.12.06-.23.13-.35.2-.24.14-.48.3-.69.49-.11.1-.22.2-.32.3l-.3.33c-.2.23-.4.46-.61.69-.21.22-.41.46-.6.68-.2.22-.38.45-.56.67s-.35.43-.51.64-.31.4-.44.58c-.54.73-.86 1.23-.86 1.23l.11.08.31-.28c.2-.18.48-.43.83-.73.34-.3.74-.64 1.17-1.01.22-.18.44-.37.67-.56s.45-.38.69-.57c.23-.19.47-.37.72-.53z"/></svg>