<svg viewBox="0 0 64 64" xmlns="http://www.w3.org/2000/svg"><path d="m1.43 0c2.25 3.03 4.34 5.85 6.38 8.59 16.12-5.62 32.11-5.61 48.33 0 2.03-2.69 4.16-5.53 6.45-8.57.03.53.06.81.07 1.1.45 17.31.89 34.63 1.33 51.94.05 1.93-.92 3.53-3.08 4.42-4.63 1.9-9.35 3.67-14.08 5.43-2.16.8-4.52 1.09-6.92 1.09h-15.63c-2.96 0-5.76-.5-8.41-1.52-4.06-1.56-8.12-3.13-12.17-4.71-2.56-1-3.76-2.62-3.7-4.87.4-14.25.78-28.5 1.16-42.75.08-3.18.14-6.35.22-9.53 0-.13.02-.25.06-.62zm4.14 40.59c-.05.26-.11.42-.11.58-.12 3.98-.23 7.95-.36 11.93-.02.58.3.91.95 1.15 4.1 1.57 8.18 3.16 12.27 4.73 1.84.7 3.8 1.04 5.85 1.04h15.63c2.09 0 4.07-.35 5.95-1.07 4.03-1.55 8.04-3.13 12.08-4.67.77-.29 1.09-.69 1.07-1.36-.14-3.81-.23-7.62-.35-11.43 0-.27-.03-.54-.06-.9-.54.05-1 .08-1.44.13-6.3.75-12.6 1.5-18.89 2.28-.55.07-1.14.31-1.54.61-1.56 1.15-3.05 2.36-4.64 3.6-1.59-1.25-3.06-2.44-4.58-3.59-.33-.25-.81-.44-1.26-.5-5.27-.67-10.55-1.32-15.83-1.97-1.56-.19-3.13-.38-4.73-.57zm21.12-1.76c.54-.83 1.04-1.61 1.59-2.46-5.8-2.35-11.51-4.68-17.42-7.08v6.85c5.21.88 10.45 1.77 15.83 2.68zm9.02-2.46c.56.87 1.08 1.66 1.59 2.46 5.38-.91 10.62-1.8 15.79-2.68v-6.84c-5.9 2.4-11.6 4.71-17.38 7.06"/></svg>