<svg viewBox="0 0 64 64" xmlns="http://www.w3.org/2000/svg"><path d="m54.01 42.02c2.69-1.03 4.82-2.46 6.51-4.37 3.26-3.7 3.71-6.92 3.39-11.24-.26-3.5-12.06-22.67-14.34-25.69-.44-.59-.74-.71-1.05-.71-.36.01-.49.14-.88.79l-.03.05c-1.44 2.4-9.12 21.5-13.25 31.76-1.26 3.12-2.26 5.62-2.82 6.98l-.42 1.03-1.66-.98c-.37-.22-.72-.42-1.06-.64-2.8-1.76-6.26-2.69-10.02-2.69-5.65 0-11.37 2.14-14.57 5.44-3.25 3.35-4.47 7.25-3.44 10.98 1.07 3.9 4.49 7.27 9.63 9.47 2.8 1.2 5.69 1.81 8.59 1.81 6.04 0 11.32-2.62 14.5-7.19 1.21-1.74 8.09-18.75 12.64-30 2.11-5.21 3.77-9.32 4.5-11.01l.92-2.14.94 2.14c.55 1.26 3.06 7.63 3.4 9.73.64 3.91-1.03 7.23-4.93 9.88l-.35.23c-.51.34-1 .67-1.39 1.03-1.36 1.27-1.36 3.7 0 5.01 1.18 1.13 2.94 1.23 5.22.35" fill-rule="evenodd"/></svg>