<svg xmlns="http://www.w3.org/2000/svg" xml:space="preserve" viewBox="0 0 64 64"><path d="M0 47.233c.036-.386.255-.553.627-.667 4.104-1.264 7.804-.439 11.147 2.156 1.993 1.547 3.654 3.407 4.925 5.595.428.736.777 1.511.833 2.387.06.938-.32 1.401-1.268 1.476-.995.078-1.922-.184-2.812-.599-2.194-1.025-3.908-2.628-5.395-4.503-.104-.131-.213-.259-.362-.44l-2.36 1.757c.953 1.038 1.801 2.056 2.749 2.971 1.393 1.345 2.978 2.43 4.811 3.106 1.191.439 2.412.711 3.699.581 2.757-.28 4.212-2.485 3.743-5.09-.379-2.109-1.492-3.843-2.793-5.487-1.231-1.555-2.583-2.986-4.171-4.178-3.013-2.261-6.377-3.381-10.17-3.081-.287.023-.575.029-.951.047.127-.156.197-.259.284-.346q5.615-5.54 11.231-11.078c1.041-1.027 2.044-2.096 3.139-3.062.362-.319.943-.45 1.447-.537 2.044-.352 3.919.252 5.689 1.191 2.475 1.313 4.57 3.104 6.444 5.186 1.855 2.061 3.449 4.292 4.738 6.742.616 1.17 1.053 2.392.982 3.755-.033.628-.227 1.109-.695 1.567-4.028 3.94-8.029 7.907-12.039 11.864-1.284 1.267-2.563 2.541-3.86 3.795-1.212 1.172-2.722 1.502-4.338 1.39-3.321-.231-6.057-1.81-8.552-3.868a20.6 20.6 0 0 1-4.913-5.876C.951 52.451.321 50.816.088 49.052c-.013-.097-.06-.19-.09-.285q.003-.766.002-1.534M64 16.869c-.07.278-.143.555-.209.834a5.1 5.1 0 0 1-1.424 2.494q-5.224 5.14-10.444 10.284c-.616.607-1.231 1.216-1.892 1.869-.23-.706-.427-1.334-.639-1.956-.716-2.097-1.821-3.985-3.11-5.775-1.57-2.18-3.422-4.1-5.457-5.84-1.892-1.618-3.923-3.047-6.145-4.186-.738-.378-1.488-.733-2.218-1.091.661-.685 1.293-1.369 1.955-2.022 3.283-3.244 6.575-6.479 9.861-9.72C45.52.535 47.049.155 48.728.265c2.987.196 5.518 1.525 7.837 3.296 2.535 1.936 4.572 4.31 6.012 7.173a14 14 0 0 1 1.325 4.06c.019.114.065.224.099.336z"/><path d="M47.133 38.525c1.176.251 2.318.445 3.433.742 2.83.754 5.312 2.092 7.134 4.465 1.314 1.71 1.967 3.676 2.191 5.797.066.625.078 1.257.085 1.886.002.14-.082.356-.19.41-1.746.877-3.502 1.734-5.306 2.62-.139-.839-.243-1.622-.401-2.395-.593-2.911-1.655-5.616-3.63-7.888-1.055-1.213-2.285-2.212-3.866-2.772q.155.243.308.49c1.508 2.462 2.562 5.073 2.576 8.012.013 2.858-1.027 5.314-2.923 7.418-.5.555-1.053 1.063-1.61 1.562-.134.12-.418.215-.564.155-1.789-.744-3.565-1.518-5.335-2.281.752-.957 1.534-1.853 2.206-2.825 2.139-3.095 3.467-6.438 2.937-10.299-.028-.203-.157-.565-.216-.56-.254.019-.561.083-.738.249a94 94 0 0 0-2.669 2.604c-.669.675-1.31 1.378-1.964 2.068l-.141-.112c.102-.272.208-.543.306-.816.681-1.89.382-3.743-.322-5.534-1.042-2.652-2.645-4.98-4.411-7.195-1.458-1.829-3.06-3.524-4.895-4.978-2.509-1.988-5.221-3.574-8.472-4.009-.03-.004-.057-.03-.168-.091.336-.349.649-.689.978-1.012 2.74-2.697 5.487-5.388 8.218-8.093.254-.251.455-.316.801-.208 2.324.724 4.365 1.975 6.322 3.375 3.145 2.25 5.85 4.939 7.934 8.211 1.743 2.735 2.902 5.665 2.677 8.99-.043.672-.186 1.339-.285 2.014"/></svg>