<svg viewBox="0 0 64 64" xmlns="http://www.w3.org/2000/svg"><path d="m0 31.91v-2.4c.15-.13.16-.31.18-.48.12-.98.24-1.97.37-2.95.1-.77.3-.96 1.05-1.1 1.82-.33 3.64-.67 5.47-.98.67-.11 1.1-.44 1.33-1.08.21-.57.43-1.14.7-1.68.33-.66.21-1.2-.23-1.76-1.11-1.42-2.2-2.87-3.28-4.31-.43-.57-.43-.83.02-1.38 1.1-1.38 2.21-2.75 3.31-4.12.34-.42.66-.51 1.18-.32.25.09.5.2.74.3 1.56.65 3.12 1.29 4.68 1.94.55.23 1.06.21 1.55-.16.32-.24.64-.49.99-.68.9-.46 1.05-1.19.95-2.13-.18-1.66-.29-3.33-.41-5-.06-.79.11-1.03.86-1.28 1.64-.55 3.29-1.1 4.93-1.65.75-.25.98-.18 1.43.46q1.65 2.34 3.27 4.71c.31.45.69.67 1.23.63.53-.03 1.06-.08 1.6-.07.46 0 .75-.2.96-.59.31-.59.63-1.17.95-1.76.73-1.36 1.46-2.71 2.18-4.07h1.16c.13.2.34.22.54.27 1.27.31 2.53.61 3.8.91 1.67.4 1.68.41 1.7 2.12.01 1.69.07 3.37.18 5.05.03.47.23.82.64 1.05.39.22.78.43 1.16.66.5.3.96.27 1.46-.02 1.63-.93 3.28-1.83 4.93-2.75.68-.38.95-.35 1.49.2 1.24 1.26 2.46 2.52 3.7 3.78.62.64.66.91.2 1.68-.91 1.53-1.79 3.07-2.72 4.58-.38.61-.44 1.16-.04 1.78.22.33.39.7.58 1.05.24.47.62.67 1.15.7 1.92.11 3.84.24 5.76.37.71.05.97.27 1.12.96l.96 4.38c.05.21.05.45.26.59v1.16c-.42.22-.83.46-1.25.67-1.48.75-2.96 1.5-4.45 2.22-.52.25-.81.62-.84 1.2-.02.47-.03.95-.1 1.42-.1.69.12 1.19.69 1.6 1.55 1.12 3.08 2.26 4.61 3.4.52.38.61.69.39 1.27-.6 1.66-1.21 3.31-1.82 4.96-.24.65-.48.81-1.17.75-.65-.05-1.3-.14-1.94-.21-1.19-.13-2.38-.25-3.58-.39-.65-.08-1.15.12-1.51.7-.3.48-.64.93-.99 1.36-.46.56-.49 1.12-.23 1.78.66 1.68 1.3 3.37 1.94 5.06.31.82.24 1.06-.45 1.6l-3.78 2.88c-.69.52-.93.52-1.6-.02-1.43-1.15-2.86-2.3-4.28-3.46-.43-.35-.88-.43-1.4-.22-.71.29-1.43.57-2.16.82-.63.21-.96.61-1.09 1.26-.36 1.84-.76 3.68-1.16 5.52-.14.67-.37.87-1.05.94-.59.06-1.18.13-1.77.18-.17.02-.32.04-.44.18h-3.38c-.41-.56-.57-1.23-.79-1.87-.46-1.36-.93-2.72-1.35-4.09-.21-.7-.6-1.11-1.34-1.23-.79-.13-1.57-.31-2.34-.52-.63-.17-1.11 0-1.56.46-1.28 1.34-2.59 2.65-3.89 3.97-.5.51-.81.55-1.42.21l-4.14-2.34c-.65-.37-.75-.62-.57-1.35.45-1.8.9-3.59 1.38-5.38.17-.61.05-1.1-.39-1.54-.63-.63-1.26-1.26-1.86-1.91-.4-.42-.83-.55-1.4-.41-1.8.43-3.61.82-5.42 1.23-.71.16-.97.06-1.31-.57-.76-1.44-1.5-2.89-2.24-4.35-.29-.58-.2-.94.28-1.38l4.2-3.9c.33-.31.53-.68.44-1.15-.17-.95-.34-1.9-.52-2.84-.08-.41-.31-.71-.7-.86-2.09-.76-4.18-1.51-6.27-2.27zm32.03 18.76c10.33 0 18.71-8.35 18.72-18.67 0-10.39-8.34-18.76-18.71-18.77-10.36 0-18.71 8.35-18.71 18.71s8.34 18.72 18.7 18.72z"/><circle cx="32.02" cy="32" r="12.58"/></svg>