<svg viewBox="0 0 64 64" xmlns="http://www.w3.org/2000/svg"><path d="m32 0c-17.67 0-32 14.33-32 32s14.33 32 32 32 32-14.33 32-32-14.33-32-32-32m17.36 40.88a8.7 8.7 0 01-3.28 2.73c-2.33 1.19-5.02 1.54-7.61 1.36-.38-.03-.79-.2-1.14.04-.1.17-.14.4.02.56.38.31 5.71 3.6 6.18 3.98.16.12.4.25.34.49-.1.53-.7.73-1.17.75-1.16-.02-20.54 0-21.49 0-.36-.05-.78-.16-.98-.49-.12-.16-.18-.44.01-.58.46-.35 6.05-3.84 6.43-4.18.22-.26-.03-.66-.35-.65-.54.03-1.07.16-1.62.13-1.58.05-3.18-.12-4.7-.57-1.74-.53-3.43-1.38-4.67-2.72a7.7 7.7 0 01-1.87-3.32c-.63-2.04-.09-4.23.8-6.11 1.08-2.17 2.49-4.16 4.02-6.03 1.93-2.38 4.11-4.54 6.28-6.7.69-.67 3.81-3.43 4.62-4.19.89-.79 1.77-1.6 2.83-2.15.81.42 1.51 1.02 2.21 1.61.94.87 5.46 4.94 6.68 6.2 2.34 2.32 4.59 4.75 6.51 7.44.87 1.24 1.7 2.52 2.36 3.89.69 1.49 1.17 3.14 1.03 4.8-.16 1.34-.64 2.64-1.43 3.73z"/></svg>