<svg viewBox="0 0 64 64" xmlns="http://www.w3.org/2000/svg"><path d="m63.99 45.18c-.12-1.36-.76-2.51-1.97-3.39-1.17-.85-2.6-.96-4.18-1.06.89-1.39 1.6-2.66 2.48-3.82.76-1 .41-1.49-.65-2.01-2.01-.96-3.95-2.02-6.17-3.17 2.22-1.15 4.15-2.18 6.11-3.15.83-.41.96-.8.46-1.54-1-1.46-1.9-2.97-2.89-4.54 3.44-.1 5.44-1.34 6.04-3.58.52-1.94-.54-4.08-2.52-5.01-1.36-.64-2.81-.67-4.25-.25-1.51.44-2.31 1.6-3.18 2.79-.73-1.14-1.35-2.14-1.99-3.13-1.59-2.43-1.03-2.06-3.4-.89-1.81.9-3.59 1.84-5.39 2.77-.4-2.06-.16-4.14-.16-6.2 0-.99-.25-1.35-1.42-1.29-1.89.09-3.8.02-5.86.02 1.77-2.81 1.63-4.95-.24-6.51-1.72-1.44-4.08-1.63-6.05-.48-1.31.77-2 1.88-2.24 3.24-.24 1.35.6 2.47 1.26 3.75-1.95 0-3.71.04-5.47-.02-.88-.03-1.18.23-1.16 1.03.05 1.8-.02 3.61.03 5.42.03 1-.18 1.34-1.29.72-1.65-.93-3.39-1.73-5.03-2.67-.81-.47-1.21-.41-1.68.38-.93 1.56-1.98 3.07-3.04 4.7-1.59-2.75-3.89-3.78-6.48-3.05-2.18.63-3.91 2.91-3.63 4.8.35 2.4 2.56 3.88 6.3 4.11-.82 1.28-1.53 2.54-2.41 3.7-.76 1.01-.82 1.59.57 2.2 2.07.92 4.01 2.06 6.01 3.1-1.64 1.34-3.69 2.08-5.57 3.05-1.03.53-1.22.99-.58 1.9.96 1.36 1.8 2.79 2.74 4.27-3.95.39-5.66 1.55-6.08 3.99-.35 2.01.87 4 2.96 4.78 1.1.41 2.23.47 3.39.19 1.69-.41 2.66-1.56 3.54-3 .8 1.25 1.58 2.29 2.17 3.42.72 1.4 1.45 1.87 3.09.83 1.83-1.16 3.89-2.03 5.84-3.02 0 1.36.03 2.73.03 4.09q0 3.6 3.9 3.58c.43 0 .85.03 1.28 0 1.49-.11 2.16.04 1.19 1.6-1.12 1.81-.37 4.03 1.43 5.25 1.89 1.28 4.17 1.23 6.01-.14 1.85-1.37 2.24-3.26.98-5.6-.48-.89-.32-1.16.72-1.16 1.34 0 2.68-.1 4.01 0 1.25.09 1.48-.36 1.49-1.39.02-2.11-.38-4.23.11-6.34 1.87 1.33 4.1 2.13 6.06 3.31 1.03.62 1.47.24 1.95-.56.88-1.45 1.82-2.86 2.79-4.37 1.83 2.72 3.91 3.63 6.42 2.93 2.26-.63 3.81-2.54 3.64-4.58zm-34.92-14.54c.92-.55 1.85-1.09 2.77-1.64-1.44-.78-2.91-1.52-4.33-2.32 1.43.8 2.89 1.54 4.34 2.32.17.06.33.12.5.17 2.33.7 3.2 2.14 2.7 4.28 2.12-1.04 4.23-2.1 6.36-3.12-2.13 1.03-4.24 2.08-6.36 3.12-.41.22-.85.42-1.24.67-1.13.73-2.24.97-3.43.06-.3-.23-.67-.5-1.15-.31-.25 1.63-.15 3.26-.12 4.9-.03-1.63-.13-3.27.12-4.9-.58-1.06-.39-2.14-.15-3.23z"/></svg>