<svg viewBox="0 0 64 64" xmlns="http://www.w3.org/2000/svg"><path d="m25.48 24.62c-.05 0-.11.01-.15.05.05-.04.1-.05.15-.05"/><path d="m0 32.94c3.36.01 6.72.02 10.08.05.32 0 .43-.19.54-.54.69-2.08 1.42-4.14 2.09-6.23.21-.67.51-1.08 1.06-1.1.57-.02.87.43 1.08 1.08 1.35 4.32 2.72 8.64 4.08 12.96.32 1.02.64 2.03 1.02 3.22.87-2.73 1.68-5.28 2.5-7.84.06-.18.12-.36.17-.53.17-.57.5-.93.95-.98s.8.26 1.03.79c.43.97.88 1.93 1.37 3.01.51-2.22 1-4.3 1.47-6.38.84-3.71 1.67-7.42 2.51-11.13 1.17-5.2 2.34-10.39 3.52-15.59.2-.9.42-1.8.64-2.7.18-.75.59-1.09 1.16-1 .59.09.89.59.91 1.36.05 1.94.09 3.88.13 5.82.13 5.57.25 11.13.38 16.7.08 3.57.17 7.15.25 10.72.13 5.18.26 10.36.39 15.69.32-.76.34-1.5.46-2.19.75-4.6 1.48-9.21 2.2-13.82.11-.68.46-1.11.78-1.58 1.61-2.42 3.24-4.83 4.86-7.25.33-.5.71-.82 1.22-.67.46.13.69.57.83 1.15.76 3.14 1.54 6.27 2.36 9.59.3-1.31.58-2.44.8-3.58.13-.69.39-1.18.92-1.32s.89.24 1.16.79c.36.72.72 1.43 1.06 2.17.18.39.34.47.55.05.28-.56.71-.66 1.17-.66 2.6 0 5.19 0 7.79-.01.37 0 .51.1.52.64.03 2.16.04 2.16-1.63 2.16-1.96 0-3.92.01-5.87-.01-.4 0-.69.1-.9.58-.16.36-.36.68-.57.99-.54.79-1.24.76-1.72-.09-.33-.57-.61-1.19-1-1.94-.26 1.17-.49 2.18-.72 3.19-.16.69-.31 1.38-.47 2.07-.16.68-.49 1.08-1.06 1.08-.56 0-.83-.42-.99-1.07-.89-3.61-1.78-7.22-2.68-10.83-.06-.23-.13-.45-.2-.74-.53.44-.81 1.11-1.2 1.64-.5.67-.89 1.51-1.43 2.11-1.5 1.65-1.8 3.95-2.16 6.26-1.02 6.59-2.09 13.17-3.14 19.76-.2 1.25-.39 2.5-.59 3.74-.08.48-.14.99-.52 1.27-.77.57-1.57 0-1.62-1.22-.07-2.05-.11-4.1-.15-6.15-.13-5.59-.25-11.19-.39-16.79-.08-3.43-.17-6.87-.25-10.3-.13-5.65-.25-11.3-.39-16.95-.01-.6-.07-1.2-.19-1.82-.27 1.18-.55 2.36-.81 3.54l-2.91 12.81c-1.02 4.51-2.05 9.01-3.07 13.52-.13.59-.32 1.09-.84 1.2-.56.12-.93-.22-1.21-.83-.48-1.07-.97-2.14-1.5-3.3-.8 2.5-1.56 4.9-2.33 7.29-.17.54-.34 1.07-.5 1.61-.19.63-.53 1-1.06.99-.51 0-.81-.42-.99-1-1.58-5.01-3.16-10.02-4.73-15.03-.13-.4-.25-.8-.42-1.34-.56 1.65-1.09 3.14-1.57 4.67-.25.78-.65 1.09-1.27 1.09-3.64-.01-7.28 0-10.92 0v-2.83z"/></svg>