<svg viewBox="0 0 64 64" xmlns="http://www.w3.org/2000/svg"><path d="m12.63 14.51h5.58v5.62h-5.58zm0 32.81v-24.71h5.58v24.71zm39.67-24.75v6.01c0 .85-.14 1.58-.43 2.17 1.11 1.17 1.66 2.51 1.66 4.05v6.6c0 1.65-.58 3.05-1.75 4.2-1.16 1.15-2.57 1.73-4.22 1.73h-24.71v-30.68h23.52c1.62 0 3.01.58 4.18 1.73 1.16 1.15 1.75 2.55 1.75 4.2zm-5.92-.3h-17.63c-.14 0-.26.12-.26.26v6.04q0 .3.3.3h17.59c.17 0 .26-.1.26-.3v-6.01c0-.2-.08-.3-.26-.3zm1.49 19.13v-6.61c0-.17-.1-.26-.3-.26h-18.79c-.2 0-.3.08-.3.26v6.63c0 .14.12.26.26.26h18.86c.14 0 .26-.12.26-.26v-.03z"/><path d="m32 0c-17.65 0-32 14.35-32 32s14.35 32 32 32c4.46 0 8.87-.93 12.94-2.75a6.3 6.3 0 01-1.44-2.21 6.8 6.8 0 01-.43-1.72 27.6 27.6 0 01-11.07 2.34c-15.25 0-27.67-12.41-27.67-27.67s12.41-27.66 27.67-27.66 27.67 12.41 27.67 27.67c0 2.2-.63 5.92-.75 6.39s-.22.61-.22.95c0 1.2.99 2.19 2.19 2.19 1.02 0 1.72-.32 2.12-1.59.41-1.27.99-5.2.99-7.94 0-17.65-14.35-32-32-32"/></svg>