<svg viewBox="0 0 64 64" xmlns="http://www.w3.org/2000/svg"><path d="m26.12 32.62c-.81 1.21-1.58 2.37-2.35 3.53-.63.94-1.27 1.87-1.87 2.84-.29.48-.43.42-.7-.01-1.32-2.07-2.66-4.12-4-6.17-.03-.04-.08-.06-.16-.13-.92 1.42-1.81 2.85-2.76 4.24-1.35 1.97-3.31 2.87-5.6 3.06-1.85.15-3.66-.09-5.22-1.24-2.2-1.62-3.45-3.71-3.46-6.57-.01-2.93 1.09-5.26 3.45-6.8 3.05-1.99 6.22-1.72 9.17.12.58.36.99.98 1.49 1.47.18.18.21.37.07.59-.78 1.23-1.56 2.46-2.34 3.68-.04.06-.13.08-.26.15-.34-1.27-1.09-2.15-2.28-2.64-1.41-.57-2.69-.18-3.73.78-.9.83-1.37 1.99-1.06 3.26.5 2.05 2.14 3.2 3.82 3.06 1.27-.11 2.18-.82 2.82-1.83 1.89-2.95 3.71-5.94 5.57-8.9.54-.86.61-.83 1.12 0 1.15 1.85 2.33 3.69 3.52 5.52.17.26.31.56.64 0 1.18-1.96 2.47-3.86 3.67-5.81.35-.57.46-.49.78.02 1.38 2.18 2.81 4.34 4.29 6.61 1.53-2.39 3-4.7 4.57-7.16 1.65 2.32 3.25 4.56 4.89 6.87.5-.37.73-.96 1.06-1.45 1.06-1.62 2.09-3.27 3.12-4.91.27-.44.37-.49.73.01 1.23 1.74 2.27 3.6 3.43 5.39 1.34 2.07 2.98 3.9 4.4 5.9.15.21.28.26.53.08.8-.59 1.63-1.13 2.44-1.69.38-.26.26-.43-.07-.65-1.9-1.31-3.78-2.64-5.68-3.96-.89-.62-.87-.7-.03-1.35 1.64-1.27 3.26-2.57 4.87-3.87.48-.39.95-.62 1.6-.61 2.39.04 4.78.02 7.39.02-1.16.91-2.14 1.69-3.14 2.44-1.01.75-2.03 1.49-3.07 2.2-.47.32-.25.53.03.74 1.2.9 2.42 1.78 3.63 2.68.73.55 1.44 1.13 2.17 1.68.37.28.39.47-.03.77-1.95 1.43-3.91 2.85-5.78 4.38-.62.51-1.22.5-1.9.53-2.09.1-4.18-.16-6.27-.16-.78 0-.97-.68-1.26-1.11-1.05-1.53-1.98-3.14-2.94-4.74-.53-.89-.6-.9-1.17-.08-1.26 1.85-2.56 3.67-3.78 5.54-.45.69-.62.21-.84-.1-1.26-1.85-2.53-3.69-3.73-5.58-.42-.67-.54-.57-.93.02-1.25 1.89-2.58 3.72-3.83 5.61-.37.55-.56.42-.84 0-1.03-1.55-2.07-3.09-3.1-4.63-.34-.51-.69-1.02-1.11-1.63z"/><path d="m44.89 39.15c-.93 0-1.86-.02-2.78 0-.58.01-.6-.23-.34-.63.93-1.45 1.86-2.9 2.8-4.35.21-.33.38-.04.48.1 1.02 1.46 2.03 2.92 3.02 4.4.22.33.06.49-.32.49h-2.87zm-27.9-5.21c1.1 1.59 2.15 3.09 3.18 4.59.28.41.22.63-.34.63-1.85-.02-3.7-.01-5.54 0-.49 0-.68-.09-.34-.6 1-1.49 1.98-3 3.04-4.62"/></svg>