<svg viewBox="0 0 64 64" xmlns="http://www.w3.org/2000/svg"><path d="m63.046 28.485c-1.492-2.706-3.755-4.399-6.23-5.715-1.813-.965-3.726-1.693-5.605-2.479-.567-.238-.782-.457-.614-1.221.574-2.658.943-5.356 1.006-8.117-.13-1.353-.228-2.713-.404-4.063-.084-.654-.289-1.298-.486-1.927-1.09-3.503-3.411-5.196-6.684-4.859-1.817.19-3.459.991-5.046 1.949-2.413 1.459-4.53 3.368-6.519 5.463-.402.424-.665.607-1.126.058-.574-.684-1.236-1.28-1.887-1.876-2.673-2.442-5.463-4.636-8.925-5.492-2.969-.738-5.59.519-6.965 3.543-1.371 3.009-1.463 6.253-1.144 9.518.201 2.04.559 4.066.874 6.092.081.512-.015.753-.482.918-1.097.38-2.19.793-3.254 1.276-2.782 1.265-5.43 2.794-7.51 5.313-1.667 2.022-2.541 4.318-1.748 7.079.581 2.033 1.846 3.532 3.32 4.815 2.625 2.282 5.638 3.686 8.771 4.808 1.148.413 1.137.388.863 1.737-.728 3.576-1.13 7.188-.709 10.852.128 1.123.369 2.256.731 3.313 1.115 3.229 3.346 4.651 5.92 4.523 1.912-.091 3.675-.826 5.342-1.839 2.49-1.506 4.713-3.426 6.742-5.624.475-.516.761-.428 1.207.011 1.218 1.188 2.424 2.402 3.726 3.462 2.45 2 5.042 3.697 8.176 3.938 2.19.172 4.004-.662 5.283-2.702 1.583-2.526 1.799-5.452 1.77-8.406-.026-2.64-.369-5.24-.921-7.81-.205-.958-.157-.947.676-1.305 1.919-.819 3.868-1.576 5.722-2.56 2.395-1.272 4.581-2.94 6.051-5.517 1.332-2.341 1.395-4.757.079-7.156m-29.32-19.138c2.468-2.666 5.075-5.111 8.351-6.442 1.47-.596 2.98-.779 4.461-.015 1.466.761 2.212 2.201 2.567 3.861.285 1.342.369 2.735.541 4.106-.066 2.724-.534 5.349-1.064 7.967-.095.461-.285.581-.709.497-2.676-.516-5.36-.987-8.033-1.517-.355-.07-.761-.3-.991-.603-1.718-2.293-3.393-4.633-5.108-6.936-.268-.358-.337-.574-.015-.918m-15.474 25.844c.091.011.179.018.271.029l4.278 8.333c-.973-.124-1.817-.198-2.647-.347-1.177-.216-2.34-.497-3.514-.735-.336-.069-.556-.219-.428-.64.673-2.216 1.36-4.428 2.04-6.64m-1.119-9.781c-.344-1.02-.633-2.062-.947-3.097-.11-.347-.121-.665.282-.739 2.048-.38 4.099-.742 6.15-1.108.033-.007.077.04.183.102-1.419 2.772-2.837 5.536-4.358 8.501-.48-1.33-.918-2.485-1.31-3.659m2.688 6.943c-.091-.216-.055-.592.055-.815a580 580 0 013.967-8.07 33 33 0 011.653-2.874c.176-.271.556-.519.848-.53a279 279 0 018.018-.216c1.082-.011 2.165.091 3.24.223.278.033.629.289.775.559 1.576 2.929 3.122 5.876 4.673 8.823.201.384.344.808.567 1.177.57.95.497 1.854-.011 2.819-1.689 3.196-3.349 6.413-5.013 9.631-.311.6-.676.925-1.357.936-1.722.026-3.44.161-5.115.249-1.974-.095-3.898-.172-5.817-.3-.241-.015-.552-.212-.691-.435a78 78 0 01-5.792-11.177m25.601 2.516c.658 2.037 1.294 3.876 1.846 5.748.537 1.836.856 1.7-1.163 2.102-1.433.285-2.874.519-4.311.768-.212.037-.431.048-.786.084 1.471-2.899 2.886-5.682 4.414-8.702m-.121-5.964-4.38-8.486c1.477.23 2.826.424 4.168.658.742.128 1.474.329 2.212.486.337.07.552.223.406.651q-1.069 3.16-2.154 6.315c-.043.124-.149.223-.252.376m-13.754-16.994c.197-.263.42-.508.698-.128 1.294 1.755 2.578 3.517 3.865 5.28.022.029.011.095.037.307h-8.557c.113-.216.187-.41.3-.563q1.822-2.452 3.657-4.896m-16.443-6.304c1.06-2.783 3.071-3.598 5.594-3.02 1.803.413 3.43 1.331 4.878 2.578 1.525 1.313 2.973 2.728 4.457 4.095.322.3.318.549.04.925-1.73 2.351-3.422 4.735-5.159 7.075-.212.285-.607.486-.943.552-2.607.527-5.225.991-7.828 1.528-.549.113-.757-.044-.87-.622-.523-2.669-1.035-5.335-.936-8.022-.056-1.802.157-3.484.767-5.089m-1.619 35.986c-3.397-1.108-6.68-2.479-9.36-5.196-1.09-1.104-1.905-2.42-1.967-4.157-.073-1.952.804-3.408 2.011-4.658 1.766-1.832 3.89-2.987 6.106-3.945.929-.399 1.879-.731 2.819-1.09.168-.062.34-.106.647-.201.102.143.281.307.355.516a1026 1026 0 012.994 8.815c.081.249.095.585.015.83-.965 2.87-1.963 5.729-2.925 8.607-.143.417-.253.625-.695.479m16.647 13.174c-2.274 2.377-4.633 4.625-7.536 5.986-.863.406-1.806.717-2.739.819-2.936.322-4.333-1.433-4.94-4.11-.322-1.404-.384-2.881-.563-4.325.095-2.724.501-5.356 1.049-7.974.091-.428.263-.559.655-.483 2.632.512 5.272.987 7.901 1.525.351.069.735.333.965.64 1.751 2.333 3.459 4.702 5.199 7.05.243.324.312.558.009.872m1.74-2.106c-1.477-2.004-2.9-3.931-4.322-5.857l.117-.198h8.691c-1.411 2.197-2.819 4.117-4.486 6.055m16.834 5.872c-1.163 2.907-3.419 3.583-5.912 2.812-3.631-1.119-6.373-3.832-9.049-6.636-.311-.325-.223-.545.015-.867 1.74-2.366 3.463-4.753 5.21-7.119.164-.227.439-.439.691-.486 2.695-.516 5.4-.98 8.099-1.496.468-.088.691.015.805.549.556 2.611.973 5.24.958 8.267.013 1.495-.137 3.287-.817 4.976m10.95-22.066c-2.347 2.384-5.214 3.675-8.172 4.746-.421.15-.845.289-1.269.435-.304.11-.457.025-.581-.351-.976-2.947-1.985-5.883-2.965-8.83-.073-.219-.051-.53.026-.757.983-2.918 1.996-5.828 2.969-8.75.157-.475.355-.662.779-.512 2.87 1.017 5.708 2.121 8.161 4.165 1.038.859 2.022 1.795 2.556 3.155.278.709.439 1.481.651 2.223-.129 1.916-.996 3.302-2.155 4.476"/><path d="m31.941 36.477c2.212-.004 3.96-2 3.949-4.519-.007-2.42-1.813-4.424-3.993-4.424-2.135 0-3.975 2.07-3.975 4.468.001 2.453 1.818 4.478 4.019 4.475"/></svg>