<svg clip-rule="evenodd" fill-rule="evenodd" stroke-linejoin="round" stroke-miterlimit="2" viewBox="0 0 64 64" xmlns="http://www.w3.org/2000/svg"><path d="m0 32c0-17.555 14.445-32 32-32s32 14.445 32 32-14.445 32-32 32-32-14.445-32-32zm32 4c-2.194 0-4-1.806-4-4s1.806-4 4-4 4 1.806 4 4-1.806 4-4 4zm-12-4c0 6.583 5.417 12 12 12s12-5.417 12-12-5.417-12-12-12-12 5.417-12 12zm-8-2c0-4.375 2.188-8.888 5.65-12.35 3.462-3.463 7.975-5.65 12.35-5.65 1.1 0 2-.9 2-2s-.9-2-2-2c-5.675 0-11.15 2.788-15.188 6.813-4.037 4.024-6.812 9.512-6.812 15.187 0 1.1.9 2 2 2s2-.9 2-2z" fill-rule="nonzero"/></svg>