<svg viewBox="0 0 64 64" xmlns="http://www.w3.org/2000/svg"><path d="m0 34.75v-5.49c.04-.06.11-.12.12-.19.13-.95.24-1.91.38-2.85.43-2.86 1.37-5.56 2.62-8.16 1.22-2.53 2.69-4.92 4.64-6.96 1.44-1.51 2.89-3.03 4.5-4.34 2.35-1.91 4.99-3.38 7.81-4.51 3.08-1.23 6.26-2.02 9.56-2.19 3.15-.16 6.29-.04 9.41.69 3.25.76 6.31 1.92 9.18 3.6 3.07 1.8 5.75 4.09 8.08 6.79 1.63 1.88 3.01 3.92 4.17 6.11 1.06 2 1.94 4.1 2.44 6.3.47 2.04.85 4.12 1.03 6.21.15 1.77.03 3.57-.11 5.34a31 31 0 01-.69 4.41c-.72 3.2-1.98 6.19-3.67 9.01-2.04 3.41-4.67 6.31-7.78 8.77-2.36 1.87-4.96 3.34-7.77 4.46-3.08 1.23-6.26 2.01-9.55 2.19-2.74.14-5.48.09-8.21-.44-2.8-.54-5.49-1.38-8.05-2.6a30.6 30.6 0 01-7.09-4.68c-1.94-1.72-3.69-3.58-5.2-5.69a31 31 0 01-3.9-7.32c-.83-2.23-1.44-4.54-1.69-6.92-.05-.52-.16-1.03-.24-1.54zm56.25-6.56c-1.23-6.52-4.28-11.79-9.53-15.74-5.26-3.96-11.19-5.5-17.69-4.78-10.26 1.14-19.57 9.29-21.23 20.58 1.77-.21 3.5-.39 5.23-.62 3.35-.43 6.47-1.58 9.5-3.01 2.37-1.12 4.74-2.14 7.4-2.39 2.41-.22 4.79-.17 7.08.57 2 .65 3.9 1.62 5.87 2.39 1.55.61 3.11 1.21 4.71 1.66 1.56.44 3.17.74 4.78.99 1.25.2 2.54.22 3.88.33zm-29.29 27.78c.01-.16.03-.28.03-.41v-11.61c0-.12 0-.25-.02-.37-.33-1.81-1.15-3.35-2.53-4.58-1.39-1.24-2.96-2.01-4.87-2.01-3.62.01-7.24 0-10.87 0h-.69c1.66 8.78 8.9 16.93 18.94 18.97zm10.02 0c9.53-1.89 17.14-9.63 18.97-18.93-.16-.01-.32-.04-.48-.04h-11.49c-.4 0-.8.13-1.19.23-1.66.42-2.96 1.42-4.03 2.69-1.14 1.36-1.83 2.92-1.79 4.76.05 2.64.01 5.28.01 7.93zm.87-23.99c-.13-3.29-2.56-5.82-5.86-5.82-3.32 0-5.87 2.54-5.85 5.87.01 3.29 2.53 5.82 5.84 5.82 3.32 0 5.77-2.54 5.88-5.87z"/></svg>