<?xml version="1.0" encoding="UTF-8" standalone="no"?>
<!DOCTYPE svg PUBLIC "-//W3C//DTD SVG 1.1//EN" "http://www.w3.org/Graphics/SVG/1.1/DTD/svg11.dtd">
<svg width="100%" height="100%" viewBox="0 0 64 64" version="1.1" xmlns="http://www.w3.org/2000/svg" xmlns:xlink="http://www.w3.org/1999/xlink" xml:space="preserve" xmlns:serif="http://www.serif.com/" style="fill-rule:evenodd;clip-rule:evenodd;stroke-linejoin:round;stroke-miterlimit:2;">
    <g transform="matrix(0.1,0,0,0.1,0,8)">
        <path d="M192,64C192,28.7 220.7,0 256,0L576,0C611.3,0 640,28.7 640,64L640,288C640,323.3 611.3,352 576,352L256,352C220.7,352 192,323.3 192,288L192,64ZM320,96C320,78.445 305.555,64 288,64C270.445,64 256,78.445 256,96C256,113.555 270.445,128 288,128C305.555,128 320,113.555 320,96ZM476.5,107.5C472.1,100.4 464.4,96 456,96C447.6,96 439.9,100.4 435.5,107.5L381.5,195.8L363.6,170.2C359.1,163.8 351.8,160 343.9,160C336,160 328.7,163.8 324.2,170.2L268.2,250.2C263.1,257.5 262.4,267.1 266.6,275C270.8,282.9 279.1,288 288,288L544,288C552.7,288 560.7,283.3 564.9,275.7C569.1,268.1 569,258.9 564.4,251.4L476.4,107.4L476.5,107.5ZM144,128L144,288C144,349.9 194.1,400 256,400L448,400L448,416C448,451.3 419.3,480 384,480L64,480C28.7,480 0,451.3 0,416L0,192C0,156.7 28.7,128 64,128L144,128ZM52,196L52,220C52,228.8 59.2,236 68,236L92,236C100.8,236 108,228.8 108,220L108,196C108,187.2 100.8,180 92,180L68,180C59.2,180 52,187.2 52,196ZM68,276C59.2,276 52,283.2 52,292L52,316C52,324.8 59.2,332 68,332L92,332C100.8,332 108,324.8 108,316L108,292C108,283.2 100.8,276 92,276L68,276ZM68,372C59.2,372 52,379.2 52,388L52,412C52,420.8 59.2,428 68,428L92,428C100.8,428 108,420.8 108,412L108,388C108,379.2 100.8,372 92,372L68,372Z" style="fill-rule:nonzero;"/>
    </g>
</svg>
